G04 MADE WITH FRITZING*
G04 WWW.FRITZING.ORG*
G04 DOUBLE SIDED*
G04 HOLES PLATED*
G04 CONTOUR ON CENTER OF CONTOUR VECTOR*
%ASAXBY*%
%FSLAX23Y23*%
%MOIN*%
%OFA0B0*%
%SFA1.0B1.0*%
%ADD10C,0.255056*%
%ADD11R,0.001000X0.001000*%
%LNSILK0*%
G90*
G70*
G54D10*
X1379Y597D03*
G54D11*
X228Y1212D02*
X283Y1212D01*
X226Y1211D02*
X285Y1211D01*
X226Y1210D02*
X285Y1210D01*
X225Y1209D02*
X286Y1209D01*
X225Y1208D02*
X286Y1208D01*
X226Y1207D02*
X285Y1207D01*
X226Y1206D02*
X285Y1206D01*
X227Y1205D02*
X284Y1205D01*
X248Y1204D02*
X257Y1204D01*
X248Y1203D02*
X256Y1203D01*
X247Y1202D02*
X256Y1202D01*
X247Y1201D02*
X255Y1201D01*
X246Y1200D02*
X254Y1200D01*
X245Y1199D02*
X254Y1199D01*
X245Y1198D02*
X253Y1198D01*
X244Y1197D02*
X252Y1197D01*
X243Y1196D02*
X252Y1196D01*
X243Y1195D02*
X251Y1195D01*
X243Y1194D02*
X250Y1194D01*
X242Y1193D02*
X250Y1193D01*
X242Y1192D02*
X249Y1192D01*
X242Y1191D02*
X249Y1191D01*
X242Y1190D02*
X249Y1190D01*
X242Y1189D02*
X249Y1189D01*
X242Y1188D02*
X249Y1188D01*
X242Y1187D02*
X249Y1187D01*
X242Y1186D02*
X249Y1186D01*
X242Y1185D02*
X249Y1185D01*
X242Y1184D02*
X250Y1184D01*
X242Y1183D02*
X251Y1183D01*
X243Y1182D02*
X257Y1182D01*
X243Y1181D02*
X283Y1181D01*
X244Y1180D02*
X284Y1180D01*
X244Y1179D02*
X285Y1179D01*
X245Y1178D02*
X286Y1178D01*
X246Y1177D02*
X286Y1177D01*
X248Y1176D02*
X285Y1176D01*
X250Y1175D02*
X285Y1175D01*
X260Y1174D02*
X284Y1174D01*
X244Y1155D02*
X247Y1155D01*
X243Y1154D02*
X248Y1154D01*
X242Y1153D02*
X249Y1153D01*
X242Y1152D02*
X249Y1152D01*
X242Y1151D02*
X249Y1151D01*
X242Y1150D02*
X249Y1150D01*
X242Y1149D02*
X249Y1149D01*
X242Y1148D02*
X249Y1148D01*
X230Y1147D02*
X278Y1147D01*
X778Y1147D02*
X781Y1147D01*
X805Y1147D02*
X809Y1147D01*
X830Y1147D02*
X859Y1147D01*
X1078Y1147D02*
X1111Y1147D01*
X1204Y1147D02*
X1211Y1147D01*
X1281Y1147D02*
X1306Y1147D01*
X1408Y1147D02*
X1411Y1147D01*
X1485Y1147D02*
X1513Y1147D01*
X1585Y1147D02*
X1614Y1147D01*
X1696Y1147D02*
X1715Y1147D01*
X1991Y1147D02*
X2018Y1147D01*
X229Y1146D02*
X280Y1146D01*
X777Y1146D02*
X782Y1146D01*
X804Y1146D02*
X809Y1146D01*
X829Y1146D02*
X860Y1146D01*
X1078Y1146D02*
X1111Y1146D01*
X1204Y1146D02*
X1212Y1146D01*
X1280Y1146D02*
X1306Y1146D01*
X1407Y1146D02*
X1412Y1146D01*
X1483Y1146D02*
X1514Y1146D01*
X1584Y1146D02*
X1615Y1146D01*
X1696Y1146D02*
X1716Y1146D01*
X1989Y1146D02*
X2018Y1146D01*
X229Y1145D02*
X281Y1145D01*
X776Y1145D02*
X782Y1145D01*
X804Y1145D02*
X810Y1145D01*
X828Y1145D02*
X860Y1145D01*
X1078Y1145D02*
X1112Y1145D01*
X1203Y1145D02*
X1212Y1145D01*
X1280Y1145D02*
X1306Y1145D01*
X1406Y1145D02*
X1412Y1145D01*
X1482Y1145D02*
X1515Y1145D01*
X1583Y1145D02*
X1615Y1145D01*
X1696Y1145D02*
X1716Y1145D01*
X1988Y1145D02*
X2018Y1145D01*
X229Y1144D02*
X282Y1144D01*
X776Y1144D02*
X782Y1144D01*
X804Y1144D02*
X810Y1144D01*
X827Y1144D02*
X860Y1144D01*
X1078Y1144D02*
X1112Y1144D01*
X1203Y1144D02*
X1213Y1144D01*
X1280Y1144D02*
X1306Y1144D01*
X1406Y1144D02*
X1412Y1144D01*
X1482Y1144D02*
X1515Y1144D01*
X1582Y1144D02*
X1615Y1144D01*
X1696Y1144D02*
X1716Y1144D01*
X1987Y1144D02*
X2018Y1144D01*
X229Y1143D02*
X283Y1143D01*
X776Y1143D02*
X782Y1143D01*
X804Y1143D02*
X810Y1143D01*
X827Y1143D02*
X860Y1143D01*
X1078Y1143D02*
X1112Y1143D01*
X1203Y1143D02*
X1213Y1143D01*
X1280Y1143D02*
X1306Y1143D01*
X1406Y1143D02*
X1412Y1143D01*
X1481Y1143D02*
X1514Y1143D01*
X1582Y1143D02*
X1615Y1143D01*
X1696Y1143D02*
X1716Y1143D01*
X1986Y1143D02*
X2018Y1143D01*
X229Y1142D02*
X284Y1142D01*
X776Y1142D02*
X782Y1142D01*
X804Y1142D02*
X810Y1142D01*
X827Y1142D02*
X859Y1142D01*
X1078Y1142D02*
X1112Y1142D01*
X1204Y1142D02*
X1213Y1142D01*
X1281Y1142D02*
X1306Y1142D01*
X1406Y1142D02*
X1412Y1142D01*
X1481Y1142D02*
X1514Y1142D01*
X1582Y1142D02*
X1614Y1142D01*
X1696Y1142D02*
X1715Y1142D01*
X1986Y1142D02*
X2018Y1142D01*
X230Y1141D02*
X285Y1141D01*
X776Y1141D02*
X782Y1141D01*
X804Y1141D02*
X810Y1141D01*
X827Y1141D02*
X858Y1141D01*
X1078Y1141D02*
X1112Y1141D01*
X1206Y1141D02*
X1213Y1141D01*
X1282Y1141D02*
X1306Y1141D01*
X1387Y1141D02*
X1390Y1141D01*
X1406Y1141D02*
X1412Y1141D01*
X1481Y1141D02*
X1512Y1141D01*
X1582Y1141D02*
X1613Y1141D01*
X1696Y1141D02*
X1713Y1141D01*
X1985Y1141D02*
X2018Y1141D01*
X231Y1140D02*
X285Y1140D01*
X776Y1140D02*
X782Y1140D01*
X804Y1140D02*
X810Y1140D01*
X826Y1140D02*
X833Y1140D01*
X1078Y1140D02*
X1084Y1140D01*
X1106Y1140D02*
X1112Y1140D01*
X1207Y1140D02*
X1213Y1140D01*
X1300Y1140D02*
X1306Y1140D01*
X1386Y1140D02*
X1391Y1140D01*
X1406Y1140D02*
X1412Y1140D01*
X1481Y1140D02*
X1487Y1140D01*
X1582Y1140D02*
X1588Y1140D01*
X1696Y1140D02*
X1702Y1140D01*
X1985Y1140D02*
X1992Y1140D01*
X2012Y1140D02*
X2018Y1140D01*
X242Y1139D02*
X249Y1139D01*
X277Y1139D02*
X285Y1139D01*
X776Y1139D02*
X782Y1139D01*
X804Y1139D02*
X810Y1139D01*
X826Y1139D02*
X833Y1139D01*
X1078Y1139D02*
X1084Y1139D01*
X1107Y1139D02*
X1111Y1139D01*
X1207Y1139D02*
X1213Y1139D01*
X1300Y1139D02*
X1306Y1139D01*
X1386Y1139D02*
X1391Y1139D01*
X1406Y1139D02*
X1412Y1139D01*
X1481Y1139D02*
X1487Y1139D01*
X1582Y1139D02*
X1588Y1139D01*
X1696Y1139D02*
X1702Y1139D01*
X1985Y1139D02*
X1991Y1139D01*
X2012Y1139D02*
X2018Y1139D01*
X242Y1138D02*
X249Y1138D01*
X278Y1138D02*
X286Y1138D01*
X776Y1138D02*
X782Y1138D01*
X804Y1138D02*
X810Y1138D01*
X826Y1138D02*
X833Y1138D01*
X1078Y1138D02*
X1084Y1138D01*
X1109Y1138D02*
X1109Y1138D01*
X1207Y1138D02*
X1213Y1138D01*
X1300Y1138D02*
X1306Y1138D01*
X1385Y1138D02*
X1392Y1138D01*
X1406Y1138D02*
X1412Y1138D01*
X1481Y1138D02*
X1487Y1138D01*
X1582Y1138D02*
X1588Y1138D01*
X1696Y1138D02*
X1702Y1138D01*
X1984Y1138D02*
X1991Y1138D01*
X2012Y1138D02*
X2018Y1138D01*
X242Y1137D02*
X249Y1137D01*
X279Y1137D02*
X286Y1137D01*
X776Y1137D02*
X782Y1137D01*
X804Y1137D02*
X810Y1137D01*
X826Y1137D02*
X833Y1137D01*
X892Y1137D02*
X896Y1137D01*
X993Y1137D02*
X996Y1137D01*
X1078Y1137D02*
X1084Y1137D01*
X1207Y1137D02*
X1213Y1137D01*
X1300Y1137D02*
X1306Y1137D01*
X1385Y1137D02*
X1392Y1137D01*
X1406Y1137D02*
X1412Y1137D01*
X1481Y1137D02*
X1487Y1137D01*
X1582Y1137D02*
X1588Y1137D01*
X1696Y1137D02*
X1702Y1137D01*
X1984Y1137D02*
X1990Y1137D01*
X2012Y1137D02*
X2018Y1137D01*
X242Y1136D02*
X249Y1136D01*
X279Y1136D02*
X286Y1136D01*
X776Y1136D02*
X782Y1136D01*
X804Y1136D02*
X810Y1136D01*
X826Y1136D02*
X833Y1136D01*
X891Y1136D02*
X896Y1136D01*
X992Y1136D02*
X997Y1136D01*
X1078Y1136D02*
X1084Y1136D01*
X1207Y1136D02*
X1213Y1136D01*
X1300Y1136D02*
X1306Y1136D01*
X1385Y1136D02*
X1392Y1136D01*
X1406Y1136D02*
X1412Y1136D01*
X1481Y1136D02*
X1487Y1136D01*
X1582Y1136D02*
X1588Y1136D01*
X1696Y1136D02*
X1702Y1136D01*
X1984Y1136D02*
X1990Y1136D01*
X2012Y1136D02*
X2018Y1136D01*
X242Y1135D02*
X249Y1135D01*
X279Y1135D02*
X286Y1135D01*
X776Y1135D02*
X782Y1135D01*
X804Y1135D02*
X810Y1135D01*
X826Y1135D02*
X833Y1135D01*
X891Y1135D02*
X897Y1135D01*
X991Y1135D02*
X997Y1135D01*
X1078Y1135D02*
X1084Y1135D01*
X1207Y1135D02*
X1213Y1135D01*
X1300Y1135D02*
X1306Y1135D01*
X1385Y1135D02*
X1392Y1135D01*
X1406Y1135D02*
X1412Y1135D01*
X1481Y1135D02*
X1487Y1135D01*
X1582Y1135D02*
X1588Y1135D01*
X1696Y1135D02*
X1702Y1135D01*
X1984Y1135D02*
X1990Y1135D01*
X2012Y1135D02*
X2018Y1135D01*
X242Y1134D02*
X249Y1134D01*
X279Y1134D02*
X286Y1134D01*
X776Y1134D02*
X782Y1134D01*
X804Y1134D02*
X810Y1134D01*
X826Y1134D02*
X833Y1134D01*
X891Y1134D02*
X897Y1134D01*
X991Y1134D02*
X997Y1134D01*
X1078Y1134D02*
X1084Y1134D01*
X1207Y1134D02*
X1213Y1134D01*
X1300Y1134D02*
X1306Y1134D01*
X1385Y1134D02*
X1392Y1134D01*
X1406Y1134D02*
X1412Y1134D01*
X1481Y1134D02*
X1487Y1134D01*
X1582Y1134D02*
X1588Y1134D01*
X1696Y1134D02*
X1702Y1134D01*
X1984Y1134D02*
X1990Y1134D01*
X2012Y1134D02*
X2018Y1134D01*
X242Y1133D02*
X249Y1133D01*
X279Y1133D02*
X286Y1133D01*
X776Y1133D02*
X782Y1133D01*
X804Y1133D02*
X810Y1133D01*
X826Y1133D02*
X833Y1133D01*
X891Y1133D02*
X897Y1133D01*
X991Y1133D02*
X997Y1133D01*
X1078Y1133D02*
X1084Y1133D01*
X1207Y1133D02*
X1213Y1133D01*
X1300Y1133D02*
X1306Y1133D01*
X1385Y1133D02*
X1392Y1133D01*
X1406Y1133D02*
X1412Y1133D01*
X1481Y1133D02*
X1487Y1133D01*
X1582Y1133D02*
X1588Y1133D01*
X1696Y1133D02*
X1702Y1133D01*
X1984Y1133D02*
X1991Y1133D01*
X2012Y1133D02*
X2018Y1133D01*
X242Y1132D02*
X249Y1132D01*
X279Y1132D02*
X286Y1132D01*
X776Y1132D02*
X783Y1132D01*
X803Y1132D02*
X810Y1132D01*
X826Y1132D02*
X833Y1132D01*
X891Y1132D02*
X897Y1132D01*
X991Y1132D02*
X997Y1132D01*
X1078Y1132D02*
X1084Y1132D01*
X1207Y1132D02*
X1213Y1132D01*
X1300Y1132D02*
X1306Y1132D01*
X1385Y1132D02*
X1392Y1132D01*
X1406Y1132D02*
X1412Y1132D01*
X1481Y1132D02*
X1487Y1132D01*
X1582Y1132D02*
X1588Y1132D01*
X1696Y1132D02*
X1702Y1132D01*
X1985Y1132D02*
X1991Y1132D01*
X2012Y1132D02*
X2018Y1132D01*
X242Y1131D02*
X249Y1131D01*
X279Y1131D02*
X286Y1131D01*
X776Y1131D02*
X783Y1131D01*
X803Y1131D02*
X810Y1131D01*
X826Y1131D02*
X833Y1131D01*
X891Y1131D02*
X897Y1131D01*
X991Y1131D02*
X997Y1131D01*
X1078Y1131D02*
X1084Y1131D01*
X1207Y1131D02*
X1213Y1131D01*
X1300Y1131D02*
X1306Y1131D01*
X1385Y1131D02*
X1392Y1131D01*
X1406Y1131D02*
X1412Y1131D01*
X1481Y1131D02*
X1487Y1131D01*
X1582Y1131D02*
X1588Y1131D01*
X1696Y1131D02*
X1702Y1131D01*
X1985Y1131D02*
X1992Y1131D01*
X2012Y1131D02*
X2018Y1131D01*
X242Y1130D02*
X249Y1130D01*
X279Y1130D02*
X286Y1130D01*
X777Y1130D02*
X783Y1130D01*
X803Y1130D02*
X809Y1130D01*
X826Y1130D02*
X833Y1130D01*
X891Y1130D02*
X897Y1130D01*
X991Y1130D02*
X997Y1130D01*
X1078Y1130D02*
X1084Y1130D01*
X1207Y1130D02*
X1213Y1130D01*
X1300Y1130D02*
X1306Y1130D01*
X1385Y1130D02*
X1392Y1130D01*
X1406Y1130D02*
X1412Y1130D01*
X1481Y1130D02*
X1487Y1130D01*
X1582Y1130D02*
X1588Y1130D01*
X1696Y1130D02*
X1702Y1130D01*
X1985Y1130D02*
X2018Y1130D01*
X242Y1129D02*
X249Y1129D01*
X279Y1129D02*
X286Y1129D01*
X777Y1129D02*
X784Y1129D01*
X802Y1129D02*
X809Y1129D01*
X826Y1129D02*
X833Y1129D01*
X891Y1129D02*
X897Y1129D01*
X991Y1129D02*
X997Y1129D01*
X1078Y1129D02*
X1084Y1129D01*
X1207Y1129D02*
X1213Y1129D01*
X1300Y1129D02*
X1306Y1129D01*
X1385Y1129D02*
X1392Y1129D01*
X1406Y1129D02*
X1412Y1129D01*
X1481Y1129D02*
X1487Y1129D01*
X1582Y1129D02*
X1588Y1129D01*
X1696Y1129D02*
X1702Y1129D01*
X1985Y1129D02*
X2018Y1129D01*
X242Y1128D02*
X249Y1128D01*
X279Y1128D02*
X286Y1128D01*
X778Y1128D02*
X784Y1128D01*
X802Y1128D02*
X808Y1128D01*
X827Y1128D02*
X833Y1128D01*
X891Y1128D02*
X897Y1128D01*
X991Y1128D02*
X997Y1128D01*
X1078Y1128D02*
X1085Y1128D01*
X1207Y1128D02*
X1213Y1128D01*
X1300Y1128D02*
X1306Y1128D01*
X1385Y1128D02*
X1392Y1128D01*
X1406Y1128D02*
X1412Y1128D01*
X1481Y1128D02*
X1487Y1128D01*
X1582Y1128D02*
X1588Y1128D01*
X1696Y1128D02*
X1702Y1128D01*
X1986Y1128D02*
X2018Y1128D01*
X242Y1127D02*
X249Y1127D01*
X279Y1127D02*
X286Y1127D01*
X778Y1127D02*
X785Y1127D01*
X801Y1127D02*
X808Y1127D01*
X827Y1127D02*
X833Y1127D01*
X891Y1127D02*
X897Y1127D01*
X991Y1127D02*
X997Y1127D01*
X1078Y1127D02*
X1086Y1127D01*
X1207Y1127D02*
X1213Y1127D01*
X1300Y1127D02*
X1306Y1127D01*
X1385Y1127D02*
X1392Y1127D01*
X1406Y1127D02*
X1412Y1127D01*
X1481Y1127D02*
X1487Y1127D01*
X1582Y1127D02*
X1588Y1127D01*
X1696Y1127D02*
X1702Y1127D01*
X1987Y1127D02*
X2018Y1127D01*
X242Y1126D02*
X249Y1126D01*
X278Y1126D02*
X285Y1126D01*
X778Y1126D02*
X785Y1126D01*
X801Y1126D02*
X808Y1126D01*
X827Y1126D02*
X833Y1126D01*
X891Y1126D02*
X897Y1126D01*
X991Y1126D02*
X997Y1126D01*
X1078Y1126D02*
X1087Y1126D01*
X1207Y1126D02*
X1213Y1126D01*
X1300Y1126D02*
X1306Y1126D01*
X1385Y1126D02*
X1392Y1126D01*
X1406Y1126D02*
X1412Y1126D01*
X1481Y1126D02*
X1488Y1126D01*
X1582Y1126D02*
X1588Y1126D01*
X1696Y1126D02*
X1702Y1126D01*
X1988Y1126D02*
X2018Y1126D01*
X242Y1125D02*
X249Y1125D01*
X277Y1125D02*
X285Y1125D01*
X779Y1125D02*
X785Y1125D01*
X801Y1125D02*
X807Y1125D01*
X827Y1125D02*
X834Y1125D01*
X891Y1125D02*
X897Y1125D01*
X991Y1125D02*
X997Y1125D01*
X1079Y1125D02*
X1088Y1125D01*
X1207Y1125D02*
X1213Y1125D01*
X1300Y1125D02*
X1306Y1125D01*
X1385Y1125D02*
X1392Y1125D01*
X1406Y1125D02*
X1412Y1125D01*
X1481Y1125D02*
X1488Y1125D01*
X1582Y1125D02*
X1588Y1125D01*
X1696Y1125D02*
X1702Y1125D01*
X1989Y1125D02*
X2018Y1125D01*
X242Y1124D02*
X249Y1124D01*
X275Y1124D02*
X285Y1124D01*
X779Y1124D02*
X786Y1124D01*
X800Y1124D02*
X807Y1124D01*
X827Y1124D02*
X851Y1124D01*
X879Y1124D02*
X908Y1124D01*
X980Y1124D02*
X1009Y1124D01*
X1079Y1124D02*
X1089Y1124D01*
X1207Y1124D02*
X1213Y1124D01*
X1285Y1124D02*
X1306Y1124D01*
X1385Y1124D02*
X1392Y1124D01*
X1406Y1124D02*
X1412Y1124D01*
X1482Y1124D02*
X1505Y1124D01*
X1582Y1124D02*
X1610Y1124D01*
X1696Y1124D02*
X1702Y1124D01*
X1785Y1124D02*
X1814Y1124D01*
X1886Y1124D02*
X1915Y1124D01*
X1991Y1124D02*
X2018Y1124D01*
X242Y1123D02*
X249Y1123D01*
X273Y1123D02*
X284Y1123D01*
X780Y1123D02*
X786Y1123D01*
X800Y1123D02*
X806Y1123D01*
X828Y1123D02*
X852Y1123D01*
X878Y1123D02*
X910Y1123D01*
X978Y1123D02*
X1010Y1123D01*
X1081Y1123D02*
X1090Y1123D01*
X1207Y1123D02*
X1213Y1123D01*
X1283Y1123D02*
X1306Y1123D01*
X1385Y1123D02*
X1392Y1123D01*
X1406Y1123D02*
X1412Y1123D01*
X1482Y1123D02*
X1507Y1123D01*
X1582Y1123D02*
X1612Y1123D01*
X1696Y1123D02*
X1702Y1123D01*
X1784Y1123D02*
X1816Y1123D01*
X1885Y1123D02*
X1916Y1123D01*
X1998Y1123D02*
X2006Y1123D01*
X2012Y1123D02*
X2018Y1123D01*
X243Y1122D02*
X248Y1122D01*
X273Y1122D02*
X284Y1122D01*
X780Y1122D02*
X787Y1122D01*
X799Y1122D02*
X806Y1122D01*
X828Y1122D02*
X853Y1122D01*
X877Y1122D02*
X910Y1122D01*
X978Y1122D02*
X1011Y1122D01*
X1082Y1122D02*
X1092Y1122D01*
X1207Y1122D02*
X1213Y1122D01*
X1282Y1122D02*
X1306Y1122D01*
X1385Y1122D02*
X1392Y1122D01*
X1406Y1122D02*
X1412Y1122D01*
X1483Y1122D02*
X1507Y1122D01*
X1582Y1122D02*
X1613Y1122D01*
X1696Y1122D02*
X1702Y1122D01*
X1783Y1122D02*
X1816Y1122D01*
X1884Y1122D02*
X1917Y1122D01*
X1998Y1122D02*
X2006Y1122D01*
X2012Y1122D02*
X2018Y1122D01*
X244Y1121D02*
X247Y1121D01*
X272Y1121D02*
X283Y1121D01*
X780Y1121D02*
X787Y1121D01*
X799Y1121D02*
X806Y1121D01*
X829Y1121D02*
X853Y1121D01*
X877Y1121D02*
X910Y1121D01*
X978Y1121D02*
X1011Y1121D01*
X1083Y1121D02*
X1093Y1121D01*
X1207Y1121D02*
X1213Y1121D01*
X1281Y1121D02*
X1306Y1121D01*
X1385Y1121D02*
X1392Y1121D01*
X1406Y1121D02*
X1412Y1121D01*
X1483Y1121D02*
X1508Y1121D01*
X1582Y1121D02*
X1614Y1121D01*
X1696Y1121D02*
X1702Y1121D01*
X1783Y1121D02*
X1817Y1121D01*
X1884Y1121D02*
X1917Y1121D01*
X1998Y1121D02*
X2005Y1121D01*
X2012Y1121D02*
X2018Y1121D01*
X272Y1120D02*
X282Y1120D01*
X781Y1120D02*
X787Y1120D01*
X799Y1120D02*
X805Y1120D01*
X829Y1120D02*
X853Y1120D01*
X877Y1120D02*
X910Y1120D01*
X978Y1120D02*
X1011Y1120D01*
X1084Y1120D02*
X1094Y1120D01*
X1207Y1120D02*
X1213Y1120D01*
X1280Y1120D02*
X1306Y1120D01*
X1385Y1120D02*
X1392Y1120D01*
X1406Y1120D02*
X1412Y1120D01*
X1483Y1120D02*
X1508Y1120D01*
X1583Y1120D02*
X1615Y1120D01*
X1696Y1120D02*
X1702Y1120D01*
X1783Y1120D02*
X1817Y1120D01*
X1884Y1120D02*
X1917Y1120D01*
X1997Y1120D02*
X2004Y1120D01*
X2012Y1120D02*
X2018Y1120D01*
X272Y1119D02*
X281Y1119D01*
X781Y1119D02*
X788Y1119D01*
X798Y1119D02*
X805Y1119D01*
X828Y1119D02*
X853Y1119D01*
X877Y1119D02*
X910Y1119D01*
X978Y1119D02*
X1011Y1119D01*
X1085Y1119D02*
X1095Y1119D01*
X1207Y1119D02*
X1213Y1119D01*
X1280Y1119D02*
X1306Y1119D01*
X1385Y1119D02*
X1392Y1119D01*
X1406Y1119D02*
X1412Y1119D01*
X1482Y1119D02*
X1507Y1119D01*
X1584Y1119D02*
X1615Y1119D01*
X1696Y1119D02*
X1702Y1119D01*
X1783Y1119D02*
X1817Y1119D01*
X1884Y1119D02*
X1917Y1119D01*
X1997Y1119D02*
X2004Y1119D01*
X2012Y1119D02*
X2018Y1119D01*
X273Y1118D02*
X280Y1118D01*
X782Y1118D02*
X788Y1118D01*
X798Y1118D02*
X804Y1118D01*
X827Y1118D02*
X852Y1118D01*
X878Y1118D02*
X909Y1118D01*
X979Y1118D02*
X1010Y1118D01*
X1086Y1118D02*
X1096Y1118D01*
X1181Y1118D02*
X1213Y1118D01*
X1280Y1118D02*
X1306Y1118D01*
X1384Y1118D02*
X1412Y1118D01*
X1482Y1118D02*
X1506Y1118D01*
X1586Y1118D02*
X1615Y1118D01*
X1684Y1118D02*
X1686Y1118D01*
X1696Y1118D02*
X1702Y1118D01*
X1783Y1118D02*
X1817Y1118D01*
X1884Y1118D02*
X1917Y1118D01*
X1996Y1118D02*
X2003Y1118D01*
X2012Y1118D02*
X2018Y1118D01*
X274Y1117D02*
X278Y1117D01*
X782Y1117D02*
X789Y1117D01*
X797Y1117D02*
X804Y1117D01*
X827Y1117D02*
X835Y1117D01*
X891Y1117D02*
X897Y1117D01*
X991Y1117D02*
X998Y1117D01*
X1088Y1117D02*
X1097Y1117D01*
X1180Y1117D02*
X1213Y1117D01*
X1280Y1117D02*
X1286Y1117D01*
X1383Y1117D02*
X1412Y1117D01*
X1482Y1117D02*
X1490Y1117D01*
X1609Y1117D02*
X1615Y1117D01*
X1683Y1117D02*
X1688Y1117D01*
X1696Y1117D02*
X1702Y1117D01*
X1783Y1117D02*
X1817Y1117D01*
X1884Y1117D02*
X1917Y1117D01*
X1995Y1117D02*
X2003Y1117D01*
X2012Y1117D02*
X2018Y1117D01*
X782Y1116D02*
X789Y1116D01*
X797Y1116D02*
X804Y1116D01*
X827Y1116D02*
X834Y1116D01*
X891Y1116D02*
X897Y1116D01*
X991Y1116D02*
X997Y1116D01*
X1089Y1116D02*
X1098Y1116D01*
X1179Y1116D02*
X1213Y1116D01*
X1280Y1116D02*
X1286Y1116D01*
X1382Y1116D02*
X1412Y1116D01*
X1481Y1116D02*
X1488Y1116D01*
X1609Y1116D02*
X1615Y1116D01*
X1683Y1116D02*
X1688Y1116D01*
X1696Y1116D02*
X1702Y1116D01*
X1784Y1116D02*
X1816Y1116D01*
X1884Y1116D02*
X1917Y1116D01*
X1995Y1116D02*
X2002Y1116D01*
X2012Y1116D02*
X2018Y1116D01*
X783Y1115D02*
X789Y1115D01*
X797Y1115D02*
X803Y1115D01*
X827Y1115D02*
X833Y1115D01*
X891Y1115D02*
X897Y1115D01*
X991Y1115D02*
X997Y1115D01*
X1090Y1115D02*
X1098Y1115D01*
X1179Y1115D02*
X1213Y1115D01*
X1280Y1115D02*
X1286Y1115D01*
X1382Y1115D02*
X1412Y1115D01*
X1481Y1115D02*
X1487Y1115D01*
X1609Y1115D02*
X1615Y1115D01*
X1682Y1115D02*
X1688Y1115D01*
X1696Y1115D02*
X1702Y1115D01*
X1784Y1115D02*
X1815Y1115D01*
X1885Y1115D02*
X1916Y1115D01*
X1994Y1115D02*
X2002Y1115D01*
X2012Y1115D02*
X2018Y1115D01*
X783Y1114D02*
X790Y1114D01*
X796Y1114D02*
X803Y1114D01*
X827Y1114D02*
X833Y1114D01*
X891Y1114D02*
X897Y1114D01*
X991Y1114D02*
X997Y1114D01*
X1091Y1114D02*
X1098Y1114D01*
X1179Y1114D02*
X1213Y1114D01*
X1280Y1114D02*
X1286Y1114D01*
X1382Y1114D02*
X1412Y1114D01*
X1481Y1114D02*
X1487Y1114D01*
X1609Y1114D02*
X1615Y1114D01*
X1682Y1114D02*
X1688Y1114D01*
X1696Y1114D02*
X1702Y1114D01*
X1994Y1114D02*
X2001Y1114D01*
X2012Y1114D02*
X2018Y1114D01*
X784Y1113D02*
X790Y1113D01*
X796Y1113D02*
X803Y1113D01*
X826Y1113D02*
X833Y1113D01*
X891Y1113D02*
X897Y1113D01*
X991Y1113D02*
X997Y1113D01*
X1092Y1113D02*
X1098Y1113D01*
X1179Y1113D02*
X1213Y1113D01*
X1280Y1113D02*
X1286Y1113D01*
X1383Y1113D02*
X1412Y1113D01*
X1481Y1113D02*
X1487Y1113D01*
X1609Y1113D02*
X1615Y1113D01*
X1682Y1113D02*
X1688Y1113D01*
X1696Y1113D02*
X1702Y1113D01*
X1993Y1113D02*
X2000Y1113D01*
X2012Y1113D02*
X2018Y1113D01*
X784Y1112D02*
X790Y1112D01*
X796Y1112D02*
X802Y1112D01*
X826Y1112D02*
X833Y1112D01*
X891Y1112D02*
X897Y1112D01*
X991Y1112D02*
X997Y1112D01*
X1092Y1112D02*
X1098Y1112D01*
X1179Y1112D02*
X1213Y1112D01*
X1280Y1112D02*
X1286Y1112D01*
X1383Y1112D02*
X1412Y1112D01*
X1481Y1112D02*
X1487Y1112D01*
X1609Y1112D02*
X1615Y1112D01*
X1682Y1112D02*
X1688Y1112D01*
X1696Y1112D02*
X1702Y1112D01*
X1993Y1112D02*
X2000Y1112D01*
X2012Y1112D02*
X2018Y1112D01*
X784Y1111D02*
X791Y1111D01*
X795Y1111D02*
X802Y1111D01*
X826Y1111D02*
X833Y1111D01*
X891Y1111D02*
X897Y1111D01*
X991Y1111D02*
X997Y1111D01*
X1092Y1111D02*
X1098Y1111D01*
X1179Y1111D02*
X1185Y1111D01*
X1206Y1111D02*
X1213Y1111D01*
X1280Y1111D02*
X1286Y1111D01*
X1385Y1111D02*
X1392Y1111D01*
X1481Y1111D02*
X1487Y1111D01*
X1609Y1111D02*
X1615Y1111D01*
X1682Y1111D02*
X1688Y1111D01*
X1696Y1111D02*
X1702Y1111D01*
X1992Y1111D02*
X1999Y1111D01*
X2012Y1111D02*
X2018Y1111D01*
X785Y1110D02*
X791Y1110D01*
X795Y1110D02*
X801Y1110D01*
X826Y1110D02*
X833Y1110D01*
X891Y1110D02*
X897Y1110D01*
X991Y1110D02*
X997Y1110D01*
X1092Y1110D02*
X1098Y1110D01*
X1179Y1110D02*
X1185Y1110D01*
X1207Y1110D02*
X1213Y1110D01*
X1280Y1110D02*
X1286Y1110D01*
X1385Y1110D02*
X1392Y1110D01*
X1481Y1110D02*
X1487Y1110D01*
X1609Y1110D02*
X1615Y1110D01*
X1682Y1110D02*
X1688Y1110D01*
X1696Y1110D02*
X1702Y1110D01*
X1991Y1110D02*
X1999Y1110D01*
X2012Y1110D02*
X2018Y1110D01*
X785Y1109D02*
X792Y1109D01*
X794Y1109D02*
X801Y1109D01*
X826Y1109D02*
X833Y1109D01*
X891Y1109D02*
X897Y1109D01*
X991Y1109D02*
X997Y1109D01*
X1092Y1109D02*
X1098Y1109D01*
X1179Y1109D02*
X1185Y1109D01*
X1207Y1109D02*
X1213Y1109D01*
X1280Y1109D02*
X1286Y1109D01*
X1385Y1109D02*
X1392Y1109D01*
X1481Y1109D02*
X1487Y1109D01*
X1609Y1109D02*
X1615Y1109D01*
X1682Y1109D02*
X1688Y1109D01*
X1696Y1109D02*
X1702Y1109D01*
X1991Y1109D02*
X1998Y1109D01*
X2012Y1109D02*
X2018Y1109D01*
X785Y1108D02*
X792Y1108D01*
X794Y1108D02*
X801Y1108D01*
X826Y1108D02*
X833Y1108D01*
X891Y1108D02*
X897Y1108D01*
X991Y1108D02*
X997Y1108D01*
X1092Y1108D02*
X1098Y1108D01*
X1179Y1108D02*
X1185Y1108D01*
X1207Y1108D02*
X1213Y1108D01*
X1280Y1108D02*
X1286Y1108D01*
X1385Y1108D02*
X1392Y1108D01*
X1481Y1108D02*
X1487Y1108D01*
X1609Y1108D02*
X1615Y1108D01*
X1682Y1108D02*
X1688Y1108D01*
X1696Y1108D02*
X1702Y1108D01*
X1990Y1108D02*
X1997Y1108D01*
X2012Y1108D02*
X2018Y1108D01*
X786Y1107D02*
X800Y1107D01*
X826Y1107D02*
X833Y1107D01*
X891Y1107D02*
X897Y1107D01*
X991Y1107D02*
X997Y1107D01*
X1092Y1107D02*
X1098Y1107D01*
X1179Y1107D02*
X1185Y1107D01*
X1207Y1107D02*
X1213Y1107D01*
X1280Y1107D02*
X1286Y1107D01*
X1385Y1107D02*
X1392Y1107D01*
X1481Y1107D02*
X1487Y1107D01*
X1609Y1107D02*
X1615Y1107D01*
X1682Y1107D02*
X1688Y1107D01*
X1696Y1107D02*
X1702Y1107D01*
X1990Y1107D02*
X1997Y1107D01*
X2012Y1107D02*
X2018Y1107D01*
X786Y1106D02*
X800Y1106D01*
X826Y1106D02*
X833Y1106D01*
X891Y1106D02*
X897Y1106D01*
X992Y1106D02*
X997Y1106D01*
X1092Y1106D02*
X1098Y1106D01*
X1179Y1106D02*
X1185Y1106D01*
X1207Y1106D02*
X1213Y1106D01*
X1280Y1106D02*
X1286Y1106D01*
X1385Y1106D02*
X1392Y1106D01*
X1481Y1106D02*
X1487Y1106D01*
X1609Y1106D02*
X1615Y1106D01*
X1682Y1106D02*
X1688Y1106D01*
X1696Y1106D02*
X1702Y1106D01*
X1989Y1106D02*
X1996Y1106D01*
X2012Y1106D02*
X2018Y1106D01*
X787Y1105D02*
X799Y1105D01*
X826Y1105D02*
X833Y1105D01*
X891Y1105D02*
X896Y1105D01*
X992Y1105D02*
X997Y1105D01*
X1092Y1105D02*
X1098Y1105D01*
X1179Y1105D02*
X1185Y1105D01*
X1207Y1105D02*
X1213Y1105D01*
X1280Y1105D02*
X1286Y1105D01*
X1385Y1105D02*
X1392Y1105D01*
X1481Y1105D02*
X1487Y1105D01*
X1609Y1105D02*
X1615Y1105D01*
X1682Y1105D02*
X1688Y1105D01*
X1696Y1105D02*
X1702Y1105D01*
X1988Y1105D02*
X1996Y1105D01*
X2012Y1105D02*
X2018Y1105D01*
X787Y1104D02*
X799Y1104D01*
X826Y1104D02*
X833Y1104D01*
X892Y1104D02*
X895Y1104D01*
X993Y1104D02*
X996Y1104D01*
X1092Y1104D02*
X1098Y1104D01*
X1179Y1104D02*
X1185Y1104D01*
X1207Y1104D02*
X1213Y1104D01*
X1280Y1104D02*
X1286Y1104D01*
X1385Y1104D02*
X1392Y1104D01*
X1481Y1104D02*
X1487Y1104D01*
X1609Y1104D02*
X1615Y1104D01*
X1682Y1104D02*
X1688Y1104D01*
X1696Y1104D02*
X1702Y1104D01*
X1988Y1104D02*
X1995Y1104D01*
X2012Y1104D02*
X2018Y1104D01*
X787Y1103D02*
X799Y1103D01*
X826Y1103D02*
X833Y1103D01*
X1092Y1103D02*
X1098Y1103D01*
X1179Y1103D02*
X1185Y1103D01*
X1207Y1103D02*
X1213Y1103D01*
X1280Y1103D02*
X1286Y1103D01*
X1309Y1103D02*
X1311Y1103D01*
X1385Y1103D02*
X1392Y1103D01*
X1481Y1103D02*
X1487Y1103D01*
X1609Y1103D02*
X1615Y1103D01*
X1682Y1103D02*
X1688Y1103D01*
X1696Y1103D02*
X1702Y1103D01*
X1987Y1103D02*
X1994Y1103D01*
X2012Y1103D02*
X2018Y1103D01*
X788Y1102D02*
X798Y1102D01*
X826Y1102D02*
X833Y1102D01*
X1092Y1102D02*
X1098Y1102D01*
X1179Y1102D02*
X1185Y1102D01*
X1207Y1102D02*
X1213Y1102D01*
X1280Y1102D02*
X1286Y1102D01*
X1306Y1102D02*
X1313Y1102D01*
X1385Y1102D02*
X1392Y1102D01*
X1481Y1102D02*
X1487Y1102D01*
X1609Y1102D02*
X1615Y1102D01*
X1682Y1102D02*
X1688Y1102D01*
X1696Y1102D02*
X1702Y1102D01*
X1987Y1102D02*
X1994Y1102D01*
X2012Y1102D02*
X2018Y1102D01*
X788Y1101D02*
X798Y1101D01*
X827Y1101D02*
X833Y1101D01*
X1092Y1101D02*
X1098Y1101D01*
X1179Y1101D02*
X1185Y1101D01*
X1207Y1101D02*
X1213Y1101D01*
X1280Y1101D02*
X1286Y1101D01*
X1304Y1101D02*
X1313Y1101D01*
X1385Y1101D02*
X1392Y1101D01*
X1481Y1101D02*
X1487Y1101D01*
X1609Y1101D02*
X1615Y1101D01*
X1682Y1101D02*
X1688Y1101D01*
X1696Y1101D02*
X1702Y1101D01*
X1986Y1101D02*
X1993Y1101D01*
X2012Y1101D02*
X2018Y1101D01*
X789Y1100D02*
X797Y1100D01*
X827Y1100D02*
X859Y1100D01*
X1092Y1100D02*
X1098Y1100D01*
X1179Y1100D02*
X1213Y1100D01*
X1280Y1100D02*
X1313Y1100D01*
X1385Y1100D02*
X1392Y1100D01*
X1481Y1100D02*
X1513Y1100D01*
X1583Y1100D02*
X1615Y1100D01*
X1682Y1100D02*
X1714Y1100D01*
X1986Y1100D02*
X1993Y1100D01*
X2012Y1100D02*
X2018Y1100D01*
X789Y1099D02*
X797Y1099D01*
X827Y1099D02*
X860Y1099D01*
X1092Y1099D02*
X1098Y1099D01*
X1179Y1099D02*
X1213Y1099D01*
X1280Y1099D02*
X1313Y1099D01*
X1385Y1099D02*
X1392Y1099D01*
X1481Y1099D02*
X1514Y1099D01*
X1582Y1099D02*
X1615Y1099D01*
X1682Y1099D02*
X1715Y1099D01*
X1985Y1099D02*
X1992Y1099D01*
X2012Y1099D02*
X2018Y1099D01*
X244Y1098D02*
X247Y1098D01*
X789Y1098D02*
X797Y1098D01*
X827Y1098D02*
X860Y1098D01*
X1092Y1098D02*
X1098Y1098D01*
X1179Y1098D02*
X1213Y1098D01*
X1280Y1098D02*
X1313Y1098D01*
X1385Y1098D02*
X1392Y1098D01*
X1481Y1098D02*
X1514Y1098D01*
X1582Y1098D02*
X1615Y1098D01*
X1682Y1098D02*
X1716Y1098D01*
X1985Y1098D02*
X1992Y1098D01*
X2012Y1098D02*
X2018Y1098D01*
X243Y1097D02*
X248Y1097D01*
X790Y1097D02*
X796Y1097D01*
X828Y1097D02*
X860Y1097D01*
X1092Y1097D02*
X1098Y1097D01*
X1179Y1097D02*
X1213Y1097D01*
X1281Y1097D02*
X1312Y1097D01*
X1386Y1097D02*
X1391Y1097D01*
X1482Y1097D02*
X1515Y1097D01*
X1582Y1097D02*
X1615Y1097D01*
X1682Y1097D02*
X1716Y1097D01*
X1984Y1097D02*
X1991Y1097D01*
X2012Y1097D02*
X2018Y1097D01*
X242Y1096D02*
X249Y1096D01*
X790Y1096D02*
X796Y1096D01*
X828Y1096D02*
X860Y1096D01*
X1092Y1096D02*
X1098Y1096D01*
X1179Y1096D02*
X1212Y1096D01*
X1281Y1096D02*
X1310Y1096D01*
X1386Y1096D02*
X1391Y1096D01*
X1483Y1096D02*
X1514Y1096D01*
X1582Y1096D02*
X1615Y1096D01*
X1683Y1096D02*
X1716Y1096D01*
X1985Y1096D02*
X1990Y1096D01*
X2012Y1096D02*
X2018Y1096D01*
X242Y1095D02*
X249Y1095D01*
X791Y1095D02*
X795Y1095D01*
X829Y1095D02*
X859Y1095D01*
X1093Y1095D02*
X1097Y1095D01*
X1180Y1095D02*
X1212Y1095D01*
X1282Y1095D02*
X1307Y1095D01*
X1386Y1095D02*
X1391Y1095D01*
X1484Y1095D02*
X1514Y1095D01*
X1582Y1095D02*
X1615Y1095D01*
X1683Y1095D02*
X1715Y1095D01*
X1985Y1095D02*
X1990Y1095D01*
X2013Y1095D02*
X2017Y1095D01*
X242Y1094D02*
X249Y1094D01*
X792Y1094D02*
X794Y1094D01*
X831Y1094D02*
X858Y1094D01*
X1094Y1094D02*
X1096Y1094D01*
X1181Y1094D02*
X1211Y1094D01*
X1284Y1094D02*
X1305Y1094D01*
X1387Y1094D02*
X1390Y1094D01*
X1486Y1094D02*
X1513Y1094D01*
X1584Y1094D02*
X1615Y1094D01*
X1684Y1094D02*
X1714Y1094D01*
X1986Y1094D02*
X1989Y1094D01*
X2014Y1094D02*
X2016Y1094D01*
X242Y1093D02*
X249Y1093D01*
X242Y1092D02*
X249Y1092D01*
X242Y1091D02*
X249Y1091D01*
X230Y1090D02*
X278Y1090D01*
X229Y1089D02*
X280Y1089D01*
X229Y1088D02*
X281Y1088D01*
X229Y1087D02*
X282Y1087D01*
X229Y1086D02*
X283Y1086D01*
X229Y1085D02*
X284Y1085D01*
X230Y1084D02*
X285Y1084D01*
X232Y1083D02*
X285Y1083D01*
X242Y1082D02*
X249Y1082D01*
X277Y1082D02*
X285Y1082D01*
X242Y1081D02*
X249Y1081D01*
X278Y1081D02*
X286Y1081D01*
X242Y1080D02*
X249Y1080D01*
X279Y1080D02*
X286Y1080D01*
X242Y1079D02*
X249Y1079D01*
X279Y1079D02*
X286Y1079D01*
X398Y1079D02*
X2358Y1079D01*
X242Y1078D02*
X249Y1078D01*
X279Y1078D02*
X286Y1078D01*
X395Y1078D02*
X2362Y1078D01*
X242Y1077D02*
X249Y1077D01*
X279Y1077D02*
X286Y1077D01*
X392Y1077D02*
X2364Y1077D01*
X242Y1076D02*
X249Y1076D01*
X279Y1076D02*
X286Y1076D01*
X390Y1076D02*
X2366Y1076D01*
X242Y1075D02*
X249Y1075D01*
X279Y1075D02*
X286Y1075D01*
X388Y1075D02*
X2368Y1075D01*
X242Y1074D02*
X249Y1074D01*
X279Y1074D02*
X286Y1074D01*
X387Y1074D02*
X2370Y1074D01*
X242Y1073D02*
X249Y1073D01*
X279Y1073D02*
X286Y1073D01*
X385Y1073D02*
X2371Y1073D01*
X242Y1072D02*
X249Y1072D01*
X279Y1072D02*
X286Y1072D01*
X384Y1072D02*
X2373Y1072D01*
X242Y1071D02*
X249Y1071D01*
X279Y1071D02*
X286Y1071D01*
X382Y1071D02*
X2374Y1071D01*
X242Y1070D02*
X249Y1070D01*
X279Y1070D02*
X286Y1070D01*
X381Y1070D02*
X2375Y1070D01*
X242Y1069D02*
X249Y1069D01*
X278Y1069D02*
X285Y1069D01*
X380Y1069D02*
X2376Y1069D01*
X242Y1068D02*
X249Y1068D01*
X277Y1068D02*
X285Y1068D01*
X379Y1068D02*
X2377Y1068D01*
X242Y1067D02*
X249Y1067D01*
X275Y1067D02*
X285Y1067D01*
X378Y1067D02*
X2378Y1067D01*
X242Y1066D02*
X249Y1066D01*
X273Y1066D02*
X284Y1066D01*
X377Y1066D02*
X2379Y1066D01*
X243Y1065D02*
X248Y1065D01*
X272Y1065D02*
X284Y1065D01*
X376Y1065D02*
X2380Y1065D01*
X244Y1064D02*
X247Y1064D01*
X272Y1064D02*
X283Y1064D01*
X376Y1064D02*
X2381Y1064D01*
X272Y1063D02*
X282Y1063D01*
X375Y1063D02*
X2381Y1063D01*
X272Y1062D02*
X281Y1062D01*
X374Y1062D02*
X2382Y1062D01*
X273Y1061D02*
X280Y1061D01*
X374Y1061D02*
X401Y1061D01*
X2355Y1061D02*
X2383Y1061D01*
X274Y1060D02*
X278Y1060D01*
X373Y1060D02*
X398Y1060D01*
X2359Y1060D02*
X2383Y1060D01*
X373Y1059D02*
X396Y1059D01*
X2361Y1059D02*
X2384Y1059D01*
X372Y1058D02*
X394Y1058D01*
X2362Y1058D02*
X2384Y1058D01*
X372Y1057D02*
X393Y1057D01*
X2363Y1057D02*
X2385Y1057D01*
X371Y1056D02*
X392Y1056D01*
X2364Y1056D02*
X2385Y1056D01*
X371Y1055D02*
X391Y1055D01*
X2365Y1055D02*
X2386Y1055D01*
X370Y1054D02*
X390Y1054D01*
X2366Y1054D02*
X2386Y1054D01*
X370Y1053D02*
X390Y1053D01*
X2367Y1053D02*
X2387Y1053D01*
X369Y1052D02*
X389Y1052D01*
X2367Y1052D02*
X2387Y1052D01*
X369Y1051D02*
X388Y1051D01*
X2368Y1051D02*
X2387Y1051D01*
X369Y1050D02*
X388Y1050D01*
X2369Y1050D02*
X2388Y1050D01*
X368Y1049D02*
X387Y1049D01*
X2369Y1049D02*
X2388Y1049D01*
X368Y1048D02*
X387Y1048D01*
X2370Y1048D02*
X2388Y1048D01*
X368Y1047D02*
X386Y1047D01*
X2370Y1047D02*
X2389Y1047D01*
X367Y1046D02*
X386Y1046D01*
X2371Y1046D02*
X2389Y1046D01*
X367Y1045D02*
X385Y1045D01*
X2371Y1045D02*
X2389Y1045D01*
X367Y1044D02*
X385Y1044D01*
X2371Y1044D02*
X2389Y1044D01*
X367Y1043D02*
X385Y1043D01*
X2372Y1043D02*
X2390Y1043D01*
X367Y1042D02*
X384Y1042D01*
X2372Y1042D02*
X2390Y1042D01*
X242Y1041D02*
X301Y1041D01*
X366Y1041D02*
X384Y1041D01*
X2372Y1041D02*
X2390Y1041D01*
X241Y1040D02*
X302Y1040D01*
X366Y1040D02*
X384Y1040D01*
X2372Y1040D02*
X2390Y1040D01*
X241Y1039D02*
X302Y1039D01*
X366Y1039D02*
X384Y1039D01*
X2373Y1039D02*
X2390Y1039D01*
X240Y1038D02*
X302Y1038D01*
X366Y1038D02*
X384Y1038D01*
X2373Y1038D02*
X2390Y1038D01*
X240Y1037D02*
X302Y1037D01*
X366Y1037D02*
X384Y1037D01*
X2373Y1037D02*
X2391Y1037D01*
X241Y1036D02*
X302Y1036D01*
X366Y1036D02*
X384Y1036D01*
X2373Y1036D02*
X2391Y1036D01*
X242Y1035D02*
X301Y1035D01*
X366Y1035D02*
X384Y1035D01*
X2373Y1035D02*
X2391Y1035D01*
X243Y1034D02*
X300Y1034D01*
X366Y1034D02*
X384Y1034D01*
X2373Y1034D02*
X2391Y1034D01*
X246Y1033D02*
X256Y1033D01*
X272Y1033D02*
X282Y1033D01*
X366Y1033D02*
X384Y1033D01*
X2373Y1033D02*
X2391Y1033D01*
X245Y1032D02*
X255Y1032D01*
X273Y1032D02*
X283Y1032D01*
X366Y1032D02*
X384Y1032D01*
X2373Y1032D02*
X2391Y1032D01*
X244Y1031D02*
X254Y1031D01*
X274Y1031D02*
X284Y1031D01*
X366Y1031D02*
X384Y1031D01*
X2373Y1031D02*
X2391Y1031D01*
X243Y1030D02*
X253Y1030D01*
X275Y1030D02*
X285Y1030D01*
X366Y1030D02*
X384Y1030D01*
X2373Y1030D02*
X2391Y1030D01*
X242Y1029D02*
X252Y1029D01*
X276Y1029D02*
X286Y1029D01*
X366Y1029D02*
X384Y1029D01*
X2373Y1029D02*
X2391Y1029D01*
X242Y1028D02*
X251Y1028D01*
X277Y1028D02*
X286Y1028D01*
X366Y1028D02*
X384Y1028D01*
X2373Y1028D02*
X2391Y1028D01*
X241Y1027D02*
X250Y1027D01*
X278Y1027D02*
X287Y1027D01*
X366Y1027D02*
X384Y1027D01*
X2373Y1027D02*
X2391Y1027D01*
X241Y1026D02*
X249Y1026D01*
X279Y1026D02*
X287Y1026D01*
X366Y1026D02*
X384Y1026D01*
X2373Y1026D02*
X2391Y1026D01*
X241Y1025D02*
X248Y1025D01*
X280Y1025D02*
X287Y1025D01*
X366Y1025D02*
X384Y1025D01*
X2373Y1025D02*
X2391Y1025D01*
X240Y1024D02*
X248Y1024D01*
X280Y1024D02*
X287Y1024D01*
X366Y1024D02*
X384Y1024D01*
X2373Y1024D02*
X2391Y1024D01*
X240Y1023D02*
X247Y1023D01*
X280Y1023D02*
X287Y1023D01*
X366Y1023D02*
X384Y1023D01*
X2373Y1023D02*
X2391Y1023D01*
X240Y1022D02*
X247Y1022D01*
X280Y1022D02*
X287Y1022D01*
X366Y1022D02*
X384Y1022D01*
X2373Y1022D02*
X2391Y1022D01*
X240Y1021D02*
X247Y1021D01*
X280Y1021D02*
X287Y1021D01*
X366Y1021D02*
X384Y1021D01*
X2373Y1021D02*
X2391Y1021D01*
X240Y1020D02*
X248Y1020D01*
X280Y1020D02*
X287Y1020D01*
X366Y1020D02*
X384Y1020D01*
X2373Y1020D02*
X2391Y1020D01*
X241Y1019D02*
X248Y1019D01*
X280Y1019D02*
X287Y1019D01*
X366Y1019D02*
X384Y1019D01*
X2373Y1019D02*
X2391Y1019D01*
X241Y1018D02*
X249Y1018D01*
X279Y1018D02*
X287Y1018D01*
X366Y1018D02*
X384Y1018D01*
X2373Y1018D02*
X2391Y1018D01*
X241Y1017D02*
X250Y1017D01*
X278Y1017D02*
X287Y1017D01*
X366Y1017D02*
X384Y1017D01*
X2373Y1017D02*
X2391Y1017D01*
X242Y1016D02*
X251Y1016D01*
X277Y1016D02*
X286Y1016D01*
X366Y1016D02*
X384Y1016D01*
X2373Y1016D02*
X2391Y1016D01*
X242Y1015D02*
X251Y1015D01*
X276Y1015D02*
X286Y1015D01*
X366Y1015D02*
X384Y1015D01*
X2373Y1015D02*
X2391Y1015D01*
X243Y1014D02*
X252Y1014D01*
X275Y1014D02*
X285Y1014D01*
X366Y1014D02*
X384Y1014D01*
X2373Y1014D02*
X2391Y1014D01*
X243Y1013D02*
X253Y1013D01*
X275Y1013D02*
X284Y1013D01*
X366Y1013D02*
X384Y1013D01*
X2373Y1013D02*
X2391Y1013D01*
X244Y1012D02*
X254Y1012D01*
X274Y1012D02*
X283Y1012D01*
X366Y1012D02*
X384Y1012D01*
X2373Y1012D02*
X2391Y1012D01*
X245Y1011D02*
X255Y1011D01*
X273Y1011D02*
X282Y1011D01*
X366Y1011D02*
X384Y1011D01*
X2373Y1011D02*
X2391Y1011D01*
X246Y1010D02*
X282Y1010D01*
X366Y1010D02*
X384Y1010D01*
X2373Y1010D02*
X2391Y1010D01*
X247Y1009D02*
X281Y1009D01*
X366Y1009D02*
X384Y1009D01*
X2373Y1009D02*
X2391Y1009D01*
X248Y1008D02*
X280Y1008D01*
X366Y1008D02*
X384Y1008D01*
X2373Y1008D02*
X2391Y1008D01*
X249Y1007D02*
X279Y1007D01*
X366Y1007D02*
X384Y1007D01*
X2373Y1007D02*
X2391Y1007D01*
X250Y1006D02*
X278Y1006D01*
X366Y1006D02*
X384Y1006D01*
X2373Y1006D02*
X2391Y1006D01*
X251Y1005D02*
X277Y1005D01*
X366Y1005D02*
X384Y1005D01*
X2373Y1005D02*
X2391Y1005D01*
X252Y1004D02*
X275Y1004D01*
X366Y1004D02*
X384Y1004D01*
X2373Y1004D02*
X2391Y1004D01*
X255Y1003D02*
X273Y1003D01*
X366Y1003D02*
X384Y1003D01*
X2373Y1003D02*
X2391Y1003D01*
X366Y1002D02*
X384Y1002D01*
X2373Y1002D02*
X2391Y1002D01*
X366Y1001D02*
X384Y1001D01*
X2373Y1001D02*
X2391Y1001D01*
X366Y1000D02*
X384Y1000D01*
X2373Y1000D02*
X2391Y1000D01*
X366Y999D02*
X384Y999D01*
X2373Y999D02*
X2391Y999D01*
X366Y998D02*
X384Y998D01*
X2373Y998D02*
X2391Y998D01*
X366Y997D02*
X384Y997D01*
X2373Y997D02*
X2391Y997D01*
X366Y996D02*
X384Y996D01*
X2373Y996D02*
X2391Y996D01*
X366Y995D02*
X384Y995D01*
X2373Y995D02*
X2391Y995D01*
X366Y994D02*
X384Y994D01*
X2373Y994D02*
X2391Y994D01*
X366Y993D02*
X384Y993D01*
X2373Y993D02*
X2391Y993D01*
X366Y992D02*
X384Y992D01*
X2373Y992D02*
X2391Y992D01*
X366Y991D02*
X384Y991D01*
X2373Y991D02*
X2391Y991D01*
X366Y990D02*
X384Y990D01*
X2373Y990D02*
X2391Y990D01*
X366Y989D02*
X384Y989D01*
X2373Y989D02*
X2391Y989D01*
X366Y988D02*
X384Y988D01*
X2373Y988D02*
X2391Y988D01*
X366Y987D02*
X384Y987D01*
X2373Y987D02*
X2391Y987D01*
X366Y986D02*
X384Y986D01*
X2373Y986D02*
X2391Y986D01*
X366Y985D02*
X384Y985D01*
X2373Y985D02*
X2391Y985D01*
X366Y984D02*
X384Y984D01*
X2373Y984D02*
X2391Y984D01*
X366Y983D02*
X384Y983D01*
X2373Y983D02*
X2391Y983D01*
X366Y982D02*
X384Y982D01*
X2373Y982D02*
X2391Y982D01*
X366Y981D02*
X384Y981D01*
X2373Y981D02*
X2391Y981D01*
X366Y980D02*
X384Y980D01*
X2373Y980D02*
X2391Y980D01*
X366Y979D02*
X384Y979D01*
X2373Y979D02*
X2391Y979D01*
X366Y978D02*
X384Y978D01*
X2373Y978D02*
X2391Y978D01*
X366Y977D02*
X384Y977D01*
X2373Y977D02*
X2391Y977D01*
X366Y976D02*
X384Y976D01*
X2373Y976D02*
X2391Y976D01*
X366Y975D02*
X384Y975D01*
X2373Y975D02*
X2391Y975D01*
X366Y974D02*
X384Y974D01*
X2373Y974D02*
X2391Y974D01*
X238Y973D02*
X246Y973D01*
X265Y973D02*
X273Y973D01*
X366Y973D02*
X384Y973D01*
X2373Y973D02*
X2391Y973D01*
X237Y972D02*
X248Y972D01*
X263Y972D02*
X274Y972D01*
X366Y972D02*
X384Y972D01*
X2373Y972D02*
X2391Y972D01*
X236Y971D02*
X248Y971D01*
X263Y971D02*
X275Y971D01*
X366Y971D02*
X384Y971D01*
X2373Y971D02*
X2391Y971D01*
X235Y970D02*
X249Y970D01*
X262Y970D02*
X276Y970D01*
X366Y970D02*
X384Y970D01*
X2373Y970D02*
X2391Y970D01*
X235Y969D02*
X249Y969D01*
X262Y969D02*
X276Y969D01*
X366Y969D02*
X384Y969D01*
X2373Y969D02*
X2391Y969D01*
X235Y968D02*
X249Y968D01*
X262Y968D02*
X276Y968D01*
X366Y968D02*
X384Y968D01*
X2373Y968D02*
X2391Y968D01*
X235Y967D02*
X249Y967D01*
X262Y967D02*
X276Y967D01*
X366Y967D02*
X384Y967D01*
X2373Y967D02*
X2391Y967D01*
X235Y966D02*
X249Y966D01*
X262Y966D02*
X276Y966D01*
X366Y966D02*
X384Y966D01*
X2373Y966D02*
X2391Y966D01*
X235Y965D02*
X249Y965D01*
X262Y965D02*
X276Y965D01*
X366Y965D02*
X384Y965D01*
X2373Y965D02*
X2391Y965D01*
X235Y964D02*
X249Y964D01*
X262Y964D02*
X276Y964D01*
X366Y964D02*
X384Y964D01*
X2373Y964D02*
X2391Y964D01*
X235Y963D02*
X249Y963D01*
X262Y963D02*
X276Y963D01*
X366Y963D02*
X384Y963D01*
X2373Y963D02*
X2391Y963D01*
X235Y962D02*
X249Y962D01*
X262Y962D02*
X276Y962D01*
X366Y962D02*
X384Y962D01*
X2373Y962D02*
X2391Y962D01*
X235Y961D02*
X249Y961D01*
X262Y961D02*
X276Y961D01*
X366Y961D02*
X384Y961D01*
X2373Y961D02*
X2391Y961D01*
X236Y960D02*
X249Y960D01*
X262Y960D02*
X275Y960D01*
X366Y960D02*
X384Y960D01*
X2373Y960D02*
X2391Y960D01*
X236Y959D02*
X248Y959D01*
X263Y959D02*
X275Y959D01*
X366Y959D02*
X384Y959D01*
X2373Y959D02*
X2391Y959D01*
X237Y958D02*
X247Y958D01*
X264Y958D02*
X274Y958D01*
X366Y958D02*
X384Y958D01*
X2373Y958D02*
X2391Y958D01*
X366Y957D02*
X384Y957D01*
X2373Y957D02*
X2391Y957D01*
X366Y956D02*
X384Y956D01*
X2373Y956D02*
X2391Y956D01*
X366Y955D02*
X384Y955D01*
X2373Y955D02*
X2391Y955D01*
X366Y954D02*
X384Y954D01*
X2373Y954D02*
X2391Y954D01*
X366Y953D02*
X384Y953D01*
X2373Y953D02*
X2391Y953D01*
X366Y952D02*
X384Y952D01*
X2373Y952D02*
X2391Y952D01*
X366Y951D02*
X384Y951D01*
X2373Y951D02*
X2391Y951D01*
X366Y950D02*
X384Y950D01*
X2373Y950D02*
X2391Y950D01*
X366Y949D02*
X384Y949D01*
X2373Y949D02*
X2391Y949D01*
X366Y948D02*
X384Y948D01*
X2373Y948D02*
X2391Y948D01*
X366Y947D02*
X384Y947D01*
X2373Y947D02*
X2391Y947D01*
X366Y946D02*
X384Y946D01*
X2373Y946D02*
X2391Y946D01*
X366Y945D02*
X384Y945D01*
X2373Y945D02*
X2391Y945D01*
X366Y944D02*
X384Y944D01*
X2373Y944D02*
X2391Y944D01*
X366Y943D02*
X384Y943D01*
X2373Y943D02*
X2391Y943D01*
X366Y942D02*
X384Y942D01*
X2373Y942D02*
X2391Y942D01*
X366Y941D02*
X384Y941D01*
X2373Y941D02*
X2391Y941D01*
X366Y940D02*
X384Y940D01*
X2373Y940D02*
X2391Y940D01*
X366Y939D02*
X384Y939D01*
X2373Y939D02*
X2391Y939D01*
X366Y938D02*
X384Y938D01*
X2373Y938D02*
X2391Y938D01*
X366Y937D02*
X384Y937D01*
X2373Y937D02*
X2391Y937D01*
X366Y936D02*
X384Y936D01*
X2373Y936D02*
X2391Y936D01*
X366Y935D02*
X384Y935D01*
X2373Y935D02*
X2391Y935D01*
X366Y934D02*
X384Y934D01*
X2373Y934D02*
X2391Y934D01*
X366Y933D02*
X384Y933D01*
X2373Y933D02*
X2391Y933D01*
X366Y932D02*
X384Y932D01*
X2373Y932D02*
X2391Y932D01*
X366Y931D02*
X384Y931D01*
X2373Y931D02*
X2391Y931D01*
X366Y930D02*
X384Y930D01*
X2373Y930D02*
X2391Y930D01*
X366Y929D02*
X384Y929D01*
X2373Y929D02*
X2391Y929D01*
X366Y928D02*
X384Y928D01*
X2373Y928D02*
X2391Y928D01*
X280Y927D02*
X284Y927D01*
X366Y927D02*
X384Y927D01*
X2373Y927D02*
X2391Y927D01*
X278Y926D02*
X285Y926D01*
X366Y926D02*
X384Y926D01*
X2373Y926D02*
X2391Y926D01*
X277Y925D02*
X286Y925D01*
X366Y925D02*
X384Y925D01*
X2373Y925D02*
X2391Y925D01*
X275Y924D02*
X286Y924D01*
X366Y924D02*
X384Y924D01*
X2373Y924D02*
X2391Y924D01*
X273Y923D02*
X286Y923D01*
X366Y923D02*
X384Y923D01*
X2373Y923D02*
X2391Y923D01*
X271Y922D02*
X285Y922D01*
X366Y922D02*
X384Y922D01*
X2373Y922D02*
X2391Y922D01*
X270Y921D02*
X284Y921D01*
X366Y921D02*
X384Y921D01*
X2373Y921D02*
X2391Y921D01*
X268Y920D02*
X283Y920D01*
X366Y920D02*
X384Y920D01*
X2373Y920D02*
X2391Y920D01*
X266Y919D02*
X281Y919D01*
X366Y919D02*
X384Y919D01*
X2373Y919D02*
X2391Y919D01*
X265Y918D02*
X279Y918D01*
X366Y918D02*
X384Y918D01*
X2373Y918D02*
X2391Y918D01*
X263Y917D02*
X278Y917D01*
X366Y917D02*
X384Y917D01*
X2373Y917D02*
X2391Y917D01*
X261Y916D02*
X276Y916D01*
X366Y916D02*
X384Y916D01*
X2373Y916D02*
X2391Y916D01*
X259Y915D02*
X274Y915D01*
X366Y915D02*
X384Y915D01*
X2373Y915D02*
X2391Y915D01*
X258Y914D02*
X273Y914D01*
X366Y914D02*
X384Y914D01*
X2373Y914D02*
X2391Y914D01*
X256Y913D02*
X271Y913D01*
X366Y913D02*
X384Y913D01*
X2373Y913D02*
X2391Y913D01*
X254Y912D02*
X269Y912D01*
X366Y912D02*
X384Y912D01*
X2373Y912D02*
X2391Y912D01*
X253Y911D02*
X267Y911D01*
X366Y911D02*
X384Y911D01*
X2373Y911D02*
X2391Y911D01*
X251Y910D02*
X266Y910D01*
X366Y910D02*
X384Y910D01*
X2373Y910D02*
X2391Y910D01*
X249Y909D02*
X264Y909D01*
X366Y909D02*
X384Y909D01*
X2373Y909D02*
X2391Y909D01*
X247Y908D02*
X262Y908D01*
X366Y908D02*
X384Y908D01*
X2373Y908D02*
X2391Y908D01*
X246Y907D02*
X261Y907D01*
X366Y907D02*
X384Y907D01*
X2373Y907D02*
X2391Y907D01*
X244Y906D02*
X259Y906D01*
X366Y906D02*
X384Y906D01*
X2373Y906D02*
X2391Y906D01*
X242Y905D02*
X257Y905D01*
X366Y905D02*
X384Y905D01*
X2373Y905D02*
X2391Y905D01*
X241Y904D02*
X255Y904D01*
X366Y904D02*
X384Y904D01*
X2373Y904D02*
X2391Y904D01*
X239Y903D02*
X254Y903D01*
X366Y903D02*
X384Y903D01*
X2373Y903D02*
X2391Y903D01*
X237Y902D02*
X252Y902D01*
X366Y902D02*
X384Y902D01*
X2373Y902D02*
X2391Y902D01*
X235Y901D02*
X250Y901D01*
X366Y901D02*
X384Y901D01*
X2373Y901D02*
X2391Y901D01*
X234Y900D02*
X249Y900D01*
X366Y900D02*
X384Y900D01*
X2373Y900D02*
X2391Y900D01*
X232Y899D02*
X247Y899D01*
X366Y899D02*
X384Y899D01*
X2373Y899D02*
X2391Y899D01*
X230Y898D02*
X245Y898D01*
X366Y898D02*
X384Y898D01*
X2373Y898D02*
X2391Y898D01*
X229Y897D02*
X243Y897D01*
X366Y897D02*
X384Y897D01*
X2373Y897D02*
X2391Y897D01*
X227Y896D02*
X242Y896D01*
X366Y896D02*
X384Y896D01*
X2373Y896D02*
X2391Y896D01*
X226Y895D02*
X240Y895D01*
X366Y895D02*
X384Y895D01*
X2373Y895D02*
X2391Y895D01*
X226Y894D02*
X238Y894D01*
X366Y894D02*
X384Y894D01*
X2373Y894D02*
X2391Y894D01*
X225Y893D02*
X237Y893D01*
X366Y893D02*
X384Y893D01*
X2373Y893D02*
X2391Y893D01*
X225Y892D02*
X235Y892D01*
X366Y892D02*
X384Y892D01*
X2373Y892D02*
X2391Y892D01*
X226Y891D02*
X233Y891D01*
X366Y891D02*
X384Y891D01*
X2373Y891D02*
X2391Y891D01*
X226Y890D02*
X231Y890D01*
X366Y890D02*
X384Y890D01*
X524Y890D02*
X530Y890D01*
X2373Y890D02*
X2391Y890D01*
X228Y889D02*
X230Y889D01*
X366Y889D02*
X384Y889D01*
X523Y889D02*
X531Y889D01*
X2373Y889D02*
X2391Y889D01*
X366Y888D02*
X384Y888D01*
X523Y888D02*
X532Y888D01*
X2373Y888D02*
X2391Y888D01*
X366Y887D02*
X384Y887D01*
X523Y887D02*
X532Y887D01*
X2373Y887D02*
X2391Y887D01*
X366Y886D02*
X384Y886D01*
X523Y886D02*
X532Y886D01*
X2373Y886D02*
X2391Y886D01*
X366Y885D02*
X384Y885D01*
X523Y885D02*
X532Y885D01*
X2373Y885D02*
X2391Y885D01*
X366Y884D02*
X384Y884D01*
X523Y884D02*
X532Y884D01*
X2373Y884D02*
X2391Y884D01*
X366Y883D02*
X384Y883D01*
X523Y883D02*
X532Y883D01*
X2251Y883D02*
X2257Y883D01*
X2373Y883D02*
X2391Y883D01*
X366Y882D02*
X384Y882D01*
X523Y882D02*
X532Y882D01*
X2250Y882D02*
X2258Y882D01*
X2373Y882D02*
X2391Y882D01*
X366Y881D02*
X384Y881D01*
X523Y881D02*
X532Y881D01*
X2250Y881D02*
X2258Y881D01*
X2373Y881D02*
X2391Y881D01*
X366Y880D02*
X384Y880D01*
X523Y880D02*
X532Y880D01*
X2250Y880D02*
X2258Y880D01*
X2373Y880D02*
X2391Y880D01*
X366Y879D02*
X384Y879D01*
X523Y879D02*
X532Y879D01*
X2250Y879D02*
X2259Y879D01*
X2373Y879D02*
X2391Y879D01*
X366Y878D02*
X384Y878D01*
X523Y878D02*
X532Y878D01*
X2250Y878D02*
X2259Y878D01*
X2373Y878D02*
X2391Y878D01*
X366Y877D02*
X384Y877D01*
X523Y877D02*
X532Y877D01*
X2250Y877D02*
X2259Y877D01*
X2373Y877D02*
X2391Y877D01*
X366Y876D02*
X384Y876D01*
X523Y876D02*
X532Y876D01*
X2250Y876D02*
X2259Y876D01*
X2373Y876D02*
X2391Y876D01*
X366Y875D02*
X384Y875D01*
X523Y875D02*
X532Y875D01*
X2250Y875D02*
X2259Y875D01*
X2373Y875D02*
X2391Y875D01*
X366Y874D02*
X384Y874D01*
X523Y874D02*
X532Y874D01*
X2250Y874D02*
X2259Y874D01*
X2373Y874D02*
X2391Y874D01*
X366Y873D02*
X384Y873D01*
X523Y873D02*
X532Y873D01*
X2250Y873D02*
X2259Y873D01*
X2373Y873D02*
X2391Y873D01*
X366Y872D02*
X384Y872D01*
X523Y872D02*
X532Y872D01*
X2250Y872D02*
X2259Y872D01*
X2373Y872D02*
X2391Y872D01*
X282Y871D02*
X282Y871D01*
X366Y871D02*
X384Y871D01*
X523Y871D02*
X532Y871D01*
X2250Y871D02*
X2259Y871D01*
X2373Y871D02*
X2391Y871D01*
X280Y870D02*
X284Y870D01*
X366Y870D02*
X384Y870D01*
X523Y870D02*
X532Y870D01*
X2250Y870D02*
X2259Y870D01*
X2373Y870D02*
X2391Y870D01*
X278Y869D02*
X285Y869D01*
X366Y869D02*
X384Y869D01*
X523Y869D02*
X532Y869D01*
X2250Y869D02*
X2259Y869D01*
X2373Y869D02*
X2391Y869D01*
X276Y868D02*
X286Y868D01*
X366Y868D02*
X384Y868D01*
X523Y868D02*
X532Y868D01*
X2250Y868D02*
X2259Y868D01*
X2373Y868D02*
X2391Y868D01*
X275Y867D02*
X286Y867D01*
X366Y867D02*
X384Y867D01*
X523Y867D02*
X532Y867D01*
X2250Y867D02*
X2259Y867D01*
X2373Y867D02*
X2391Y867D01*
X273Y866D02*
X286Y866D01*
X366Y866D02*
X384Y866D01*
X523Y866D02*
X532Y866D01*
X2250Y866D02*
X2259Y866D01*
X2373Y866D02*
X2391Y866D01*
X271Y865D02*
X285Y865D01*
X366Y865D02*
X384Y865D01*
X523Y865D02*
X532Y865D01*
X2250Y865D02*
X2259Y865D01*
X2373Y865D02*
X2391Y865D01*
X269Y864D02*
X284Y864D01*
X366Y864D02*
X384Y864D01*
X523Y864D02*
X532Y864D01*
X2250Y864D02*
X2259Y864D01*
X2373Y864D02*
X2391Y864D01*
X268Y863D02*
X283Y863D01*
X366Y863D02*
X384Y863D01*
X523Y863D02*
X532Y863D01*
X2250Y863D02*
X2259Y863D01*
X2373Y863D02*
X2391Y863D01*
X266Y862D02*
X281Y862D01*
X366Y862D02*
X384Y862D01*
X523Y862D02*
X532Y862D01*
X2250Y862D02*
X2259Y862D01*
X2373Y862D02*
X2391Y862D01*
X264Y861D02*
X279Y861D01*
X366Y861D02*
X384Y861D01*
X523Y861D02*
X532Y861D01*
X2250Y861D02*
X2259Y861D01*
X2373Y861D02*
X2391Y861D01*
X263Y860D02*
X277Y860D01*
X366Y860D02*
X384Y860D01*
X523Y860D02*
X532Y860D01*
X2250Y860D02*
X2259Y860D01*
X2373Y860D02*
X2391Y860D01*
X261Y859D02*
X276Y859D01*
X366Y859D02*
X384Y859D01*
X523Y859D02*
X532Y859D01*
X2250Y859D02*
X2259Y859D01*
X2373Y859D02*
X2391Y859D01*
X259Y858D02*
X274Y858D01*
X366Y858D02*
X384Y858D01*
X523Y858D02*
X531Y858D01*
X2250Y858D02*
X2259Y858D01*
X2373Y858D02*
X2391Y858D01*
X258Y857D02*
X272Y857D01*
X366Y857D02*
X384Y857D01*
X524Y857D02*
X530Y857D01*
X2250Y857D02*
X2259Y857D01*
X2373Y857D02*
X2391Y857D01*
X256Y856D02*
X271Y856D01*
X366Y856D02*
X384Y856D01*
X2250Y856D02*
X2259Y856D01*
X2373Y856D02*
X2391Y856D01*
X254Y855D02*
X269Y855D01*
X366Y855D02*
X384Y855D01*
X2250Y855D02*
X2259Y855D01*
X2373Y855D02*
X2391Y855D01*
X252Y854D02*
X267Y854D01*
X366Y854D02*
X384Y854D01*
X2250Y854D02*
X2259Y854D01*
X2373Y854D02*
X2391Y854D01*
X251Y853D02*
X266Y853D01*
X366Y853D02*
X384Y853D01*
X2250Y853D02*
X2259Y853D01*
X2373Y853D02*
X2391Y853D01*
X249Y852D02*
X264Y852D01*
X366Y852D02*
X384Y852D01*
X2250Y852D02*
X2258Y852D01*
X2373Y852D02*
X2391Y852D01*
X247Y851D02*
X262Y851D01*
X366Y851D02*
X384Y851D01*
X2250Y851D02*
X2258Y851D01*
X2373Y851D02*
X2391Y851D01*
X246Y850D02*
X260Y850D01*
X366Y850D02*
X384Y850D01*
X2251Y850D02*
X2257Y850D01*
X2373Y850D02*
X2391Y850D01*
X244Y849D02*
X259Y849D01*
X366Y849D02*
X384Y849D01*
X2373Y849D02*
X2391Y849D01*
X242Y848D02*
X257Y848D01*
X366Y848D02*
X384Y848D01*
X2373Y848D02*
X2391Y848D01*
X240Y847D02*
X255Y847D01*
X366Y847D02*
X384Y847D01*
X2373Y847D02*
X2391Y847D01*
X239Y846D02*
X254Y846D01*
X366Y846D02*
X384Y846D01*
X2373Y846D02*
X2391Y846D01*
X237Y845D02*
X252Y845D01*
X366Y845D02*
X384Y845D01*
X2373Y845D02*
X2391Y845D01*
X235Y844D02*
X250Y844D01*
X366Y844D02*
X384Y844D01*
X2373Y844D02*
X2391Y844D01*
X234Y843D02*
X248Y843D01*
X366Y843D02*
X384Y843D01*
X2373Y843D02*
X2391Y843D01*
X232Y842D02*
X247Y842D01*
X366Y842D02*
X384Y842D01*
X2373Y842D02*
X2391Y842D01*
X230Y841D02*
X245Y841D01*
X366Y841D02*
X384Y841D01*
X2373Y841D02*
X2391Y841D01*
X228Y840D02*
X243Y840D01*
X366Y840D02*
X384Y840D01*
X2373Y840D02*
X2391Y840D01*
X227Y839D02*
X242Y839D01*
X366Y839D02*
X384Y839D01*
X2373Y839D02*
X2391Y839D01*
X226Y838D02*
X240Y838D01*
X366Y838D02*
X384Y838D01*
X2373Y838D02*
X2391Y838D01*
X225Y837D02*
X238Y837D01*
X366Y837D02*
X384Y837D01*
X2373Y837D02*
X2391Y837D01*
X225Y836D02*
X236Y836D01*
X366Y836D02*
X384Y836D01*
X2373Y836D02*
X2391Y836D01*
X225Y835D02*
X235Y835D01*
X366Y835D02*
X384Y835D01*
X2373Y835D02*
X2391Y835D01*
X226Y834D02*
X233Y834D01*
X366Y834D02*
X384Y834D01*
X2373Y834D02*
X2391Y834D01*
X227Y833D02*
X231Y833D01*
X366Y833D02*
X384Y833D01*
X2373Y833D02*
X2391Y833D01*
X229Y832D02*
X229Y832D01*
X366Y832D02*
X384Y832D01*
X2373Y832D02*
X2391Y832D01*
X366Y831D02*
X384Y831D01*
X2373Y831D02*
X2391Y831D01*
X366Y830D02*
X384Y830D01*
X2373Y830D02*
X2391Y830D01*
X366Y829D02*
X384Y829D01*
X2373Y829D02*
X2391Y829D01*
X366Y828D02*
X384Y828D01*
X2373Y828D02*
X2391Y828D01*
X366Y827D02*
X384Y827D01*
X2373Y827D02*
X2391Y827D01*
X366Y826D02*
X384Y826D01*
X2373Y826D02*
X2391Y826D01*
X366Y825D02*
X384Y825D01*
X2373Y825D02*
X2391Y825D01*
X366Y824D02*
X384Y824D01*
X2373Y824D02*
X2391Y824D01*
X366Y823D02*
X384Y823D01*
X2373Y823D02*
X2391Y823D01*
X366Y822D02*
X384Y822D01*
X2373Y822D02*
X2391Y822D01*
X366Y821D02*
X384Y821D01*
X2373Y821D02*
X2391Y821D01*
X366Y820D02*
X384Y820D01*
X2373Y820D02*
X2391Y820D01*
X366Y819D02*
X384Y819D01*
X2373Y819D02*
X2391Y819D01*
X366Y818D02*
X384Y818D01*
X2373Y818D02*
X2391Y818D01*
X366Y817D02*
X384Y817D01*
X2373Y817D02*
X2391Y817D01*
X366Y816D02*
X384Y816D01*
X2373Y816D02*
X2391Y816D01*
X366Y815D02*
X384Y815D01*
X2373Y815D02*
X2391Y815D01*
X243Y814D02*
X299Y814D01*
X366Y814D02*
X384Y814D01*
X2373Y814D02*
X2391Y814D01*
X242Y813D02*
X301Y813D01*
X366Y813D02*
X384Y813D01*
X2373Y813D02*
X2391Y813D01*
X241Y812D02*
X302Y812D01*
X366Y812D02*
X384Y812D01*
X2373Y812D02*
X2391Y812D01*
X240Y811D02*
X302Y811D01*
X366Y811D02*
X384Y811D01*
X2373Y811D02*
X2391Y811D01*
X240Y810D02*
X302Y810D01*
X366Y810D02*
X384Y810D01*
X2373Y810D02*
X2391Y810D01*
X241Y809D02*
X302Y809D01*
X366Y809D02*
X384Y809D01*
X2373Y809D02*
X2391Y809D01*
X241Y808D02*
X302Y808D01*
X366Y808D02*
X384Y808D01*
X2373Y808D02*
X2391Y808D01*
X242Y807D02*
X301Y807D01*
X366Y807D02*
X384Y807D01*
X2373Y807D02*
X2391Y807D01*
X246Y806D02*
X257Y806D01*
X270Y806D02*
X282Y806D01*
X366Y806D02*
X384Y806D01*
X2373Y806D02*
X2391Y806D01*
X245Y805D02*
X255Y805D01*
X272Y805D02*
X283Y805D01*
X366Y805D02*
X384Y805D01*
X2373Y805D02*
X2391Y805D01*
X244Y804D02*
X254Y804D01*
X273Y804D02*
X284Y804D01*
X366Y804D02*
X384Y804D01*
X2373Y804D02*
X2391Y804D01*
X243Y803D02*
X253Y803D01*
X274Y803D02*
X285Y803D01*
X366Y803D02*
X384Y803D01*
X2373Y803D02*
X2391Y803D01*
X243Y802D02*
X252Y802D01*
X275Y802D02*
X285Y802D01*
X366Y802D02*
X384Y802D01*
X2373Y802D02*
X2391Y802D01*
X242Y801D02*
X251Y801D01*
X276Y801D02*
X286Y801D01*
X366Y801D02*
X384Y801D01*
X2373Y801D02*
X2391Y801D01*
X241Y800D02*
X250Y800D01*
X277Y800D02*
X286Y800D01*
X366Y800D02*
X384Y800D01*
X2373Y800D02*
X2391Y800D01*
X241Y799D02*
X249Y799D01*
X278Y799D02*
X287Y799D01*
X366Y799D02*
X384Y799D01*
X2373Y799D02*
X2391Y799D01*
X241Y798D02*
X248Y798D01*
X279Y798D02*
X287Y798D01*
X366Y798D02*
X384Y798D01*
X2373Y798D02*
X2391Y798D01*
X240Y797D02*
X248Y797D01*
X280Y797D02*
X287Y797D01*
X366Y797D02*
X384Y797D01*
X2373Y797D02*
X2391Y797D01*
X240Y796D02*
X247Y796D01*
X280Y796D02*
X287Y796D01*
X366Y796D02*
X384Y796D01*
X2373Y796D02*
X2391Y796D01*
X240Y795D02*
X247Y795D01*
X280Y795D02*
X287Y795D01*
X366Y795D02*
X384Y795D01*
X2373Y795D02*
X2391Y795D01*
X240Y794D02*
X247Y794D01*
X280Y794D02*
X287Y794D01*
X366Y794D02*
X384Y794D01*
X2373Y794D02*
X2391Y794D01*
X240Y793D02*
X247Y793D01*
X280Y793D02*
X287Y793D01*
X366Y793D02*
X384Y793D01*
X2373Y793D02*
X2391Y793D01*
X240Y792D02*
X248Y792D01*
X280Y792D02*
X287Y792D01*
X366Y792D02*
X384Y792D01*
X2373Y792D02*
X2391Y792D01*
X241Y791D02*
X248Y791D01*
X279Y791D02*
X287Y791D01*
X366Y791D02*
X384Y791D01*
X2373Y791D02*
X2391Y791D01*
X241Y790D02*
X249Y790D01*
X279Y790D02*
X287Y790D01*
X366Y790D02*
X384Y790D01*
X2373Y790D02*
X2391Y790D01*
X241Y789D02*
X250Y789D01*
X278Y789D02*
X286Y789D01*
X366Y789D02*
X384Y789D01*
X2373Y789D02*
X2391Y789D01*
X242Y788D02*
X251Y788D01*
X277Y788D02*
X286Y788D01*
X366Y788D02*
X384Y788D01*
X2373Y788D02*
X2391Y788D01*
X242Y787D02*
X252Y787D01*
X276Y787D02*
X285Y787D01*
X366Y787D02*
X384Y787D01*
X2373Y787D02*
X2391Y787D01*
X243Y786D02*
X253Y786D01*
X275Y786D02*
X285Y786D01*
X366Y786D02*
X384Y786D01*
X2373Y786D02*
X2391Y786D01*
X244Y785D02*
X253Y785D01*
X274Y785D02*
X284Y785D01*
X366Y785D02*
X384Y785D01*
X2373Y785D02*
X2391Y785D01*
X245Y784D02*
X254Y784D01*
X273Y784D02*
X283Y784D01*
X366Y784D02*
X384Y784D01*
X2373Y784D02*
X2391Y784D01*
X246Y783D02*
X257Y783D01*
X271Y783D02*
X282Y783D01*
X366Y783D02*
X384Y783D01*
X2373Y783D02*
X2391Y783D01*
X246Y782D02*
X281Y782D01*
X366Y782D02*
X384Y782D01*
X2373Y782D02*
X2391Y782D01*
X247Y781D02*
X280Y781D01*
X366Y781D02*
X384Y781D01*
X2373Y781D02*
X2391Y781D01*
X248Y780D02*
X279Y780D01*
X366Y780D02*
X384Y780D01*
X2373Y780D02*
X2391Y780D01*
X249Y779D02*
X279Y779D01*
X366Y779D02*
X384Y779D01*
X2373Y779D02*
X2391Y779D01*
X250Y778D02*
X277Y778D01*
X366Y778D02*
X384Y778D01*
X2373Y778D02*
X2391Y778D01*
X252Y777D02*
X276Y777D01*
X366Y777D02*
X384Y777D01*
X2373Y777D02*
X2391Y777D01*
X253Y776D02*
X275Y776D01*
X366Y776D02*
X384Y776D01*
X2373Y776D02*
X2391Y776D01*
X257Y775D02*
X270Y775D01*
X366Y775D02*
X384Y775D01*
X2373Y775D02*
X2391Y775D01*
X366Y774D02*
X384Y774D01*
X2373Y774D02*
X2391Y774D01*
X366Y773D02*
X384Y773D01*
X2373Y773D02*
X2391Y773D01*
X366Y772D02*
X384Y772D01*
X2373Y772D02*
X2391Y772D01*
X366Y771D02*
X384Y771D01*
X2373Y771D02*
X2391Y771D01*
X366Y770D02*
X384Y770D01*
X2373Y770D02*
X2391Y770D01*
X366Y769D02*
X384Y769D01*
X2373Y769D02*
X2391Y769D01*
X366Y768D02*
X384Y768D01*
X2373Y768D02*
X2391Y768D01*
X366Y767D02*
X384Y767D01*
X2373Y767D02*
X2391Y767D01*
X366Y766D02*
X384Y766D01*
X2373Y766D02*
X2391Y766D01*
X366Y765D02*
X384Y765D01*
X2373Y765D02*
X2391Y765D01*
X366Y764D02*
X384Y764D01*
X2373Y764D02*
X2391Y764D01*
X366Y763D02*
X384Y763D01*
X2373Y763D02*
X2391Y763D01*
X366Y762D02*
X384Y762D01*
X2373Y762D02*
X2391Y762D01*
X366Y761D02*
X384Y761D01*
X2373Y761D02*
X2391Y761D01*
X366Y760D02*
X384Y760D01*
X2373Y760D02*
X2391Y760D01*
X366Y759D02*
X384Y759D01*
X2373Y759D02*
X2391Y759D01*
X366Y758D02*
X384Y758D01*
X2373Y758D02*
X2391Y758D01*
X254Y757D02*
X274Y757D01*
X366Y757D02*
X384Y757D01*
X2373Y757D02*
X2391Y757D01*
X251Y756D02*
X277Y756D01*
X366Y756D02*
X384Y756D01*
X2373Y756D02*
X2391Y756D01*
X249Y755D02*
X278Y755D01*
X366Y755D02*
X384Y755D01*
X2373Y755D02*
X2391Y755D01*
X248Y754D02*
X280Y754D01*
X366Y754D02*
X384Y754D01*
X2373Y754D02*
X2391Y754D01*
X247Y753D02*
X281Y753D01*
X366Y753D02*
X384Y753D01*
X2373Y753D02*
X2391Y753D01*
X246Y752D02*
X281Y752D01*
X366Y752D02*
X384Y752D01*
X2373Y752D02*
X2391Y752D01*
X245Y751D02*
X282Y751D01*
X366Y751D02*
X384Y751D01*
X2373Y751D02*
X2391Y751D01*
X245Y750D02*
X283Y750D01*
X366Y750D02*
X384Y750D01*
X2373Y750D02*
X2391Y750D01*
X244Y749D02*
X254Y749D01*
X262Y749D02*
X269Y749D01*
X274Y749D02*
X284Y749D01*
X366Y749D02*
X384Y749D01*
X2373Y749D02*
X2391Y749D01*
X243Y748D02*
X252Y748D01*
X262Y748D02*
X269Y748D01*
X275Y748D02*
X284Y748D01*
X366Y748D02*
X384Y748D01*
X2373Y748D02*
X2391Y748D01*
X243Y747D02*
X251Y747D01*
X262Y747D02*
X269Y747D01*
X276Y747D02*
X285Y747D01*
X366Y747D02*
X384Y747D01*
X2373Y747D02*
X2391Y747D01*
X242Y746D02*
X251Y746D01*
X262Y746D02*
X269Y746D01*
X277Y746D02*
X285Y746D01*
X366Y746D02*
X384Y746D01*
X2373Y746D02*
X2391Y746D01*
X242Y745D02*
X250Y745D01*
X262Y745D02*
X269Y745D01*
X278Y745D02*
X285Y745D01*
X366Y745D02*
X384Y745D01*
X2373Y745D02*
X2391Y745D01*
X242Y744D02*
X249Y744D01*
X262Y744D02*
X269Y744D01*
X278Y744D02*
X286Y744D01*
X366Y744D02*
X384Y744D01*
X2373Y744D02*
X2391Y744D01*
X242Y743D02*
X249Y743D01*
X262Y743D02*
X269Y743D01*
X279Y743D02*
X286Y743D01*
X366Y743D02*
X384Y743D01*
X2373Y743D02*
X2391Y743D01*
X242Y742D02*
X249Y742D01*
X262Y742D02*
X269Y742D01*
X279Y742D02*
X286Y742D01*
X366Y742D02*
X384Y742D01*
X2373Y742D02*
X2391Y742D01*
X242Y741D02*
X249Y741D01*
X262Y741D02*
X269Y741D01*
X279Y741D02*
X286Y741D01*
X366Y741D02*
X384Y741D01*
X2373Y741D02*
X2391Y741D01*
X242Y740D02*
X249Y740D01*
X262Y740D02*
X269Y740D01*
X279Y740D02*
X286Y740D01*
X366Y740D02*
X384Y740D01*
X2373Y740D02*
X2391Y740D01*
X242Y739D02*
X249Y739D01*
X262Y739D02*
X269Y739D01*
X279Y739D02*
X286Y739D01*
X366Y739D02*
X384Y739D01*
X2373Y739D02*
X2391Y739D01*
X242Y738D02*
X249Y738D01*
X262Y738D02*
X269Y738D01*
X279Y738D02*
X286Y738D01*
X366Y738D02*
X384Y738D01*
X2373Y738D02*
X2391Y738D01*
X242Y737D02*
X249Y737D01*
X262Y737D02*
X269Y737D01*
X279Y737D02*
X286Y737D01*
X366Y737D02*
X384Y737D01*
X2373Y737D02*
X2391Y737D01*
X242Y736D02*
X249Y736D01*
X262Y736D02*
X269Y736D01*
X279Y736D02*
X286Y736D01*
X366Y736D02*
X384Y736D01*
X2373Y736D02*
X2391Y736D01*
X242Y735D02*
X249Y735D01*
X262Y735D02*
X269Y735D01*
X279Y735D02*
X286Y735D01*
X366Y735D02*
X384Y735D01*
X2373Y735D02*
X2391Y735D01*
X242Y734D02*
X249Y734D01*
X262Y734D02*
X269Y734D01*
X279Y734D02*
X286Y734D01*
X366Y734D02*
X384Y734D01*
X2373Y734D02*
X2391Y734D01*
X242Y733D02*
X249Y733D01*
X262Y733D02*
X269Y733D01*
X279Y733D02*
X286Y733D01*
X366Y733D02*
X384Y733D01*
X2373Y733D02*
X2391Y733D01*
X242Y732D02*
X249Y732D01*
X262Y732D02*
X269Y732D01*
X279Y732D02*
X286Y732D01*
X366Y732D02*
X384Y732D01*
X2373Y732D02*
X2391Y732D01*
X242Y731D02*
X249Y731D01*
X262Y731D02*
X269Y731D01*
X279Y731D02*
X286Y731D01*
X366Y731D02*
X384Y731D01*
X2373Y731D02*
X2391Y731D01*
X242Y730D02*
X250Y730D01*
X262Y730D02*
X269Y730D01*
X279Y730D02*
X286Y730D01*
X366Y730D02*
X384Y730D01*
X2373Y730D02*
X2391Y730D01*
X243Y729D02*
X251Y729D01*
X262Y729D02*
X269Y729D01*
X279Y729D02*
X286Y729D01*
X366Y729D02*
X384Y729D01*
X2373Y729D02*
X2391Y729D01*
X243Y728D02*
X252Y728D01*
X262Y728D02*
X269Y728D01*
X279Y728D02*
X286Y728D01*
X366Y728D02*
X384Y728D01*
X2373Y728D02*
X2391Y728D01*
X244Y727D02*
X253Y727D01*
X262Y727D02*
X269Y727D01*
X279Y727D02*
X286Y727D01*
X366Y727D02*
X384Y727D01*
X2373Y727D02*
X2391Y727D01*
X244Y726D02*
X269Y726D01*
X279Y726D02*
X286Y726D01*
X366Y726D02*
X384Y726D01*
X2373Y726D02*
X2391Y726D01*
X245Y725D02*
X269Y725D01*
X279Y725D02*
X286Y725D01*
X366Y725D02*
X384Y725D01*
X2373Y725D02*
X2391Y725D01*
X246Y724D02*
X269Y724D01*
X279Y724D02*
X286Y724D01*
X366Y724D02*
X384Y724D01*
X2373Y724D02*
X2391Y724D01*
X247Y723D02*
X269Y723D01*
X279Y723D02*
X286Y723D01*
X366Y723D02*
X384Y723D01*
X2373Y723D02*
X2391Y723D01*
X248Y722D02*
X269Y722D01*
X279Y722D02*
X286Y722D01*
X366Y722D02*
X384Y722D01*
X2373Y722D02*
X2391Y722D01*
X249Y721D02*
X269Y721D01*
X279Y721D02*
X285Y721D01*
X366Y721D02*
X384Y721D01*
X2373Y721D02*
X2391Y721D01*
X250Y720D02*
X268Y720D01*
X279Y720D02*
X285Y720D01*
X366Y720D02*
X384Y720D01*
X2373Y720D02*
X2391Y720D01*
X252Y719D02*
X267Y719D01*
X280Y719D02*
X284Y719D01*
X366Y719D02*
X384Y719D01*
X2373Y719D02*
X2391Y719D01*
X366Y718D02*
X384Y718D01*
X2373Y718D02*
X2391Y718D01*
X366Y717D02*
X384Y717D01*
X2373Y717D02*
X2391Y717D01*
X366Y716D02*
X384Y716D01*
X2373Y716D02*
X2391Y716D01*
X366Y715D02*
X384Y715D01*
X2373Y715D02*
X2391Y715D01*
X366Y714D02*
X384Y714D01*
X2373Y714D02*
X2391Y714D01*
X366Y713D02*
X384Y713D01*
X2373Y713D02*
X2391Y713D01*
X366Y712D02*
X384Y712D01*
X2373Y712D02*
X2391Y712D01*
X366Y711D02*
X384Y711D01*
X2373Y711D02*
X2391Y711D01*
X366Y710D02*
X384Y710D01*
X2373Y710D02*
X2391Y710D01*
X366Y709D02*
X384Y709D01*
X2373Y709D02*
X2391Y709D01*
X366Y708D02*
X384Y708D01*
X2373Y708D02*
X2391Y708D01*
X366Y707D02*
X384Y707D01*
X2373Y707D02*
X2391Y707D01*
X366Y706D02*
X384Y706D01*
X2373Y706D02*
X2391Y706D01*
X366Y705D02*
X384Y705D01*
X2373Y705D02*
X2391Y705D01*
X366Y704D02*
X384Y704D01*
X2373Y704D02*
X2391Y704D01*
X366Y703D02*
X384Y703D01*
X2373Y703D02*
X2391Y703D01*
X366Y702D02*
X384Y702D01*
X2373Y702D02*
X2391Y702D01*
X245Y701D02*
X253Y701D01*
X366Y701D02*
X384Y701D01*
X2373Y701D02*
X2391Y701D01*
X243Y700D02*
X270Y700D01*
X366Y700D02*
X384Y700D01*
X2373Y700D02*
X2391Y700D01*
X242Y699D02*
X274Y699D01*
X366Y699D02*
X384Y699D01*
X2373Y699D02*
X2391Y699D01*
X242Y698D02*
X277Y698D01*
X366Y698D02*
X384Y698D01*
X2373Y698D02*
X2391Y698D01*
X242Y697D02*
X281Y697D01*
X366Y697D02*
X384Y697D01*
X2373Y697D02*
X2391Y697D01*
X242Y696D02*
X284Y696D01*
X366Y696D02*
X384Y696D01*
X2373Y696D02*
X2391Y696D01*
X243Y695D02*
X285Y695D01*
X366Y695D02*
X384Y695D01*
X2373Y695D02*
X2391Y695D01*
X244Y694D02*
X285Y694D01*
X366Y694D02*
X384Y694D01*
X2373Y694D02*
X2391Y694D01*
X255Y693D02*
X286Y693D01*
X366Y693D02*
X384Y693D01*
X2373Y693D02*
X2391Y693D01*
X270Y692D02*
X286Y692D01*
X366Y692D02*
X384Y692D01*
X2373Y692D02*
X2391Y692D01*
X274Y691D02*
X286Y691D01*
X366Y691D02*
X384Y691D01*
X2373Y691D02*
X2391Y691D01*
X277Y690D02*
X286Y690D01*
X366Y690D02*
X384Y690D01*
X2373Y690D02*
X2391Y690D01*
X276Y689D02*
X286Y689D01*
X366Y689D02*
X384Y689D01*
X2373Y689D02*
X2391Y689D01*
X274Y688D02*
X286Y688D01*
X366Y688D02*
X384Y688D01*
X2373Y688D02*
X2391Y688D01*
X272Y687D02*
X285Y687D01*
X366Y687D02*
X384Y687D01*
X2373Y687D02*
X2391Y687D01*
X270Y686D02*
X285Y686D01*
X366Y686D02*
X384Y686D01*
X2373Y686D02*
X2391Y686D01*
X269Y685D02*
X283Y685D01*
X366Y685D02*
X384Y685D01*
X2373Y685D02*
X2391Y685D01*
X257Y684D02*
X282Y684D01*
X366Y684D02*
X384Y684D01*
X2373Y684D02*
X2391Y684D01*
X256Y683D02*
X280Y683D01*
X366Y683D02*
X384Y683D01*
X2373Y683D02*
X2391Y683D01*
X256Y682D02*
X278Y682D01*
X366Y682D02*
X384Y682D01*
X2373Y682D02*
X2391Y682D01*
X255Y681D02*
X277Y681D01*
X366Y681D02*
X384Y681D01*
X2373Y681D02*
X2391Y681D01*
X256Y680D02*
X278Y680D01*
X366Y680D02*
X384Y680D01*
X2373Y680D02*
X2391Y680D01*
X256Y679D02*
X279Y679D01*
X366Y679D02*
X384Y679D01*
X2373Y679D02*
X2391Y679D01*
X257Y678D02*
X281Y678D01*
X366Y678D02*
X384Y678D01*
X2373Y678D02*
X2391Y678D01*
X259Y677D02*
X283Y677D01*
X366Y677D02*
X384Y677D01*
X2373Y677D02*
X2391Y677D01*
X270Y676D02*
X284Y676D01*
X366Y676D02*
X384Y676D01*
X2373Y676D02*
X2391Y676D01*
X271Y675D02*
X285Y675D01*
X366Y675D02*
X384Y675D01*
X2373Y675D02*
X2391Y675D01*
X273Y674D02*
X286Y674D01*
X366Y674D02*
X384Y674D01*
X2373Y674D02*
X2391Y674D01*
X275Y673D02*
X286Y673D01*
X366Y673D02*
X384Y673D01*
X2373Y673D02*
X2391Y673D01*
X277Y672D02*
X286Y672D01*
X366Y672D02*
X384Y672D01*
X2373Y672D02*
X2391Y672D01*
X275Y671D02*
X286Y671D01*
X366Y671D02*
X384Y671D01*
X2373Y671D02*
X2391Y671D01*
X272Y670D02*
X286Y670D01*
X366Y670D02*
X384Y670D01*
X2373Y670D02*
X2391Y670D01*
X265Y669D02*
X286Y669D01*
X366Y669D02*
X384Y669D01*
X2373Y669D02*
X2391Y669D01*
X245Y668D02*
X285Y668D01*
X366Y668D02*
X384Y668D01*
X2373Y668D02*
X2391Y668D01*
X243Y667D02*
X285Y667D01*
X366Y667D02*
X384Y667D01*
X2373Y667D02*
X2391Y667D01*
X242Y666D02*
X284Y666D01*
X366Y666D02*
X384Y666D01*
X2373Y666D02*
X2391Y666D01*
X242Y665D02*
X282Y665D01*
X366Y665D02*
X384Y665D01*
X2373Y665D02*
X2391Y665D01*
X242Y664D02*
X279Y664D01*
X366Y664D02*
X384Y664D01*
X2373Y664D02*
X2391Y664D01*
X242Y663D02*
X275Y663D01*
X366Y663D02*
X384Y663D01*
X2373Y663D02*
X2391Y663D01*
X243Y662D02*
X272Y662D01*
X366Y662D02*
X384Y662D01*
X2373Y662D02*
X2391Y662D01*
X244Y661D02*
X262Y661D01*
X366Y661D02*
X384Y661D01*
X2373Y661D02*
X2391Y661D01*
X366Y660D02*
X384Y660D01*
X2373Y660D02*
X2391Y660D01*
X366Y659D02*
X384Y659D01*
X2373Y659D02*
X2391Y659D01*
X366Y658D02*
X384Y658D01*
X2373Y658D02*
X2391Y658D01*
X366Y657D02*
X384Y657D01*
X2373Y657D02*
X2391Y657D01*
X366Y656D02*
X384Y656D01*
X2373Y656D02*
X2391Y656D01*
X366Y655D02*
X384Y655D01*
X2373Y655D02*
X2391Y655D01*
X366Y654D02*
X384Y654D01*
X2373Y654D02*
X2391Y654D01*
X366Y653D02*
X384Y653D01*
X2373Y653D02*
X2391Y653D01*
X366Y652D02*
X384Y652D01*
X2373Y652D02*
X2391Y652D01*
X366Y651D02*
X384Y651D01*
X2373Y651D02*
X2391Y651D01*
X366Y650D02*
X384Y650D01*
X2373Y650D02*
X2391Y650D01*
X366Y649D02*
X384Y649D01*
X2373Y649D02*
X2391Y649D01*
X366Y648D02*
X384Y648D01*
X2373Y648D02*
X2391Y648D01*
X366Y647D02*
X384Y647D01*
X2373Y647D02*
X2391Y647D01*
X366Y646D02*
X384Y646D01*
X2373Y646D02*
X2391Y646D01*
X366Y645D02*
X384Y645D01*
X2373Y645D02*
X2391Y645D01*
X366Y644D02*
X384Y644D01*
X2373Y644D02*
X2391Y644D01*
X243Y643D02*
X300Y643D01*
X366Y643D02*
X384Y643D01*
X2373Y643D02*
X2391Y643D01*
X241Y642D02*
X301Y642D01*
X366Y642D02*
X384Y642D01*
X2373Y642D02*
X2391Y642D01*
X241Y641D02*
X302Y641D01*
X366Y641D02*
X384Y641D01*
X2373Y641D02*
X2391Y641D01*
X240Y640D02*
X302Y640D01*
X366Y640D02*
X384Y640D01*
X2373Y640D02*
X2391Y640D01*
X240Y639D02*
X302Y639D01*
X366Y639D02*
X384Y639D01*
X2373Y639D02*
X2391Y639D01*
X241Y638D02*
X302Y638D01*
X366Y638D02*
X384Y638D01*
X2373Y638D02*
X2391Y638D01*
X241Y637D02*
X301Y637D01*
X366Y637D02*
X384Y637D01*
X2373Y637D02*
X2391Y637D01*
X243Y636D02*
X300Y636D01*
X366Y636D02*
X384Y636D01*
X2373Y636D02*
X2391Y636D01*
X246Y635D02*
X256Y635D01*
X271Y635D02*
X282Y635D01*
X366Y635D02*
X384Y635D01*
X2373Y635D02*
X2391Y635D01*
X245Y634D02*
X255Y634D01*
X273Y634D02*
X283Y634D01*
X366Y634D02*
X384Y634D01*
X2373Y634D02*
X2391Y634D01*
X244Y633D02*
X254Y633D01*
X274Y633D02*
X284Y633D01*
X366Y633D02*
X384Y633D01*
X2373Y633D02*
X2391Y633D01*
X243Y632D02*
X253Y632D01*
X275Y632D02*
X285Y632D01*
X366Y632D02*
X384Y632D01*
X2373Y632D02*
X2391Y632D01*
X242Y631D02*
X252Y631D01*
X276Y631D02*
X285Y631D01*
X366Y631D02*
X384Y631D01*
X2373Y631D02*
X2391Y631D01*
X242Y630D02*
X251Y630D01*
X277Y630D02*
X286Y630D01*
X366Y630D02*
X384Y630D01*
X2373Y630D02*
X2391Y630D01*
X241Y629D02*
X250Y629D01*
X278Y629D02*
X286Y629D01*
X366Y629D02*
X384Y629D01*
X2373Y629D02*
X2391Y629D01*
X241Y628D02*
X249Y628D01*
X279Y628D02*
X287Y628D01*
X366Y628D02*
X384Y628D01*
X2373Y628D02*
X2391Y628D01*
X241Y627D02*
X248Y627D01*
X280Y627D02*
X287Y627D01*
X366Y627D02*
X384Y627D01*
X2373Y627D02*
X2391Y627D01*
X240Y626D02*
X248Y626D01*
X280Y626D02*
X287Y626D01*
X366Y626D02*
X384Y626D01*
X2373Y626D02*
X2391Y626D01*
X240Y625D02*
X247Y625D01*
X280Y625D02*
X287Y625D01*
X366Y625D02*
X384Y625D01*
X2373Y625D02*
X2391Y625D01*
X240Y624D02*
X247Y624D01*
X280Y624D02*
X287Y624D01*
X366Y624D02*
X384Y624D01*
X2373Y624D02*
X2391Y624D01*
X240Y623D02*
X247Y623D01*
X280Y623D02*
X287Y623D01*
X366Y623D02*
X384Y623D01*
X2373Y623D02*
X2391Y623D01*
X240Y622D02*
X247Y622D01*
X280Y622D02*
X287Y622D01*
X366Y622D02*
X384Y622D01*
X2373Y622D02*
X2391Y622D01*
X241Y621D02*
X248Y621D01*
X280Y621D02*
X287Y621D01*
X366Y621D02*
X384Y621D01*
X2373Y621D02*
X2391Y621D01*
X241Y620D02*
X249Y620D01*
X279Y620D02*
X287Y620D01*
X366Y620D02*
X384Y620D01*
X2373Y620D02*
X2391Y620D01*
X241Y619D02*
X249Y619D01*
X278Y619D02*
X287Y619D01*
X366Y619D02*
X384Y619D01*
X2373Y619D02*
X2391Y619D01*
X242Y618D02*
X250Y618D01*
X277Y618D02*
X286Y618D01*
X366Y618D02*
X384Y618D01*
X2373Y618D02*
X2391Y618D01*
X242Y617D02*
X251Y617D01*
X277Y617D02*
X286Y617D01*
X366Y617D02*
X384Y617D01*
X2373Y617D02*
X2391Y617D01*
X243Y616D02*
X252Y616D01*
X276Y616D02*
X285Y616D01*
X366Y616D02*
X384Y616D01*
X2373Y616D02*
X2391Y616D01*
X243Y615D02*
X253Y615D01*
X275Y615D02*
X284Y615D01*
X366Y615D02*
X384Y615D01*
X2373Y615D02*
X2391Y615D01*
X244Y614D02*
X254Y614D01*
X274Y614D02*
X283Y614D01*
X366Y614D02*
X384Y614D01*
X2373Y614D02*
X2391Y614D01*
X245Y613D02*
X255Y613D01*
X273Y613D02*
X283Y613D01*
X366Y613D02*
X384Y613D01*
X2373Y613D02*
X2391Y613D01*
X246Y612D02*
X282Y612D01*
X366Y612D02*
X384Y612D01*
X2373Y612D02*
X2391Y612D01*
X247Y611D02*
X281Y611D01*
X366Y611D02*
X384Y611D01*
X2373Y611D02*
X2391Y611D01*
X248Y610D02*
X280Y610D01*
X366Y610D02*
X384Y610D01*
X2373Y610D02*
X2391Y610D01*
X249Y609D02*
X279Y609D01*
X366Y609D02*
X384Y609D01*
X2373Y609D02*
X2391Y609D01*
X250Y608D02*
X278Y608D01*
X366Y608D02*
X384Y608D01*
X2373Y608D02*
X2391Y608D01*
X251Y607D02*
X277Y607D01*
X366Y607D02*
X384Y607D01*
X2373Y607D02*
X2391Y607D01*
X252Y606D02*
X276Y606D01*
X366Y606D02*
X384Y606D01*
X2373Y606D02*
X2391Y606D01*
X254Y605D02*
X274Y605D01*
X366Y605D02*
X384Y605D01*
X2373Y605D02*
X2391Y605D01*
X366Y604D02*
X384Y604D01*
X2373Y604D02*
X2391Y604D01*
X366Y603D02*
X384Y603D01*
X2373Y603D02*
X2391Y603D01*
X366Y602D02*
X384Y602D01*
X2373Y602D02*
X2391Y602D01*
X366Y601D02*
X384Y601D01*
X2373Y601D02*
X2391Y601D01*
X366Y600D02*
X384Y600D01*
X2373Y600D02*
X2391Y600D01*
X366Y599D02*
X384Y599D01*
X2373Y599D02*
X2391Y599D01*
X366Y598D02*
X384Y598D01*
X2373Y598D02*
X2391Y598D01*
X366Y597D02*
X384Y597D01*
X2373Y597D02*
X2391Y597D01*
X366Y596D02*
X384Y596D01*
X2373Y596D02*
X2391Y596D01*
X366Y595D02*
X384Y595D01*
X2373Y595D02*
X2391Y595D01*
X366Y594D02*
X384Y594D01*
X2373Y594D02*
X2391Y594D01*
X366Y593D02*
X384Y593D01*
X2373Y593D02*
X2391Y593D01*
X366Y592D02*
X384Y592D01*
X2373Y592D02*
X2391Y592D01*
X366Y591D02*
X384Y591D01*
X2373Y591D02*
X2391Y591D01*
X366Y590D02*
X384Y590D01*
X2373Y590D02*
X2391Y590D01*
X366Y589D02*
X384Y589D01*
X2373Y589D02*
X2391Y589D01*
X366Y588D02*
X384Y588D01*
X2373Y588D02*
X2391Y588D01*
X366Y587D02*
X384Y587D01*
X2373Y587D02*
X2391Y587D01*
X253Y586D02*
X275Y586D01*
X366Y586D02*
X384Y586D01*
X2373Y586D02*
X2391Y586D01*
X251Y585D02*
X277Y585D01*
X366Y585D02*
X384Y585D01*
X2373Y585D02*
X2391Y585D01*
X249Y584D02*
X279Y584D01*
X366Y584D02*
X384Y584D01*
X2373Y584D02*
X2391Y584D01*
X248Y583D02*
X280Y583D01*
X366Y583D02*
X384Y583D01*
X2373Y583D02*
X2391Y583D01*
X247Y582D02*
X281Y582D01*
X366Y582D02*
X384Y582D01*
X2373Y582D02*
X2391Y582D01*
X246Y581D02*
X282Y581D01*
X366Y581D02*
X384Y581D01*
X2373Y581D02*
X2391Y581D01*
X245Y580D02*
X283Y580D01*
X366Y580D02*
X384Y580D01*
X2373Y580D02*
X2391Y580D01*
X244Y579D02*
X283Y579D01*
X366Y579D02*
X384Y579D01*
X2373Y579D02*
X2391Y579D01*
X244Y578D02*
X253Y578D01*
X262Y578D02*
X269Y578D01*
X275Y578D02*
X284Y578D01*
X366Y578D02*
X384Y578D01*
X2373Y578D02*
X2391Y578D01*
X243Y577D02*
X252Y577D01*
X262Y577D02*
X269Y577D01*
X276Y577D02*
X285Y577D01*
X366Y577D02*
X384Y577D01*
X2373Y577D02*
X2391Y577D01*
X243Y576D02*
X251Y576D01*
X262Y576D02*
X269Y576D01*
X277Y576D02*
X285Y576D01*
X366Y576D02*
X384Y576D01*
X2373Y576D02*
X2391Y576D01*
X242Y575D02*
X250Y575D01*
X262Y575D02*
X269Y575D01*
X277Y575D02*
X285Y575D01*
X366Y575D02*
X384Y575D01*
X2373Y575D02*
X2391Y575D01*
X242Y574D02*
X249Y574D01*
X262Y574D02*
X269Y574D01*
X278Y574D02*
X286Y574D01*
X366Y574D02*
X384Y574D01*
X2373Y574D02*
X2391Y574D01*
X242Y573D02*
X249Y573D01*
X262Y573D02*
X269Y573D01*
X279Y573D02*
X286Y573D01*
X366Y573D02*
X384Y573D01*
X2373Y573D02*
X2391Y573D01*
X242Y572D02*
X249Y572D01*
X262Y572D02*
X269Y572D01*
X279Y572D02*
X286Y572D01*
X366Y572D02*
X384Y572D01*
X2373Y572D02*
X2391Y572D01*
X242Y571D02*
X249Y571D01*
X262Y571D02*
X269Y571D01*
X279Y571D02*
X286Y571D01*
X366Y571D02*
X384Y571D01*
X2373Y571D02*
X2391Y571D01*
X242Y570D02*
X249Y570D01*
X262Y570D02*
X269Y570D01*
X279Y570D02*
X286Y570D01*
X366Y570D02*
X384Y570D01*
X2373Y570D02*
X2391Y570D01*
X242Y569D02*
X249Y569D01*
X262Y569D02*
X269Y569D01*
X279Y569D02*
X286Y569D01*
X366Y569D02*
X384Y569D01*
X2373Y569D02*
X2391Y569D01*
X242Y568D02*
X249Y568D01*
X262Y568D02*
X269Y568D01*
X279Y568D02*
X286Y568D01*
X366Y568D02*
X384Y568D01*
X2373Y568D02*
X2391Y568D01*
X242Y567D02*
X249Y567D01*
X262Y567D02*
X269Y567D01*
X279Y567D02*
X286Y567D01*
X366Y567D02*
X384Y567D01*
X2373Y567D02*
X2391Y567D01*
X242Y566D02*
X249Y566D01*
X262Y566D02*
X269Y566D01*
X279Y566D02*
X286Y566D01*
X366Y566D02*
X384Y566D01*
X2373Y566D02*
X2391Y566D01*
X242Y565D02*
X249Y565D01*
X262Y565D02*
X269Y565D01*
X279Y565D02*
X286Y565D01*
X366Y565D02*
X384Y565D01*
X2373Y565D02*
X2391Y565D01*
X242Y564D02*
X249Y564D01*
X262Y564D02*
X269Y564D01*
X279Y564D02*
X286Y564D01*
X366Y564D02*
X384Y564D01*
X2373Y564D02*
X2391Y564D01*
X242Y563D02*
X249Y563D01*
X262Y563D02*
X269Y563D01*
X279Y563D02*
X286Y563D01*
X366Y563D02*
X384Y563D01*
X2373Y563D02*
X2391Y563D01*
X242Y562D02*
X249Y562D01*
X262Y562D02*
X269Y562D01*
X279Y562D02*
X286Y562D01*
X366Y562D02*
X384Y562D01*
X2373Y562D02*
X2391Y562D01*
X242Y561D02*
X249Y561D01*
X262Y561D02*
X269Y561D01*
X279Y561D02*
X286Y561D01*
X366Y561D02*
X384Y561D01*
X2373Y561D02*
X2391Y561D01*
X242Y560D02*
X250Y560D01*
X262Y560D02*
X269Y560D01*
X279Y560D02*
X286Y560D01*
X366Y560D02*
X384Y560D01*
X2373Y560D02*
X2391Y560D01*
X242Y559D02*
X250Y559D01*
X262Y559D02*
X269Y559D01*
X279Y559D02*
X286Y559D01*
X366Y559D02*
X384Y559D01*
X2373Y559D02*
X2391Y559D01*
X243Y558D02*
X251Y558D01*
X262Y558D02*
X269Y558D01*
X279Y558D02*
X286Y558D01*
X366Y558D02*
X384Y558D01*
X2373Y558D02*
X2391Y558D01*
X243Y557D02*
X252Y557D01*
X262Y557D02*
X269Y557D01*
X279Y557D02*
X286Y557D01*
X366Y557D02*
X384Y557D01*
X2373Y557D02*
X2391Y557D01*
X244Y556D02*
X253Y556D01*
X262Y556D02*
X269Y556D01*
X279Y556D02*
X286Y556D01*
X366Y556D02*
X384Y556D01*
X2373Y556D02*
X2391Y556D01*
X244Y555D02*
X269Y555D01*
X279Y555D02*
X286Y555D01*
X366Y555D02*
X384Y555D01*
X2373Y555D02*
X2391Y555D01*
X245Y554D02*
X269Y554D01*
X279Y554D02*
X286Y554D01*
X366Y554D02*
X384Y554D01*
X2373Y554D02*
X2391Y554D01*
X246Y553D02*
X269Y553D01*
X279Y553D02*
X286Y553D01*
X366Y553D02*
X384Y553D01*
X2373Y553D02*
X2391Y553D01*
X247Y552D02*
X269Y552D01*
X279Y552D02*
X286Y552D01*
X366Y552D02*
X384Y552D01*
X2373Y552D02*
X2391Y552D01*
X248Y551D02*
X269Y551D01*
X279Y551D02*
X286Y551D01*
X366Y551D02*
X384Y551D01*
X2373Y551D02*
X2391Y551D01*
X249Y550D02*
X269Y550D01*
X279Y550D02*
X285Y550D01*
X366Y550D02*
X384Y550D01*
X2373Y550D02*
X2391Y550D01*
X250Y549D02*
X268Y549D01*
X280Y549D02*
X285Y549D01*
X366Y549D02*
X384Y549D01*
X2373Y549D02*
X2391Y549D01*
X253Y548D02*
X267Y548D01*
X281Y548D02*
X284Y548D01*
X366Y548D02*
X384Y548D01*
X2373Y548D02*
X2391Y548D01*
X366Y547D02*
X384Y547D01*
X2373Y547D02*
X2391Y547D01*
X366Y546D02*
X384Y546D01*
X2373Y546D02*
X2391Y546D01*
X366Y545D02*
X384Y545D01*
X2373Y545D02*
X2391Y545D01*
X366Y544D02*
X384Y544D01*
X2373Y544D02*
X2391Y544D01*
X366Y543D02*
X384Y543D01*
X2373Y543D02*
X2391Y543D01*
X366Y542D02*
X384Y542D01*
X2373Y542D02*
X2391Y542D01*
X366Y541D02*
X384Y541D01*
X2373Y541D02*
X2391Y541D01*
X366Y540D02*
X384Y540D01*
X2373Y540D02*
X2391Y540D01*
X366Y539D02*
X384Y539D01*
X2373Y539D02*
X2391Y539D01*
X366Y538D02*
X384Y538D01*
X2373Y538D02*
X2391Y538D01*
X366Y537D02*
X384Y537D01*
X2373Y537D02*
X2391Y537D01*
X366Y536D02*
X384Y536D01*
X2373Y536D02*
X2391Y536D01*
X366Y535D02*
X384Y535D01*
X2373Y535D02*
X2391Y535D01*
X366Y534D02*
X384Y534D01*
X2373Y534D02*
X2391Y534D01*
X366Y533D02*
X384Y533D01*
X2373Y533D02*
X2391Y533D01*
X366Y532D02*
X384Y532D01*
X2373Y532D02*
X2391Y532D01*
X366Y531D02*
X384Y531D01*
X2373Y531D02*
X2391Y531D01*
X244Y530D02*
X263Y530D01*
X366Y530D02*
X384Y530D01*
X2373Y530D02*
X2391Y530D01*
X243Y529D02*
X271Y529D01*
X366Y529D02*
X384Y529D01*
X2373Y529D02*
X2391Y529D01*
X242Y528D02*
X275Y528D01*
X366Y528D02*
X384Y528D01*
X2373Y528D02*
X2391Y528D01*
X242Y527D02*
X278Y527D01*
X366Y527D02*
X384Y527D01*
X2373Y527D02*
X2391Y527D01*
X242Y526D02*
X282Y526D01*
X366Y526D02*
X384Y526D01*
X2373Y526D02*
X2391Y526D01*
X242Y525D02*
X284Y525D01*
X366Y525D02*
X384Y525D01*
X2373Y525D02*
X2391Y525D01*
X243Y524D02*
X285Y524D01*
X366Y524D02*
X384Y524D01*
X2373Y524D02*
X2391Y524D01*
X244Y523D02*
X285Y523D01*
X366Y523D02*
X384Y523D01*
X2373Y523D02*
X2391Y523D01*
X264Y522D02*
X286Y522D01*
X366Y522D02*
X384Y522D01*
X2373Y522D02*
X2391Y522D01*
X272Y521D02*
X286Y521D01*
X366Y521D02*
X384Y521D01*
X2373Y521D02*
X2391Y521D01*
X275Y520D02*
X286Y520D01*
X366Y520D02*
X384Y520D01*
X2373Y520D02*
X2391Y520D01*
X277Y519D02*
X286Y519D01*
X366Y519D02*
X384Y519D01*
X2373Y519D02*
X2391Y519D01*
X275Y518D02*
X286Y518D01*
X366Y518D02*
X384Y518D01*
X2373Y518D02*
X2391Y518D01*
X273Y517D02*
X286Y517D01*
X366Y517D02*
X384Y517D01*
X2373Y517D02*
X2391Y517D01*
X272Y516D02*
X285Y516D01*
X366Y516D02*
X384Y516D01*
X2373Y516D02*
X2391Y516D01*
X270Y515D02*
X284Y515D01*
X366Y515D02*
X384Y515D01*
X2373Y515D02*
X2391Y515D01*
X259Y514D02*
X283Y514D01*
X366Y514D02*
X384Y514D01*
X2373Y514D02*
X2391Y514D01*
X257Y513D02*
X281Y513D01*
X366Y513D02*
X384Y513D01*
X2373Y513D02*
X2391Y513D01*
X256Y512D02*
X279Y512D01*
X366Y512D02*
X384Y512D01*
X2373Y512D02*
X2391Y512D01*
X256Y511D02*
X278Y511D01*
X366Y511D02*
X384Y511D01*
X2373Y511D02*
X2391Y511D01*
X255Y510D02*
X277Y510D01*
X366Y510D02*
X384Y510D01*
X2373Y510D02*
X2391Y510D01*
X256Y509D02*
X278Y509D01*
X366Y509D02*
X384Y509D01*
X2373Y509D02*
X2391Y509D01*
X256Y508D02*
X280Y508D01*
X366Y508D02*
X384Y508D01*
X2373Y508D02*
X2391Y508D01*
X257Y507D02*
X282Y507D01*
X366Y507D02*
X384Y507D01*
X2373Y507D02*
X2391Y507D01*
X269Y506D02*
X283Y506D01*
X366Y506D02*
X384Y506D01*
X2373Y506D02*
X2391Y506D01*
X270Y505D02*
X285Y505D01*
X366Y505D02*
X384Y505D01*
X2373Y505D02*
X2391Y505D01*
X272Y504D02*
X285Y504D01*
X366Y504D02*
X384Y504D01*
X2373Y504D02*
X2391Y504D01*
X274Y503D02*
X286Y503D01*
X366Y503D02*
X384Y503D01*
X2373Y503D02*
X2391Y503D01*
X276Y502D02*
X286Y502D01*
X366Y502D02*
X384Y502D01*
X2373Y502D02*
X2391Y502D01*
X277Y501D02*
X286Y501D01*
X366Y501D02*
X384Y501D01*
X2373Y501D02*
X2391Y501D01*
X274Y500D02*
X286Y500D01*
X366Y500D02*
X384Y500D01*
X2373Y500D02*
X2391Y500D01*
X271Y499D02*
X286Y499D01*
X366Y499D02*
X384Y499D01*
X2373Y499D02*
X2391Y499D01*
X255Y498D02*
X286Y498D01*
X366Y498D02*
X384Y498D01*
X2373Y498D02*
X2391Y498D01*
X244Y497D02*
X285Y497D01*
X366Y497D02*
X384Y497D01*
X2373Y497D02*
X2391Y497D01*
X243Y496D02*
X285Y496D01*
X366Y496D02*
X384Y496D01*
X2373Y496D02*
X2391Y496D01*
X242Y495D02*
X284Y495D01*
X366Y495D02*
X384Y495D01*
X2373Y495D02*
X2391Y495D01*
X242Y494D02*
X281Y494D01*
X366Y494D02*
X384Y494D01*
X2373Y494D02*
X2391Y494D01*
X242Y493D02*
X277Y493D01*
X366Y493D02*
X384Y493D01*
X2373Y493D02*
X2391Y493D01*
X242Y492D02*
X274Y492D01*
X366Y492D02*
X384Y492D01*
X2373Y492D02*
X2391Y492D01*
X243Y491D02*
X271Y491D01*
X366Y491D02*
X384Y491D01*
X2373Y491D02*
X2391Y491D01*
X245Y490D02*
X252Y490D01*
X366Y490D02*
X384Y490D01*
X2373Y490D02*
X2391Y490D01*
X366Y489D02*
X384Y489D01*
X2373Y489D02*
X2391Y489D01*
X366Y488D02*
X384Y488D01*
X2373Y488D02*
X2391Y488D01*
X366Y487D02*
X384Y487D01*
X2373Y487D02*
X2391Y487D01*
X366Y486D02*
X384Y486D01*
X2373Y486D02*
X2391Y486D01*
X366Y485D02*
X384Y485D01*
X2373Y485D02*
X2391Y485D01*
X366Y484D02*
X384Y484D01*
X2373Y484D02*
X2391Y484D01*
X366Y483D02*
X384Y483D01*
X2373Y483D02*
X2391Y483D01*
X366Y482D02*
X384Y482D01*
X2373Y482D02*
X2391Y482D01*
X366Y481D02*
X384Y481D01*
X2373Y481D02*
X2391Y481D01*
X366Y480D02*
X384Y480D01*
X2373Y480D02*
X2391Y480D01*
X366Y479D02*
X384Y479D01*
X2373Y479D02*
X2391Y479D01*
X366Y478D02*
X384Y478D01*
X2373Y478D02*
X2391Y478D01*
X366Y477D02*
X384Y477D01*
X2373Y477D02*
X2391Y477D01*
X366Y476D02*
X384Y476D01*
X2373Y476D02*
X2391Y476D01*
X366Y475D02*
X384Y475D01*
X2373Y475D02*
X2391Y475D01*
X366Y474D02*
X384Y474D01*
X2373Y474D02*
X2391Y474D01*
X366Y473D02*
X384Y473D01*
X2373Y473D02*
X2391Y473D01*
X366Y472D02*
X384Y472D01*
X2373Y472D02*
X2391Y472D01*
X366Y471D02*
X384Y471D01*
X2373Y471D02*
X2391Y471D01*
X366Y470D02*
X384Y470D01*
X2373Y470D02*
X2391Y470D01*
X366Y469D02*
X384Y469D01*
X2373Y469D02*
X2391Y469D01*
X366Y468D02*
X384Y468D01*
X2373Y468D02*
X2391Y468D01*
X366Y467D02*
X384Y467D01*
X2373Y467D02*
X2391Y467D01*
X366Y466D02*
X384Y466D01*
X2373Y466D02*
X2391Y466D01*
X366Y465D02*
X384Y465D01*
X2373Y465D02*
X2391Y465D01*
X366Y464D02*
X384Y464D01*
X2373Y464D02*
X2391Y464D01*
X366Y463D02*
X384Y463D01*
X2373Y463D02*
X2391Y463D01*
X366Y462D02*
X384Y462D01*
X2373Y462D02*
X2391Y462D01*
X265Y461D02*
X273Y461D01*
X366Y461D02*
X384Y461D01*
X2373Y461D02*
X2391Y461D01*
X263Y460D02*
X274Y460D01*
X366Y460D02*
X384Y460D01*
X2373Y460D02*
X2391Y460D01*
X263Y459D02*
X275Y459D01*
X366Y459D02*
X384Y459D01*
X2373Y459D02*
X2391Y459D01*
X262Y458D02*
X276Y458D01*
X366Y458D02*
X384Y458D01*
X2373Y458D02*
X2391Y458D01*
X262Y457D02*
X276Y457D01*
X366Y457D02*
X384Y457D01*
X2373Y457D02*
X2391Y457D01*
X262Y456D02*
X276Y456D01*
X366Y456D02*
X384Y456D01*
X2373Y456D02*
X2391Y456D01*
X262Y455D02*
X276Y455D01*
X366Y455D02*
X384Y455D01*
X2373Y455D02*
X2391Y455D01*
X262Y454D02*
X276Y454D01*
X366Y454D02*
X384Y454D01*
X2373Y454D02*
X2391Y454D01*
X262Y453D02*
X276Y453D01*
X366Y453D02*
X384Y453D01*
X2373Y453D02*
X2391Y453D01*
X262Y452D02*
X276Y452D01*
X366Y452D02*
X384Y452D01*
X2373Y452D02*
X2391Y452D01*
X262Y451D02*
X276Y451D01*
X366Y451D02*
X384Y451D01*
X2373Y451D02*
X2391Y451D01*
X262Y450D02*
X276Y450D01*
X366Y450D02*
X384Y450D01*
X2373Y450D02*
X2391Y450D01*
X262Y449D02*
X276Y449D01*
X366Y449D02*
X384Y449D01*
X2373Y449D02*
X2391Y449D01*
X262Y448D02*
X275Y448D01*
X366Y448D02*
X384Y448D01*
X2373Y448D02*
X2391Y448D01*
X263Y447D02*
X275Y447D01*
X366Y447D02*
X384Y447D01*
X2373Y447D02*
X2391Y447D01*
X264Y446D02*
X274Y446D01*
X366Y446D02*
X384Y446D01*
X2373Y446D02*
X2391Y446D01*
X366Y445D02*
X384Y445D01*
X2373Y445D02*
X2391Y445D01*
X366Y444D02*
X384Y444D01*
X2373Y444D02*
X2391Y444D01*
X366Y443D02*
X384Y443D01*
X2373Y443D02*
X2391Y443D01*
X366Y442D02*
X384Y442D01*
X2373Y442D02*
X2391Y442D01*
X366Y441D02*
X384Y441D01*
X2373Y441D02*
X2391Y441D01*
X366Y440D02*
X384Y440D01*
X2373Y440D02*
X2391Y440D01*
X366Y439D02*
X384Y439D01*
X2373Y439D02*
X2391Y439D01*
X366Y438D02*
X384Y438D01*
X2373Y438D02*
X2391Y438D01*
X366Y437D02*
X384Y437D01*
X2373Y437D02*
X2391Y437D01*
X366Y436D02*
X384Y436D01*
X2373Y436D02*
X2391Y436D01*
X366Y435D02*
X384Y435D01*
X2373Y435D02*
X2391Y435D01*
X366Y434D02*
X384Y434D01*
X2373Y434D02*
X2391Y434D01*
X366Y433D02*
X384Y433D01*
X2373Y433D02*
X2391Y433D01*
X366Y432D02*
X384Y432D01*
X538Y432D02*
X538Y432D01*
X2246Y432D02*
X2246Y432D01*
X2373Y432D02*
X2391Y432D01*
X366Y431D02*
X384Y431D01*
X536Y431D02*
X540Y431D01*
X2244Y431D02*
X2248Y431D01*
X2373Y431D02*
X2391Y431D01*
X366Y430D02*
X384Y430D01*
X535Y430D02*
X540Y430D01*
X2244Y430D02*
X2249Y430D01*
X2373Y430D02*
X2391Y430D01*
X366Y429D02*
X384Y429D01*
X535Y429D02*
X541Y429D01*
X2243Y429D02*
X2249Y429D01*
X2373Y429D02*
X2391Y429D01*
X366Y428D02*
X384Y428D01*
X535Y428D02*
X541Y428D01*
X2243Y428D02*
X2249Y428D01*
X2373Y428D02*
X2391Y428D01*
X366Y427D02*
X384Y427D01*
X535Y427D02*
X541Y427D01*
X2243Y427D02*
X2249Y427D01*
X2373Y427D02*
X2391Y427D01*
X366Y426D02*
X384Y426D01*
X535Y426D02*
X541Y426D01*
X2243Y426D02*
X2249Y426D01*
X2373Y426D02*
X2391Y426D01*
X366Y425D02*
X384Y425D01*
X535Y425D02*
X541Y425D01*
X2243Y425D02*
X2249Y425D01*
X2373Y425D02*
X2391Y425D01*
X366Y424D02*
X384Y424D01*
X535Y424D02*
X541Y424D01*
X2243Y424D02*
X2249Y424D01*
X2373Y424D02*
X2391Y424D01*
X366Y423D02*
X384Y423D01*
X535Y423D02*
X541Y423D01*
X2243Y423D02*
X2249Y423D01*
X2373Y423D02*
X2391Y423D01*
X366Y422D02*
X384Y422D01*
X535Y422D02*
X541Y422D01*
X2243Y422D02*
X2249Y422D01*
X2373Y422D02*
X2391Y422D01*
X366Y421D02*
X384Y421D01*
X535Y421D02*
X541Y421D01*
X2243Y421D02*
X2249Y421D01*
X2373Y421D02*
X2391Y421D01*
X366Y420D02*
X384Y420D01*
X535Y420D02*
X541Y420D01*
X2243Y420D02*
X2249Y420D01*
X2373Y420D02*
X2391Y420D01*
X366Y419D02*
X384Y419D01*
X535Y419D02*
X541Y419D01*
X2243Y419D02*
X2249Y419D01*
X2373Y419D02*
X2391Y419D01*
X366Y418D02*
X384Y418D01*
X523Y418D02*
X552Y418D01*
X2232Y418D02*
X2261Y418D01*
X2373Y418D02*
X2391Y418D01*
X366Y417D02*
X384Y417D01*
X522Y417D02*
X554Y417D01*
X2230Y417D02*
X2262Y417D01*
X2373Y417D02*
X2391Y417D01*
X366Y416D02*
X384Y416D01*
X521Y416D02*
X554Y416D01*
X2230Y416D02*
X2263Y416D01*
X2373Y416D02*
X2391Y416D01*
X243Y415D02*
X284Y415D01*
X366Y415D02*
X384Y415D01*
X521Y415D02*
X555Y415D01*
X2229Y415D02*
X2263Y415D01*
X2373Y415D02*
X2391Y415D01*
X243Y414D02*
X285Y414D01*
X366Y414D02*
X384Y414D01*
X521Y414D02*
X554Y414D01*
X2230Y414D02*
X2263Y414D01*
X2373Y414D02*
X2391Y414D01*
X242Y413D02*
X286Y413D01*
X366Y413D02*
X384Y413D01*
X522Y413D02*
X554Y413D01*
X2230Y413D02*
X2262Y413D01*
X2373Y413D02*
X2391Y413D01*
X242Y412D02*
X286Y412D01*
X366Y412D02*
X384Y412D01*
X522Y412D02*
X553Y412D01*
X2231Y412D02*
X2261Y412D01*
X2373Y412D02*
X2391Y412D01*
X242Y411D02*
X286Y411D01*
X366Y411D02*
X384Y411D01*
X535Y411D02*
X541Y411D01*
X2243Y411D02*
X2249Y411D01*
X2373Y411D02*
X2391Y411D01*
X243Y410D02*
X285Y410D01*
X366Y410D02*
X384Y410D01*
X535Y410D02*
X541Y410D01*
X2243Y410D02*
X2249Y410D01*
X2373Y410D02*
X2391Y410D01*
X243Y409D02*
X284Y409D01*
X366Y409D02*
X384Y409D01*
X535Y409D02*
X541Y409D01*
X2243Y409D02*
X2249Y409D01*
X2373Y409D02*
X2391Y409D01*
X246Y408D02*
X282Y408D01*
X366Y408D02*
X384Y408D01*
X535Y408D02*
X541Y408D01*
X2243Y408D02*
X2249Y408D01*
X2373Y408D02*
X2391Y408D01*
X250Y407D02*
X259Y407D01*
X366Y407D02*
X384Y407D01*
X535Y407D02*
X541Y407D01*
X2243Y407D02*
X2249Y407D01*
X2373Y407D02*
X2391Y407D01*
X249Y406D02*
X258Y406D01*
X366Y406D02*
X384Y406D01*
X535Y406D02*
X541Y406D01*
X2243Y406D02*
X2249Y406D01*
X2373Y406D02*
X2391Y406D01*
X248Y405D02*
X258Y405D01*
X366Y405D02*
X384Y405D01*
X535Y405D02*
X541Y405D01*
X2243Y405D02*
X2249Y405D01*
X2373Y405D02*
X2391Y405D01*
X247Y404D02*
X257Y404D01*
X366Y404D02*
X384Y404D01*
X535Y404D02*
X541Y404D01*
X2243Y404D02*
X2249Y404D01*
X2373Y404D02*
X2391Y404D01*
X246Y403D02*
X256Y403D01*
X366Y403D02*
X384Y403D01*
X535Y403D02*
X541Y403D01*
X2243Y403D02*
X2249Y403D01*
X2373Y403D02*
X2391Y403D01*
X246Y402D02*
X255Y402D01*
X366Y402D02*
X384Y402D01*
X535Y402D02*
X541Y402D01*
X2243Y402D02*
X2249Y402D01*
X2373Y402D02*
X2391Y402D01*
X245Y401D02*
X254Y401D01*
X366Y401D02*
X384Y401D01*
X535Y401D02*
X541Y401D01*
X2243Y401D02*
X2249Y401D01*
X2373Y401D02*
X2391Y401D01*
X244Y400D02*
X253Y400D01*
X366Y400D02*
X384Y400D01*
X535Y400D02*
X541Y400D01*
X2243Y400D02*
X2249Y400D01*
X2373Y400D02*
X2391Y400D01*
X243Y399D02*
X252Y399D01*
X366Y399D02*
X384Y399D01*
X535Y399D02*
X540Y399D01*
X2244Y399D02*
X2248Y399D01*
X2373Y399D02*
X2391Y399D01*
X242Y398D02*
X252Y398D01*
X366Y398D02*
X384Y398D01*
X537Y398D02*
X539Y398D01*
X2245Y398D02*
X2247Y398D01*
X2373Y398D02*
X2391Y398D01*
X242Y397D02*
X251Y397D01*
X366Y397D02*
X384Y397D01*
X2373Y397D02*
X2391Y397D01*
X242Y396D02*
X250Y396D01*
X366Y396D02*
X384Y396D01*
X2373Y396D02*
X2391Y396D01*
X242Y395D02*
X249Y395D01*
X366Y395D02*
X384Y395D01*
X2373Y395D02*
X2391Y395D01*
X242Y394D02*
X249Y394D01*
X366Y394D02*
X384Y394D01*
X2373Y394D02*
X2391Y394D01*
X242Y393D02*
X249Y393D01*
X366Y393D02*
X384Y393D01*
X2373Y393D02*
X2391Y393D01*
X242Y392D02*
X249Y392D01*
X366Y392D02*
X384Y392D01*
X2373Y392D02*
X2391Y392D01*
X242Y391D02*
X249Y391D01*
X366Y391D02*
X384Y391D01*
X2373Y391D02*
X2391Y391D01*
X242Y390D02*
X249Y390D01*
X366Y390D02*
X384Y390D01*
X2373Y390D02*
X2391Y390D01*
X242Y389D02*
X249Y389D01*
X366Y389D02*
X384Y389D01*
X2373Y389D02*
X2391Y389D01*
X242Y388D02*
X249Y388D01*
X366Y388D02*
X384Y388D01*
X2373Y388D02*
X2391Y388D01*
X242Y387D02*
X249Y387D01*
X366Y387D02*
X384Y387D01*
X2373Y387D02*
X2391Y387D01*
X242Y386D02*
X250Y386D01*
X366Y386D02*
X384Y386D01*
X2373Y386D02*
X2391Y386D01*
X243Y385D02*
X251Y385D01*
X366Y385D02*
X384Y385D01*
X2373Y385D02*
X2391Y385D01*
X243Y384D02*
X257Y384D01*
X366Y384D02*
X384Y384D01*
X2373Y384D02*
X2391Y384D01*
X243Y383D02*
X258Y383D01*
X366Y383D02*
X384Y383D01*
X2373Y383D02*
X2391Y383D01*
X244Y382D02*
X259Y382D01*
X366Y382D02*
X384Y382D01*
X2373Y382D02*
X2391Y382D01*
X245Y381D02*
X259Y381D01*
X366Y381D02*
X384Y381D01*
X2373Y381D02*
X2391Y381D01*
X246Y380D02*
X259Y380D01*
X366Y380D02*
X384Y380D01*
X2373Y380D02*
X2391Y380D01*
X247Y379D02*
X258Y379D01*
X366Y379D02*
X384Y379D01*
X2373Y379D02*
X2391Y379D01*
X249Y378D02*
X258Y378D01*
X366Y378D02*
X384Y378D01*
X2373Y378D02*
X2391Y378D01*
X251Y377D02*
X256Y377D01*
X366Y377D02*
X384Y377D01*
X2373Y377D02*
X2391Y377D01*
X366Y376D02*
X384Y376D01*
X2373Y376D02*
X2391Y376D01*
X366Y375D02*
X384Y375D01*
X2373Y375D02*
X2391Y375D01*
X366Y374D02*
X384Y374D01*
X2373Y374D02*
X2391Y374D01*
X366Y373D02*
X384Y373D01*
X2373Y373D02*
X2391Y373D01*
X366Y372D02*
X384Y372D01*
X2373Y372D02*
X2391Y372D01*
X366Y371D02*
X384Y371D01*
X2373Y371D02*
X2391Y371D01*
X366Y370D02*
X384Y370D01*
X2373Y370D02*
X2391Y370D01*
X366Y369D02*
X384Y369D01*
X2373Y369D02*
X2391Y369D01*
X366Y368D02*
X384Y368D01*
X2373Y368D02*
X2391Y368D01*
X366Y367D02*
X384Y367D01*
X2373Y367D02*
X2391Y367D01*
X366Y366D02*
X384Y366D01*
X2373Y366D02*
X2391Y366D01*
X366Y365D02*
X384Y365D01*
X2373Y365D02*
X2391Y365D01*
X366Y364D02*
X384Y364D01*
X2373Y364D02*
X2391Y364D01*
X366Y363D02*
X384Y363D01*
X2373Y363D02*
X2391Y363D01*
X366Y362D02*
X384Y362D01*
X2373Y362D02*
X2391Y362D01*
X366Y361D02*
X384Y361D01*
X2373Y361D02*
X2391Y361D01*
X366Y360D02*
X384Y360D01*
X2373Y360D02*
X2391Y360D01*
X366Y359D02*
X384Y359D01*
X2373Y359D02*
X2391Y359D01*
X243Y358D02*
X248Y358D01*
X366Y358D02*
X384Y358D01*
X2373Y358D02*
X2391Y358D01*
X243Y357D02*
X248Y357D01*
X366Y357D02*
X384Y357D01*
X2373Y357D02*
X2391Y357D01*
X242Y356D02*
X249Y356D01*
X366Y356D02*
X384Y356D01*
X2373Y356D02*
X2391Y356D01*
X242Y355D02*
X249Y355D01*
X366Y355D02*
X384Y355D01*
X2373Y355D02*
X2391Y355D01*
X242Y354D02*
X249Y354D01*
X366Y354D02*
X384Y354D01*
X2373Y354D02*
X2391Y354D01*
X242Y353D02*
X249Y353D01*
X366Y353D02*
X384Y353D01*
X2373Y353D02*
X2391Y353D01*
X242Y352D02*
X249Y352D01*
X366Y352D02*
X384Y352D01*
X2373Y352D02*
X2391Y352D01*
X231Y351D02*
X276Y351D01*
X366Y351D02*
X384Y351D01*
X2373Y351D02*
X2391Y351D01*
X230Y350D02*
X279Y350D01*
X366Y350D02*
X384Y350D01*
X2373Y350D02*
X2391Y350D01*
X229Y349D02*
X281Y349D01*
X366Y349D02*
X384Y349D01*
X2373Y349D02*
X2391Y349D01*
X229Y348D02*
X282Y348D01*
X366Y348D02*
X384Y348D01*
X2373Y348D02*
X2391Y348D01*
X229Y347D02*
X283Y347D01*
X366Y347D02*
X384Y347D01*
X2373Y347D02*
X2391Y347D01*
X229Y346D02*
X284Y346D01*
X366Y346D02*
X384Y346D01*
X2373Y346D02*
X2391Y346D01*
X229Y345D02*
X284Y345D01*
X366Y345D02*
X384Y345D01*
X2373Y345D02*
X2391Y345D01*
X231Y344D02*
X285Y344D01*
X366Y344D02*
X384Y344D01*
X2373Y344D02*
X2391Y344D01*
X242Y343D02*
X249Y343D01*
X276Y343D02*
X285Y343D01*
X366Y343D02*
X384Y343D01*
X2373Y343D02*
X2391Y343D01*
X242Y342D02*
X249Y342D01*
X278Y342D02*
X285Y342D01*
X366Y342D02*
X384Y342D01*
X2373Y342D02*
X2391Y342D01*
X242Y341D02*
X249Y341D01*
X278Y341D02*
X286Y341D01*
X366Y341D02*
X384Y341D01*
X2373Y341D02*
X2391Y341D01*
X242Y340D02*
X249Y340D01*
X279Y340D02*
X286Y340D01*
X366Y340D02*
X384Y340D01*
X2373Y340D02*
X2391Y340D01*
X242Y339D02*
X249Y339D01*
X279Y339D02*
X286Y339D01*
X366Y339D02*
X384Y339D01*
X2373Y339D02*
X2391Y339D01*
X242Y338D02*
X249Y338D01*
X279Y338D02*
X286Y338D01*
X366Y338D02*
X384Y338D01*
X2373Y338D02*
X2391Y338D01*
X242Y337D02*
X249Y337D01*
X279Y337D02*
X286Y337D01*
X366Y337D02*
X384Y337D01*
X2373Y337D02*
X2391Y337D01*
X242Y336D02*
X249Y336D01*
X279Y336D02*
X286Y336D01*
X366Y336D02*
X384Y336D01*
X2373Y336D02*
X2391Y336D01*
X242Y335D02*
X249Y335D01*
X279Y335D02*
X286Y335D01*
X366Y335D02*
X384Y335D01*
X2373Y335D02*
X2391Y335D01*
X242Y334D02*
X249Y334D01*
X279Y334D02*
X286Y334D01*
X366Y334D02*
X384Y334D01*
X2373Y334D02*
X2391Y334D01*
X242Y333D02*
X249Y333D01*
X279Y333D02*
X286Y333D01*
X366Y333D02*
X384Y333D01*
X2373Y333D02*
X2391Y333D01*
X242Y332D02*
X249Y332D01*
X279Y332D02*
X286Y332D01*
X366Y332D02*
X384Y332D01*
X2373Y332D02*
X2391Y332D01*
X242Y331D02*
X249Y331D01*
X279Y331D02*
X286Y331D01*
X366Y331D02*
X384Y331D01*
X2373Y331D02*
X2391Y331D01*
X242Y330D02*
X249Y330D01*
X278Y330D02*
X286Y330D01*
X366Y330D02*
X384Y330D01*
X2373Y330D02*
X2391Y330D01*
X242Y329D02*
X249Y329D01*
X278Y329D02*
X285Y329D01*
X366Y329D02*
X384Y329D01*
X2373Y329D02*
X2391Y329D01*
X242Y328D02*
X249Y328D01*
X276Y328D02*
X285Y328D01*
X366Y328D02*
X384Y328D01*
X2373Y328D02*
X2391Y328D01*
X242Y327D02*
X249Y327D01*
X274Y327D02*
X285Y327D01*
X366Y327D02*
X384Y327D01*
X2373Y327D02*
X2391Y327D01*
X242Y326D02*
X248Y326D01*
X273Y326D02*
X284Y326D01*
X366Y326D02*
X384Y326D01*
X2373Y326D02*
X2391Y326D01*
X243Y325D02*
X248Y325D01*
X272Y325D02*
X284Y325D01*
X366Y325D02*
X384Y325D01*
X2373Y325D02*
X2391Y325D01*
X245Y324D02*
X246Y324D01*
X272Y324D02*
X283Y324D01*
X366Y324D02*
X384Y324D01*
X2373Y324D02*
X2391Y324D01*
X272Y323D02*
X282Y323D01*
X366Y323D02*
X384Y323D01*
X2373Y323D02*
X2391Y323D01*
X273Y322D02*
X281Y322D01*
X366Y322D02*
X384Y322D01*
X2373Y322D02*
X2391Y322D01*
X273Y321D02*
X279Y321D01*
X366Y321D02*
X384Y321D01*
X2373Y321D02*
X2391Y321D01*
X275Y320D02*
X276Y320D01*
X366Y320D02*
X384Y320D01*
X2373Y320D02*
X2391Y320D01*
X366Y319D02*
X384Y319D01*
X2373Y319D02*
X2391Y319D01*
X366Y318D02*
X384Y318D01*
X2373Y318D02*
X2391Y318D01*
X366Y317D02*
X384Y317D01*
X2373Y317D02*
X2391Y317D01*
X366Y316D02*
X384Y316D01*
X2373Y316D02*
X2391Y316D01*
X366Y315D02*
X384Y315D01*
X2373Y315D02*
X2391Y315D01*
X366Y314D02*
X384Y314D01*
X2373Y314D02*
X2391Y314D01*
X366Y313D02*
X384Y313D01*
X2373Y313D02*
X2391Y313D01*
X366Y312D02*
X384Y312D01*
X2373Y312D02*
X2391Y312D01*
X366Y311D02*
X384Y311D01*
X2373Y311D02*
X2391Y311D01*
X366Y310D02*
X384Y310D01*
X2373Y310D02*
X2391Y310D01*
X366Y309D02*
X384Y309D01*
X2373Y309D02*
X2391Y309D01*
X366Y308D02*
X384Y308D01*
X2373Y308D02*
X2391Y308D01*
X366Y307D02*
X384Y307D01*
X2373Y307D02*
X2391Y307D01*
X366Y306D02*
X384Y306D01*
X2373Y306D02*
X2391Y306D01*
X366Y305D02*
X384Y305D01*
X2373Y305D02*
X2391Y305D01*
X366Y304D02*
X384Y304D01*
X2373Y304D02*
X2391Y304D01*
X366Y303D02*
X384Y303D01*
X2373Y303D02*
X2391Y303D01*
X366Y302D02*
X384Y302D01*
X2373Y302D02*
X2391Y302D01*
X366Y301D02*
X384Y301D01*
X2373Y301D02*
X2391Y301D01*
X245Y300D02*
X246Y300D01*
X366Y300D02*
X384Y300D01*
X2373Y300D02*
X2391Y300D01*
X243Y299D02*
X248Y299D01*
X366Y299D02*
X384Y299D01*
X2373Y299D02*
X2391Y299D01*
X242Y298D02*
X249Y298D01*
X366Y298D02*
X384Y298D01*
X2373Y298D02*
X2391Y298D01*
X242Y297D02*
X249Y297D01*
X366Y297D02*
X384Y297D01*
X2373Y297D02*
X2391Y297D01*
X242Y296D02*
X249Y296D01*
X366Y296D02*
X384Y296D01*
X2373Y296D02*
X2391Y296D01*
X242Y295D02*
X249Y295D01*
X366Y295D02*
X384Y295D01*
X2373Y295D02*
X2391Y295D01*
X242Y294D02*
X249Y294D01*
X366Y294D02*
X384Y294D01*
X2373Y294D02*
X2391Y294D01*
X242Y293D02*
X249Y293D01*
X366Y293D02*
X384Y293D01*
X2373Y293D02*
X2391Y293D01*
X236Y292D02*
X283Y292D01*
X366Y292D02*
X384Y292D01*
X2373Y292D02*
X2391Y292D01*
X233Y291D02*
X285Y291D01*
X366Y291D02*
X384Y291D01*
X2373Y291D02*
X2391Y291D01*
X231Y290D02*
X285Y290D01*
X366Y290D02*
X384Y290D01*
X2373Y290D02*
X2391Y290D01*
X230Y289D02*
X286Y289D01*
X366Y289D02*
X384Y289D01*
X2373Y289D02*
X2391Y289D01*
X229Y288D02*
X286Y288D01*
X366Y288D02*
X384Y288D01*
X2373Y288D02*
X2391Y288D01*
X228Y287D02*
X285Y287D01*
X366Y287D02*
X384Y287D01*
X2373Y287D02*
X2391Y287D01*
X227Y286D02*
X285Y286D01*
X366Y286D02*
X384Y286D01*
X2373Y286D02*
X2391Y286D01*
X227Y285D02*
X283Y285D01*
X366Y285D02*
X384Y285D01*
X2373Y285D02*
X2391Y285D01*
X226Y284D02*
X236Y284D01*
X242Y284D02*
X249Y284D01*
X366Y284D02*
X384Y284D01*
X2373Y284D02*
X2391Y284D01*
X226Y283D02*
X234Y283D01*
X242Y283D02*
X249Y283D01*
X366Y283D02*
X384Y283D01*
X2373Y283D02*
X2391Y283D01*
X226Y282D02*
X233Y282D01*
X242Y282D02*
X249Y282D01*
X366Y282D02*
X384Y282D01*
X2373Y282D02*
X2391Y282D01*
X226Y281D02*
X233Y281D01*
X242Y281D02*
X249Y281D01*
X366Y281D02*
X384Y281D01*
X2373Y281D02*
X2391Y281D01*
X225Y280D02*
X232Y280D01*
X242Y280D02*
X249Y280D01*
X366Y280D02*
X384Y280D01*
X2373Y280D02*
X2391Y280D01*
X225Y279D02*
X232Y279D01*
X242Y279D02*
X249Y279D01*
X366Y279D02*
X384Y279D01*
X2373Y279D02*
X2391Y279D01*
X225Y278D02*
X232Y278D01*
X242Y278D02*
X249Y278D01*
X366Y278D02*
X384Y278D01*
X2373Y278D02*
X2391Y278D01*
X225Y277D02*
X232Y277D01*
X242Y277D02*
X249Y277D01*
X366Y277D02*
X384Y277D01*
X2373Y277D02*
X2391Y277D01*
X225Y276D02*
X232Y276D01*
X242Y276D02*
X249Y276D01*
X366Y276D02*
X384Y276D01*
X2373Y276D02*
X2391Y276D01*
X225Y275D02*
X232Y275D01*
X242Y275D02*
X248Y275D01*
X366Y275D02*
X384Y275D01*
X2373Y275D02*
X2391Y275D01*
X225Y274D02*
X232Y274D01*
X243Y274D02*
X248Y274D01*
X366Y274D02*
X384Y274D01*
X2373Y274D02*
X2391Y274D01*
X225Y273D02*
X232Y273D01*
X245Y273D02*
X246Y273D01*
X366Y273D02*
X384Y273D01*
X2373Y273D02*
X2391Y273D01*
X225Y272D02*
X232Y272D01*
X366Y272D02*
X384Y272D01*
X2373Y272D02*
X2391Y272D01*
X225Y271D02*
X232Y271D01*
X366Y271D02*
X384Y271D01*
X2373Y271D02*
X2391Y271D01*
X225Y270D02*
X232Y270D01*
X366Y270D02*
X384Y270D01*
X2373Y270D02*
X2391Y270D01*
X225Y269D02*
X232Y269D01*
X366Y269D02*
X384Y269D01*
X2373Y269D02*
X2391Y269D01*
X225Y268D02*
X232Y268D01*
X366Y268D02*
X384Y268D01*
X2373Y268D02*
X2391Y268D01*
X226Y267D02*
X232Y267D01*
X366Y267D02*
X384Y267D01*
X2373Y267D02*
X2391Y267D01*
X227Y266D02*
X231Y266D01*
X366Y266D02*
X384Y266D01*
X2373Y266D02*
X2391Y266D01*
X366Y265D02*
X384Y265D01*
X2373Y265D02*
X2391Y265D01*
X366Y264D02*
X384Y264D01*
X2373Y264D02*
X2391Y264D01*
X366Y263D02*
X384Y263D01*
X2373Y263D02*
X2391Y263D01*
X366Y262D02*
X384Y262D01*
X2373Y262D02*
X2391Y262D01*
X366Y261D02*
X384Y261D01*
X2373Y261D02*
X2391Y261D01*
X366Y260D02*
X384Y260D01*
X2373Y260D02*
X2391Y260D01*
X366Y259D02*
X384Y259D01*
X2373Y259D02*
X2391Y259D01*
X366Y258D02*
X384Y258D01*
X2373Y258D02*
X2391Y258D01*
X366Y257D02*
X384Y257D01*
X2373Y257D02*
X2391Y257D01*
X366Y256D02*
X384Y256D01*
X2373Y256D02*
X2391Y256D01*
X366Y255D02*
X384Y255D01*
X2373Y255D02*
X2391Y255D01*
X366Y254D02*
X384Y254D01*
X2373Y254D02*
X2391Y254D01*
X366Y253D02*
X384Y253D01*
X2373Y253D02*
X2391Y253D01*
X366Y252D02*
X384Y252D01*
X2373Y252D02*
X2391Y252D01*
X366Y251D02*
X384Y251D01*
X2373Y251D02*
X2391Y251D01*
X366Y250D02*
X384Y250D01*
X2373Y250D02*
X2391Y250D01*
X366Y249D02*
X384Y249D01*
X2373Y249D02*
X2391Y249D01*
X366Y248D02*
X384Y248D01*
X2373Y248D02*
X2391Y248D01*
X366Y247D02*
X384Y247D01*
X2373Y247D02*
X2391Y247D01*
X366Y246D02*
X384Y246D01*
X2373Y246D02*
X2391Y246D01*
X254Y245D02*
X274Y245D01*
X366Y245D02*
X384Y245D01*
X2373Y245D02*
X2391Y245D01*
X251Y244D02*
X277Y244D01*
X366Y244D02*
X384Y244D01*
X2373Y244D02*
X2391Y244D01*
X249Y243D02*
X278Y243D01*
X366Y243D02*
X384Y243D01*
X2373Y243D02*
X2391Y243D01*
X248Y242D02*
X280Y242D01*
X366Y242D02*
X384Y242D01*
X2373Y242D02*
X2391Y242D01*
X247Y241D02*
X281Y241D01*
X366Y241D02*
X384Y241D01*
X2373Y241D02*
X2391Y241D01*
X246Y240D02*
X281Y240D01*
X366Y240D02*
X384Y240D01*
X2373Y240D02*
X2391Y240D01*
X245Y239D02*
X282Y239D01*
X366Y239D02*
X384Y239D01*
X2373Y239D02*
X2391Y239D01*
X245Y238D02*
X283Y238D01*
X366Y238D02*
X384Y238D01*
X2373Y238D02*
X2391Y238D01*
X244Y237D02*
X254Y237D01*
X274Y237D02*
X284Y237D01*
X366Y237D02*
X384Y237D01*
X2373Y237D02*
X2391Y237D01*
X243Y236D02*
X252Y236D01*
X275Y236D02*
X284Y236D01*
X366Y236D02*
X384Y236D01*
X2373Y236D02*
X2391Y236D01*
X243Y235D02*
X251Y235D01*
X276Y235D02*
X285Y235D01*
X366Y235D02*
X384Y235D01*
X2373Y235D02*
X2391Y235D01*
X243Y234D02*
X251Y234D01*
X277Y234D02*
X285Y234D01*
X366Y234D02*
X384Y234D01*
X2373Y234D02*
X2391Y234D01*
X242Y233D02*
X250Y233D01*
X278Y233D02*
X285Y233D01*
X366Y233D02*
X384Y233D01*
X2373Y233D02*
X2391Y233D01*
X242Y232D02*
X249Y232D01*
X278Y232D02*
X286Y232D01*
X366Y232D02*
X384Y232D01*
X2373Y232D02*
X2391Y232D01*
X242Y231D02*
X249Y231D01*
X279Y231D02*
X286Y231D01*
X366Y231D02*
X384Y231D01*
X2373Y231D02*
X2391Y231D01*
X242Y230D02*
X249Y230D01*
X279Y230D02*
X286Y230D01*
X366Y230D02*
X384Y230D01*
X2373Y230D02*
X2391Y230D01*
X242Y229D02*
X249Y229D01*
X279Y229D02*
X286Y229D01*
X366Y229D02*
X384Y229D01*
X2373Y229D02*
X2391Y229D01*
X242Y228D02*
X249Y228D01*
X279Y228D02*
X286Y228D01*
X366Y228D02*
X384Y228D01*
X2373Y228D02*
X2391Y228D01*
X242Y227D02*
X249Y227D01*
X279Y227D02*
X286Y227D01*
X366Y227D02*
X384Y227D01*
X2373Y227D02*
X2391Y227D01*
X242Y226D02*
X249Y226D01*
X279Y226D02*
X286Y226D01*
X366Y226D02*
X384Y226D01*
X2373Y226D02*
X2391Y226D01*
X242Y225D02*
X249Y225D01*
X279Y225D02*
X286Y225D01*
X366Y225D02*
X384Y225D01*
X2373Y225D02*
X2391Y225D01*
X242Y224D02*
X249Y224D01*
X279Y224D02*
X286Y224D01*
X366Y224D02*
X384Y224D01*
X2373Y224D02*
X2391Y224D01*
X242Y223D02*
X249Y223D01*
X278Y223D02*
X286Y223D01*
X366Y223D02*
X384Y223D01*
X2373Y223D02*
X2391Y223D01*
X242Y222D02*
X250Y222D01*
X278Y222D02*
X285Y222D01*
X366Y222D02*
X384Y222D01*
X2373Y222D02*
X2391Y222D01*
X243Y221D02*
X251Y221D01*
X277Y221D02*
X285Y221D01*
X366Y221D02*
X384Y221D01*
X2373Y221D02*
X2391Y221D01*
X243Y220D02*
X252Y220D01*
X276Y220D02*
X285Y220D01*
X366Y220D02*
X384Y220D01*
X2373Y220D02*
X2391Y220D01*
X244Y219D02*
X253Y219D01*
X275Y219D02*
X284Y219D01*
X366Y219D02*
X384Y219D01*
X2373Y219D02*
X2391Y219D01*
X244Y218D02*
X254Y218D01*
X274Y218D02*
X284Y218D01*
X366Y218D02*
X384Y218D01*
X2373Y218D02*
X2391Y218D01*
X245Y217D02*
X254Y217D01*
X273Y217D02*
X283Y217D01*
X366Y217D02*
X384Y217D01*
X2373Y217D02*
X2391Y217D01*
X246Y216D02*
X255Y216D01*
X272Y216D02*
X282Y216D01*
X366Y216D02*
X384Y216D01*
X2373Y216D02*
X2391Y216D01*
X247Y215D02*
X256Y215D01*
X271Y215D02*
X281Y215D01*
X366Y215D02*
X384Y215D01*
X2373Y215D02*
X2391Y215D01*
X229Y214D02*
X282Y214D01*
X366Y214D02*
X384Y214D01*
X2373Y214D02*
X2391Y214D01*
X227Y213D02*
X284Y213D01*
X366Y213D02*
X384Y213D01*
X2373Y213D02*
X2391Y213D01*
X226Y212D02*
X285Y212D01*
X366Y212D02*
X384Y212D01*
X2373Y212D02*
X2391Y212D01*
X225Y211D02*
X286Y211D01*
X366Y211D02*
X384Y211D01*
X2373Y211D02*
X2391Y211D01*
X225Y210D02*
X286Y210D01*
X366Y210D02*
X384Y210D01*
X2373Y210D02*
X2391Y210D01*
X226Y209D02*
X285Y209D01*
X366Y209D02*
X384Y209D01*
X2373Y209D02*
X2391Y209D01*
X226Y208D02*
X285Y208D01*
X366Y208D02*
X384Y208D01*
X2373Y208D02*
X2391Y208D01*
X227Y207D02*
X284Y207D01*
X366Y207D02*
X384Y207D01*
X2373Y207D02*
X2391Y207D01*
X366Y206D02*
X384Y206D01*
X2373Y206D02*
X2391Y206D01*
X366Y205D02*
X384Y205D01*
X2373Y205D02*
X2391Y205D01*
X366Y204D02*
X384Y204D01*
X2373Y204D02*
X2391Y204D01*
X366Y203D02*
X384Y203D01*
X2373Y203D02*
X2391Y203D01*
X366Y202D02*
X384Y202D01*
X2373Y202D02*
X2391Y202D01*
X366Y201D02*
X384Y201D01*
X2373Y201D02*
X2391Y201D01*
X366Y200D02*
X384Y200D01*
X2374Y200D02*
X2391Y200D01*
X366Y199D02*
X384Y199D01*
X2376Y199D02*
X2391Y199D01*
X366Y198D02*
X384Y198D01*
X2377Y198D02*
X2391Y198D01*
X366Y197D02*
X384Y197D01*
X2378Y197D02*
X2391Y197D01*
X366Y196D02*
X384Y196D01*
X2379Y196D02*
X2391Y196D01*
X366Y195D02*
X384Y195D01*
X2380Y195D02*
X2391Y195D01*
X366Y194D02*
X384Y194D01*
X2380Y194D02*
X2391Y194D01*
X366Y193D02*
X384Y193D01*
X2381Y193D02*
X2391Y193D01*
X366Y192D02*
X384Y192D01*
X2381Y192D02*
X2391Y192D01*
X366Y191D02*
X384Y191D01*
X2382Y191D02*
X2391Y191D01*
X366Y190D02*
X384Y190D01*
X2382Y190D02*
X2391Y190D01*
X366Y189D02*
X384Y189D01*
X2382Y189D02*
X2391Y189D01*
X366Y188D02*
X384Y188D01*
X2382Y188D02*
X2391Y188D01*
X366Y187D02*
X384Y187D01*
X2383Y187D02*
X2391Y187D01*
X366Y186D02*
X384Y186D01*
X2383Y186D02*
X2391Y186D01*
X366Y185D02*
X384Y185D01*
X2383Y185D02*
X2391Y185D01*
X366Y184D02*
X384Y184D01*
X2383Y184D02*
X2391Y184D01*
X366Y183D02*
X384Y183D01*
X2383Y183D02*
X2391Y183D01*
X366Y182D02*
X384Y182D01*
X2382Y182D02*
X2391Y182D01*
X366Y181D02*
X384Y181D01*
X2382Y181D02*
X2391Y181D01*
X366Y180D02*
X384Y180D01*
X2382Y180D02*
X2391Y180D01*
X366Y179D02*
X384Y179D01*
X2381Y179D02*
X2391Y179D01*
X366Y178D02*
X384Y178D01*
X2381Y178D02*
X2391Y178D01*
X366Y177D02*
X384Y177D01*
X2380Y177D02*
X2391Y177D01*
X264Y176D02*
X274Y176D01*
X366Y176D02*
X384Y176D01*
X2380Y176D02*
X2391Y176D01*
X263Y175D02*
X275Y175D01*
X366Y175D02*
X384Y175D01*
X2379Y175D02*
X2391Y175D01*
X262Y174D02*
X275Y174D01*
X366Y174D02*
X384Y174D01*
X2378Y174D02*
X2391Y174D01*
X262Y173D02*
X276Y173D01*
X366Y173D02*
X384Y173D01*
X2377Y173D02*
X2391Y173D01*
X262Y172D02*
X276Y172D01*
X366Y172D02*
X384Y172D01*
X2376Y172D02*
X2391Y172D01*
X262Y171D02*
X276Y171D01*
X366Y171D02*
X384Y171D01*
X2375Y171D02*
X2391Y171D01*
X262Y170D02*
X276Y170D01*
X366Y170D02*
X384Y170D01*
X2373Y170D02*
X2391Y170D01*
X262Y169D02*
X276Y169D01*
X366Y169D02*
X384Y169D01*
X2373Y169D02*
X2391Y169D01*
X262Y168D02*
X276Y168D01*
X366Y168D02*
X384Y168D01*
X2373Y168D02*
X2391Y168D01*
X262Y167D02*
X276Y167D01*
X366Y167D02*
X384Y167D01*
X2373Y167D02*
X2391Y167D01*
X262Y166D02*
X276Y166D01*
X366Y166D02*
X384Y166D01*
X2373Y166D02*
X2391Y166D01*
X262Y165D02*
X276Y165D01*
X366Y165D02*
X384Y165D01*
X2373Y165D02*
X2391Y165D01*
X262Y164D02*
X276Y164D01*
X366Y164D02*
X384Y164D01*
X2373Y164D02*
X2391Y164D01*
X263Y163D02*
X275Y163D01*
X366Y163D02*
X384Y163D01*
X2373Y163D02*
X2391Y163D01*
X263Y162D02*
X274Y162D01*
X366Y162D02*
X384Y162D01*
X2373Y162D02*
X2391Y162D01*
X266Y161D02*
X272Y161D01*
X366Y161D02*
X384Y161D01*
X2373Y161D02*
X2391Y161D01*
X366Y160D02*
X384Y160D01*
X2373Y160D02*
X2391Y160D01*
X366Y159D02*
X384Y159D01*
X2373Y159D02*
X2390Y159D01*
X366Y158D02*
X384Y158D01*
X2373Y158D02*
X2390Y158D01*
X366Y157D02*
X384Y157D01*
X2372Y157D02*
X2390Y157D01*
X366Y156D02*
X384Y156D01*
X2372Y156D02*
X2390Y156D01*
X367Y155D02*
X384Y155D01*
X2372Y155D02*
X2390Y155D01*
X367Y154D02*
X385Y154D01*
X2372Y154D02*
X2390Y154D01*
X367Y153D02*
X385Y153D01*
X2371Y153D02*
X2389Y153D01*
X367Y152D02*
X385Y152D01*
X2371Y152D02*
X2389Y152D01*
X367Y151D02*
X386Y151D01*
X2371Y151D02*
X2389Y151D01*
X368Y150D02*
X386Y150D01*
X2370Y150D02*
X2389Y150D01*
X368Y149D02*
X387Y149D01*
X2370Y149D02*
X2388Y149D01*
X368Y148D02*
X387Y148D01*
X2369Y148D02*
X2388Y148D01*
X369Y147D02*
X388Y147D01*
X2369Y147D02*
X2388Y147D01*
X369Y146D02*
X388Y146D01*
X2368Y146D02*
X2387Y146D01*
X369Y145D02*
X389Y145D01*
X2367Y145D02*
X2387Y145D01*
X370Y144D02*
X390Y144D01*
X2367Y144D02*
X2387Y144D01*
X370Y143D02*
X390Y143D01*
X2366Y143D02*
X2386Y143D01*
X371Y142D02*
X391Y142D01*
X2365Y142D02*
X2386Y142D01*
X371Y141D02*
X392Y141D01*
X2364Y141D02*
X2385Y141D01*
X372Y140D02*
X393Y140D01*
X2363Y140D02*
X2385Y140D01*
X372Y139D02*
X394Y139D01*
X2362Y139D02*
X2384Y139D01*
X373Y138D02*
X396Y138D01*
X2361Y138D02*
X2384Y138D01*
X373Y137D02*
X398Y137D01*
X2359Y137D02*
X2383Y137D01*
X374Y136D02*
X401Y136D01*
X2356Y136D02*
X2383Y136D01*
X374Y135D02*
X2129Y135D01*
X2178Y135D02*
X2382Y135D01*
X375Y134D02*
X2127Y134D01*
X2179Y134D02*
X2381Y134D01*
X376Y133D02*
X2126Y133D01*
X2180Y133D02*
X2381Y133D01*
X376Y132D02*
X2124Y132D01*
X2182Y132D02*
X2380Y132D01*
X377Y131D02*
X2123Y131D01*
X2183Y131D02*
X2379Y131D01*
X378Y130D02*
X2122Y130D01*
X2184Y130D02*
X2378Y130D01*
X379Y129D02*
X2121Y129D01*
X2185Y129D02*
X2377Y129D01*
X380Y128D02*
X2120Y128D01*
X2186Y128D02*
X2376Y128D01*
X244Y127D02*
X247Y127D01*
X281Y127D02*
X284Y127D01*
X381Y127D02*
X2119Y127D01*
X2187Y127D02*
X2375Y127D01*
X243Y126D02*
X248Y126D01*
X280Y126D02*
X285Y126D01*
X382Y126D02*
X2118Y126D01*
X2188Y126D02*
X2374Y126D01*
X242Y125D02*
X249Y125D01*
X279Y125D02*
X285Y125D01*
X384Y125D02*
X2118Y125D01*
X2188Y125D02*
X2373Y125D01*
X242Y124D02*
X249Y124D01*
X279Y124D02*
X286Y124D01*
X385Y124D02*
X2117Y124D01*
X2189Y124D02*
X2371Y124D01*
X242Y123D02*
X249Y123D01*
X279Y123D02*
X286Y123D01*
X386Y123D02*
X2116Y123D01*
X2190Y123D02*
X2370Y123D01*
X242Y122D02*
X249Y122D01*
X279Y122D02*
X286Y122D01*
X388Y122D02*
X2115Y122D01*
X2191Y122D02*
X2368Y122D01*
X242Y121D02*
X249Y121D01*
X279Y121D02*
X286Y121D01*
X390Y121D02*
X2115Y121D01*
X2191Y121D02*
X2367Y121D01*
X242Y120D02*
X249Y120D01*
X279Y120D02*
X286Y120D01*
X392Y120D02*
X2114Y120D01*
X2192Y120D02*
X2364Y120D01*
X224Y119D02*
X231Y119D01*
X242Y119D02*
X249Y119D01*
X279Y119D02*
X286Y119D01*
X395Y119D02*
X2114Y119D01*
X2192Y119D02*
X2362Y119D01*
X223Y118D02*
X232Y118D01*
X242Y118D02*
X249Y118D01*
X279Y118D02*
X286Y118D01*
X398Y118D02*
X2113Y118D01*
X2193Y118D02*
X2359Y118D01*
X222Y117D02*
X232Y117D01*
X242Y117D02*
X249Y117D01*
X279Y117D02*
X286Y117D01*
X222Y116D02*
X232Y116D01*
X242Y116D02*
X249Y116D01*
X279Y116D02*
X286Y116D01*
X222Y115D02*
X232Y115D01*
X242Y115D02*
X286Y115D01*
X222Y114D02*
X232Y114D01*
X242Y114D02*
X286Y114D01*
X222Y113D02*
X232Y113D01*
X242Y113D02*
X286Y113D01*
X222Y112D02*
X232Y112D01*
X242Y112D02*
X286Y112D01*
X222Y111D02*
X232Y111D01*
X242Y111D02*
X286Y111D01*
X223Y110D02*
X232Y110D01*
X243Y110D02*
X286Y110D01*
X223Y109D02*
X231Y109D01*
X243Y109D02*
X286Y109D01*
X226Y108D02*
X228Y108D01*
X246Y108D02*
X286Y108D01*
X279Y107D02*
X286Y107D01*
X279Y106D02*
X286Y106D01*
X279Y105D02*
X286Y105D01*
X279Y104D02*
X286Y104D01*
X279Y103D02*
X286Y103D01*
X279Y102D02*
X286Y102D01*
X279Y101D02*
X286Y101D01*
X279Y100D02*
X286Y100D01*
X279Y99D02*
X285Y99D01*
X280Y98D02*
X285Y98D01*
X281Y97D02*
X284Y97D01*
X253Y74D02*
X275Y74D01*
X251Y73D02*
X277Y73D01*
X249Y72D02*
X279Y72D01*
X248Y71D02*
X280Y71D01*
X247Y70D02*
X281Y70D01*
X246Y69D02*
X282Y69D01*
X245Y68D02*
X283Y68D01*
X244Y67D02*
X283Y67D01*
X244Y66D02*
X253Y66D01*
X275Y66D02*
X284Y66D01*
X243Y65D02*
X252Y65D01*
X276Y65D02*
X284Y65D01*
X243Y64D02*
X251Y64D01*
X277Y64D02*
X285Y64D01*
X242Y63D02*
X250Y63D01*
X277Y63D02*
X285Y63D01*
X242Y62D02*
X249Y62D01*
X278Y62D02*
X285Y62D01*
X242Y61D02*
X249Y61D01*
X279Y61D02*
X286Y61D01*
X242Y60D02*
X249Y60D01*
X279Y60D02*
X286Y60D01*
X242Y59D02*
X249Y59D01*
X279Y59D02*
X286Y59D01*
X242Y58D02*
X249Y58D01*
X279Y58D02*
X286Y58D01*
X242Y57D02*
X249Y57D01*
X279Y57D02*
X286Y57D01*
X242Y56D02*
X249Y56D01*
X279Y56D02*
X286Y56D01*
X242Y55D02*
X249Y55D01*
X279Y55D02*
X286Y55D01*
X242Y54D02*
X249Y54D01*
X279Y54D02*
X286Y54D01*
X242Y53D02*
X249Y53D01*
X279Y53D02*
X286Y53D01*
X242Y52D02*
X249Y52D01*
X279Y52D02*
X286Y52D01*
X242Y51D02*
X249Y51D01*
X279Y51D02*
X286Y51D01*
X242Y50D02*
X249Y50D01*
X279Y50D02*
X286Y50D01*
X242Y49D02*
X249Y49D01*
X279Y49D02*
X286Y49D01*
X242Y48D02*
X250Y48D01*
X278Y48D02*
X286Y48D01*
X242Y47D02*
X250Y47D01*
X277Y47D02*
X285Y47D01*
X243Y46D02*
X251Y46D01*
X276Y46D02*
X285Y46D01*
X243Y45D02*
X252Y45D01*
X276Y45D02*
X285Y45D01*
X244Y44D02*
X253Y44D01*
X274Y44D02*
X284Y44D01*
X244Y43D02*
X283Y43D01*
X245Y42D02*
X282Y42D01*
X246Y41D02*
X282Y41D01*
X247Y40D02*
X281Y40D01*
X248Y39D02*
X280Y39D01*
X249Y38D02*
X279Y38D01*
X250Y37D02*
X277Y37D01*
X253Y36D02*
X275Y36D01*
D02*
G04 End of Silk0*
M02*