G04 MADE WITH FRITZING*
G04 WWW.FRITZING.ORG*
G04 DOUBLE SIDED*
G04 HOLES PLATED*
G04 CONTOUR ON CENTER OF CONTOUR VECTOR*
%ASAXBY*%
%FSLAX23Y23*%
%MOIN*%
%OFA0B0*%
%SFA1.0B1.0*%
%ADD10C,0.076929*%
%ADD11C,0.088740*%
%ADD12C,0.033622*%
%ADD13C,0.045433*%
%ADD14C,0.135984*%
%ADD15C,0.049370*%
%ADD16R,0.057244X0.053307*%
%ADD17R,0.037559X0.069055*%
%ADD18R,0.049370X0.033622*%
%ADD19R,0.049370X0.041496*%
%ADD20R,0.071024X0.061181*%
%ADD21R,0.023779X0.065118*%
%ADD22R,0.080866X0.084803*%
%ADD23R,0.031654X0.057244*%
%ADD24R,0.112362X0.112362*%
%ADD25C,0.010000*%
%LNMASK1*%
G90*
G70*
G54D10*
X979Y284D03*
X979Y384D03*
X979Y484D03*
X979Y584D03*
X979Y684D03*
X979Y784D03*
X979Y884D03*
X979Y984D03*
X1929Y284D03*
X1929Y384D03*
X1929Y484D03*
X1929Y584D03*
X1929Y684D03*
X1929Y784D03*
X1929Y884D03*
X1929Y984D03*
G54D11*
X2154Y96D03*
X2429Y96D03*
G54D12*
X2217Y184D03*
G54D13*
X552Y140D03*
X434Y140D03*
X552Y140D03*
X434Y140D03*
G54D12*
X2367Y184D03*
G54D11*
X2329Y859D03*
X2329Y859D03*
X2329Y409D03*
X2329Y409D03*
X429Y409D03*
X429Y409D03*
X429Y859D03*
X429Y859D03*
G54D14*
X154Y159D03*
X704Y1184D03*
X154Y1109D03*
X154Y634D03*
X2604Y634D03*
X2604Y159D03*
X2204Y1184D03*
G54D15*
X529Y284D03*
X1504Y484D03*
X1579Y484D03*
X2304Y296D03*
X2254Y296D03*
X579Y759D03*
X2204Y634D03*
X1354Y634D03*
X1179Y709D03*
G54D10*
X2004Y1186D03*
X1904Y1196D03*
X1804Y1186D03*
X1704Y1196D03*
X1604Y1186D03*
X1504Y1196D03*
X1404Y1186D03*
X1304Y1196D03*
X1204Y1186D03*
X1104Y1196D03*
X1004Y1186D03*
X904Y1196D03*
G54D16*
X1654Y684D03*
X1721Y684D03*
X1654Y759D03*
X1721Y759D03*
G54D17*
X581Y209D03*
X522Y209D03*
X404Y209D03*
G54D18*
X637Y101D03*
G54D19*
X637Y183D03*
G54D18*
X349Y101D03*
G54D19*
X349Y183D03*
G54D20*
X2630Y1134D03*
X2317Y1134D03*
X2630Y957D03*
X2317Y957D03*
X466Y759D03*
X779Y759D03*
X466Y936D03*
X779Y936D03*
X266Y509D03*
X579Y509D03*
X266Y686D03*
X579Y686D03*
X66Y759D03*
X379Y759D03*
X66Y936D03*
X379Y936D03*
X2442Y759D03*
X2129Y759D03*
X2442Y582D03*
X2129Y582D03*
X266Y1009D03*
X579Y1009D03*
X266Y1186D03*
X579Y1186D03*
G54D21*
X2242Y221D03*
X2344Y221D03*
X2267Y221D03*
X2293Y221D03*
X2319Y221D03*
G54D22*
X2135Y117D03*
X2450Y117D03*
G54D23*
X704Y133D03*
X742Y133D03*
X779Y133D03*
X779Y236D03*
X704Y236D03*
G54D24*
X1364Y635D03*
G54D25*
G36*
X1408Y718D02*
X1408Y750D01*
X1419Y750D01*
X1419Y718D01*
X1408Y718D01*
G37*
D02*
G36*
X1447Y581D02*
X1447Y592D01*
X1478Y592D01*
X1478Y581D01*
X1447Y581D01*
G37*
D02*
G36*
X1309Y521D02*
X1309Y553D01*
X1320Y553D01*
X1320Y521D01*
X1309Y521D01*
G37*
D02*
G36*
X1388Y718D02*
X1388Y750D01*
X1399Y750D01*
X1399Y718D01*
X1388Y718D01*
G37*
D02*
G36*
X1388Y521D02*
X1388Y553D01*
X1399Y553D01*
X1399Y521D01*
X1388Y521D01*
G37*
D02*
G36*
X1368Y718D02*
X1368Y750D01*
X1380Y750D01*
X1380Y718D01*
X1368Y718D01*
G37*
D02*
G36*
X1447Y659D02*
X1447Y671D01*
X1478Y671D01*
X1478Y659D01*
X1447Y659D01*
G37*
D02*
G36*
X1349Y718D02*
X1349Y750D01*
X1360Y750D01*
X1360Y718D01*
X1349Y718D01*
G37*
D02*
G36*
X1349Y521D02*
X1349Y553D01*
X1360Y553D01*
X1360Y521D01*
X1349Y521D01*
G37*
D02*
G36*
X1329Y718D02*
X1329Y750D01*
X1340Y750D01*
X1340Y718D01*
X1329Y718D01*
G37*
D02*
G36*
X1427Y521D02*
X1427Y553D01*
X1439Y553D01*
X1439Y521D01*
X1427Y521D01*
G37*
D02*
G36*
X1309Y718D02*
X1309Y750D01*
X1320Y750D01*
X1320Y718D01*
X1309Y718D01*
G37*
D02*
G36*
X1447Y620D02*
X1447Y631D01*
X1478Y631D01*
X1478Y620D01*
X1447Y620D01*
G37*
D02*
G36*
X1290Y718D02*
X1290Y750D01*
X1301Y750D01*
X1301Y718D01*
X1290Y718D01*
G37*
D02*
G36*
X1447Y699D02*
X1447Y710D01*
X1478Y710D01*
X1478Y699D01*
X1447Y699D01*
G37*
D02*
G36*
X1250Y699D02*
X1250Y710D01*
X1281Y710D01*
X1281Y699D01*
X1250Y699D01*
G37*
D02*
G36*
X1329Y521D02*
X1329Y553D01*
X1340Y553D01*
X1340Y521D01*
X1329Y521D01*
G37*
D02*
G36*
X1250Y679D02*
X1250Y690D01*
X1281Y690D01*
X1281Y679D01*
X1250Y679D01*
G37*
D02*
G36*
X1368Y521D02*
X1368Y553D01*
X1380Y553D01*
X1380Y521D01*
X1368Y521D01*
G37*
D02*
G36*
X1250Y659D02*
X1250Y671D01*
X1281Y671D01*
X1281Y659D01*
X1250Y659D01*
G37*
D02*
G36*
X1408Y521D02*
X1408Y553D01*
X1419Y553D01*
X1419Y521D01*
X1408Y521D01*
G37*
D02*
G36*
X1250Y640D02*
X1250Y651D01*
X1281Y651D01*
X1281Y640D01*
X1250Y640D01*
G37*
D02*
G36*
X1447Y561D02*
X1447Y572D01*
X1478Y572D01*
X1478Y561D01*
X1447Y561D01*
G37*
D02*
G36*
X1250Y620D02*
X1250Y631D01*
X1281Y631D01*
X1281Y620D01*
X1250Y620D01*
G37*
D02*
G36*
X1447Y600D02*
X1447Y612D01*
X1478Y612D01*
X1478Y600D01*
X1447Y600D01*
G37*
D02*
G36*
X1250Y600D02*
X1250Y612D01*
X1281Y612D01*
X1281Y600D01*
X1250Y600D01*
G37*
D02*
G36*
X1447Y640D02*
X1447Y651D01*
X1478Y651D01*
X1478Y640D01*
X1447Y640D01*
G37*
D02*
G36*
X1250Y581D02*
X1250Y592D01*
X1281Y592D01*
X1281Y581D01*
X1250Y581D01*
G37*
D02*
G36*
X1447Y679D02*
X1447Y690D01*
X1478Y690D01*
X1478Y679D01*
X1447Y679D01*
G37*
D02*
G36*
X1250Y561D02*
X1250Y572D01*
X1281Y572D01*
X1281Y561D01*
X1250Y561D01*
G37*
D02*
G36*
X1290Y521D02*
X1290Y553D01*
X1301Y553D01*
X1301Y521D01*
X1290Y521D01*
G37*
D02*
G36*
X1427Y718D02*
X1427Y750D01*
X1439Y750D01*
X1439Y718D01*
X1427Y718D01*
G37*
D02*
G04 End of Mask1*
M02*