G04 MADE WITH FRITZING*
G04 WWW.FRITZING.ORG*
G04 DOUBLE SIDED*
G04 HOLES PLATED*
G04 CONTOUR ON CENTER OF CONTOUR VECTOR*
%ASAXBY*%
%FSLAX23Y23*%
%MOIN*%
%OFA0B0*%
%SFA1.0B1.0*%
%ADD10C,0.075000*%
%ADD11C,0.066929*%
%ADD12C,0.078740*%
%ADD13C,0.125984*%
%ADD14C,0.039370*%
%ADD15R,0.047244X0.043307*%
%ADD16R,0.027559X0.059055*%
%ADD17R,0.039370X0.023622*%
%ADD18R,0.039370X0.031496*%
%ADD19R,0.061024X0.051181*%
%ADD20R,0.013780X0.055118*%
%ADD21R,0.070866X0.074803*%
%ADD22R,0.021654X0.047244*%
%ADD23R,0.102362X0.102362*%
%ADD24C,0.012000*%
%ADD25C,0.008000*%
%ADD26R,0.001000X0.001000*%
%LNCOPPER1*%
G90*
G70*
G54D10*
X2070Y1034D03*
X1792Y1082D03*
X1045Y1057D03*
X353Y1151D03*
X671Y919D03*
X1224Y417D03*
G54D11*
X979Y284D03*
X979Y384D03*
X979Y484D03*
X979Y584D03*
X979Y684D03*
X979Y784D03*
X979Y884D03*
X979Y984D03*
X1929Y284D03*
X1929Y384D03*
X1929Y484D03*
X1929Y584D03*
X1929Y684D03*
X1929Y784D03*
X1929Y884D03*
X1929Y984D03*
G54D12*
X2154Y96D03*
X2429Y96D03*
X2329Y859D03*
X2329Y859D03*
X2329Y409D03*
X2329Y409D03*
X429Y409D03*
X429Y409D03*
X429Y859D03*
X429Y859D03*
G54D13*
X154Y159D03*
X704Y1184D03*
X154Y1109D03*
X154Y634D03*
X2604Y634D03*
X2604Y159D03*
X2204Y1184D03*
G54D14*
X529Y284D03*
X1504Y484D03*
X1579Y484D03*
X2304Y296D03*
X2254Y296D03*
X579Y759D03*
X2204Y634D03*
X1354Y634D03*
X1179Y709D03*
G54D11*
X2004Y1186D03*
X1904Y1196D03*
X1804Y1186D03*
X1704Y1196D03*
X1604Y1186D03*
X1504Y1196D03*
X1404Y1186D03*
X1304Y1196D03*
X1204Y1186D03*
X1104Y1196D03*
X1004Y1186D03*
X904Y1196D03*
G54D15*
X1654Y684D03*
X1721Y684D03*
X1654Y759D03*
X1721Y759D03*
G54D16*
X581Y209D03*
X522Y209D03*
X404Y209D03*
G54D17*
X637Y101D03*
G54D18*
X637Y183D03*
G54D17*
X349Y101D03*
G54D18*
X349Y183D03*
G54D19*
X2630Y1134D03*
X2317Y1134D03*
X2630Y957D03*
X2317Y957D03*
X466Y759D03*
X779Y759D03*
X466Y936D03*
X779Y936D03*
X266Y509D03*
X579Y509D03*
X266Y686D03*
X579Y686D03*
X66Y759D03*
X379Y759D03*
X66Y936D03*
X379Y936D03*
X2442Y759D03*
X2129Y759D03*
X2442Y582D03*
X2129Y582D03*
X266Y1009D03*
X579Y1009D03*
X266Y1186D03*
X579Y1186D03*
G54D20*
X2242Y221D03*
X2344Y221D03*
X2267Y221D03*
X2293Y221D03*
X2319Y221D03*
G54D21*
X2135Y117D03*
X2450Y117D03*
G54D22*
X704Y133D03*
X742Y133D03*
X779Y133D03*
X779Y236D03*
X704Y236D03*
G54D23*
X1364Y635D03*
G54D24*
X1242Y785D02*
X1295Y734D01*
D02*
X1003Y784D02*
X1242Y785D01*
D02*
X1604Y834D02*
X1604Y1163D01*
D02*
X867Y221D02*
X2240Y221D01*
D02*
X830Y185D02*
X867Y221D01*
D02*
X779Y184D02*
X830Y185D01*
D02*
X779Y151D02*
X779Y184D01*
D02*
X403Y383D02*
X404Y233D01*
D02*
X409Y388D02*
X403Y383D01*
D02*
X779Y184D02*
X779Y151D01*
D02*
X1129Y645D02*
X1255Y645D01*
D02*
X1093Y683D02*
X1129Y645D01*
D02*
X942Y733D02*
X1079Y734D01*
D02*
X1079Y734D02*
X1154Y665D01*
D02*
X1154Y665D02*
X1255Y665D01*
D02*
X780Y897D02*
X942Y733D01*
D02*
X780Y916D02*
X780Y897D01*
D02*
X716Y184D02*
X779Y184D01*
D02*
X996Y300D02*
X1254Y534D01*
D02*
X1204Y586D02*
X1255Y586D01*
D02*
X997Y399D02*
X1204Y586D01*
D02*
X1117Y606D02*
X1255Y606D01*
D02*
X997Y499D02*
X1117Y606D01*
D02*
X1028Y626D02*
X1255Y626D01*
D02*
X997Y599D02*
X1028Y626D01*
D02*
X1003Y684D02*
X1093Y683D01*
D02*
X1295Y371D02*
X1295Y533D01*
D02*
X1391Y359D02*
X1335Y409D01*
D02*
X1295Y533D02*
X1295Y537D01*
D02*
X1804Y359D02*
X1391Y359D01*
D02*
X1315Y383D02*
X1315Y509D01*
D02*
X1315Y509D02*
X1315Y527D01*
D02*
X1380Y334D02*
X1315Y383D01*
D02*
X1867Y334D02*
X1380Y334D01*
D02*
X1911Y369D02*
X1867Y334D01*
D02*
X1405Y284D02*
X1295Y371D01*
D02*
X1906Y284D02*
X1405Y284D01*
D02*
X1254Y567D02*
X1255Y567D01*
D02*
X1254Y534D02*
X1254Y567D01*
D02*
X1404Y384D02*
X1354Y434D01*
D02*
X1429Y409D02*
X1374Y458D01*
D02*
X1666Y408D02*
X1429Y409D01*
D02*
X1867Y584D02*
X1666Y408D01*
D02*
X1394Y484D02*
X1394Y527D01*
D02*
X1374Y458D02*
X1374Y527D01*
D02*
X1867Y621D02*
X1867Y584D01*
D02*
X1913Y667D02*
X1867Y621D01*
D02*
X1354Y434D02*
X1354Y527D01*
D02*
X1705Y383D02*
X1404Y384D01*
D02*
X1912Y568D02*
X1705Y383D01*
D02*
X1335Y409D02*
X1335Y527D01*
D02*
X1913Y467D02*
X1804Y359D01*
D02*
X1554Y645D02*
X1473Y645D01*
D02*
X1592Y684D02*
X1554Y645D01*
D02*
X1617Y758D02*
X1529Y665D01*
D02*
X1716Y658D02*
X1679Y626D01*
D02*
X1442Y434D02*
X1394Y484D01*
D02*
X1679Y626D02*
X1473Y626D01*
D02*
X1529Y665D02*
X1473Y665D01*
D02*
X1636Y759D02*
X1617Y758D01*
D02*
X1721Y700D02*
X1721Y743D01*
D02*
X1636Y684D02*
X1592Y684D01*
D02*
X1718Y668D02*
X1716Y658D01*
D02*
X1653Y433D02*
X1442Y434D01*
D02*
X1842Y597D02*
X1653Y433D01*
D02*
X1842Y696D02*
X1842Y597D01*
D02*
X1913Y767D02*
X1842Y696D01*
D02*
X1767Y634D02*
X1730Y606D01*
D02*
X1429Y665D02*
X1452Y665D01*
D02*
X1276Y704D02*
X1429Y704D01*
D02*
X1730Y606D02*
X1473Y606D01*
D02*
X1891Y983D02*
X1767Y847D01*
D02*
X1767Y847D02*
X1767Y634D01*
D02*
X1906Y984D02*
X1891Y983D01*
D02*
X1767Y567D02*
X1473Y567D01*
D02*
X1817Y609D02*
X1767Y567D01*
D02*
X1817Y772D02*
X1817Y609D01*
D02*
X1913Y868D02*
X1817Y772D01*
D02*
X381Y708D02*
X454Y635D01*
D02*
X805Y759D02*
X804Y759D01*
D02*
X963Y600D02*
X805Y759D01*
D02*
X579Y772D02*
X579Y989D01*
D02*
X454Y635D02*
X728Y635D01*
D02*
X728Y635D02*
X963Y400D01*
D02*
X380Y739D02*
X381Y708D01*
D02*
X754Y510D02*
X604Y509D01*
D02*
X963Y300D02*
X754Y510D01*
D02*
X1429Y704D02*
X1429Y665D01*
D02*
X755Y1008D02*
X779Y984D01*
D02*
X379Y985D02*
X379Y956D01*
D02*
X1413Y784D02*
X1413Y744D01*
D02*
X1433Y759D02*
X1433Y744D01*
D02*
X1504Y834D02*
X1433Y759D01*
D02*
X1504Y1173D02*
X1504Y834D01*
D02*
X405Y1008D02*
X379Y985D01*
D02*
X554Y1009D02*
X405Y1008D01*
D02*
X779Y984D02*
X779Y956D01*
D02*
X604Y1009D02*
X755Y1008D01*
D02*
X2129Y758D02*
X2329Y959D01*
D02*
X2028Y758D02*
X2029Y683D01*
D02*
X2317Y1059D02*
X2028Y758D01*
D02*
X2029Y683D02*
X1946Y600D01*
D02*
X2317Y1114D02*
X2317Y1059D01*
D02*
X2329Y959D02*
X2317Y957D01*
D02*
X2129Y759D02*
X2129Y758D01*
D02*
X2029Y584D02*
X1946Y500D01*
D02*
X2104Y582D02*
X2029Y584D01*
D02*
X1413Y1147D02*
X1413Y784D01*
D02*
X1409Y1164D02*
X1413Y1147D01*
D02*
X1529Y534D02*
X1454Y534D01*
D02*
X1953Y934D02*
X1904Y934D01*
D02*
X1792Y810D02*
X1792Y621D01*
D02*
X1792Y621D02*
X1755Y586D01*
D02*
X1904Y934D02*
X1792Y810D01*
D02*
X1442Y485D02*
X1413Y509D01*
D02*
X1413Y509D02*
X1413Y527D01*
D02*
X1491Y484D02*
X1442Y485D01*
D02*
X1454Y534D02*
X1433Y537D01*
D02*
X1570Y493D02*
X1529Y534D01*
D02*
X530Y209D02*
X529Y270D01*
D02*
X522Y209D02*
X530Y209D01*
D02*
X1730Y1122D02*
X1730Y785D01*
D02*
X1730Y785D02*
X1727Y775D01*
D02*
X1787Y1171D02*
X1730Y1122D01*
D02*
X2005Y983D02*
X1953Y934D01*
D02*
X1755Y586D02*
X1473Y586D01*
D02*
X2004Y1163D02*
X2005Y983D01*
D02*
X1479Y704D02*
X1473Y704D01*
D02*
X1604Y834D02*
X1479Y704D01*
D02*
X1504Y685D02*
X1473Y685D01*
D02*
X1705Y897D02*
X1504Y685D01*
D02*
X1704Y1173D02*
X1705Y897D01*
D02*
X2129Y708D02*
X2195Y643D01*
G54D25*
D02*
X1318Y628D02*
X1368Y636D01*
G54D24*
D02*
X1304Y685D02*
X1276Y685D01*
D02*
X1364Y626D02*
X1452Y626D01*
D02*
X1364Y589D02*
X1364Y626D01*
D02*
X1328Y665D02*
X1304Y685D01*
D02*
X2129Y739D02*
X2129Y708D01*
D02*
X579Y745D02*
X579Y706D01*
D02*
X704Y234D02*
X704Y236D01*
D02*
X579Y234D02*
X704Y234D01*
D02*
X1354Y809D02*
X1354Y744D01*
D02*
X1105Y1097D02*
X1354Y809D01*
D02*
X1335Y784D02*
X1335Y744D01*
D02*
X1155Y983D02*
X1335Y784D01*
D02*
X1003Y984D02*
X1155Y983D01*
D02*
X1315Y760D02*
X1315Y744D01*
D02*
X1204Y884D02*
X1315Y760D01*
D02*
X1003Y884D02*
X1204Y884D01*
D02*
X979Y1199D02*
X916Y1199D01*
D02*
X916Y1199D02*
X904Y1186D01*
D02*
X904Y1186D02*
X904Y1173D01*
D02*
X983Y1197D02*
X979Y1199D01*
D02*
X379Y859D02*
X329Y809D01*
D02*
X579Y1109D02*
X629Y1059D01*
D02*
X629Y1059D02*
X803Y1059D01*
D02*
X1191Y704D02*
X1192Y704D01*
D02*
X1255Y704D02*
X1191Y704D01*
D02*
X2404Y297D02*
X2343Y233D01*
D02*
X2343Y233D02*
X2344Y221D01*
D02*
X842Y1021D02*
X842Y921D01*
D02*
X842Y921D02*
X963Y800D01*
D02*
X803Y1059D02*
X842Y1021D01*
D02*
X579Y1166D02*
X579Y1109D01*
D02*
X329Y284D02*
X279Y233D01*
D02*
X329Y809D02*
X329Y284D01*
D02*
X279Y233D02*
X279Y108D01*
D02*
X279Y108D02*
X330Y59D01*
D02*
X330Y59D02*
X704Y58D01*
D02*
X704Y58D02*
X742Y84D01*
D02*
X742Y84D02*
X742Y115D01*
D02*
X400Y859D02*
X379Y859D01*
D02*
X2405Y459D02*
X2404Y297D01*
D02*
X2328Y533D02*
X2405Y459D01*
D02*
X1304Y971D02*
X1394Y859D01*
D02*
X1304Y1173D02*
X1304Y971D01*
D02*
X1394Y859D02*
X1394Y744D01*
D02*
X1374Y834D02*
X1374Y744D01*
D02*
X1204Y1033D02*
X1374Y834D01*
D02*
X1204Y1163D02*
X1204Y1033D01*
D02*
X1104Y1173D02*
X1105Y1097D01*
D02*
X2291Y259D02*
X2292Y242D01*
D02*
X2300Y284D02*
X2291Y259D01*
D02*
X2265Y259D02*
X2266Y243D01*
D02*
X2258Y283D02*
X2265Y259D01*
D02*
X579Y233D02*
X579Y234D01*
D02*
X2329Y830D02*
X2328Y533D01*
G36*
X2046Y1220D02*
X2046Y1194D01*
X2048Y1194D01*
X2048Y1180D01*
X2046Y1180D01*
X2046Y1172D01*
X2044Y1172D01*
X2044Y1168D01*
X2042Y1168D01*
X2042Y1164D01*
X2040Y1164D01*
X2040Y1160D01*
X2038Y1160D01*
X2038Y1158D01*
X2036Y1158D01*
X2036Y1156D01*
X2034Y1156D01*
X2034Y1154D01*
X2032Y1154D01*
X2032Y1152D01*
X2030Y1152D01*
X2030Y1150D01*
X2026Y1150D01*
X2026Y1148D01*
X2022Y1148D01*
X2022Y1146D01*
X2020Y1146D01*
X2020Y1112D01*
X2188Y1112D01*
X2188Y1114D01*
X2180Y1114D01*
X2180Y1116D01*
X2176Y1116D01*
X2176Y1118D01*
X2172Y1118D01*
X2172Y1120D01*
X2168Y1120D01*
X2168Y1122D01*
X2164Y1122D01*
X2164Y1124D01*
X2162Y1124D01*
X2162Y1126D01*
X2158Y1126D01*
X2158Y1128D01*
X2156Y1128D01*
X2156Y1130D01*
X2154Y1130D01*
X2154Y1132D01*
X2152Y1132D01*
X2152Y1134D01*
X2150Y1134D01*
X2150Y1136D01*
X2148Y1136D01*
X2148Y1138D01*
X2146Y1138D01*
X2146Y1142D01*
X2144Y1142D01*
X2144Y1144D01*
X2142Y1144D01*
X2142Y1148D01*
X2140Y1148D01*
X2140Y1152D01*
X2138Y1152D01*
X2138Y1156D01*
X2136Y1156D01*
X2136Y1162D01*
X2134Y1162D01*
X2134Y1168D01*
X2132Y1168D01*
X2132Y1200D01*
X2134Y1200D01*
X2134Y1220D01*
X2046Y1220D01*
G37*
D02*
G36*
X2256Y1134D02*
X2256Y1132D01*
X2254Y1132D01*
X2254Y1130D01*
X2252Y1130D01*
X2252Y1128D01*
X2250Y1128D01*
X2250Y1126D01*
X2246Y1126D01*
X2246Y1124D01*
X2244Y1124D01*
X2244Y1122D01*
X2240Y1122D01*
X2240Y1120D01*
X2238Y1120D01*
X2238Y1118D01*
X2234Y1118D01*
X2234Y1116D01*
X2228Y1116D01*
X2228Y1114D01*
X2220Y1114D01*
X2220Y1112D01*
X2276Y1112D01*
X2276Y1134D01*
X2256Y1134D01*
G37*
D02*
G36*
X2020Y1112D02*
X2020Y1110D01*
X2276Y1110D01*
X2276Y1112D01*
X2020Y1112D01*
G37*
D02*
G36*
X2020Y1112D02*
X2020Y1110D01*
X2276Y1110D01*
X2276Y1112D01*
X2020Y1112D01*
G37*
D02*
G36*
X2020Y1110D02*
X2020Y1018D01*
X2022Y1018D01*
X2022Y982D01*
X2020Y982D01*
X2020Y976D01*
X2018Y976D01*
X2018Y972D01*
X2016Y972D01*
X2016Y970D01*
X2012Y970D01*
X2012Y968D01*
X2010Y968D01*
X2010Y966D01*
X2008Y966D01*
X2008Y964D01*
X2006Y964D01*
X2006Y962D01*
X2004Y962D01*
X2004Y960D01*
X2002Y960D01*
X2002Y958D01*
X2000Y958D01*
X2000Y956D01*
X1998Y956D01*
X1998Y954D01*
X1996Y954D01*
X1996Y952D01*
X1994Y952D01*
X1994Y950D01*
X1992Y950D01*
X1992Y948D01*
X1990Y948D01*
X1990Y946D01*
X1988Y946D01*
X1988Y944D01*
X1986Y944D01*
X1986Y942D01*
X1984Y942D01*
X1984Y940D01*
X1982Y940D01*
X1982Y938D01*
X1980Y938D01*
X1980Y936D01*
X1978Y936D01*
X1978Y934D01*
X1976Y934D01*
X1976Y932D01*
X1974Y932D01*
X1974Y930D01*
X1972Y930D01*
X1972Y928D01*
X1970Y928D01*
X1970Y926D01*
X1968Y926D01*
X1968Y902D01*
X1970Y902D01*
X1970Y896D01*
X1972Y896D01*
X1972Y872D01*
X1970Y872D01*
X1970Y866D01*
X1968Y866D01*
X1968Y862D01*
X1966Y862D01*
X1966Y860D01*
X1964Y860D01*
X1964Y858D01*
X1962Y858D01*
X1962Y854D01*
X1960Y854D01*
X1960Y852D01*
X1958Y852D01*
X1958Y850D01*
X1954Y850D01*
X1954Y848D01*
X1952Y848D01*
X1952Y846D01*
X1948Y846D01*
X1948Y844D01*
X1944Y844D01*
X1944Y824D01*
X1948Y824D01*
X1948Y822D01*
X1952Y822D01*
X1952Y820D01*
X1954Y820D01*
X1954Y818D01*
X1958Y818D01*
X1958Y816D01*
X1960Y816D01*
X1960Y814D01*
X1962Y814D01*
X1962Y812D01*
X1964Y812D01*
X1964Y808D01*
X1966Y808D01*
X1966Y806D01*
X1968Y806D01*
X1968Y802D01*
X1970Y802D01*
X1970Y796D01*
X1972Y796D01*
X1972Y772D01*
X1970Y772D01*
X1970Y766D01*
X1968Y766D01*
X1968Y762D01*
X1966Y762D01*
X1966Y760D01*
X1964Y760D01*
X1964Y758D01*
X1962Y758D01*
X1962Y754D01*
X1960Y754D01*
X1960Y752D01*
X1958Y752D01*
X1958Y750D01*
X1954Y750D01*
X1954Y748D01*
X1952Y748D01*
X1952Y746D01*
X1948Y746D01*
X1948Y744D01*
X1944Y744D01*
X1944Y724D01*
X1948Y724D01*
X1948Y722D01*
X1952Y722D01*
X1952Y720D01*
X1954Y720D01*
X1954Y718D01*
X1958Y718D01*
X1958Y716D01*
X1960Y716D01*
X1960Y714D01*
X1962Y714D01*
X1962Y712D01*
X1964Y712D01*
X1964Y708D01*
X1966Y708D01*
X1966Y706D01*
X1968Y706D01*
X1968Y702D01*
X1970Y702D01*
X1970Y696D01*
X1972Y696D01*
X1972Y672D01*
X1970Y672D01*
X1970Y666D01*
X1968Y666D01*
X1968Y664D01*
X1988Y664D01*
X1988Y666D01*
X1990Y666D01*
X1990Y668D01*
X1992Y668D01*
X1992Y670D01*
X1994Y670D01*
X1994Y672D01*
X1996Y672D01*
X1996Y674D01*
X1998Y674D01*
X1998Y676D01*
X2000Y676D01*
X2000Y678D01*
X2002Y678D01*
X2002Y680D01*
X2004Y680D01*
X2004Y682D01*
X2006Y682D01*
X2006Y684D01*
X2008Y684D01*
X2008Y686D01*
X2010Y686D01*
X2010Y688D01*
X2012Y688D01*
X2012Y762D01*
X2014Y762D01*
X2014Y766D01*
X2016Y766D01*
X2016Y770D01*
X2018Y770D01*
X2018Y772D01*
X2020Y772D01*
X2020Y774D01*
X2022Y774D01*
X2022Y776D01*
X2024Y776D01*
X2024Y778D01*
X2026Y778D01*
X2026Y780D01*
X2028Y780D01*
X2028Y782D01*
X2030Y782D01*
X2030Y784D01*
X2032Y784D01*
X2032Y786D01*
X2034Y786D01*
X2034Y788D01*
X2036Y788D01*
X2036Y790D01*
X2038Y790D01*
X2038Y792D01*
X2040Y792D01*
X2040Y794D01*
X2042Y794D01*
X2042Y796D01*
X2044Y796D01*
X2044Y798D01*
X2046Y798D01*
X2046Y800D01*
X2048Y800D01*
X2048Y802D01*
X2050Y802D01*
X2050Y804D01*
X2052Y804D01*
X2052Y808D01*
X2054Y808D01*
X2054Y810D01*
X2056Y810D01*
X2056Y812D01*
X2058Y812D01*
X2058Y814D01*
X2060Y814D01*
X2060Y816D01*
X2062Y816D01*
X2062Y818D01*
X2064Y818D01*
X2064Y820D01*
X2066Y820D01*
X2066Y822D01*
X2068Y822D01*
X2068Y824D01*
X2070Y824D01*
X2070Y826D01*
X2072Y826D01*
X2072Y828D01*
X2074Y828D01*
X2074Y830D01*
X2076Y830D01*
X2076Y832D01*
X2078Y832D01*
X2078Y834D01*
X2080Y834D01*
X2080Y836D01*
X2082Y836D01*
X2082Y838D01*
X2084Y838D01*
X2084Y840D01*
X2086Y840D01*
X2086Y842D01*
X2088Y842D01*
X2088Y844D01*
X2090Y844D01*
X2090Y846D01*
X2092Y846D01*
X2092Y848D01*
X2094Y848D01*
X2094Y850D01*
X2096Y850D01*
X2096Y852D01*
X2098Y852D01*
X2098Y856D01*
X2100Y856D01*
X2100Y858D01*
X2102Y858D01*
X2102Y860D01*
X2104Y860D01*
X2104Y862D01*
X2106Y862D01*
X2106Y864D01*
X2108Y864D01*
X2108Y866D01*
X2110Y866D01*
X2110Y868D01*
X2112Y868D01*
X2112Y870D01*
X2114Y870D01*
X2114Y872D01*
X2116Y872D01*
X2116Y874D01*
X2118Y874D01*
X2118Y876D01*
X2120Y876D01*
X2120Y878D01*
X2122Y878D01*
X2122Y880D01*
X2124Y880D01*
X2124Y882D01*
X2126Y882D01*
X2126Y884D01*
X2128Y884D01*
X2128Y886D01*
X2130Y886D01*
X2130Y888D01*
X2132Y888D01*
X2132Y890D01*
X2134Y890D01*
X2134Y892D01*
X2136Y892D01*
X2136Y894D01*
X2138Y894D01*
X2138Y896D01*
X2140Y896D01*
X2140Y898D01*
X2142Y898D01*
X2142Y900D01*
X2144Y900D01*
X2144Y902D01*
X2146Y902D01*
X2146Y906D01*
X2148Y906D01*
X2148Y908D01*
X2150Y908D01*
X2150Y910D01*
X2152Y910D01*
X2152Y912D01*
X2154Y912D01*
X2154Y914D01*
X2156Y914D01*
X2156Y916D01*
X2158Y916D01*
X2158Y918D01*
X2160Y918D01*
X2160Y920D01*
X2162Y920D01*
X2162Y922D01*
X2164Y922D01*
X2164Y924D01*
X2166Y924D01*
X2166Y926D01*
X2168Y926D01*
X2168Y928D01*
X2170Y928D01*
X2170Y930D01*
X2172Y930D01*
X2172Y932D01*
X2174Y932D01*
X2174Y934D01*
X2176Y934D01*
X2176Y936D01*
X2178Y936D01*
X2178Y938D01*
X2180Y938D01*
X2180Y940D01*
X2182Y940D01*
X2182Y942D01*
X2184Y942D01*
X2184Y944D01*
X2186Y944D01*
X2186Y946D01*
X2188Y946D01*
X2188Y948D01*
X2190Y948D01*
X2190Y950D01*
X2192Y950D01*
X2192Y954D01*
X2194Y954D01*
X2194Y956D01*
X2196Y956D01*
X2196Y958D01*
X2198Y958D01*
X2198Y960D01*
X2200Y960D01*
X2200Y962D01*
X2202Y962D01*
X2202Y964D01*
X2204Y964D01*
X2204Y966D01*
X2206Y966D01*
X2206Y968D01*
X2208Y968D01*
X2208Y970D01*
X2210Y970D01*
X2210Y972D01*
X2212Y972D01*
X2212Y974D01*
X2214Y974D01*
X2214Y976D01*
X2216Y976D01*
X2216Y978D01*
X2218Y978D01*
X2218Y980D01*
X2220Y980D01*
X2220Y982D01*
X2222Y982D01*
X2222Y984D01*
X2224Y984D01*
X2224Y986D01*
X2226Y986D01*
X2226Y988D01*
X2228Y988D01*
X2228Y990D01*
X2230Y990D01*
X2230Y992D01*
X2232Y992D01*
X2232Y994D01*
X2234Y994D01*
X2234Y996D01*
X2236Y996D01*
X2236Y998D01*
X2238Y998D01*
X2238Y1002D01*
X2240Y1002D01*
X2240Y1004D01*
X2242Y1004D01*
X2242Y1006D01*
X2244Y1006D01*
X2244Y1008D01*
X2246Y1008D01*
X2246Y1010D01*
X2248Y1010D01*
X2248Y1012D01*
X2250Y1012D01*
X2250Y1014D01*
X2252Y1014D01*
X2252Y1016D01*
X2254Y1016D01*
X2254Y1018D01*
X2256Y1018D01*
X2256Y1020D01*
X2258Y1020D01*
X2258Y1022D01*
X2260Y1022D01*
X2260Y1024D01*
X2262Y1024D01*
X2262Y1026D01*
X2264Y1026D01*
X2264Y1028D01*
X2266Y1028D01*
X2266Y1030D01*
X2268Y1030D01*
X2268Y1032D01*
X2270Y1032D01*
X2270Y1034D01*
X2272Y1034D01*
X2272Y1036D01*
X2274Y1036D01*
X2274Y1038D01*
X2276Y1038D01*
X2276Y1040D01*
X2278Y1040D01*
X2278Y1042D01*
X2280Y1042D01*
X2280Y1044D01*
X2282Y1044D01*
X2282Y1046D01*
X2284Y1046D01*
X2284Y1048D01*
X2286Y1048D01*
X2286Y1052D01*
X2288Y1052D01*
X2288Y1054D01*
X2290Y1054D01*
X2290Y1056D01*
X2292Y1056D01*
X2292Y1058D01*
X2294Y1058D01*
X2294Y1060D01*
X2296Y1060D01*
X2296Y1062D01*
X2298Y1062D01*
X2298Y1064D01*
X2300Y1064D01*
X2300Y1098D01*
X2276Y1098D01*
X2276Y1110D01*
X2020Y1110D01*
G37*
D02*
G36*
X1142Y1178D02*
X1142Y1174D01*
X1140Y1174D01*
X1140Y1170D01*
X1138Y1170D01*
X1138Y1168D01*
X1136Y1168D01*
X1136Y1166D01*
X1134Y1166D01*
X1134Y1164D01*
X1132Y1164D01*
X1132Y1162D01*
X1130Y1162D01*
X1130Y1160D01*
X1126Y1160D01*
X1126Y1158D01*
X1122Y1158D01*
X1122Y1156D01*
X1120Y1156D01*
X1120Y1104D01*
X1122Y1104D01*
X1122Y1102D01*
X1124Y1102D01*
X1124Y1098D01*
X1126Y1098D01*
X1126Y1096D01*
X1128Y1096D01*
X1128Y1094D01*
X1130Y1094D01*
X1130Y1092D01*
X1132Y1092D01*
X1132Y1090D01*
X1134Y1090D01*
X1134Y1088D01*
X1136Y1088D01*
X1136Y1084D01*
X1138Y1084D01*
X1138Y1082D01*
X1140Y1082D01*
X1140Y1080D01*
X1142Y1080D01*
X1142Y1078D01*
X1144Y1078D01*
X1144Y1076D01*
X1146Y1076D01*
X1146Y1074D01*
X1148Y1074D01*
X1148Y1072D01*
X1150Y1072D01*
X1150Y1068D01*
X1152Y1068D01*
X1152Y1066D01*
X1154Y1066D01*
X1154Y1064D01*
X1156Y1064D01*
X1156Y1062D01*
X1158Y1062D01*
X1158Y1060D01*
X1160Y1060D01*
X1160Y1058D01*
X1162Y1058D01*
X1162Y1054D01*
X1164Y1054D01*
X1164Y1052D01*
X1166Y1052D01*
X1166Y1050D01*
X1168Y1050D01*
X1168Y1048D01*
X1188Y1048D01*
X1188Y1146D01*
X1186Y1146D01*
X1186Y1148D01*
X1182Y1148D01*
X1182Y1150D01*
X1180Y1150D01*
X1180Y1152D01*
X1176Y1152D01*
X1176Y1154D01*
X1174Y1154D01*
X1174Y1156D01*
X1172Y1156D01*
X1172Y1158D01*
X1170Y1158D01*
X1170Y1162D01*
X1168Y1162D01*
X1168Y1164D01*
X1166Y1164D01*
X1166Y1168D01*
X1164Y1168D01*
X1164Y1174D01*
X1162Y1174D01*
X1162Y1178D01*
X1142Y1178D01*
G37*
D02*
G36*
X1246Y1178D02*
X1246Y1172D01*
X1244Y1172D01*
X1244Y1168D01*
X1242Y1168D01*
X1242Y1164D01*
X1240Y1164D01*
X1240Y1160D01*
X1238Y1160D01*
X1238Y1158D01*
X1236Y1158D01*
X1236Y1156D01*
X1234Y1156D01*
X1234Y1154D01*
X1232Y1154D01*
X1232Y1152D01*
X1230Y1152D01*
X1230Y1150D01*
X1226Y1150D01*
X1226Y1148D01*
X1222Y1148D01*
X1222Y1146D01*
X1220Y1146D01*
X1220Y1038D01*
X1222Y1038D01*
X1222Y1036D01*
X1224Y1036D01*
X1224Y1034D01*
X1226Y1034D01*
X1226Y1032D01*
X1228Y1032D01*
X1228Y1030D01*
X1230Y1030D01*
X1230Y1026D01*
X1232Y1026D01*
X1232Y1024D01*
X1234Y1024D01*
X1234Y1022D01*
X1236Y1022D01*
X1236Y1020D01*
X1238Y1020D01*
X1238Y1018D01*
X1240Y1018D01*
X1240Y1014D01*
X1242Y1014D01*
X1242Y1012D01*
X1244Y1012D01*
X1244Y1010D01*
X1246Y1010D01*
X1246Y1008D01*
X1248Y1008D01*
X1248Y1006D01*
X1250Y1006D01*
X1250Y1004D01*
X1252Y1004D01*
X1252Y1000D01*
X1254Y1000D01*
X1254Y998D01*
X1256Y998D01*
X1256Y996D01*
X1258Y996D01*
X1258Y994D01*
X1260Y994D01*
X1260Y992D01*
X1262Y992D01*
X1262Y990D01*
X1264Y990D01*
X1264Y986D01*
X1266Y986D01*
X1266Y984D01*
X1268Y984D01*
X1268Y982D01*
X1288Y982D01*
X1288Y1156D01*
X1286Y1156D01*
X1286Y1158D01*
X1282Y1158D01*
X1282Y1160D01*
X1280Y1160D01*
X1280Y1162D01*
X1276Y1162D01*
X1276Y1164D01*
X1274Y1164D01*
X1274Y1166D01*
X1272Y1166D01*
X1272Y1168D01*
X1270Y1168D01*
X1270Y1172D01*
X1268Y1172D01*
X1268Y1174D01*
X1266Y1174D01*
X1266Y1178D01*
X1246Y1178D01*
G37*
D02*
G36*
X1342Y1178D02*
X1342Y1174D01*
X1340Y1174D01*
X1340Y1170D01*
X1338Y1170D01*
X1338Y1168D01*
X1336Y1168D01*
X1336Y1166D01*
X1334Y1166D01*
X1334Y1164D01*
X1332Y1164D01*
X1332Y1162D01*
X1330Y1162D01*
X1330Y1160D01*
X1326Y1160D01*
X1326Y1158D01*
X1322Y1158D01*
X1322Y1156D01*
X1320Y1156D01*
X1320Y976D01*
X1322Y976D01*
X1322Y972D01*
X1324Y972D01*
X1324Y970D01*
X1326Y970D01*
X1326Y968D01*
X1328Y968D01*
X1328Y966D01*
X1330Y966D01*
X1330Y962D01*
X1332Y962D01*
X1332Y960D01*
X1334Y960D01*
X1334Y958D01*
X1336Y958D01*
X1336Y956D01*
X1338Y956D01*
X1338Y952D01*
X1340Y952D01*
X1340Y950D01*
X1342Y950D01*
X1342Y948D01*
X1344Y948D01*
X1344Y946D01*
X1346Y946D01*
X1346Y942D01*
X1348Y942D01*
X1348Y940D01*
X1350Y940D01*
X1350Y938D01*
X1352Y938D01*
X1352Y936D01*
X1354Y936D01*
X1354Y932D01*
X1356Y932D01*
X1356Y930D01*
X1358Y930D01*
X1358Y928D01*
X1360Y928D01*
X1360Y926D01*
X1362Y926D01*
X1362Y924D01*
X1364Y924D01*
X1364Y920D01*
X1366Y920D01*
X1366Y918D01*
X1368Y918D01*
X1368Y916D01*
X1370Y916D01*
X1370Y914D01*
X1372Y914D01*
X1372Y910D01*
X1374Y910D01*
X1374Y908D01*
X1376Y908D01*
X1376Y906D01*
X1378Y906D01*
X1378Y904D01*
X1398Y904D01*
X1398Y1144D01*
X1392Y1144D01*
X1392Y1146D01*
X1386Y1146D01*
X1386Y1148D01*
X1382Y1148D01*
X1382Y1150D01*
X1380Y1150D01*
X1380Y1152D01*
X1376Y1152D01*
X1376Y1154D01*
X1374Y1154D01*
X1374Y1156D01*
X1372Y1156D01*
X1372Y1158D01*
X1370Y1158D01*
X1370Y1162D01*
X1368Y1162D01*
X1368Y1164D01*
X1366Y1164D01*
X1366Y1168D01*
X1364Y1168D01*
X1364Y1174D01*
X1362Y1174D01*
X1362Y1178D01*
X1342Y1178D01*
G37*
D02*
G36*
X1446Y1178D02*
X1446Y1172D01*
X1444Y1172D01*
X1444Y1168D01*
X1442Y1168D01*
X1442Y1164D01*
X1440Y1164D01*
X1440Y1160D01*
X1438Y1160D01*
X1438Y1158D01*
X1436Y1158D01*
X1436Y1156D01*
X1434Y1156D01*
X1434Y1154D01*
X1432Y1154D01*
X1432Y1152D01*
X1430Y1152D01*
X1430Y800D01*
X1450Y800D01*
X1450Y802D01*
X1452Y802D01*
X1452Y804D01*
X1454Y804D01*
X1454Y806D01*
X1456Y806D01*
X1456Y808D01*
X1458Y808D01*
X1458Y810D01*
X1460Y810D01*
X1460Y812D01*
X1462Y812D01*
X1462Y814D01*
X1464Y814D01*
X1464Y816D01*
X1466Y816D01*
X1466Y818D01*
X1468Y818D01*
X1468Y820D01*
X1470Y820D01*
X1470Y822D01*
X1472Y822D01*
X1472Y824D01*
X1474Y824D01*
X1474Y826D01*
X1476Y826D01*
X1476Y830D01*
X1478Y830D01*
X1478Y832D01*
X1480Y832D01*
X1480Y834D01*
X1482Y834D01*
X1482Y836D01*
X1484Y836D01*
X1484Y838D01*
X1486Y838D01*
X1486Y840D01*
X1488Y840D01*
X1488Y1156D01*
X1486Y1156D01*
X1486Y1158D01*
X1482Y1158D01*
X1482Y1160D01*
X1480Y1160D01*
X1480Y1162D01*
X1476Y1162D01*
X1476Y1164D01*
X1474Y1164D01*
X1474Y1166D01*
X1472Y1166D01*
X1472Y1168D01*
X1470Y1168D01*
X1470Y1172D01*
X1468Y1172D01*
X1468Y1174D01*
X1466Y1174D01*
X1466Y1178D01*
X1446Y1178D01*
G37*
D02*
G36*
X1542Y1178D02*
X1542Y1174D01*
X1540Y1174D01*
X1540Y1170D01*
X1538Y1170D01*
X1538Y1168D01*
X1536Y1168D01*
X1536Y1166D01*
X1534Y1166D01*
X1534Y1164D01*
X1532Y1164D01*
X1532Y1162D01*
X1530Y1162D01*
X1530Y1160D01*
X1526Y1160D01*
X1526Y1158D01*
X1522Y1158D01*
X1522Y1156D01*
X1520Y1156D01*
X1520Y828D01*
X1518Y828D01*
X1518Y824D01*
X1516Y824D01*
X1516Y822D01*
X1514Y822D01*
X1514Y820D01*
X1512Y820D01*
X1512Y818D01*
X1510Y818D01*
X1510Y816D01*
X1508Y816D01*
X1508Y814D01*
X1506Y814D01*
X1506Y812D01*
X1504Y812D01*
X1504Y810D01*
X1502Y810D01*
X1502Y808D01*
X1500Y808D01*
X1500Y806D01*
X1498Y806D01*
X1498Y804D01*
X1496Y804D01*
X1496Y802D01*
X1494Y802D01*
X1494Y800D01*
X1492Y800D01*
X1492Y798D01*
X1490Y798D01*
X1490Y796D01*
X1488Y796D01*
X1488Y794D01*
X1486Y794D01*
X1486Y790D01*
X1484Y790D01*
X1484Y788D01*
X1482Y788D01*
X1482Y786D01*
X1480Y786D01*
X1480Y784D01*
X1478Y784D01*
X1478Y782D01*
X1476Y782D01*
X1476Y780D01*
X1474Y780D01*
X1474Y778D01*
X1472Y778D01*
X1472Y776D01*
X1470Y776D01*
X1470Y774D01*
X1468Y774D01*
X1468Y772D01*
X1466Y772D01*
X1466Y770D01*
X1464Y770D01*
X1464Y768D01*
X1462Y768D01*
X1462Y766D01*
X1460Y766D01*
X1460Y764D01*
X1458Y764D01*
X1458Y762D01*
X1456Y762D01*
X1456Y760D01*
X1454Y760D01*
X1454Y758D01*
X1452Y758D01*
X1452Y756D01*
X1450Y756D01*
X1450Y744D01*
X1448Y744D01*
X1448Y720D01*
X1474Y720D01*
X1474Y724D01*
X1476Y724D01*
X1476Y726D01*
X1478Y726D01*
X1478Y728D01*
X1480Y728D01*
X1480Y730D01*
X1482Y730D01*
X1482Y732D01*
X1484Y732D01*
X1484Y734D01*
X1486Y734D01*
X1486Y736D01*
X1488Y736D01*
X1488Y738D01*
X1490Y738D01*
X1490Y740D01*
X1492Y740D01*
X1492Y742D01*
X1494Y742D01*
X1494Y744D01*
X1496Y744D01*
X1496Y746D01*
X1498Y746D01*
X1498Y748D01*
X1500Y748D01*
X1500Y750D01*
X1502Y750D01*
X1502Y752D01*
X1504Y752D01*
X1504Y754D01*
X1506Y754D01*
X1506Y756D01*
X1508Y756D01*
X1508Y758D01*
X1510Y758D01*
X1510Y760D01*
X1512Y760D01*
X1512Y762D01*
X1514Y762D01*
X1514Y764D01*
X1516Y764D01*
X1516Y768D01*
X1518Y768D01*
X1518Y770D01*
X1520Y770D01*
X1520Y772D01*
X1522Y772D01*
X1522Y774D01*
X1524Y774D01*
X1524Y776D01*
X1526Y776D01*
X1526Y778D01*
X1528Y778D01*
X1528Y780D01*
X1530Y780D01*
X1530Y782D01*
X1532Y782D01*
X1532Y784D01*
X1534Y784D01*
X1534Y786D01*
X1536Y786D01*
X1536Y788D01*
X1538Y788D01*
X1538Y790D01*
X1540Y790D01*
X1540Y792D01*
X1542Y792D01*
X1542Y794D01*
X1544Y794D01*
X1544Y796D01*
X1546Y796D01*
X1546Y798D01*
X1548Y798D01*
X1548Y800D01*
X1550Y800D01*
X1550Y802D01*
X1552Y802D01*
X1552Y804D01*
X1554Y804D01*
X1554Y806D01*
X1556Y806D01*
X1556Y808D01*
X1558Y808D01*
X1558Y812D01*
X1560Y812D01*
X1560Y814D01*
X1562Y814D01*
X1562Y816D01*
X1564Y816D01*
X1564Y818D01*
X1566Y818D01*
X1566Y820D01*
X1568Y820D01*
X1568Y822D01*
X1570Y822D01*
X1570Y824D01*
X1572Y824D01*
X1572Y826D01*
X1574Y826D01*
X1574Y828D01*
X1576Y828D01*
X1576Y830D01*
X1578Y830D01*
X1578Y832D01*
X1580Y832D01*
X1580Y834D01*
X1582Y834D01*
X1582Y836D01*
X1584Y836D01*
X1584Y838D01*
X1586Y838D01*
X1586Y840D01*
X1588Y840D01*
X1588Y1146D01*
X1586Y1146D01*
X1586Y1148D01*
X1582Y1148D01*
X1582Y1150D01*
X1580Y1150D01*
X1580Y1152D01*
X1576Y1152D01*
X1576Y1154D01*
X1574Y1154D01*
X1574Y1156D01*
X1572Y1156D01*
X1572Y1158D01*
X1570Y1158D01*
X1570Y1162D01*
X1568Y1162D01*
X1568Y1164D01*
X1566Y1164D01*
X1566Y1168D01*
X1564Y1168D01*
X1564Y1174D01*
X1562Y1174D01*
X1562Y1178D01*
X1542Y1178D01*
G37*
D02*
G36*
X1646Y1178D02*
X1646Y1172D01*
X1644Y1172D01*
X1644Y1168D01*
X1642Y1168D01*
X1642Y1164D01*
X1640Y1164D01*
X1640Y1160D01*
X1638Y1160D01*
X1638Y1158D01*
X1636Y1158D01*
X1636Y1156D01*
X1634Y1156D01*
X1634Y1154D01*
X1632Y1154D01*
X1632Y1152D01*
X1630Y1152D01*
X1630Y1150D01*
X1626Y1150D01*
X1626Y1148D01*
X1622Y1148D01*
X1622Y1146D01*
X1620Y1146D01*
X1620Y850D01*
X1640Y850D01*
X1640Y852D01*
X1642Y852D01*
X1642Y854D01*
X1644Y854D01*
X1644Y856D01*
X1646Y856D01*
X1646Y858D01*
X1648Y858D01*
X1648Y860D01*
X1650Y860D01*
X1650Y862D01*
X1652Y862D01*
X1652Y866D01*
X1654Y866D01*
X1654Y868D01*
X1656Y868D01*
X1656Y870D01*
X1658Y870D01*
X1658Y872D01*
X1660Y872D01*
X1660Y874D01*
X1662Y874D01*
X1662Y876D01*
X1664Y876D01*
X1664Y878D01*
X1666Y878D01*
X1666Y880D01*
X1668Y880D01*
X1668Y882D01*
X1670Y882D01*
X1670Y884D01*
X1672Y884D01*
X1672Y886D01*
X1674Y886D01*
X1674Y888D01*
X1676Y888D01*
X1676Y890D01*
X1678Y890D01*
X1678Y892D01*
X1680Y892D01*
X1680Y894D01*
X1682Y894D01*
X1682Y896D01*
X1684Y896D01*
X1684Y898D01*
X1686Y898D01*
X1686Y900D01*
X1688Y900D01*
X1688Y904D01*
X1690Y904D01*
X1690Y926D01*
X1688Y926D01*
X1688Y1156D01*
X1686Y1156D01*
X1686Y1158D01*
X1682Y1158D01*
X1682Y1160D01*
X1680Y1160D01*
X1680Y1162D01*
X1676Y1162D01*
X1676Y1164D01*
X1674Y1164D01*
X1674Y1166D01*
X1672Y1166D01*
X1672Y1168D01*
X1670Y1168D01*
X1670Y1172D01*
X1668Y1172D01*
X1668Y1174D01*
X1666Y1174D01*
X1666Y1178D01*
X1646Y1178D01*
G37*
D02*
G36*
X1742Y1178D02*
X1742Y1174D01*
X1740Y1174D01*
X1740Y1170D01*
X1738Y1170D01*
X1738Y1168D01*
X1736Y1168D01*
X1736Y1166D01*
X1734Y1166D01*
X1734Y1164D01*
X1732Y1164D01*
X1732Y1162D01*
X1730Y1162D01*
X1730Y1160D01*
X1726Y1160D01*
X1726Y1158D01*
X1722Y1158D01*
X1722Y1156D01*
X1720Y1156D01*
X1720Y1144D01*
X1792Y1144D01*
X1792Y1146D01*
X1786Y1146D01*
X1786Y1148D01*
X1782Y1148D01*
X1782Y1150D01*
X1780Y1150D01*
X1780Y1152D01*
X1776Y1152D01*
X1776Y1154D01*
X1774Y1154D01*
X1774Y1156D01*
X1772Y1156D01*
X1772Y1158D01*
X1770Y1158D01*
X1770Y1162D01*
X1768Y1162D01*
X1768Y1164D01*
X1766Y1164D01*
X1766Y1168D01*
X1764Y1168D01*
X1764Y1174D01*
X1762Y1174D01*
X1762Y1178D01*
X1742Y1178D01*
G37*
D02*
G36*
X1846Y1178D02*
X1846Y1172D01*
X1844Y1172D01*
X1844Y1168D01*
X1842Y1168D01*
X1842Y1164D01*
X1840Y1164D01*
X1840Y1160D01*
X1838Y1160D01*
X1838Y1158D01*
X1836Y1158D01*
X1836Y1156D01*
X1834Y1156D01*
X1834Y1154D01*
X1892Y1154D01*
X1892Y1156D01*
X1886Y1156D01*
X1886Y1158D01*
X1882Y1158D01*
X1882Y1160D01*
X1880Y1160D01*
X1880Y1162D01*
X1876Y1162D01*
X1876Y1164D01*
X1874Y1164D01*
X1874Y1166D01*
X1872Y1166D01*
X1872Y1168D01*
X1870Y1168D01*
X1870Y1172D01*
X1868Y1172D01*
X1868Y1174D01*
X1866Y1174D01*
X1866Y1178D01*
X1846Y1178D01*
G37*
D02*
G36*
X1942Y1178D02*
X1942Y1174D01*
X1940Y1174D01*
X1940Y1170D01*
X1938Y1170D01*
X1938Y1168D01*
X1936Y1168D01*
X1936Y1166D01*
X1934Y1166D01*
X1934Y1164D01*
X1932Y1164D01*
X1932Y1162D01*
X1930Y1162D01*
X1930Y1160D01*
X1926Y1160D01*
X1926Y1158D01*
X1922Y1158D01*
X1922Y1156D01*
X1916Y1156D01*
X1916Y1154D01*
X1974Y1154D01*
X1974Y1156D01*
X1972Y1156D01*
X1972Y1158D01*
X1970Y1158D01*
X1970Y1162D01*
X1968Y1162D01*
X1968Y1164D01*
X1966Y1164D01*
X1966Y1168D01*
X1964Y1168D01*
X1964Y1174D01*
X1962Y1174D01*
X1962Y1178D01*
X1942Y1178D01*
G37*
D02*
G36*
X1832Y1154D02*
X1832Y1152D01*
X1976Y1152D01*
X1976Y1154D01*
X1832Y1154D01*
G37*
D02*
G36*
X1832Y1154D02*
X1832Y1152D01*
X1976Y1152D01*
X1976Y1154D01*
X1832Y1154D01*
G37*
D02*
G36*
X1830Y1152D02*
X1830Y1150D01*
X1826Y1150D01*
X1826Y1148D01*
X1822Y1148D01*
X1822Y1146D01*
X1816Y1146D01*
X1816Y1144D01*
X1988Y1144D01*
X1988Y1146D01*
X1986Y1146D01*
X1986Y1148D01*
X1982Y1148D01*
X1982Y1150D01*
X1980Y1150D01*
X1980Y1152D01*
X1830Y1152D01*
G37*
D02*
G36*
X1720Y1144D02*
X1720Y1142D01*
X1988Y1142D01*
X1988Y1144D01*
X1720Y1144D01*
G37*
D02*
G36*
X1720Y1144D02*
X1720Y1142D01*
X1988Y1142D01*
X1988Y1144D01*
X1720Y1144D01*
G37*
D02*
G36*
X1720Y1142D02*
X1720Y1028D01*
X1936Y1028D01*
X1936Y1026D01*
X1944Y1026D01*
X1944Y1024D01*
X1948Y1024D01*
X1948Y1022D01*
X1952Y1022D01*
X1952Y1020D01*
X1954Y1020D01*
X1954Y1018D01*
X1958Y1018D01*
X1958Y1016D01*
X1960Y1016D01*
X1960Y1014D01*
X1962Y1014D01*
X1962Y1012D01*
X1964Y1012D01*
X1964Y1008D01*
X1966Y1008D01*
X1966Y1006D01*
X1968Y1006D01*
X1968Y1002D01*
X1970Y1002D01*
X1970Y996D01*
X1990Y996D01*
X1990Y1016D01*
X1988Y1016D01*
X1988Y1142D01*
X1720Y1142D01*
G37*
D02*
G36*
X1720Y1028D02*
X1720Y930D01*
X1722Y930D01*
X1722Y896D01*
X1720Y896D01*
X1720Y888D01*
X1718Y888D01*
X1718Y886D01*
X1716Y886D01*
X1716Y884D01*
X1714Y884D01*
X1714Y882D01*
X1712Y882D01*
X1712Y880D01*
X1710Y880D01*
X1710Y878D01*
X1708Y878D01*
X1708Y876D01*
X1706Y876D01*
X1706Y874D01*
X1704Y874D01*
X1704Y872D01*
X1702Y872D01*
X1702Y870D01*
X1700Y870D01*
X1700Y868D01*
X1698Y868D01*
X1698Y864D01*
X1696Y864D01*
X1696Y862D01*
X1694Y862D01*
X1694Y860D01*
X1692Y860D01*
X1692Y858D01*
X1690Y858D01*
X1690Y856D01*
X1688Y856D01*
X1688Y854D01*
X1686Y854D01*
X1686Y852D01*
X1684Y852D01*
X1684Y850D01*
X1682Y850D01*
X1682Y848D01*
X1680Y848D01*
X1680Y846D01*
X1678Y846D01*
X1678Y844D01*
X1676Y844D01*
X1676Y842D01*
X1674Y842D01*
X1674Y840D01*
X1672Y840D01*
X1672Y838D01*
X1670Y838D01*
X1670Y836D01*
X1668Y836D01*
X1668Y834D01*
X1666Y834D01*
X1666Y832D01*
X1664Y832D01*
X1664Y830D01*
X1662Y830D01*
X1662Y826D01*
X1660Y826D01*
X1660Y824D01*
X1658Y824D01*
X1658Y822D01*
X1656Y822D01*
X1656Y820D01*
X1654Y820D01*
X1654Y818D01*
X1652Y818D01*
X1652Y816D01*
X1650Y816D01*
X1650Y814D01*
X1648Y814D01*
X1648Y812D01*
X1646Y812D01*
X1646Y810D01*
X1644Y810D01*
X1644Y790D01*
X1752Y790D01*
X1752Y854D01*
X1754Y854D01*
X1754Y858D01*
X1756Y858D01*
X1756Y860D01*
X1758Y860D01*
X1758Y862D01*
X1760Y862D01*
X1760Y864D01*
X1762Y864D01*
X1762Y866D01*
X1764Y866D01*
X1764Y868D01*
X1766Y868D01*
X1766Y870D01*
X1768Y870D01*
X1768Y872D01*
X1770Y872D01*
X1770Y876D01*
X1772Y876D01*
X1772Y878D01*
X1774Y878D01*
X1774Y880D01*
X1776Y880D01*
X1776Y882D01*
X1778Y882D01*
X1778Y884D01*
X1780Y884D01*
X1780Y886D01*
X1782Y886D01*
X1782Y888D01*
X1784Y888D01*
X1784Y890D01*
X1786Y890D01*
X1786Y892D01*
X1788Y892D01*
X1788Y894D01*
X1790Y894D01*
X1790Y898D01*
X1792Y898D01*
X1792Y900D01*
X1794Y900D01*
X1794Y902D01*
X1796Y902D01*
X1796Y904D01*
X1798Y904D01*
X1798Y906D01*
X1800Y906D01*
X1800Y908D01*
X1802Y908D01*
X1802Y910D01*
X1804Y910D01*
X1804Y912D01*
X1806Y912D01*
X1806Y914D01*
X1808Y914D01*
X1808Y916D01*
X1810Y916D01*
X1810Y920D01*
X1812Y920D01*
X1812Y922D01*
X1814Y922D01*
X1814Y924D01*
X1816Y924D01*
X1816Y926D01*
X1818Y926D01*
X1818Y928D01*
X1820Y928D01*
X1820Y930D01*
X1822Y930D01*
X1822Y932D01*
X1824Y932D01*
X1824Y934D01*
X1826Y934D01*
X1826Y936D01*
X1828Y936D01*
X1828Y938D01*
X1830Y938D01*
X1830Y942D01*
X1832Y942D01*
X1832Y944D01*
X1834Y944D01*
X1834Y946D01*
X1836Y946D01*
X1836Y948D01*
X1838Y948D01*
X1838Y950D01*
X1840Y950D01*
X1840Y952D01*
X1842Y952D01*
X1842Y954D01*
X1844Y954D01*
X1844Y956D01*
X1846Y956D01*
X1846Y958D01*
X1848Y958D01*
X1848Y960D01*
X1850Y960D01*
X1850Y964D01*
X1852Y964D01*
X1852Y966D01*
X1854Y966D01*
X1854Y968D01*
X1856Y968D01*
X1856Y970D01*
X1858Y970D01*
X1858Y972D01*
X1860Y972D01*
X1860Y974D01*
X1862Y974D01*
X1862Y976D01*
X1864Y976D01*
X1864Y978D01*
X1866Y978D01*
X1866Y980D01*
X1868Y980D01*
X1868Y982D01*
X1870Y982D01*
X1870Y986D01*
X1872Y986D01*
X1872Y988D01*
X1874Y988D01*
X1874Y990D01*
X1876Y990D01*
X1876Y992D01*
X1878Y992D01*
X1878Y994D01*
X1880Y994D01*
X1880Y996D01*
X1882Y996D01*
X1882Y998D01*
X1886Y998D01*
X1886Y1000D01*
X1890Y1000D01*
X1890Y1004D01*
X1892Y1004D01*
X1892Y1008D01*
X1894Y1008D01*
X1894Y1010D01*
X1896Y1010D01*
X1896Y1012D01*
X1898Y1012D01*
X1898Y1016D01*
X1902Y1016D01*
X1902Y1018D01*
X1904Y1018D01*
X1904Y1020D01*
X1906Y1020D01*
X1906Y1022D01*
X1910Y1022D01*
X1910Y1024D01*
X1916Y1024D01*
X1916Y1026D01*
X1924Y1026D01*
X1924Y1028D01*
X1720Y1028D01*
G37*
D02*
G36*
X776Y1220D02*
X776Y1188D01*
X778Y1188D01*
X778Y1180D01*
X776Y1180D01*
X776Y1166D01*
X774Y1166D01*
X774Y1160D01*
X772Y1160D01*
X772Y1154D01*
X892Y1154D01*
X892Y1156D01*
X886Y1156D01*
X886Y1158D01*
X882Y1158D01*
X882Y1160D01*
X880Y1160D01*
X880Y1162D01*
X876Y1162D01*
X876Y1164D01*
X874Y1164D01*
X874Y1166D01*
X872Y1166D01*
X872Y1168D01*
X870Y1168D01*
X870Y1172D01*
X868Y1172D01*
X868Y1174D01*
X866Y1174D01*
X866Y1178D01*
X864Y1178D01*
X864Y1184D01*
X862Y1184D01*
X862Y1192D01*
X860Y1192D01*
X860Y1200D01*
X862Y1200D01*
X862Y1220D01*
X776Y1220D01*
G37*
D02*
G36*
X942Y1178D02*
X942Y1174D01*
X940Y1174D01*
X940Y1170D01*
X938Y1170D01*
X938Y1168D01*
X936Y1168D01*
X936Y1166D01*
X934Y1166D01*
X934Y1164D01*
X932Y1164D01*
X932Y1162D01*
X930Y1162D01*
X930Y1160D01*
X926Y1160D01*
X926Y1158D01*
X922Y1158D01*
X922Y1156D01*
X916Y1156D01*
X916Y1154D01*
X974Y1154D01*
X974Y1156D01*
X972Y1156D01*
X972Y1158D01*
X970Y1158D01*
X970Y1162D01*
X968Y1162D01*
X968Y1164D01*
X966Y1164D01*
X966Y1168D01*
X964Y1168D01*
X964Y1174D01*
X962Y1174D01*
X962Y1178D01*
X942Y1178D01*
G37*
D02*
G36*
X1046Y1178D02*
X1046Y1172D01*
X1044Y1172D01*
X1044Y1168D01*
X1042Y1168D01*
X1042Y1164D01*
X1040Y1164D01*
X1040Y1160D01*
X1038Y1160D01*
X1038Y1158D01*
X1036Y1158D01*
X1036Y1156D01*
X1034Y1156D01*
X1034Y1154D01*
X1032Y1154D01*
X1032Y1152D01*
X1030Y1152D01*
X1030Y1150D01*
X1026Y1150D01*
X1026Y1148D01*
X1022Y1148D01*
X1022Y1146D01*
X1016Y1146D01*
X1016Y1144D01*
X1088Y1144D01*
X1088Y1156D01*
X1086Y1156D01*
X1086Y1158D01*
X1082Y1158D01*
X1082Y1160D01*
X1080Y1160D01*
X1080Y1162D01*
X1076Y1162D01*
X1076Y1164D01*
X1074Y1164D01*
X1074Y1166D01*
X1072Y1166D01*
X1072Y1168D01*
X1070Y1168D01*
X1070Y1172D01*
X1068Y1172D01*
X1068Y1174D01*
X1066Y1174D01*
X1066Y1178D01*
X1046Y1178D01*
G37*
D02*
G36*
X770Y1154D02*
X770Y1152D01*
X976Y1152D01*
X976Y1154D01*
X770Y1154D01*
G37*
D02*
G36*
X770Y1154D02*
X770Y1152D01*
X976Y1152D01*
X976Y1154D01*
X770Y1154D01*
G37*
D02*
G36*
X620Y1152D02*
X620Y1150D01*
X594Y1150D01*
X594Y1116D01*
X596Y1116D01*
X596Y1114D01*
X598Y1114D01*
X598Y1112D01*
X688Y1112D01*
X688Y1114D01*
X680Y1114D01*
X680Y1116D01*
X676Y1116D01*
X676Y1118D01*
X672Y1118D01*
X672Y1120D01*
X668Y1120D01*
X668Y1122D01*
X664Y1122D01*
X664Y1124D01*
X662Y1124D01*
X662Y1126D01*
X658Y1126D01*
X658Y1128D01*
X656Y1128D01*
X656Y1130D01*
X654Y1130D01*
X654Y1132D01*
X652Y1132D01*
X652Y1134D01*
X650Y1134D01*
X650Y1136D01*
X648Y1136D01*
X648Y1138D01*
X646Y1138D01*
X646Y1142D01*
X644Y1142D01*
X644Y1144D01*
X642Y1144D01*
X642Y1148D01*
X640Y1148D01*
X640Y1152D01*
X620Y1152D01*
G37*
D02*
G36*
X770Y1152D02*
X770Y1150D01*
X768Y1150D01*
X768Y1148D01*
X766Y1148D01*
X766Y1144D01*
X992Y1144D01*
X992Y1146D01*
X986Y1146D01*
X986Y1148D01*
X982Y1148D01*
X982Y1150D01*
X980Y1150D01*
X980Y1152D01*
X770Y1152D01*
G37*
D02*
G36*
X764Y1144D02*
X764Y1142D01*
X1088Y1142D01*
X1088Y1144D01*
X764Y1144D01*
G37*
D02*
G36*
X764Y1144D02*
X764Y1142D01*
X1088Y1142D01*
X1088Y1144D01*
X764Y1144D01*
G37*
D02*
G36*
X762Y1142D02*
X762Y1138D01*
X760Y1138D01*
X760Y1136D01*
X758Y1136D01*
X758Y1134D01*
X756Y1134D01*
X756Y1132D01*
X754Y1132D01*
X754Y1130D01*
X752Y1130D01*
X752Y1128D01*
X750Y1128D01*
X750Y1126D01*
X746Y1126D01*
X746Y1124D01*
X744Y1124D01*
X744Y1122D01*
X740Y1122D01*
X740Y1120D01*
X738Y1120D01*
X738Y1118D01*
X734Y1118D01*
X734Y1116D01*
X728Y1116D01*
X728Y1114D01*
X720Y1114D01*
X720Y1112D01*
X1088Y1112D01*
X1088Y1142D01*
X762Y1142D01*
G37*
D02*
G36*
X600Y1112D02*
X600Y1110D01*
X1088Y1110D01*
X1088Y1112D01*
X600Y1112D01*
G37*
D02*
G36*
X600Y1112D02*
X600Y1110D01*
X1088Y1110D01*
X1088Y1112D01*
X600Y1112D01*
G37*
D02*
G36*
X602Y1110D02*
X602Y1108D01*
X604Y1108D01*
X604Y1106D01*
X606Y1106D01*
X606Y1104D01*
X608Y1104D01*
X608Y1102D01*
X610Y1102D01*
X610Y1100D01*
X612Y1100D01*
X612Y1098D01*
X614Y1098D01*
X614Y1096D01*
X616Y1096D01*
X616Y1094D01*
X618Y1094D01*
X618Y1092D01*
X620Y1092D01*
X620Y1090D01*
X622Y1090D01*
X622Y1088D01*
X624Y1088D01*
X624Y1086D01*
X626Y1086D01*
X626Y1084D01*
X628Y1084D01*
X628Y1082D01*
X630Y1082D01*
X630Y1080D01*
X632Y1080D01*
X632Y1078D01*
X634Y1078D01*
X634Y1076D01*
X804Y1076D01*
X804Y1074D01*
X812Y1074D01*
X812Y1072D01*
X814Y1072D01*
X814Y1070D01*
X816Y1070D01*
X816Y1068D01*
X818Y1068D01*
X818Y1066D01*
X820Y1066D01*
X820Y1064D01*
X822Y1064D01*
X822Y1062D01*
X824Y1062D01*
X824Y1060D01*
X826Y1060D01*
X826Y1058D01*
X828Y1058D01*
X828Y1056D01*
X830Y1056D01*
X830Y1054D01*
X832Y1054D01*
X832Y1052D01*
X834Y1052D01*
X834Y1050D01*
X836Y1050D01*
X836Y1048D01*
X838Y1048D01*
X838Y1046D01*
X840Y1046D01*
X840Y1044D01*
X842Y1044D01*
X842Y1042D01*
X844Y1042D01*
X844Y1040D01*
X846Y1040D01*
X846Y1038D01*
X848Y1038D01*
X848Y1036D01*
X850Y1036D01*
X850Y1034D01*
X852Y1034D01*
X852Y1032D01*
X854Y1032D01*
X854Y1030D01*
X856Y1030D01*
X856Y1028D01*
X986Y1028D01*
X986Y1026D01*
X994Y1026D01*
X994Y1024D01*
X998Y1024D01*
X998Y1022D01*
X1002Y1022D01*
X1002Y1020D01*
X1004Y1020D01*
X1004Y1018D01*
X1008Y1018D01*
X1008Y1016D01*
X1010Y1016D01*
X1010Y1014D01*
X1012Y1014D01*
X1012Y1012D01*
X1014Y1012D01*
X1014Y1008D01*
X1016Y1008D01*
X1016Y1006D01*
X1018Y1006D01*
X1018Y1002D01*
X1020Y1002D01*
X1020Y1000D01*
X1152Y1000D01*
X1152Y1020D01*
X1150Y1020D01*
X1150Y1022D01*
X1148Y1022D01*
X1148Y1024D01*
X1146Y1024D01*
X1146Y1026D01*
X1144Y1026D01*
X1144Y1030D01*
X1142Y1030D01*
X1142Y1032D01*
X1140Y1032D01*
X1140Y1034D01*
X1138Y1034D01*
X1138Y1036D01*
X1136Y1036D01*
X1136Y1038D01*
X1134Y1038D01*
X1134Y1040D01*
X1132Y1040D01*
X1132Y1042D01*
X1130Y1042D01*
X1130Y1046D01*
X1128Y1046D01*
X1128Y1048D01*
X1126Y1048D01*
X1126Y1050D01*
X1124Y1050D01*
X1124Y1052D01*
X1122Y1052D01*
X1122Y1054D01*
X1120Y1054D01*
X1120Y1056D01*
X1118Y1056D01*
X1118Y1060D01*
X1116Y1060D01*
X1116Y1062D01*
X1114Y1062D01*
X1114Y1064D01*
X1112Y1064D01*
X1112Y1066D01*
X1110Y1066D01*
X1110Y1068D01*
X1108Y1068D01*
X1108Y1070D01*
X1106Y1070D01*
X1106Y1072D01*
X1104Y1072D01*
X1104Y1076D01*
X1102Y1076D01*
X1102Y1078D01*
X1100Y1078D01*
X1100Y1080D01*
X1098Y1080D01*
X1098Y1082D01*
X1096Y1082D01*
X1096Y1084D01*
X1094Y1084D01*
X1094Y1086D01*
X1092Y1086D01*
X1092Y1090D01*
X1090Y1090D01*
X1090Y1098D01*
X1088Y1098D01*
X1088Y1110D01*
X602Y1110D01*
G37*
D02*
G36*
X636Y1076D02*
X636Y1074D01*
X754Y1074D01*
X754Y1076D01*
X636Y1076D01*
G37*
D02*
G36*
X856Y1028D02*
X856Y1026D01*
X858Y1026D01*
X858Y928D01*
X860Y928D01*
X860Y926D01*
X862Y926D01*
X862Y924D01*
X864Y924D01*
X864Y922D01*
X866Y922D01*
X866Y920D01*
X868Y920D01*
X868Y918D01*
X870Y918D01*
X870Y916D01*
X872Y916D01*
X872Y914D01*
X874Y914D01*
X874Y912D01*
X876Y912D01*
X876Y910D01*
X878Y910D01*
X878Y908D01*
X880Y908D01*
X880Y906D01*
X882Y906D01*
X882Y904D01*
X884Y904D01*
X884Y902D01*
X886Y902D01*
X886Y900D01*
X888Y900D01*
X888Y898D01*
X890Y898D01*
X890Y896D01*
X892Y896D01*
X892Y894D01*
X894Y894D01*
X894Y892D01*
X896Y892D01*
X896Y890D01*
X898Y890D01*
X898Y888D01*
X900Y888D01*
X900Y886D01*
X902Y886D01*
X902Y884D01*
X904Y884D01*
X904Y882D01*
X906Y882D01*
X906Y880D01*
X908Y880D01*
X908Y878D01*
X910Y878D01*
X910Y876D01*
X912Y876D01*
X912Y874D01*
X914Y874D01*
X914Y872D01*
X916Y872D01*
X916Y870D01*
X918Y870D01*
X918Y868D01*
X920Y868D01*
X920Y866D01*
X940Y866D01*
X940Y868D01*
X938Y868D01*
X938Y874D01*
X936Y874D01*
X936Y894D01*
X938Y894D01*
X938Y900D01*
X940Y900D01*
X940Y904D01*
X942Y904D01*
X942Y908D01*
X944Y908D01*
X944Y910D01*
X946Y910D01*
X946Y912D01*
X948Y912D01*
X948Y916D01*
X952Y916D01*
X952Y918D01*
X954Y918D01*
X954Y920D01*
X956Y920D01*
X956Y922D01*
X960Y922D01*
X960Y924D01*
X966Y924D01*
X966Y944D01*
X960Y944D01*
X960Y946D01*
X956Y946D01*
X956Y948D01*
X954Y948D01*
X954Y950D01*
X952Y950D01*
X952Y952D01*
X948Y952D01*
X948Y956D01*
X946Y956D01*
X946Y958D01*
X944Y958D01*
X944Y960D01*
X942Y960D01*
X942Y964D01*
X940Y964D01*
X940Y968D01*
X938Y968D01*
X938Y974D01*
X936Y974D01*
X936Y994D01*
X938Y994D01*
X938Y1000D01*
X940Y1000D01*
X940Y1004D01*
X942Y1004D01*
X942Y1008D01*
X944Y1008D01*
X944Y1010D01*
X946Y1010D01*
X946Y1012D01*
X948Y1012D01*
X948Y1016D01*
X952Y1016D01*
X952Y1018D01*
X954Y1018D01*
X954Y1020D01*
X956Y1020D01*
X956Y1022D01*
X960Y1022D01*
X960Y1024D01*
X966Y1024D01*
X966Y1026D01*
X974Y1026D01*
X974Y1028D01*
X856Y1028D01*
G37*
D02*
G36*
X306Y1220D02*
X306Y1150D01*
X216Y1150D01*
X216Y1146D01*
X218Y1146D01*
X218Y1142D01*
X220Y1142D01*
X220Y1138D01*
X222Y1138D01*
X222Y1134D01*
X224Y1134D01*
X224Y1126D01*
X226Y1126D01*
X226Y1114D01*
X228Y1114D01*
X228Y1104D01*
X226Y1104D01*
X226Y1092D01*
X224Y1092D01*
X224Y1084D01*
X222Y1084D01*
X222Y1080D01*
X220Y1080D01*
X220Y1076D01*
X218Y1076D01*
X218Y1072D01*
X216Y1072D01*
X216Y1068D01*
X214Y1068D01*
X214Y1066D01*
X212Y1066D01*
X212Y1064D01*
X210Y1064D01*
X210Y1060D01*
X208Y1060D01*
X208Y1058D01*
X206Y1058D01*
X206Y1056D01*
X204Y1056D01*
X204Y1054D01*
X200Y1054D01*
X200Y1052D01*
X198Y1052D01*
X198Y1050D01*
X196Y1050D01*
X196Y1048D01*
X192Y1048D01*
X192Y1046D01*
X190Y1046D01*
X190Y1044D01*
X306Y1044D01*
X306Y974D01*
X364Y974D01*
X364Y992D01*
X366Y992D01*
X366Y996D01*
X368Y996D01*
X368Y998D01*
X370Y998D01*
X370Y1000D01*
X374Y1000D01*
X374Y1002D01*
X376Y1002D01*
X376Y1004D01*
X378Y1004D01*
X378Y1006D01*
X380Y1006D01*
X380Y1008D01*
X382Y1008D01*
X382Y1010D01*
X384Y1010D01*
X384Y1012D01*
X386Y1012D01*
X386Y1014D01*
X388Y1014D01*
X388Y1016D01*
X390Y1016D01*
X390Y1018D01*
X392Y1018D01*
X392Y1020D01*
X394Y1020D01*
X394Y1022D01*
X398Y1022D01*
X398Y1024D01*
X538Y1024D01*
X538Y1044D01*
X602Y1044D01*
X602Y1064D01*
X600Y1064D01*
X600Y1066D01*
X598Y1066D01*
X598Y1068D01*
X596Y1068D01*
X596Y1070D01*
X594Y1070D01*
X594Y1072D01*
X592Y1072D01*
X592Y1074D01*
X590Y1074D01*
X590Y1076D01*
X588Y1076D01*
X588Y1078D01*
X586Y1078D01*
X586Y1080D01*
X584Y1080D01*
X584Y1082D01*
X582Y1082D01*
X582Y1084D01*
X580Y1084D01*
X580Y1086D01*
X578Y1086D01*
X578Y1088D01*
X576Y1088D01*
X576Y1090D01*
X574Y1090D01*
X574Y1092D01*
X572Y1092D01*
X572Y1094D01*
X570Y1094D01*
X570Y1096D01*
X568Y1096D01*
X568Y1098D01*
X566Y1098D01*
X566Y1102D01*
X564Y1102D01*
X564Y1106D01*
X562Y1106D01*
X562Y1150D01*
X540Y1150D01*
X540Y1152D01*
X538Y1152D01*
X538Y1220D01*
X306Y1220D01*
G37*
D02*
G36*
X2276Y1220D02*
X2276Y1188D01*
X2278Y1188D01*
X2278Y1170D01*
X2358Y1170D01*
X2358Y1100D01*
X2356Y1100D01*
X2356Y1098D01*
X2332Y1098D01*
X2332Y1068D01*
X2334Y1068D01*
X2334Y1060D01*
X2332Y1060D01*
X2332Y1052D01*
X2330Y1052D01*
X2330Y1048D01*
X2328Y1048D01*
X2328Y1046D01*
X2326Y1046D01*
X2326Y1044D01*
X2324Y1044D01*
X2324Y1042D01*
X2322Y1042D01*
X2322Y1040D01*
X2320Y1040D01*
X2320Y1038D01*
X2318Y1038D01*
X2318Y1036D01*
X2316Y1036D01*
X2316Y1034D01*
X2314Y1034D01*
X2314Y1032D01*
X2312Y1032D01*
X2312Y1030D01*
X2310Y1030D01*
X2310Y1028D01*
X2308Y1028D01*
X2308Y1026D01*
X2306Y1026D01*
X2306Y1024D01*
X2304Y1024D01*
X2304Y1022D01*
X2302Y1022D01*
X2302Y1020D01*
X2300Y1020D01*
X2300Y1018D01*
X2298Y1018D01*
X2298Y1016D01*
X2296Y1016D01*
X2296Y1014D01*
X2294Y1014D01*
X2294Y1012D01*
X2292Y1012D01*
X2292Y992D01*
X2670Y992D01*
X2670Y922D01*
X2714Y922D01*
X2714Y988D01*
X2712Y988D01*
X2712Y1000D01*
X2710Y1000D01*
X2710Y1010D01*
X2708Y1010D01*
X2708Y1018D01*
X2706Y1018D01*
X2706Y1024D01*
X2704Y1024D01*
X2704Y1032D01*
X2702Y1032D01*
X2702Y1038D01*
X2700Y1038D01*
X2700Y1042D01*
X2698Y1042D01*
X2698Y1048D01*
X2696Y1048D01*
X2696Y1052D01*
X2694Y1052D01*
X2694Y1058D01*
X2692Y1058D01*
X2692Y1062D01*
X2690Y1062D01*
X2690Y1066D01*
X2688Y1066D01*
X2688Y1070D01*
X2686Y1070D01*
X2686Y1074D01*
X2684Y1074D01*
X2684Y1078D01*
X2682Y1078D01*
X2682Y1082D01*
X2680Y1082D01*
X2680Y1084D01*
X2678Y1084D01*
X2678Y1088D01*
X2676Y1088D01*
X2676Y1092D01*
X2674Y1092D01*
X2674Y1094D01*
X2672Y1094D01*
X2672Y1098D01*
X2590Y1098D01*
X2590Y1178D01*
X2586Y1178D01*
X2586Y1180D01*
X2582Y1180D01*
X2582Y1182D01*
X2580Y1182D01*
X2580Y1184D01*
X2576Y1184D01*
X2576Y1186D01*
X2572Y1186D01*
X2572Y1188D01*
X2568Y1188D01*
X2568Y1190D01*
X2564Y1190D01*
X2564Y1192D01*
X2560Y1192D01*
X2560Y1194D01*
X2556Y1194D01*
X2556Y1196D01*
X2552Y1196D01*
X2552Y1198D01*
X2546Y1198D01*
X2546Y1200D01*
X2542Y1200D01*
X2542Y1202D01*
X2536Y1202D01*
X2536Y1204D01*
X2530Y1204D01*
X2530Y1206D01*
X2524Y1206D01*
X2524Y1208D01*
X2518Y1208D01*
X2518Y1210D01*
X2510Y1210D01*
X2510Y1212D01*
X2502Y1212D01*
X2502Y1214D01*
X2494Y1214D01*
X2494Y1216D01*
X2482Y1216D01*
X2482Y1218D01*
X2464Y1218D01*
X2464Y1220D01*
X2276Y1220D01*
G37*
D02*
G36*
X70Y1074D02*
X70Y1070D01*
X68Y1070D01*
X68Y1066D01*
X66Y1066D01*
X66Y1062D01*
X64Y1062D01*
X64Y1058D01*
X62Y1058D01*
X62Y1052D01*
X60Y1052D01*
X60Y1048D01*
X58Y1048D01*
X58Y1044D01*
X56Y1044D01*
X56Y1038D01*
X54Y1038D01*
X54Y1036D01*
X144Y1036D01*
X144Y1038D01*
X134Y1038D01*
X134Y1040D01*
X128Y1040D01*
X128Y1042D01*
X124Y1042D01*
X124Y1044D01*
X120Y1044D01*
X120Y1046D01*
X116Y1046D01*
X116Y1048D01*
X112Y1048D01*
X112Y1050D01*
X110Y1050D01*
X110Y1052D01*
X108Y1052D01*
X108Y1054D01*
X106Y1054D01*
X106Y1056D01*
X104Y1056D01*
X104Y1058D01*
X102Y1058D01*
X102Y1060D01*
X100Y1060D01*
X100Y1062D01*
X98Y1062D01*
X98Y1064D01*
X96Y1064D01*
X96Y1066D01*
X94Y1066D01*
X94Y1070D01*
X92Y1070D01*
X92Y1072D01*
X90Y1072D01*
X90Y1074D01*
X70Y1074D01*
G37*
D02*
G36*
X186Y1044D02*
X186Y1042D01*
X180Y1042D01*
X180Y1040D01*
X174Y1040D01*
X174Y1038D01*
X164Y1038D01*
X164Y1036D01*
X226Y1036D01*
X226Y1044D01*
X186Y1044D01*
G37*
D02*
G36*
X54Y1036D02*
X54Y1034D01*
X226Y1034D01*
X226Y1036D01*
X54Y1036D01*
G37*
D02*
G36*
X54Y1036D02*
X54Y1034D01*
X226Y1034D01*
X226Y1036D01*
X54Y1036D01*
G37*
D02*
G36*
X54Y1034D02*
X54Y1032D01*
X52Y1032D01*
X52Y1024D01*
X50Y1024D01*
X50Y1018D01*
X48Y1018D01*
X48Y1010D01*
X46Y1010D01*
X46Y1000D01*
X44Y1000D01*
X44Y974D01*
X226Y974D01*
X226Y1034D01*
X54Y1034D01*
G37*
D02*
G36*
X2358Y992D02*
X2358Y922D01*
X2590Y922D01*
X2590Y992D01*
X2358Y992D01*
G37*
D02*
G36*
X44Y974D02*
X44Y972D01*
X364Y972D01*
X364Y974D01*
X44Y974D01*
G37*
D02*
G36*
X44Y974D02*
X44Y972D01*
X364Y972D01*
X364Y974D01*
X44Y974D01*
G37*
D02*
G36*
X106Y972D02*
X106Y900D01*
X40Y900D01*
X40Y794D01*
X106Y794D01*
X106Y724D01*
X40Y724D01*
X40Y722D01*
X306Y722D01*
X306Y650D01*
X228Y650D01*
X228Y630D01*
X226Y630D01*
X226Y616D01*
X224Y616D01*
X224Y610D01*
X222Y610D01*
X222Y604D01*
X220Y604D01*
X220Y600D01*
X218Y600D01*
X218Y598D01*
X216Y598D01*
X216Y594D01*
X214Y594D01*
X214Y592D01*
X212Y592D01*
X212Y588D01*
X210Y588D01*
X210Y586D01*
X208Y586D01*
X208Y584D01*
X206Y584D01*
X206Y582D01*
X204Y582D01*
X204Y580D01*
X202Y580D01*
X202Y578D01*
X200Y578D01*
X200Y576D01*
X196Y576D01*
X196Y574D01*
X194Y574D01*
X194Y572D01*
X190Y572D01*
X190Y570D01*
X188Y570D01*
X188Y568D01*
X184Y568D01*
X184Y566D01*
X178Y566D01*
X178Y564D01*
X170Y564D01*
X170Y562D01*
X778Y562D01*
X778Y564D01*
X776Y564D01*
X776Y566D01*
X774Y566D01*
X774Y568D01*
X772Y568D01*
X772Y570D01*
X770Y570D01*
X770Y572D01*
X768Y572D01*
X768Y574D01*
X766Y574D01*
X766Y576D01*
X764Y576D01*
X764Y578D01*
X762Y578D01*
X762Y580D01*
X760Y580D01*
X760Y582D01*
X758Y582D01*
X758Y584D01*
X756Y584D01*
X756Y586D01*
X754Y586D01*
X754Y588D01*
X752Y588D01*
X752Y590D01*
X750Y590D01*
X750Y592D01*
X748Y592D01*
X748Y594D01*
X746Y594D01*
X746Y596D01*
X744Y596D01*
X744Y598D01*
X742Y598D01*
X742Y600D01*
X740Y600D01*
X740Y602D01*
X738Y602D01*
X738Y604D01*
X736Y604D01*
X736Y606D01*
X734Y606D01*
X734Y608D01*
X732Y608D01*
X732Y610D01*
X730Y610D01*
X730Y612D01*
X728Y612D01*
X728Y614D01*
X726Y614D01*
X726Y616D01*
X724Y616D01*
X724Y618D01*
X452Y618D01*
X452Y620D01*
X446Y620D01*
X446Y622D01*
X444Y622D01*
X444Y624D01*
X442Y624D01*
X442Y626D01*
X440Y626D01*
X440Y628D01*
X438Y628D01*
X438Y630D01*
X436Y630D01*
X436Y632D01*
X434Y632D01*
X434Y634D01*
X432Y634D01*
X432Y636D01*
X430Y636D01*
X430Y638D01*
X428Y638D01*
X428Y640D01*
X426Y640D01*
X426Y642D01*
X424Y642D01*
X424Y644D01*
X422Y644D01*
X422Y646D01*
X420Y646D01*
X420Y648D01*
X418Y648D01*
X418Y650D01*
X416Y650D01*
X416Y652D01*
X414Y652D01*
X414Y654D01*
X412Y654D01*
X412Y656D01*
X410Y656D01*
X410Y658D01*
X408Y658D01*
X408Y660D01*
X406Y660D01*
X406Y662D01*
X404Y662D01*
X404Y664D01*
X402Y664D01*
X402Y666D01*
X400Y666D01*
X400Y668D01*
X398Y668D01*
X398Y670D01*
X396Y670D01*
X396Y672D01*
X394Y672D01*
X394Y674D01*
X392Y674D01*
X392Y676D01*
X390Y676D01*
X390Y678D01*
X388Y678D01*
X388Y680D01*
X386Y680D01*
X386Y682D01*
X384Y682D01*
X384Y684D01*
X382Y684D01*
X382Y686D01*
X380Y686D01*
X380Y688D01*
X378Y688D01*
X378Y690D01*
X376Y690D01*
X376Y692D01*
X374Y692D01*
X374Y694D01*
X372Y694D01*
X372Y696D01*
X370Y696D01*
X370Y698D01*
X368Y698D01*
X368Y700D01*
X366Y700D01*
X366Y704D01*
X364Y704D01*
X364Y724D01*
X338Y724D01*
X338Y794D01*
X412Y794D01*
X412Y814D01*
X408Y814D01*
X408Y816D01*
X404Y816D01*
X404Y818D01*
X400Y818D01*
X400Y820D01*
X398Y820D01*
X398Y822D01*
X396Y822D01*
X396Y824D01*
X394Y824D01*
X394Y826D01*
X392Y826D01*
X392Y828D01*
X390Y828D01*
X390Y830D01*
X388Y830D01*
X388Y834D01*
X386Y834D01*
X386Y838D01*
X384Y838D01*
X384Y842D01*
X382Y842D01*
X382Y850D01*
X380Y850D01*
X380Y868D01*
X382Y868D01*
X382Y876D01*
X384Y876D01*
X384Y880D01*
X386Y880D01*
X386Y900D01*
X340Y900D01*
X340Y902D01*
X338Y902D01*
X338Y972D01*
X106Y972D01*
G37*
D02*
G36*
X2352Y922D02*
X2352Y920D01*
X2714Y920D01*
X2714Y922D01*
X2352Y922D01*
G37*
D02*
G36*
X2352Y922D02*
X2352Y920D01*
X2714Y920D01*
X2714Y922D01*
X2352Y922D01*
G37*
D02*
G36*
X2352Y920D02*
X2352Y902D01*
X2354Y902D01*
X2354Y900D01*
X2358Y900D01*
X2358Y898D01*
X2360Y898D01*
X2360Y896D01*
X2362Y896D01*
X2362Y894D01*
X2364Y894D01*
X2364Y892D01*
X2366Y892D01*
X2366Y890D01*
X2368Y890D01*
X2368Y888D01*
X2370Y888D01*
X2370Y884D01*
X2372Y884D01*
X2372Y882D01*
X2374Y882D01*
X2374Y878D01*
X2376Y878D01*
X2376Y870D01*
X2378Y870D01*
X2378Y848D01*
X2376Y848D01*
X2376Y840D01*
X2374Y840D01*
X2374Y836D01*
X2372Y836D01*
X2372Y834D01*
X2370Y834D01*
X2370Y830D01*
X2368Y830D01*
X2368Y828D01*
X2366Y828D01*
X2366Y826D01*
X2364Y826D01*
X2364Y824D01*
X2362Y824D01*
X2362Y822D01*
X2360Y822D01*
X2360Y820D01*
X2358Y820D01*
X2358Y818D01*
X2354Y818D01*
X2354Y816D01*
X2352Y816D01*
X2352Y814D01*
X2346Y814D01*
X2346Y812D01*
X2340Y812D01*
X2340Y810D01*
X2714Y810D01*
X2714Y920D01*
X2352Y920D01*
G37*
D02*
G36*
X2262Y870D02*
X2262Y868D01*
X2260Y868D01*
X2260Y866D01*
X2258Y866D01*
X2258Y864D01*
X2256Y864D01*
X2256Y862D01*
X2254Y862D01*
X2254Y860D01*
X2252Y860D01*
X2252Y858D01*
X2250Y858D01*
X2250Y856D01*
X2248Y856D01*
X2248Y854D01*
X2246Y854D01*
X2246Y852D01*
X2244Y852D01*
X2244Y850D01*
X2242Y850D01*
X2242Y848D01*
X2240Y848D01*
X2240Y846D01*
X2238Y846D01*
X2238Y844D01*
X2236Y844D01*
X2236Y842D01*
X2234Y842D01*
X2234Y840D01*
X2232Y840D01*
X2232Y838D01*
X2230Y838D01*
X2230Y836D01*
X2228Y836D01*
X2228Y834D01*
X2226Y834D01*
X2226Y832D01*
X2224Y832D01*
X2224Y830D01*
X2222Y830D01*
X2222Y828D01*
X2220Y828D01*
X2220Y826D01*
X2218Y826D01*
X2218Y824D01*
X2216Y824D01*
X2216Y822D01*
X2214Y822D01*
X2214Y820D01*
X2212Y820D01*
X2212Y818D01*
X2210Y818D01*
X2210Y816D01*
X2208Y816D01*
X2208Y814D01*
X2206Y814D01*
X2206Y812D01*
X2204Y812D01*
X2204Y810D01*
X2318Y810D01*
X2318Y812D01*
X2312Y812D01*
X2312Y814D01*
X2308Y814D01*
X2308Y816D01*
X2304Y816D01*
X2304Y818D01*
X2300Y818D01*
X2300Y820D01*
X2298Y820D01*
X2298Y822D01*
X2296Y822D01*
X2296Y824D01*
X2294Y824D01*
X2294Y826D01*
X2292Y826D01*
X2292Y828D01*
X2290Y828D01*
X2290Y830D01*
X2288Y830D01*
X2288Y834D01*
X2286Y834D01*
X2286Y838D01*
X2284Y838D01*
X2284Y842D01*
X2282Y842D01*
X2282Y850D01*
X2280Y850D01*
X2280Y868D01*
X2282Y868D01*
X2282Y870D01*
X2262Y870D01*
G37*
D02*
G36*
X2202Y810D02*
X2202Y808D01*
X2714Y808D01*
X2714Y810D01*
X2202Y810D01*
G37*
D02*
G36*
X2202Y810D02*
X2202Y808D01*
X2714Y808D01*
X2714Y810D01*
X2202Y810D01*
G37*
D02*
G36*
X2200Y808D02*
X2200Y806D01*
X2198Y806D01*
X2198Y804D01*
X2196Y804D01*
X2196Y802D01*
X2194Y802D01*
X2194Y800D01*
X2192Y800D01*
X2192Y798D01*
X2190Y798D01*
X2190Y796D01*
X2188Y796D01*
X2188Y794D01*
X2482Y794D01*
X2482Y724D01*
X2714Y724D01*
X2714Y808D01*
X2200Y808D01*
G37*
D02*
G36*
X2186Y794D02*
X2186Y792D01*
X2184Y792D01*
X2184Y790D01*
X2182Y790D01*
X2182Y788D01*
X2180Y788D01*
X2180Y786D01*
X2178Y786D01*
X2178Y784D01*
X2176Y784D01*
X2176Y782D01*
X2174Y782D01*
X2174Y780D01*
X2172Y780D01*
X2172Y778D01*
X2170Y778D01*
X2170Y724D01*
X2402Y724D01*
X2402Y794D01*
X2186Y794D01*
G37*
D02*
G36*
X2156Y724D02*
X2156Y722D01*
X2714Y722D01*
X2714Y724D01*
X2156Y724D01*
G37*
D02*
G36*
X2156Y724D02*
X2156Y722D01*
X2714Y722D01*
X2714Y724D01*
X2156Y724D01*
G37*
D02*
G36*
X40Y722D02*
X40Y706D01*
X170Y706D01*
X170Y704D01*
X178Y704D01*
X178Y702D01*
X184Y702D01*
X184Y700D01*
X188Y700D01*
X188Y698D01*
X190Y698D01*
X190Y696D01*
X194Y696D01*
X194Y694D01*
X198Y694D01*
X198Y692D01*
X200Y692D01*
X200Y690D01*
X202Y690D01*
X202Y688D01*
X204Y688D01*
X204Y686D01*
X206Y686D01*
X206Y684D01*
X226Y684D01*
X226Y722D01*
X40Y722D01*
G37*
D02*
G36*
X2156Y722D02*
X2156Y706D01*
X2620Y706D01*
X2620Y704D01*
X2628Y704D01*
X2628Y702D01*
X2634Y702D01*
X2634Y700D01*
X2638Y700D01*
X2638Y698D01*
X2640Y698D01*
X2640Y696D01*
X2644Y696D01*
X2644Y694D01*
X2648Y694D01*
X2648Y692D01*
X2650Y692D01*
X2650Y690D01*
X2652Y690D01*
X2652Y688D01*
X2654Y688D01*
X2654Y686D01*
X2656Y686D01*
X2656Y684D01*
X2658Y684D01*
X2658Y682D01*
X2660Y682D01*
X2660Y680D01*
X2662Y680D01*
X2662Y678D01*
X2664Y678D01*
X2664Y674D01*
X2666Y674D01*
X2666Y672D01*
X2668Y672D01*
X2668Y668D01*
X2670Y668D01*
X2670Y664D01*
X2672Y664D01*
X2672Y658D01*
X2674Y658D01*
X2674Y652D01*
X2676Y652D01*
X2676Y638D01*
X2678Y638D01*
X2678Y630D01*
X2676Y630D01*
X2676Y616D01*
X2674Y616D01*
X2674Y610D01*
X2672Y610D01*
X2672Y604D01*
X2670Y604D01*
X2670Y600D01*
X2668Y600D01*
X2668Y598D01*
X2666Y598D01*
X2666Y594D01*
X2664Y594D01*
X2664Y592D01*
X2662Y592D01*
X2662Y588D01*
X2660Y588D01*
X2660Y586D01*
X2658Y586D01*
X2658Y584D01*
X2656Y584D01*
X2656Y582D01*
X2654Y582D01*
X2654Y580D01*
X2652Y580D01*
X2652Y578D01*
X2650Y578D01*
X2650Y576D01*
X2646Y576D01*
X2646Y574D01*
X2644Y574D01*
X2644Y572D01*
X2640Y572D01*
X2640Y570D01*
X2638Y570D01*
X2638Y568D01*
X2634Y568D01*
X2634Y566D01*
X2628Y566D01*
X2628Y564D01*
X2620Y564D01*
X2620Y562D01*
X2714Y562D01*
X2714Y722D01*
X2156Y722D01*
G37*
D02*
G36*
X40Y706D02*
X40Y562D01*
X138Y562D01*
X138Y564D01*
X130Y564D01*
X130Y566D01*
X126Y566D01*
X126Y568D01*
X122Y568D01*
X122Y570D01*
X118Y570D01*
X118Y572D01*
X114Y572D01*
X114Y574D01*
X112Y574D01*
X112Y576D01*
X108Y576D01*
X108Y578D01*
X106Y578D01*
X106Y580D01*
X104Y580D01*
X104Y582D01*
X102Y582D01*
X102Y584D01*
X100Y584D01*
X100Y586D01*
X98Y586D01*
X98Y588D01*
X96Y588D01*
X96Y592D01*
X94Y592D01*
X94Y594D01*
X92Y594D01*
X92Y598D01*
X90Y598D01*
X90Y602D01*
X88Y602D01*
X88Y606D01*
X86Y606D01*
X86Y612D01*
X84Y612D01*
X84Y618D01*
X82Y618D01*
X82Y650D01*
X84Y650D01*
X84Y656D01*
X86Y656D01*
X86Y662D01*
X88Y662D01*
X88Y666D01*
X90Y666D01*
X90Y670D01*
X92Y670D01*
X92Y674D01*
X94Y674D01*
X94Y676D01*
X96Y676D01*
X96Y680D01*
X98Y680D01*
X98Y682D01*
X100Y682D01*
X100Y684D01*
X102Y684D01*
X102Y686D01*
X104Y686D01*
X104Y688D01*
X106Y688D01*
X106Y690D01*
X108Y690D01*
X108Y692D01*
X112Y692D01*
X112Y694D01*
X114Y694D01*
X114Y696D01*
X118Y696D01*
X118Y698D01*
X122Y698D01*
X122Y700D01*
X126Y700D01*
X126Y702D01*
X130Y702D01*
X130Y704D01*
X138Y704D01*
X138Y706D01*
X40Y706D01*
G37*
D02*
G36*
X2156Y706D02*
X2156Y704D01*
X2158Y704D01*
X2158Y702D01*
X2160Y702D01*
X2160Y700D01*
X2162Y700D01*
X2162Y698D01*
X2164Y698D01*
X2164Y696D01*
X2166Y696D01*
X2166Y694D01*
X2168Y694D01*
X2168Y692D01*
X2170Y692D01*
X2170Y690D01*
X2172Y690D01*
X2172Y688D01*
X2174Y688D01*
X2174Y686D01*
X2176Y686D01*
X2176Y684D01*
X2178Y684D01*
X2178Y682D01*
X2180Y682D01*
X2180Y680D01*
X2182Y680D01*
X2182Y678D01*
X2184Y678D01*
X2184Y676D01*
X2186Y676D01*
X2186Y674D01*
X2188Y674D01*
X2188Y672D01*
X2190Y672D01*
X2190Y670D01*
X2192Y670D01*
X2192Y668D01*
X2194Y668D01*
X2194Y666D01*
X2196Y666D01*
X2196Y664D01*
X2210Y664D01*
X2210Y662D01*
X2216Y662D01*
X2216Y660D01*
X2220Y660D01*
X2220Y658D01*
X2222Y658D01*
X2222Y656D01*
X2226Y656D01*
X2226Y652D01*
X2228Y652D01*
X2228Y650D01*
X2230Y650D01*
X2230Y646D01*
X2232Y646D01*
X2232Y640D01*
X2234Y640D01*
X2234Y628D01*
X2232Y628D01*
X2232Y622D01*
X2230Y622D01*
X2230Y618D01*
X2482Y618D01*
X2482Y562D01*
X2588Y562D01*
X2588Y564D01*
X2580Y564D01*
X2580Y566D01*
X2576Y566D01*
X2576Y568D01*
X2572Y568D01*
X2572Y570D01*
X2568Y570D01*
X2568Y572D01*
X2564Y572D01*
X2564Y574D01*
X2562Y574D01*
X2562Y576D01*
X2558Y576D01*
X2558Y578D01*
X2556Y578D01*
X2556Y580D01*
X2554Y580D01*
X2554Y582D01*
X2552Y582D01*
X2552Y584D01*
X2550Y584D01*
X2550Y586D01*
X2548Y586D01*
X2548Y588D01*
X2546Y588D01*
X2546Y592D01*
X2544Y592D01*
X2544Y594D01*
X2542Y594D01*
X2542Y598D01*
X2540Y598D01*
X2540Y602D01*
X2538Y602D01*
X2538Y606D01*
X2536Y606D01*
X2536Y612D01*
X2534Y612D01*
X2534Y618D01*
X2532Y618D01*
X2532Y650D01*
X2534Y650D01*
X2534Y656D01*
X2536Y656D01*
X2536Y662D01*
X2538Y662D01*
X2538Y666D01*
X2540Y666D01*
X2540Y670D01*
X2542Y670D01*
X2542Y674D01*
X2544Y674D01*
X2544Y676D01*
X2546Y676D01*
X2546Y680D01*
X2548Y680D01*
X2548Y682D01*
X2550Y682D01*
X2550Y684D01*
X2552Y684D01*
X2552Y686D01*
X2554Y686D01*
X2554Y688D01*
X2556Y688D01*
X2556Y690D01*
X2558Y690D01*
X2558Y692D01*
X2562Y692D01*
X2562Y694D01*
X2564Y694D01*
X2564Y696D01*
X2568Y696D01*
X2568Y698D01*
X2572Y698D01*
X2572Y700D01*
X2576Y700D01*
X2576Y702D01*
X2580Y702D01*
X2580Y704D01*
X2588Y704D01*
X2588Y706D01*
X2156Y706D01*
G37*
D02*
G36*
X2228Y618D02*
X2228Y616D01*
X2226Y616D01*
X2226Y612D01*
X2222Y612D01*
X2222Y610D01*
X2220Y610D01*
X2220Y608D01*
X2216Y608D01*
X2216Y606D01*
X2210Y606D01*
X2210Y604D01*
X2402Y604D01*
X2402Y618D01*
X2228Y618D01*
G37*
D02*
G36*
X2170Y608D02*
X2170Y604D01*
X2198Y604D01*
X2198Y606D01*
X2192Y606D01*
X2192Y608D01*
X2170Y608D01*
G37*
D02*
G36*
X2170Y604D02*
X2170Y602D01*
X2402Y602D01*
X2402Y604D01*
X2170Y604D01*
G37*
D02*
G36*
X2170Y604D02*
X2170Y602D01*
X2402Y602D01*
X2402Y604D01*
X2170Y604D01*
G37*
D02*
G36*
X2170Y602D02*
X2170Y546D01*
X2402Y546D01*
X2402Y602D01*
X2170Y602D01*
G37*
D02*
G36*
X2034Y568D02*
X2034Y566D01*
X2032Y566D01*
X2032Y564D01*
X2030Y564D01*
X2030Y562D01*
X2028Y562D01*
X2028Y560D01*
X2026Y560D01*
X2026Y558D01*
X2024Y558D01*
X2024Y556D01*
X2022Y556D01*
X2022Y554D01*
X2020Y554D01*
X2020Y552D01*
X2018Y552D01*
X2018Y550D01*
X2016Y550D01*
X2016Y548D01*
X2014Y548D01*
X2014Y546D01*
X2088Y546D01*
X2088Y566D01*
X2072Y566D01*
X2072Y568D01*
X2034Y568D01*
G37*
D02*
G36*
X40Y562D02*
X40Y560D01*
X780Y560D01*
X780Y562D01*
X40Y562D01*
G37*
D02*
G36*
X40Y562D02*
X40Y560D01*
X780Y560D01*
X780Y562D01*
X40Y562D01*
G37*
D02*
G36*
X2482Y562D02*
X2482Y560D01*
X2714Y560D01*
X2714Y562D01*
X2482Y562D01*
G37*
D02*
G36*
X2482Y562D02*
X2482Y560D01*
X2714Y560D01*
X2714Y562D01*
X2482Y562D01*
G37*
D02*
G36*
X40Y560D02*
X40Y544D01*
X620Y544D01*
X620Y526D01*
X760Y526D01*
X760Y524D01*
X764Y524D01*
X764Y522D01*
X766Y522D01*
X766Y520D01*
X768Y520D01*
X768Y518D01*
X770Y518D01*
X770Y516D01*
X772Y516D01*
X772Y514D01*
X774Y514D01*
X774Y512D01*
X776Y512D01*
X776Y510D01*
X778Y510D01*
X778Y508D01*
X780Y508D01*
X780Y506D01*
X782Y506D01*
X782Y504D01*
X784Y504D01*
X784Y502D01*
X786Y502D01*
X786Y500D01*
X788Y500D01*
X788Y498D01*
X790Y498D01*
X790Y496D01*
X792Y496D01*
X792Y494D01*
X794Y494D01*
X794Y492D01*
X796Y492D01*
X796Y490D01*
X798Y490D01*
X798Y488D01*
X800Y488D01*
X800Y486D01*
X802Y486D01*
X802Y484D01*
X804Y484D01*
X804Y482D01*
X806Y482D01*
X806Y480D01*
X808Y480D01*
X808Y478D01*
X810Y478D01*
X810Y476D01*
X812Y476D01*
X812Y474D01*
X814Y474D01*
X814Y472D01*
X816Y472D01*
X816Y470D01*
X818Y470D01*
X818Y468D01*
X820Y468D01*
X820Y466D01*
X822Y466D01*
X822Y464D01*
X824Y464D01*
X824Y462D01*
X826Y462D01*
X826Y460D01*
X828Y460D01*
X828Y458D01*
X830Y458D01*
X830Y456D01*
X832Y456D01*
X832Y454D01*
X834Y454D01*
X834Y452D01*
X836Y452D01*
X836Y450D01*
X838Y450D01*
X838Y448D01*
X840Y448D01*
X840Y446D01*
X842Y446D01*
X842Y444D01*
X844Y444D01*
X844Y442D01*
X846Y442D01*
X846Y440D01*
X848Y440D01*
X848Y438D01*
X850Y438D01*
X850Y436D01*
X852Y436D01*
X852Y434D01*
X854Y434D01*
X854Y432D01*
X856Y432D01*
X856Y430D01*
X858Y430D01*
X858Y428D01*
X860Y428D01*
X860Y426D01*
X862Y426D01*
X862Y424D01*
X864Y424D01*
X864Y422D01*
X866Y422D01*
X866Y420D01*
X868Y420D01*
X868Y418D01*
X870Y418D01*
X870Y416D01*
X872Y416D01*
X872Y414D01*
X874Y414D01*
X874Y412D01*
X876Y412D01*
X876Y410D01*
X878Y410D01*
X878Y408D01*
X880Y408D01*
X880Y406D01*
X882Y406D01*
X882Y404D01*
X884Y404D01*
X884Y402D01*
X886Y402D01*
X886Y400D01*
X888Y400D01*
X888Y398D01*
X890Y398D01*
X890Y396D01*
X892Y396D01*
X892Y394D01*
X894Y394D01*
X894Y392D01*
X896Y392D01*
X896Y390D01*
X898Y390D01*
X898Y388D01*
X900Y388D01*
X900Y386D01*
X902Y386D01*
X902Y384D01*
X904Y384D01*
X904Y382D01*
X906Y382D01*
X906Y380D01*
X908Y380D01*
X908Y378D01*
X910Y378D01*
X910Y376D01*
X912Y376D01*
X912Y374D01*
X914Y374D01*
X914Y372D01*
X916Y372D01*
X916Y370D01*
X918Y370D01*
X918Y368D01*
X920Y368D01*
X920Y366D01*
X940Y366D01*
X940Y368D01*
X938Y368D01*
X938Y374D01*
X936Y374D01*
X936Y406D01*
X934Y406D01*
X934Y408D01*
X932Y408D01*
X932Y410D01*
X930Y410D01*
X930Y412D01*
X928Y412D01*
X928Y414D01*
X926Y414D01*
X926Y416D01*
X924Y416D01*
X924Y418D01*
X922Y418D01*
X922Y420D01*
X920Y420D01*
X920Y422D01*
X918Y422D01*
X918Y424D01*
X916Y424D01*
X916Y426D01*
X914Y426D01*
X914Y428D01*
X912Y428D01*
X912Y430D01*
X910Y430D01*
X910Y432D01*
X908Y432D01*
X908Y434D01*
X906Y434D01*
X906Y436D01*
X904Y436D01*
X904Y438D01*
X902Y438D01*
X902Y440D01*
X900Y440D01*
X900Y442D01*
X898Y442D01*
X898Y444D01*
X896Y444D01*
X896Y446D01*
X894Y446D01*
X894Y448D01*
X892Y448D01*
X892Y450D01*
X890Y450D01*
X890Y452D01*
X888Y452D01*
X888Y454D01*
X886Y454D01*
X886Y456D01*
X884Y456D01*
X884Y458D01*
X882Y458D01*
X882Y460D01*
X880Y460D01*
X880Y462D01*
X878Y462D01*
X878Y464D01*
X876Y464D01*
X876Y466D01*
X874Y466D01*
X874Y468D01*
X872Y468D01*
X872Y470D01*
X870Y470D01*
X870Y472D01*
X868Y472D01*
X868Y474D01*
X866Y474D01*
X866Y476D01*
X864Y476D01*
X864Y478D01*
X862Y478D01*
X862Y480D01*
X860Y480D01*
X860Y482D01*
X858Y482D01*
X858Y484D01*
X856Y484D01*
X856Y486D01*
X854Y486D01*
X854Y488D01*
X852Y488D01*
X852Y490D01*
X850Y490D01*
X850Y492D01*
X848Y492D01*
X848Y494D01*
X846Y494D01*
X846Y496D01*
X844Y496D01*
X844Y498D01*
X842Y498D01*
X842Y500D01*
X840Y500D01*
X840Y502D01*
X838Y502D01*
X838Y504D01*
X836Y504D01*
X836Y506D01*
X834Y506D01*
X834Y508D01*
X832Y508D01*
X832Y510D01*
X830Y510D01*
X830Y512D01*
X828Y512D01*
X828Y514D01*
X826Y514D01*
X826Y516D01*
X824Y516D01*
X824Y518D01*
X822Y518D01*
X822Y520D01*
X820Y520D01*
X820Y522D01*
X818Y522D01*
X818Y524D01*
X816Y524D01*
X816Y526D01*
X814Y526D01*
X814Y528D01*
X812Y528D01*
X812Y530D01*
X810Y530D01*
X810Y532D01*
X808Y532D01*
X808Y534D01*
X806Y534D01*
X806Y536D01*
X804Y536D01*
X804Y538D01*
X802Y538D01*
X802Y540D01*
X800Y540D01*
X800Y542D01*
X798Y542D01*
X798Y544D01*
X796Y544D01*
X796Y546D01*
X794Y546D01*
X794Y548D01*
X792Y548D01*
X792Y550D01*
X790Y550D01*
X790Y552D01*
X788Y552D01*
X788Y554D01*
X786Y554D01*
X786Y556D01*
X784Y556D01*
X784Y558D01*
X782Y558D01*
X782Y560D01*
X40Y560D01*
G37*
D02*
G36*
X2482Y560D02*
X2482Y546D01*
X2714Y546D01*
X2714Y560D01*
X2482Y560D01*
G37*
D02*
G36*
X2012Y546D02*
X2012Y544D01*
X2714Y544D01*
X2714Y546D01*
X2012Y546D01*
G37*
D02*
G36*
X2012Y546D02*
X2012Y544D01*
X2714Y544D01*
X2714Y546D01*
X2012Y546D01*
G37*
D02*
G36*
X2012Y546D02*
X2012Y544D01*
X2714Y544D01*
X2714Y546D01*
X2012Y546D01*
G37*
D02*
G36*
X40Y544D02*
X40Y474D01*
X226Y474D01*
X226Y544D01*
X40Y544D01*
G37*
D02*
G36*
X306Y544D02*
X306Y474D01*
X538Y474D01*
X538Y544D01*
X306Y544D01*
G37*
D02*
G36*
X2010Y544D02*
X2010Y542D01*
X2008Y542D01*
X2008Y540D01*
X2006Y540D01*
X2006Y538D01*
X2004Y538D01*
X2004Y536D01*
X2002Y536D01*
X2002Y534D01*
X2000Y534D01*
X2000Y532D01*
X1998Y532D01*
X1998Y530D01*
X1996Y530D01*
X1996Y528D01*
X1994Y528D01*
X1994Y526D01*
X1992Y526D01*
X1992Y524D01*
X1990Y524D01*
X1990Y522D01*
X2488Y522D01*
X2488Y520D01*
X2640Y520D01*
X2640Y518D01*
X2646Y518D01*
X2646Y516D01*
X2650Y516D01*
X2650Y514D01*
X2654Y514D01*
X2654Y512D01*
X2656Y512D01*
X2656Y510D01*
X2660Y510D01*
X2660Y508D01*
X2662Y508D01*
X2662Y506D01*
X2664Y506D01*
X2664Y504D01*
X2666Y504D01*
X2666Y502D01*
X2668Y502D01*
X2668Y500D01*
X2670Y500D01*
X2670Y496D01*
X2672Y496D01*
X2672Y492D01*
X2674Y492D01*
X2674Y490D01*
X2676Y490D01*
X2676Y484D01*
X2678Y484D01*
X2678Y476D01*
X2680Y476D01*
X2680Y320D01*
X2678Y320D01*
X2678Y312D01*
X2676Y312D01*
X2676Y306D01*
X2674Y306D01*
X2674Y302D01*
X2672Y302D01*
X2672Y298D01*
X2670Y298D01*
X2670Y296D01*
X2668Y296D01*
X2668Y294D01*
X2666Y294D01*
X2666Y290D01*
X2664Y290D01*
X2664Y288D01*
X2660Y288D01*
X2660Y286D01*
X2658Y286D01*
X2658Y284D01*
X2656Y284D01*
X2656Y282D01*
X2652Y282D01*
X2652Y280D01*
X2648Y280D01*
X2648Y278D01*
X2644Y278D01*
X2644Y276D01*
X2634Y276D01*
X2634Y274D01*
X2632Y274D01*
X2632Y254D01*
X2630Y254D01*
X2630Y252D01*
X2628Y252D01*
X2628Y250D01*
X2626Y250D01*
X2626Y248D01*
X2624Y248D01*
X2624Y228D01*
X2630Y228D01*
X2630Y226D01*
X2636Y226D01*
X2636Y224D01*
X2640Y224D01*
X2640Y222D01*
X2642Y222D01*
X2642Y220D01*
X2646Y220D01*
X2646Y218D01*
X2648Y218D01*
X2648Y216D01*
X2652Y216D01*
X2652Y214D01*
X2654Y214D01*
X2654Y212D01*
X2656Y212D01*
X2656Y210D01*
X2658Y210D01*
X2658Y208D01*
X2660Y208D01*
X2660Y204D01*
X2662Y204D01*
X2662Y202D01*
X2664Y202D01*
X2664Y200D01*
X2666Y200D01*
X2666Y196D01*
X2668Y196D01*
X2668Y192D01*
X2688Y192D01*
X2688Y194D01*
X2690Y194D01*
X2690Y198D01*
X2692Y198D01*
X2692Y202D01*
X2694Y202D01*
X2694Y208D01*
X2696Y208D01*
X2696Y212D01*
X2698Y212D01*
X2698Y218D01*
X2700Y218D01*
X2700Y224D01*
X2702Y224D01*
X2702Y228D01*
X2704Y228D01*
X2704Y236D01*
X2706Y236D01*
X2706Y242D01*
X2708Y242D01*
X2708Y250D01*
X2710Y250D01*
X2710Y260D01*
X2712Y260D01*
X2712Y272D01*
X2714Y272D01*
X2714Y544D01*
X2010Y544D01*
G37*
D02*
G36*
X1988Y522D02*
X1988Y520D01*
X1986Y520D01*
X1986Y518D01*
X1984Y518D01*
X1984Y516D01*
X1982Y516D01*
X1982Y514D01*
X1980Y514D01*
X1980Y512D01*
X1978Y512D01*
X1978Y510D01*
X1976Y510D01*
X1976Y508D01*
X1974Y508D01*
X1974Y506D01*
X1972Y506D01*
X1972Y472D01*
X1970Y472D01*
X1970Y466D01*
X1968Y466D01*
X1968Y462D01*
X1966Y462D01*
X1966Y460D01*
X1964Y460D01*
X1964Y458D01*
X2340Y458D01*
X2340Y456D01*
X2346Y456D01*
X2346Y454D01*
X2352Y454D01*
X2352Y452D01*
X2354Y452D01*
X2354Y450D01*
X2358Y450D01*
X2358Y448D01*
X2360Y448D01*
X2360Y446D01*
X2362Y446D01*
X2362Y444D01*
X2364Y444D01*
X2364Y442D01*
X2366Y442D01*
X2366Y440D01*
X2368Y440D01*
X2368Y438D01*
X2370Y438D01*
X2370Y434D01*
X2372Y434D01*
X2372Y432D01*
X2374Y432D01*
X2374Y428D01*
X2376Y428D01*
X2376Y420D01*
X2378Y420D01*
X2378Y398D01*
X2376Y398D01*
X2376Y390D01*
X2374Y390D01*
X2374Y386D01*
X2372Y386D01*
X2372Y384D01*
X2370Y384D01*
X2370Y380D01*
X2368Y380D01*
X2368Y378D01*
X2366Y378D01*
X2366Y376D01*
X2364Y376D01*
X2364Y374D01*
X2362Y374D01*
X2362Y372D01*
X2360Y372D01*
X2360Y370D01*
X2358Y370D01*
X2358Y368D01*
X2354Y368D01*
X2354Y366D01*
X2352Y366D01*
X2352Y364D01*
X2346Y364D01*
X2346Y362D01*
X2340Y362D01*
X2340Y360D01*
X2434Y360D01*
X2434Y480D01*
X2436Y480D01*
X2436Y488D01*
X2438Y488D01*
X2438Y492D01*
X2440Y492D01*
X2440Y494D01*
X2442Y494D01*
X2442Y498D01*
X2444Y498D01*
X2444Y500D01*
X2446Y500D01*
X2446Y502D01*
X2448Y502D01*
X2448Y506D01*
X2452Y506D01*
X2452Y508D01*
X2454Y508D01*
X2454Y510D01*
X2456Y510D01*
X2456Y512D01*
X2460Y512D01*
X2460Y514D01*
X2462Y514D01*
X2462Y516D01*
X2466Y516D01*
X2466Y518D01*
X2474Y518D01*
X2474Y520D01*
X2484Y520D01*
X2484Y522D01*
X1988Y522D01*
G37*
D02*
G36*
X620Y494D02*
X620Y474D01*
X766Y474D01*
X766Y476D01*
X764Y476D01*
X764Y478D01*
X762Y478D01*
X762Y480D01*
X760Y480D01*
X760Y482D01*
X758Y482D01*
X758Y484D01*
X756Y484D01*
X756Y486D01*
X754Y486D01*
X754Y488D01*
X752Y488D01*
X752Y490D01*
X750Y490D01*
X750Y492D01*
X748Y492D01*
X748Y494D01*
X620Y494D01*
G37*
D02*
G36*
X40Y474D02*
X40Y472D01*
X768Y472D01*
X768Y474D01*
X40Y474D01*
G37*
D02*
G36*
X40Y474D02*
X40Y472D01*
X768Y472D01*
X768Y474D01*
X40Y474D01*
G37*
D02*
G36*
X40Y474D02*
X40Y472D01*
X768Y472D01*
X768Y474D01*
X40Y474D01*
G37*
D02*
G36*
X40Y472D02*
X40Y458D01*
X440Y458D01*
X440Y456D01*
X446Y456D01*
X446Y454D01*
X452Y454D01*
X452Y452D01*
X454Y452D01*
X454Y450D01*
X458Y450D01*
X458Y448D01*
X460Y448D01*
X460Y446D01*
X462Y446D01*
X462Y444D01*
X464Y444D01*
X464Y442D01*
X466Y442D01*
X466Y440D01*
X468Y440D01*
X468Y438D01*
X470Y438D01*
X470Y434D01*
X472Y434D01*
X472Y432D01*
X474Y432D01*
X474Y428D01*
X476Y428D01*
X476Y420D01*
X478Y420D01*
X478Y398D01*
X476Y398D01*
X476Y390D01*
X474Y390D01*
X474Y386D01*
X472Y386D01*
X472Y384D01*
X470Y384D01*
X470Y380D01*
X468Y380D01*
X468Y378D01*
X466Y378D01*
X466Y376D01*
X464Y376D01*
X464Y374D01*
X462Y374D01*
X462Y372D01*
X460Y372D01*
X460Y370D01*
X458Y370D01*
X458Y368D01*
X454Y368D01*
X454Y366D01*
X452Y366D01*
X452Y364D01*
X446Y364D01*
X446Y362D01*
X440Y362D01*
X440Y360D01*
X420Y360D01*
X420Y314D01*
X536Y314D01*
X536Y312D01*
X542Y312D01*
X542Y310D01*
X546Y310D01*
X546Y308D01*
X548Y308D01*
X548Y306D01*
X550Y306D01*
X550Y304D01*
X552Y304D01*
X552Y302D01*
X554Y302D01*
X554Y298D01*
X556Y298D01*
X556Y294D01*
X558Y294D01*
X558Y274D01*
X556Y274D01*
X556Y270D01*
X800Y270D01*
X800Y200D01*
X824Y200D01*
X824Y202D01*
X826Y202D01*
X826Y204D01*
X828Y204D01*
X828Y206D01*
X830Y206D01*
X830Y208D01*
X832Y208D01*
X832Y210D01*
X834Y210D01*
X834Y212D01*
X836Y212D01*
X836Y214D01*
X838Y214D01*
X838Y216D01*
X840Y216D01*
X840Y218D01*
X842Y218D01*
X842Y220D01*
X844Y220D01*
X844Y222D01*
X846Y222D01*
X846Y224D01*
X848Y224D01*
X848Y226D01*
X850Y226D01*
X850Y228D01*
X852Y228D01*
X852Y230D01*
X854Y230D01*
X854Y232D01*
X856Y232D01*
X856Y234D01*
X858Y234D01*
X858Y236D01*
X864Y236D01*
X864Y238D01*
X946Y238D01*
X946Y258D01*
X944Y258D01*
X944Y260D01*
X942Y260D01*
X942Y264D01*
X940Y264D01*
X940Y268D01*
X938Y268D01*
X938Y274D01*
X936Y274D01*
X936Y306D01*
X934Y306D01*
X934Y308D01*
X932Y308D01*
X932Y310D01*
X930Y310D01*
X930Y312D01*
X928Y312D01*
X928Y314D01*
X926Y314D01*
X926Y316D01*
X924Y316D01*
X924Y318D01*
X922Y318D01*
X922Y320D01*
X920Y320D01*
X920Y322D01*
X918Y322D01*
X918Y324D01*
X916Y324D01*
X916Y326D01*
X914Y326D01*
X914Y328D01*
X912Y328D01*
X912Y330D01*
X910Y330D01*
X910Y332D01*
X908Y332D01*
X908Y334D01*
X906Y334D01*
X906Y336D01*
X904Y336D01*
X904Y338D01*
X902Y338D01*
X902Y340D01*
X900Y340D01*
X900Y342D01*
X898Y342D01*
X898Y344D01*
X896Y344D01*
X896Y346D01*
X894Y346D01*
X894Y348D01*
X892Y348D01*
X892Y350D01*
X890Y350D01*
X890Y352D01*
X888Y352D01*
X888Y354D01*
X886Y354D01*
X886Y356D01*
X884Y356D01*
X884Y358D01*
X882Y358D01*
X882Y360D01*
X880Y360D01*
X880Y362D01*
X878Y362D01*
X878Y364D01*
X876Y364D01*
X876Y366D01*
X874Y366D01*
X874Y368D01*
X872Y368D01*
X872Y370D01*
X870Y370D01*
X870Y372D01*
X868Y372D01*
X868Y374D01*
X866Y374D01*
X866Y376D01*
X864Y376D01*
X864Y378D01*
X862Y378D01*
X862Y380D01*
X860Y380D01*
X860Y382D01*
X858Y382D01*
X858Y384D01*
X856Y384D01*
X856Y386D01*
X854Y386D01*
X854Y388D01*
X852Y388D01*
X852Y390D01*
X850Y390D01*
X850Y392D01*
X848Y392D01*
X848Y394D01*
X846Y394D01*
X846Y396D01*
X844Y396D01*
X844Y398D01*
X842Y398D01*
X842Y400D01*
X840Y400D01*
X840Y402D01*
X838Y402D01*
X838Y404D01*
X836Y404D01*
X836Y406D01*
X834Y406D01*
X834Y408D01*
X832Y408D01*
X832Y410D01*
X830Y410D01*
X830Y412D01*
X828Y412D01*
X828Y414D01*
X826Y414D01*
X826Y416D01*
X824Y416D01*
X824Y418D01*
X822Y418D01*
X822Y420D01*
X820Y420D01*
X820Y422D01*
X818Y422D01*
X818Y424D01*
X816Y424D01*
X816Y426D01*
X814Y426D01*
X814Y428D01*
X812Y428D01*
X812Y430D01*
X810Y430D01*
X810Y432D01*
X808Y432D01*
X808Y434D01*
X806Y434D01*
X806Y436D01*
X804Y436D01*
X804Y438D01*
X802Y438D01*
X802Y440D01*
X800Y440D01*
X800Y442D01*
X798Y442D01*
X798Y444D01*
X796Y444D01*
X796Y446D01*
X794Y446D01*
X794Y448D01*
X792Y448D01*
X792Y450D01*
X790Y450D01*
X790Y452D01*
X788Y452D01*
X788Y454D01*
X786Y454D01*
X786Y456D01*
X784Y456D01*
X784Y458D01*
X782Y458D01*
X782Y460D01*
X780Y460D01*
X780Y462D01*
X778Y462D01*
X778Y464D01*
X776Y464D01*
X776Y466D01*
X774Y466D01*
X774Y468D01*
X772Y468D01*
X772Y470D01*
X770Y470D01*
X770Y472D01*
X40Y472D01*
G37*
D02*
G36*
X40Y458D02*
X40Y288D01*
X42Y288D01*
X42Y272D01*
X44Y272D01*
X44Y260D01*
X46Y260D01*
X46Y250D01*
X48Y250D01*
X48Y242D01*
X50Y242D01*
X50Y236D01*
X52Y236D01*
X52Y232D01*
X166Y232D01*
X166Y230D01*
X174Y230D01*
X174Y228D01*
X180Y228D01*
X180Y226D01*
X186Y226D01*
X186Y224D01*
X190Y224D01*
X190Y222D01*
X192Y222D01*
X192Y220D01*
X196Y220D01*
X196Y218D01*
X198Y218D01*
X198Y216D01*
X202Y216D01*
X202Y214D01*
X204Y214D01*
X204Y212D01*
X206Y212D01*
X206Y210D01*
X208Y210D01*
X208Y208D01*
X210Y208D01*
X210Y204D01*
X212Y204D01*
X212Y202D01*
X214Y202D01*
X214Y200D01*
X216Y200D01*
X216Y196D01*
X218Y196D01*
X218Y192D01*
X220Y192D01*
X220Y188D01*
X222Y188D01*
X222Y184D01*
X224Y184D01*
X224Y176D01*
X226Y176D01*
X226Y164D01*
X228Y164D01*
X228Y158D01*
X320Y158D01*
X320Y210D01*
X380Y210D01*
X380Y248D01*
X388Y248D01*
X388Y384D01*
X386Y384D01*
X386Y388D01*
X384Y388D01*
X384Y392D01*
X382Y392D01*
X382Y400D01*
X380Y400D01*
X380Y418D01*
X382Y418D01*
X382Y426D01*
X384Y426D01*
X384Y430D01*
X386Y430D01*
X386Y434D01*
X388Y434D01*
X388Y438D01*
X390Y438D01*
X390Y440D01*
X392Y440D01*
X392Y442D01*
X394Y442D01*
X394Y444D01*
X396Y444D01*
X396Y446D01*
X398Y446D01*
X398Y448D01*
X400Y448D01*
X400Y450D01*
X404Y450D01*
X404Y452D01*
X408Y452D01*
X408Y454D01*
X412Y454D01*
X412Y456D01*
X418Y456D01*
X418Y458D01*
X40Y458D01*
G37*
D02*
G36*
X1962Y458D02*
X1962Y454D01*
X1960Y454D01*
X1960Y452D01*
X1958Y452D01*
X1958Y450D01*
X1954Y450D01*
X1954Y448D01*
X1952Y448D01*
X1952Y446D01*
X1948Y446D01*
X1948Y444D01*
X1944Y444D01*
X1944Y424D01*
X1948Y424D01*
X1948Y422D01*
X1952Y422D01*
X1952Y420D01*
X1954Y420D01*
X1954Y418D01*
X1958Y418D01*
X1958Y416D01*
X1960Y416D01*
X1960Y414D01*
X1962Y414D01*
X1962Y412D01*
X1964Y412D01*
X1964Y408D01*
X1966Y408D01*
X1966Y406D01*
X1968Y406D01*
X1968Y402D01*
X1970Y402D01*
X1970Y396D01*
X1972Y396D01*
X1972Y372D01*
X1970Y372D01*
X1970Y366D01*
X1968Y366D01*
X1968Y362D01*
X1966Y362D01*
X1966Y360D01*
X2318Y360D01*
X2318Y362D01*
X2312Y362D01*
X2312Y364D01*
X2308Y364D01*
X2308Y366D01*
X2304Y366D01*
X2304Y368D01*
X2300Y368D01*
X2300Y370D01*
X2298Y370D01*
X2298Y372D01*
X2296Y372D01*
X2296Y374D01*
X2294Y374D01*
X2294Y376D01*
X2292Y376D01*
X2292Y378D01*
X2290Y378D01*
X2290Y380D01*
X2288Y380D01*
X2288Y384D01*
X2286Y384D01*
X2286Y388D01*
X2284Y388D01*
X2284Y392D01*
X2282Y392D01*
X2282Y400D01*
X2280Y400D01*
X2280Y418D01*
X2282Y418D01*
X2282Y426D01*
X2284Y426D01*
X2284Y430D01*
X2286Y430D01*
X2286Y434D01*
X2288Y434D01*
X2288Y438D01*
X2290Y438D01*
X2290Y440D01*
X2292Y440D01*
X2292Y442D01*
X2294Y442D01*
X2294Y444D01*
X2296Y444D01*
X2296Y446D01*
X2298Y446D01*
X2298Y448D01*
X2300Y448D01*
X2300Y450D01*
X2304Y450D01*
X2304Y452D01*
X2308Y452D01*
X2308Y454D01*
X2312Y454D01*
X2312Y456D01*
X2318Y456D01*
X2318Y458D01*
X1962Y458D01*
G37*
D02*
G36*
X1964Y360D02*
X1964Y358D01*
X2434Y358D01*
X2434Y360D01*
X1964Y360D01*
G37*
D02*
G36*
X1964Y360D02*
X1964Y358D01*
X2434Y358D01*
X2434Y360D01*
X1964Y360D01*
G37*
D02*
G36*
X1962Y358D02*
X1962Y354D01*
X1960Y354D01*
X1960Y352D01*
X1958Y352D01*
X1958Y350D01*
X1954Y350D01*
X1954Y348D01*
X1952Y348D01*
X1952Y346D01*
X1948Y346D01*
X1948Y344D01*
X1944Y344D01*
X1944Y326D01*
X2312Y326D01*
X2312Y324D01*
X2318Y324D01*
X2318Y322D01*
X2320Y322D01*
X2320Y320D01*
X2324Y320D01*
X2324Y318D01*
X2326Y318D01*
X2326Y316D01*
X2328Y316D01*
X2328Y312D01*
X2330Y312D01*
X2330Y310D01*
X2332Y310D01*
X2332Y304D01*
X2334Y304D01*
X2334Y290D01*
X2332Y290D01*
X2332Y284D01*
X2330Y284D01*
X2330Y280D01*
X2328Y280D01*
X2328Y260D01*
X2360Y260D01*
X2360Y258D01*
X2362Y258D01*
X2362Y246D01*
X2492Y246D01*
X2492Y248D01*
X2488Y248D01*
X2488Y250D01*
X2484Y250D01*
X2484Y252D01*
X2482Y252D01*
X2482Y256D01*
X2480Y256D01*
X2480Y274D01*
X2478Y274D01*
X2478Y276D01*
X2470Y276D01*
X2470Y278D01*
X2464Y278D01*
X2464Y280D01*
X2462Y280D01*
X2462Y282D01*
X2458Y282D01*
X2458Y284D01*
X2454Y284D01*
X2454Y286D01*
X2452Y286D01*
X2452Y288D01*
X2450Y288D01*
X2450Y290D01*
X2448Y290D01*
X2448Y292D01*
X2446Y292D01*
X2446Y294D01*
X2444Y294D01*
X2444Y296D01*
X2442Y296D01*
X2442Y300D01*
X2440Y300D01*
X2440Y304D01*
X2438Y304D01*
X2438Y308D01*
X2436Y308D01*
X2436Y314D01*
X2434Y314D01*
X2434Y358D01*
X1962Y358D01*
G37*
D02*
G36*
X1944Y326D02*
X1944Y324D01*
X1948Y324D01*
X1948Y322D01*
X1952Y322D01*
X1952Y320D01*
X1954Y320D01*
X1954Y318D01*
X1958Y318D01*
X1958Y316D01*
X1960Y316D01*
X1960Y314D01*
X1962Y314D01*
X1962Y312D01*
X1964Y312D01*
X1964Y308D01*
X1966Y308D01*
X1966Y306D01*
X1968Y306D01*
X1968Y302D01*
X1970Y302D01*
X1970Y296D01*
X1972Y296D01*
X1972Y272D01*
X1970Y272D01*
X1970Y266D01*
X1968Y266D01*
X1968Y262D01*
X1966Y262D01*
X1966Y260D01*
X1964Y260D01*
X1964Y258D01*
X1962Y258D01*
X1962Y238D01*
X2224Y238D01*
X2224Y258D01*
X2226Y258D01*
X2226Y260D01*
X2230Y260D01*
X2230Y282D01*
X2228Y282D01*
X2228Y284D01*
X2226Y284D01*
X2226Y292D01*
X2224Y292D01*
X2224Y300D01*
X2226Y300D01*
X2226Y308D01*
X2228Y308D01*
X2228Y312D01*
X2230Y312D01*
X2230Y314D01*
X2232Y314D01*
X2232Y318D01*
X2236Y318D01*
X2236Y320D01*
X2238Y320D01*
X2238Y322D01*
X2242Y322D01*
X2242Y324D01*
X2246Y324D01*
X2246Y326D01*
X1944Y326D01*
G37*
D02*
G36*
X2262Y326D02*
X2262Y324D01*
X2268Y324D01*
X2268Y322D01*
X2292Y322D01*
X2292Y324D01*
X2296Y324D01*
X2296Y326D01*
X2262Y326D01*
G37*
D02*
G36*
X420Y314D02*
X420Y248D01*
X428Y248D01*
X428Y168D01*
X440Y168D01*
X440Y166D01*
X446Y166D01*
X446Y164D01*
X450Y164D01*
X450Y162D01*
X452Y162D01*
X452Y160D01*
X454Y160D01*
X454Y158D01*
X456Y158D01*
X456Y154D01*
X458Y154D01*
X458Y152D01*
X460Y152D01*
X460Y144D01*
X462Y144D01*
X462Y136D01*
X460Y136D01*
X460Y130D01*
X458Y130D01*
X458Y126D01*
X456Y126D01*
X456Y122D01*
X454Y122D01*
X454Y120D01*
X452Y120D01*
X452Y118D01*
X448Y118D01*
X448Y116D01*
X444Y116D01*
X444Y114D01*
X438Y114D01*
X438Y112D01*
X548Y112D01*
X548Y114D01*
X540Y114D01*
X540Y116D01*
X536Y116D01*
X536Y118D01*
X534Y118D01*
X534Y120D01*
X532Y120D01*
X532Y122D01*
X530Y122D01*
X530Y124D01*
X528Y124D01*
X528Y128D01*
X526Y128D01*
X526Y134D01*
X524Y134D01*
X524Y146D01*
X526Y146D01*
X526Y170D01*
X498Y170D01*
X498Y248D01*
X506Y248D01*
X506Y268D01*
X504Y268D01*
X504Y270D01*
X502Y270D01*
X502Y276D01*
X500Y276D01*
X500Y292D01*
X502Y292D01*
X502Y298D01*
X504Y298D01*
X504Y300D01*
X506Y300D01*
X506Y304D01*
X508Y304D01*
X508Y306D01*
X510Y306D01*
X510Y308D01*
X514Y308D01*
X514Y310D01*
X516Y310D01*
X516Y312D01*
X524Y312D01*
X524Y314D01*
X420Y314D01*
G37*
D02*
G36*
X554Y270D02*
X554Y266D01*
X552Y266D01*
X552Y264D01*
X550Y264D01*
X550Y262D01*
X548Y262D01*
X548Y260D01*
X546Y260D01*
X546Y248D01*
X572Y248D01*
X572Y250D01*
X684Y250D01*
X684Y270D01*
X554Y270D01*
G37*
D02*
G36*
X724Y270D02*
X724Y268D01*
X726Y268D01*
X726Y200D01*
X758Y200D01*
X758Y270D01*
X724Y270D01*
G37*
D02*
G36*
X2546Y248D02*
X2546Y246D01*
X2566Y246D01*
X2566Y248D01*
X2546Y248D01*
G37*
D02*
G36*
X2362Y246D02*
X2362Y244D01*
X2578Y244D01*
X2578Y246D01*
X2362Y246D01*
G37*
D02*
G36*
X2362Y246D02*
X2362Y244D01*
X2578Y244D01*
X2578Y246D01*
X2362Y246D01*
G37*
D02*
G36*
X2362Y244D02*
X2362Y206D01*
X2372Y206D01*
X2372Y204D01*
X2378Y204D01*
X2378Y202D01*
X2380Y202D01*
X2380Y200D01*
X2382Y200D01*
X2382Y198D01*
X2384Y198D01*
X2384Y196D01*
X2386Y196D01*
X2386Y192D01*
X2388Y192D01*
X2388Y176D01*
X2386Y176D01*
X2386Y172D01*
X2384Y172D01*
X2384Y170D01*
X2382Y170D01*
X2382Y168D01*
X2380Y168D01*
X2380Y166D01*
X2376Y166D01*
X2376Y164D01*
X2496Y164D01*
X2496Y70D01*
X2470Y70D01*
X2470Y68D01*
X2468Y68D01*
X2468Y66D01*
X2466Y66D01*
X2466Y62D01*
X2464Y62D01*
X2464Y44D01*
X2492Y44D01*
X2492Y46D01*
X2502Y46D01*
X2502Y48D01*
X2510Y48D01*
X2510Y50D01*
X2518Y50D01*
X2518Y52D01*
X2524Y52D01*
X2524Y54D01*
X2530Y54D01*
X2530Y56D01*
X2536Y56D01*
X2536Y58D01*
X2542Y58D01*
X2542Y60D01*
X2546Y60D01*
X2546Y62D01*
X2552Y62D01*
X2552Y64D01*
X2556Y64D01*
X2556Y66D01*
X2560Y66D01*
X2560Y68D01*
X2564Y68D01*
X2564Y70D01*
X2568Y70D01*
X2568Y72D01*
X2572Y72D01*
X2572Y74D01*
X2574Y74D01*
X2574Y94D01*
X2570Y94D01*
X2570Y96D01*
X2566Y96D01*
X2566Y98D01*
X2562Y98D01*
X2562Y100D01*
X2560Y100D01*
X2560Y102D01*
X2558Y102D01*
X2558Y104D01*
X2556Y104D01*
X2556Y106D01*
X2554Y106D01*
X2554Y108D01*
X2552Y108D01*
X2552Y110D01*
X2550Y110D01*
X2550Y112D01*
X2548Y112D01*
X2548Y114D01*
X2546Y114D01*
X2546Y116D01*
X2544Y116D01*
X2544Y120D01*
X2542Y120D01*
X2542Y122D01*
X2540Y122D01*
X2540Y126D01*
X2538Y126D01*
X2538Y130D01*
X2536Y130D01*
X2536Y136D01*
X2534Y136D01*
X2534Y144D01*
X2532Y144D01*
X2532Y174D01*
X2534Y174D01*
X2534Y182D01*
X2536Y182D01*
X2536Y188D01*
X2538Y188D01*
X2538Y192D01*
X2540Y192D01*
X2540Y196D01*
X2542Y196D01*
X2542Y198D01*
X2544Y198D01*
X2544Y202D01*
X2546Y202D01*
X2546Y204D01*
X2548Y204D01*
X2548Y206D01*
X2550Y206D01*
X2550Y208D01*
X2552Y208D01*
X2552Y210D01*
X2554Y210D01*
X2554Y212D01*
X2556Y212D01*
X2556Y214D01*
X2558Y214D01*
X2558Y216D01*
X2560Y216D01*
X2560Y218D01*
X2562Y218D01*
X2562Y220D01*
X2566Y220D01*
X2566Y222D01*
X2570Y222D01*
X2570Y224D01*
X2574Y224D01*
X2574Y226D01*
X2578Y226D01*
X2578Y244D01*
X2362Y244D01*
G37*
D02*
G36*
X52Y232D02*
X52Y228D01*
X54Y228D01*
X54Y222D01*
X56Y222D01*
X56Y218D01*
X58Y218D01*
X58Y212D01*
X60Y212D01*
X60Y208D01*
X62Y208D01*
X62Y202D01*
X64Y202D01*
X64Y198D01*
X66Y198D01*
X66Y194D01*
X68Y194D01*
X68Y190D01*
X88Y190D01*
X88Y192D01*
X90Y192D01*
X90Y196D01*
X92Y196D01*
X92Y198D01*
X94Y198D01*
X94Y202D01*
X96Y202D01*
X96Y204D01*
X98Y204D01*
X98Y206D01*
X100Y206D01*
X100Y208D01*
X102Y208D01*
X102Y210D01*
X104Y210D01*
X104Y212D01*
X106Y212D01*
X106Y214D01*
X108Y214D01*
X108Y216D01*
X110Y216D01*
X110Y218D01*
X112Y218D01*
X112Y220D01*
X116Y220D01*
X116Y222D01*
X120Y222D01*
X120Y224D01*
X124Y224D01*
X124Y226D01*
X128Y226D01*
X128Y228D01*
X134Y228D01*
X134Y230D01*
X142Y230D01*
X142Y232D01*
X52Y232D01*
G37*
D02*
G36*
X872Y206D02*
X872Y204D01*
X870Y204D01*
X870Y202D01*
X868Y202D01*
X868Y200D01*
X866Y200D01*
X866Y198D01*
X864Y198D01*
X864Y196D01*
X862Y196D01*
X862Y194D01*
X860Y194D01*
X860Y192D01*
X858Y192D01*
X858Y190D01*
X856Y190D01*
X856Y188D01*
X854Y188D01*
X854Y186D01*
X852Y186D01*
X852Y184D01*
X850Y184D01*
X850Y182D01*
X848Y182D01*
X848Y180D01*
X846Y180D01*
X846Y178D01*
X844Y178D01*
X844Y176D01*
X842Y176D01*
X842Y174D01*
X840Y174D01*
X840Y172D01*
X838Y172D01*
X838Y170D01*
X832Y170D01*
X832Y168D01*
X800Y168D01*
X800Y164D01*
X2180Y164D01*
X2180Y162D01*
X2212Y162D01*
X2212Y164D01*
X2206Y164D01*
X2206Y166D01*
X2204Y166D01*
X2204Y168D01*
X2202Y168D01*
X2202Y170D01*
X2200Y170D01*
X2200Y172D01*
X2198Y172D01*
X2198Y176D01*
X2196Y176D01*
X2196Y206D01*
X872Y206D01*
G37*
D02*
G36*
X2238Y184D02*
X2238Y176D01*
X2236Y176D01*
X2236Y172D01*
X2234Y172D01*
X2234Y170D01*
X2232Y170D01*
X2232Y168D01*
X2230Y168D01*
X2230Y166D01*
X2226Y166D01*
X2226Y164D01*
X2222Y164D01*
X2222Y162D01*
X2362Y162D01*
X2362Y164D01*
X2356Y164D01*
X2356Y166D01*
X2354Y166D01*
X2354Y168D01*
X2352Y168D01*
X2352Y170D01*
X2350Y170D01*
X2350Y172D01*
X2348Y172D01*
X2348Y176D01*
X2346Y176D01*
X2346Y184D01*
X2238Y184D01*
G37*
D02*
G36*
X378Y170D02*
X378Y158D01*
X408Y158D01*
X408Y170D01*
X378Y170D01*
G37*
D02*
G36*
X578Y170D02*
X578Y146D01*
X580Y146D01*
X580Y136D01*
X578Y136D01*
X578Y128D01*
X576Y128D01*
X576Y126D01*
X574Y126D01*
X574Y122D01*
X572Y122D01*
X572Y120D01*
X570Y120D01*
X570Y118D01*
X566Y118D01*
X566Y116D01*
X562Y116D01*
X562Y114D01*
X556Y114D01*
X556Y112D01*
X606Y112D01*
X606Y122D01*
X684Y122D01*
X684Y158D01*
X606Y158D01*
X606Y170D01*
X578Y170D01*
G37*
D02*
G36*
X800Y164D02*
X800Y100D01*
X666Y100D01*
X666Y78D01*
X2090Y78D01*
X2090Y164D01*
X800Y164D01*
G37*
D02*
G36*
X2372Y164D02*
X2372Y162D01*
X2404Y162D01*
X2404Y164D01*
X2372Y164D01*
G37*
D02*
G36*
X2180Y162D02*
X2180Y160D01*
X2404Y160D01*
X2404Y162D01*
X2180Y162D01*
G37*
D02*
G36*
X2180Y162D02*
X2180Y160D01*
X2404Y160D01*
X2404Y162D01*
X2180Y162D01*
G37*
D02*
G36*
X2180Y162D02*
X2180Y160D01*
X2404Y160D01*
X2404Y162D01*
X2180Y162D01*
G37*
D02*
G36*
X2180Y160D02*
X2180Y138D01*
X2182Y138D01*
X2182Y136D01*
X2184Y136D01*
X2184Y134D01*
X2188Y134D01*
X2188Y132D01*
X2190Y132D01*
X2190Y130D01*
X2192Y130D01*
X2192Y126D01*
X2194Y126D01*
X2194Y124D01*
X2196Y124D01*
X2196Y120D01*
X2198Y120D01*
X2198Y118D01*
X2200Y118D01*
X2200Y112D01*
X2202Y112D01*
X2202Y104D01*
X2204Y104D01*
X2204Y90D01*
X2202Y90D01*
X2202Y82D01*
X2200Y82D01*
X2200Y76D01*
X2198Y76D01*
X2198Y72D01*
X2196Y72D01*
X2196Y68D01*
X2194Y68D01*
X2194Y66D01*
X2192Y66D01*
X2192Y64D01*
X2190Y64D01*
X2190Y62D01*
X2188Y62D01*
X2188Y42D01*
X2396Y42D01*
X2396Y62D01*
X2394Y62D01*
X2394Y64D01*
X2392Y64D01*
X2392Y66D01*
X2390Y66D01*
X2390Y68D01*
X2388Y68D01*
X2388Y72D01*
X2386Y72D01*
X2386Y76D01*
X2384Y76D01*
X2384Y80D01*
X2382Y80D01*
X2382Y86D01*
X2380Y86D01*
X2380Y106D01*
X2382Y106D01*
X2382Y114D01*
X2384Y114D01*
X2384Y118D01*
X2386Y118D01*
X2386Y122D01*
X2388Y122D01*
X2388Y124D01*
X2390Y124D01*
X2390Y128D01*
X2392Y128D01*
X2392Y130D01*
X2394Y130D01*
X2394Y132D01*
X2396Y132D01*
X2396Y134D01*
X2398Y134D01*
X2398Y136D01*
X2402Y136D01*
X2402Y138D01*
X2404Y138D01*
X2404Y160D01*
X2180Y160D01*
G37*
D02*
G36*
X228Y158D02*
X228Y156D01*
X408Y156D01*
X408Y158D01*
X228Y158D01*
G37*
D02*
G36*
X228Y158D02*
X228Y156D01*
X408Y156D01*
X408Y158D01*
X228Y158D01*
G37*
D02*
G36*
X228Y156D02*
X228Y154D01*
X226Y154D01*
X226Y142D01*
X224Y142D01*
X224Y134D01*
X222Y134D01*
X222Y130D01*
X220Y130D01*
X220Y126D01*
X218Y126D01*
X218Y122D01*
X378Y122D01*
X378Y112D01*
X428Y112D01*
X428Y114D01*
X422Y114D01*
X422Y116D01*
X418Y116D01*
X418Y118D01*
X416Y118D01*
X416Y120D01*
X414Y120D01*
X414Y122D01*
X412Y122D01*
X412Y124D01*
X410Y124D01*
X410Y128D01*
X408Y128D01*
X408Y134D01*
X406Y134D01*
X406Y146D01*
X408Y146D01*
X408Y156D01*
X228Y156D01*
G37*
D02*
G36*
X216Y122D02*
X216Y118D01*
X214Y118D01*
X214Y116D01*
X212Y116D01*
X212Y114D01*
X210Y114D01*
X210Y110D01*
X208Y110D01*
X208Y108D01*
X206Y108D01*
X206Y106D01*
X204Y106D01*
X204Y104D01*
X200Y104D01*
X200Y102D01*
X198Y102D01*
X198Y100D01*
X196Y100D01*
X196Y98D01*
X192Y98D01*
X192Y96D01*
X190Y96D01*
X190Y94D01*
X186Y94D01*
X186Y92D01*
X184Y92D01*
X184Y78D01*
X320Y78D01*
X320Y122D01*
X216Y122D01*
G37*
D02*
G36*
X378Y112D02*
X378Y110D01*
X606Y110D01*
X606Y112D01*
X378Y112D01*
G37*
D02*
G36*
X378Y112D02*
X378Y110D01*
X606Y110D01*
X606Y112D01*
X378Y112D01*
G37*
D02*
G36*
X378Y112D02*
X378Y110D01*
X606Y110D01*
X606Y112D01*
X378Y112D01*
G37*
D02*
G36*
X378Y110D02*
X378Y78D01*
X608Y78D01*
X608Y80D01*
X606Y80D01*
X606Y110D01*
X378Y110D01*
G37*
D02*
G36*
X184Y78D02*
X184Y76D01*
X2090Y76D01*
X2090Y78D01*
X184Y78D01*
G37*
D02*
G36*
X184Y78D02*
X184Y76D01*
X2090Y76D01*
X2090Y78D01*
X184Y78D01*
G37*
D02*
G36*
X184Y78D02*
X184Y76D01*
X2090Y76D01*
X2090Y78D01*
X184Y78D01*
G37*
D02*
G36*
X184Y76D02*
X184Y72D01*
X188Y72D01*
X188Y70D01*
X192Y70D01*
X192Y68D01*
X196Y68D01*
X196Y66D01*
X200Y66D01*
X200Y64D01*
X204Y64D01*
X204Y62D01*
X210Y62D01*
X210Y60D01*
X214Y60D01*
X214Y58D01*
X220Y58D01*
X220Y56D01*
X226Y56D01*
X226Y54D01*
X232Y54D01*
X232Y52D01*
X238Y52D01*
X238Y50D01*
X246Y50D01*
X246Y48D01*
X254Y48D01*
X254Y46D01*
X264Y46D01*
X264Y44D01*
X276Y44D01*
X276Y42D01*
X2120Y42D01*
X2120Y62D01*
X2118Y62D01*
X2118Y64D01*
X2116Y64D01*
X2116Y66D01*
X2114Y66D01*
X2114Y70D01*
X2090Y70D01*
X2090Y76D01*
X184Y76D01*
G37*
D02*
G36*
X760Y1044D02*
X760Y1024D01*
X762Y1024D01*
X762Y1022D01*
X764Y1022D01*
X764Y1020D01*
X768Y1020D01*
X768Y1018D01*
X770Y1018D01*
X770Y1016D01*
X772Y1016D01*
X772Y1014D01*
X774Y1014D01*
X774Y1012D01*
X776Y1012D01*
X776Y1010D01*
X778Y1010D01*
X778Y1008D01*
X780Y1008D01*
X780Y1006D01*
X782Y1006D01*
X782Y1004D01*
X784Y1004D01*
X784Y1002D01*
X786Y1002D01*
X786Y1000D01*
X788Y1000D01*
X788Y998D01*
X790Y998D01*
X790Y994D01*
X792Y994D01*
X792Y992D01*
X794Y992D01*
X794Y986D01*
X796Y986D01*
X796Y972D01*
X826Y972D01*
X826Y1016D01*
X824Y1016D01*
X824Y1018D01*
X822Y1018D01*
X822Y1020D01*
X820Y1020D01*
X820Y1022D01*
X818Y1022D01*
X818Y1024D01*
X816Y1024D01*
X816Y1026D01*
X814Y1026D01*
X814Y1028D01*
X812Y1028D01*
X812Y1030D01*
X810Y1030D01*
X810Y1032D01*
X808Y1032D01*
X808Y1034D01*
X806Y1034D01*
X806Y1036D01*
X804Y1036D01*
X804Y1038D01*
X800Y1038D01*
X800Y1040D01*
X798Y1040D01*
X798Y1042D01*
X796Y1042D01*
X796Y1044D01*
X760Y1044D01*
G37*
D02*
G36*
X410Y992D02*
X410Y972D01*
X506Y972D01*
X506Y900D01*
X474Y900D01*
X474Y878D01*
X476Y878D01*
X476Y870D01*
X478Y870D01*
X478Y848D01*
X476Y848D01*
X476Y840D01*
X474Y840D01*
X474Y836D01*
X472Y836D01*
X472Y834D01*
X470Y834D01*
X470Y830D01*
X468Y830D01*
X468Y828D01*
X466Y828D01*
X466Y826D01*
X464Y826D01*
X464Y824D01*
X462Y824D01*
X462Y822D01*
X460Y822D01*
X460Y820D01*
X458Y820D01*
X458Y818D01*
X454Y818D01*
X454Y816D01*
X452Y816D01*
X452Y814D01*
X446Y814D01*
X446Y794D01*
X506Y794D01*
X506Y724D01*
X406Y724D01*
X406Y704D01*
X408Y704D01*
X408Y702D01*
X410Y702D01*
X410Y700D01*
X412Y700D01*
X412Y698D01*
X414Y698D01*
X414Y696D01*
X416Y696D01*
X416Y694D01*
X418Y694D01*
X418Y692D01*
X420Y692D01*
X420Y690D01*
X422Y690D01*
X422Y688D01*
X424Y688D01*
X424Y686D01*
X426Y686D01*
X426Y684D01*
X428Y684D01*
X428Y682D01*
X430Y682D01*
X430Y680D01*
X432Y680D01*
X432Y678D01*
X434Y678D01*
X434Y676D01*
X436Y676D01*
X436Y674D01*
X438Y674D01*
X438Y672D01*
X440Y672D01*
X440Y670D01*
X442Y670D01*
X442Y668D01*
X444Y668D01*
X444Y666D01*
X446Y666D01*
X446Y664D01*
X448Y664D01*
X448Y662D01*
X450Y662D01*
X450Y660D01*
X452Y660D01*
X452Y658D01*
X454Y658D01*
X454Y656D01*
X456Y656D01*
X456Y654D01*
X458Y654D01*
X458Y652D01*
X460Y652D01*
X460Y650D01*
X538Y650D01*
X538Y722D01*
X556Y722D01*
X556Y742D01*
X554Y742D01*
X554Y746D01*
X552Y746D01*
X552Y750D01*
X550Y750D01*
X550Y768D01*
X552Y768D01*
X552Y772D01*
X554Y772D01*
X554Y776D01*
X556Y776D01*
X556Y778D01*
X558Y778D01*
X558Y780D01*
X560Y780D01*
X560Y782D01*
X562Y782D01*
X562Y784D01*
X564Y784D01*
X564Y974D01*
X538Y974D01*
X538Y992D01*
X410Y992D01*
G37*
D02*
G36*
X620Y992D02*
X620Y974D01*
X596Y974D01*
X596Y794D01*
X820Y794D01*
X820Y766D01*
X822Y766D01*
X822Y764D01*
X824Y764D01*
X824Y762D01*
X826Y762D01*
X826Y760D01*
X828Y760D01*
X828Y758D01*
X830Y758D01*
X830Y756D01*
X832Y756D01*
X832Y754D01*
X834Y754D01*
X834Y752D01*
X836Y752D01*
X836Y750D01*
X838Y750D01*
X838Y748D01*
X840Y748D01*
X840Y746D01*
X842Y746D01*
X842Y744D01*
X844Y744D01*
X844Y742D01*
X846Y742D01*
X846Y740D01*
X848Y740D01*
X848Y738D01*
X850Y738D01*
X850Y736D01*
X852Y736D01*
X852Y734D01*
X854Y734D01*
X854Y732D01*
X856Y732D01*
X856Y730D01*
X858Y730D01*
X858Y728D01*
X860Y728D01*
X860Y726D01*
X862Y726D01*
X862Y724D01*
X864Y724D01*
X864Y722D01*
X866Y722D01*
X866Y720D01*
X868Y720D01*
X868Y718D01*
X870Y718D01*
X870Y716D01*
X872Y716D01*
X872Y714D01*
X874Y714D01*
X874Y712D01*
X876Y712D01*
X876Y710D01*
X878Y710D01*
X878Y708D01*
X880Y708D01*
X880Y706D01*
X882Y706D01*
X882Y704D01*
X884Y704D01*
X884Y702D01*
X886Y702D01*
X886Y700D01*
X888Y700D01*
X888Y698D01*
X890Y698D01*
X890Y696D01*
X892Y696D01*
X892Y694D01*
X894Y694D01*
X894Y692D01*
X896Y692D01*
X896Y690D01*
X898Y690D01*
X898Y688D01*
X900Y688D01*
X900Y686D01*
X902Y686D01*
X902Y684D01*
X904Y684D01*
X904Y682D01*
X906Y682D01*
X906Y680D01*
X908Y680D01*
X908Y678D01*
X910Y678D01*
X910Y676D01*
X912Y676D01*
X912Y674D01*
X914Y674D01*
X914Y672D01*
X916Y672D01*
X916Y670D01*
X918Y670D01*
X918Y668D01*
X920Y668D01*
X920Y666D01*
X940Y666D01*
X940Y668D01*
X938Y668D01*
X938Y674D01*
X936Y674D01*
X936Y694D01*
X938Y694D01*
X938Y718D01*
X934Y718D01*
X934Y720D01*
X932Y720D01*
X932Y722D01*
X930Y722D01*
X930Y724D01*
X928Y724D01*
X928Y726D01*
X926Y726D01*
X926Y728D01*
X924Y728D01*
X924Y730D01*
X922Y730D01*
X922Y732D01*
X920Y732D01*
X920Y734D01*
X918Y734D01*
X918Y736D01*
X916Y736D01*
X916Y738D01*
X914Y738D01*
X914Y740D01*
X912Y740D01*
X912Y742D01*
X910Y742D01*
X910Y744D01*
X908Y744D01*
X908Y746D01*
X906Y746D01*
X906Y748D01*
X904Y748D01*
X904Y750D01*
X902Y750D01*
X902Y752D01*
X900Y752D01*
X900Y754D01*
X898Y754D01*
X898Y756D01*
X896Y756D01*
X896Y758D01*
X894Y758D01*
X894Y760D01*
X892Y760D01*
X892Y762D01*
X890Y762D01*
X890Y764D01*
X888Y764D01*
X888Y766D01*
X886Y766D01*
X886Y768D01*
X884Y768D01*
X884Y770D01*
X882Y770D01*
X882Y772D01*
X880Y772D01*
X880Y774D01*
X878Y774D01*
X878Y776D01*
X876Y776D01*
X876Y778D01*
X874Y778D01*
X874Y780D01*
X872Y780D01*
X872Y782D01*
X870Y782D01*
X870Y784D01*
X868Y784D01*
X868Y786D01*
X866Y786D01*
X866Y788D01*
X864Y788D01*
X864Y790D01*
X862Y790D01*
X862Y792D01*
X860Y792D01*
X860Y794D01*
X858Y794D01*
X858Y796D01*
X856Y796D01*
X856Y798D01*
X854Y798D01*
X854Y800D01*
X852Y800D01*
X852Y802D01*
X850Y802D01*
X850Y804D01*
X848Y804D01*
X848Y806D01*
X846Y806D01*
X846Y808D01*
X844Y808D01*
X844Y810D01*
X842Y810D01*
X842Y812D01*
X840Y812D01*
X840Y814D01*
X838Y814D01*
X838Y816D01*
X836Y816D01*
X836Y818D01*
X834Y818D01*
X834Y820D01*
X832Y820D01*
X832Y822D01*
X830Y822D01*
X830Y824D01*
X828Y824D01*
X828Y826D01*
X826Y826D01*
X826Y828D01*
X824Y828D01*
X824Y830D01*
X822Y830D01*
X822Y832D01*
X820Y832D01*
X820Y834D01*
X818Y834D01*
X818Y836D01*
X816Y836D01*
X816Y838D01*
X814Y838D01*
X814Y840D01*
X812Y840D01*
X812Y842D01*
X810Y842D01*
X810Y844D01*
X808Y844D01*
X808Y846D01*
X806Y846D01*
X806Y848D01*
X804Y848D01*
X804Y850D01*
X802Y850D01*
X802Y852D01*
X800Y852D01*
X800Y854D01*
X798Y854D01*
X798Y856D01*
X796Y856D01*
X796Y858D01*
X794Y858D01*
X794Y860D01*
X792Y860D01*
X792Y862D01*
X790Y862D01*
X790Y864D01*
X788Y864D01*
X788Y866D01*
X786Y866D01*
X786Y868D01*
X784Y868D01*
X784Y872D01*
X782Y872D01*
X782Y874D01*
X780Y874D01*
X780Y876D01*
X778Y876D01*
X778Y878D01*
X776Y878D01*
X776Y880D01*
X774Y880D01*
X774Y882D01*
X772Y882D01*
X772Y884D01*
X770Y884D01*
X770Y886D01*
X768Y886D01*
X768Y888D01*
X766Y888D01*
X766Y892D01*
X764Y892D01*
X764Y900D01*
X740Y900D01*
X740Y902D01*
X738Y902D01*
X738Y972D01*
X750Y972D01*
X750Y992D01*
X620Y992D01*
G37*
D02*
G36*
X596Y794D02*
X596Y782D01*
X600Y782D01*
X600Y780D01*
X602Y780D01*
X602Y776D01*
X604Y776D01*
X604Y774D01*
X606Y774D01*
X606Y770D01*
X608Y770D01*
X608Y748D01*
X606Y748D01*
X606Y744D01*
X604Y744D01*
X604Y742D01*
X602Y742D01*
X602Y722D01*
X620Y722D01*
X620Y650D01*
X736Y650D01*
X736Y648D01*
X738Y648D01*
X738Y646D01*
X740Y646D01*
X740Y644D01*
X742Y644D01*
X742Y642D01*
X744Y642D01*
X744Y640D01*
X746Y640D01*
X746Y638D01*
X748Y638D01*
X748Y636D01*
X750Y636D01*
X750Y634D01*
X752Y634D01*
X752Y632D01*
X754Y632D01*
X754Y630D01*
X756Y630D01*
X756Y628D01*
X758Y628D01*
X758Y626D01*
X760Y626D01*
X760Y624D01*
X762Y624D01*
X762Y622D01*
X764Y622D01*
X764Y620D01*
X766Y620D01*
X766Y618D01*
X768Y618D01*
X768Y616D01*
X770Y616D01*
X770Y614D01*
X772Y614D01*
X772Y612D01*
X774Y612D01*
X774Y610D01*
X776Y610D01*
X776Y608D01*
X778Y608D01*
X778Y606D01*
X780Y606D01*
X780Y604D01*
X782Y604D01*
X782Y602D01*
X784Y602D01*
X784Y600D01*
X786Y600D01*
X786Y598D01*
X788Y598D01*
X788Y596D01*
X790Y596D01*
X790Y594D01*
X792Y594D01*
X792Y592D01*
X794Y592D01*
X794Y590D01*
X796Y590D01*
X796Y588D01*
X798Y588D01*
X798Y586D01*
X800Y586D01*
X800Y584D01*
X802Y584D01*
X802Y582D01*
X804Y582D01*
X804Y580D01*
X806Y580D01*
X806Y578D01*
X808Y578D01*
X808Y576D01*
X810Y576D01*
X810Y574D01*
X812Y574D01*
X812Y572D01*
X814Y572D01*
X814Y570D01*
X816Y570D01*
X816Y568D01*
X818Y568D01*
X818Y566D01*
X820Y566D01*
X820Y564D01*
X822Y564D01*
X822Y562D01*
X824Y562D01*
X824Y560D01*
X826Y560D01*
X826Y558D01*
X828Y558D01*
X828Y556D01*
X830Y556D01*
X830Y554D01*
X832Y554D01*
X832Y552D01*
X834Y552D01*
X834Y550D01*
X836Y550D01*
X836Y548D01*
X838Y548D01*
X838Y546D01*
X840Y546D01*
X840Y544D01*
X842Y544D01*
X842Y542D01*
X844Y542D01*
X844Y540D01*
X846Y540D01*
X846Y538D01*
X848Y538D01*
X848Y536D01*
X850Y536D01*
X850Y534D01*
X852Y534D01*
X852Y532D01*
X854Y532D01*
X854Y530D01*
X856Y530D01*
X856Y528D01*
X858Y528D01*
X858Y526D01*
X860Y526D01*
X860Y524D01*
X862Y524D01*
X862Y522D01*
X864Y522D01*
X864Y520D01*
X866Y520D01*
X866Y518D01*
X868Y518D01*
X868Y516D01*
X870Y516D01*
X870Y514D01*
X872Y514D01*
X872Y512D01*
X874Y512D01*
X874Y510D01*
X876Y510D01*
X876Y508D01*
X878Y508D01*
X878Y506D01*
X880Y506D01*
X880Y504D01*
X882Y504D01*
X882Y502D01*
X884Y502D01*
X884Y500D01*
X886Y500D01*
X886Y498D01*
X888Y498D01*
X888Y496D01*
X890Y496D01*
X890Y494D01*
X892Y494D01*
X892Y492D01*
X894Y492D01*
X894Y490D01*
X896Y490D01*
X896Y488D01*
X898Y488D01*
X898Y486D01*
X900Y486D01*
X900Y484D01*
X902Y484D01*
X902Y482D01*
X904Y482D01*
X904Y480D01*
X906Y480D01*
X906Y478D01*
X908Y478D01*
X908Y476D01*
X910Y476D01*
X910Y474D01*
X912Y474D01*
X912Y472D01*
X914Y472D01*
X914Y470D01*
X916Y470D01*
X916Y468D01*
X918Y468D01*
X918Y466D01*
X920Y466D01*
X920Y464D01*
X922Y464D01*
X922Y462D01*
X942Y462D01*
X942Y464D01*
X940Y464D01*
X940Y468D01*
X938Y468D01*
X938Y474D01*
X936Y474D01*
X936Y494D01*
X938Y494D01*
X938Y500D01*
X940Y500D01*
X940Y504D01*
X942Y504D01*
X942Y508D01*
X944Y508D01*
X944Y510D01*
X946Y510D01*
X946Y512D01*
X948Y512D01*
X948Y516D01*
X952Y516D01*
X952Y518D01*
X954Y518D01*
X954Y520D01*
X956Y520D01*
X956Y522D01*
X960Y522D01*
X960Y524D01*
X966Y524D01*
X966Y544D01*
X960Y544D01*
X960Y546D01*
X956Y546D01*
X956Y548D01*
X954Y548D01*
X954Y550D01*
X952Y550D01*
X952Y552D01*
X948Y552D01*
X948Y556D01*
X946Y556D01*
X946Y558D01*
X944Y558D01*
X944Y560D01*
X942Y560D01*
X942Y564D01*
X940Y564D01*
X940Y568D01*
X938Y568D01*
X938Y574D01*
X936Y574D01*
X936Y606D01*
X934Y606D01*
X934Y608D01*
X932Y608D01*
X932Y610D01*
X930Y610D01*
X930Y612D01*
X928Y612D01*
X928Y614D01*
X926Y614D01*
X926Y616D01*
X924Y616D01*
X924Y618D01*
X922Y618D01*
X922Y620D01*
X920Y620D01*
X920Y622D01*
X918Y622D01*
X918Y624D01*
X916Y624D01*
X916Y626D01*
X914Y626D01*
X914Y628D01*
X912Y628D01*
X912Y630D01*
X910Y630D01*
X910Y632D01*
X908Y632D01*
X908Y634D01*
X906Y634D01*
X906Y636D01*
X904Y636D01*
X904Y638D01*
X902Y638D01*
X902Y640D01*
X900Y640D01*
X900Y642D01*
X898Y642D01*
X898Y644D01*
X896Y644D01*
X896Y646D01*
X894Y646D01*
X894Y648D01*
X892Y648D01*
X892Y650D01*
X890Y650D01*
X890Y652D01*
X888Y652D01*
X888Y654D01*
X886Y654D01*
X886Y656D01*
X884Y656D01*
X884Y658D01*
X882Y658D01*
X882Y660D01*
X880Y660D01*
X880Y662D01*
X878Y662D01*
X878Y664D01*
X876Y664D01*
X876Y666D01*
X874Y666D01*
X874Y668D01*
X872Y668D01*
X872Y670D01*
X870Y670D01*
X870Y672D01*
X868Y672D01*
X868Y674D01*
X866Y674D01*
X866Y676D01*
X864Y676D01*
X864Y678D01*
X862Y678D01*
X862Y680D01*
X860Y680D01*
X860Y682D01*
X858Y682D01*
X858Y684D01*
X856Y684D01*
X856Y686D01*
X854Y686D01*
X854Y688D01*
X852Y688D01*
X852Y690D01*
X850Y690D01*
X850Y692D01*
X848Y692D01*
X848Y694D01*
X846Y694D01*
X846Y696D01*
X844Y696D01*
X844Y698D01*
X842Y698D01*
X842Y700D01*
X840Y700D01*
X840Y702D01*
X838Y702D01*
X838Y704D01*
X836Y704D01*
X836Y706D01*
X834Y706D01*
X834Y708D01*
X832Y708D01*
X832Y710D01*
X830Y710D01*
X830Y712D01*
X828Y712D01*
X828Y714D01*
X826Y714D01*
X826Y716D01*
X824Y716D01*
X824Y718D01*
X822Y718D01*
X822Y720D01*
X820Y720D01*
X820Y722D01*
X818Y722D01*
X818Y724D01*
X738Y724D01*
X738Y794D01*
X596Y794D01*
G37*
D02*
G36*
X2256Y974D02*
X2256Y972D01*
X2254Y972D01*
X2254Y970D01*
X2252Y970D01*
X2252Y968D01*
X2250Y968D01*
X2250Y966D01*
X2248Y966D01*
X2248Y964D01*
X2246Y964D01*
X2246Y962D01*
X2244Y962D01*
X2244Y958D01*
X2242Y958D01*
X2242Y956D01*
X2240Y956D01*
X2240Y954D01*
X2238Y954D01*
X2238Y952D01*
X2236Y952D01*
X2236Y950D01*
X2234Y950D01*
X2234Y948D01*
X2232Y948D01*
X2232Y946D01*
X2230Y946D01*
X2230Y944D01*
X2228Y944D01*
X2228Y942D01*
X2226Y942D01*
X2226Y940D01*
X2224Y940D01*
X2224Y938D01*
X2222Y938D01*
X2222Y936D01*
X2220Y936D01*
X2220Y934D01*
X2218Y934D01*
X2218Y932D01*
X2216Y932D01*
X2216Y930D01*
X2214Y930D01*
X2214Y928D01*
X2212Y928D01*
X2212Y926D01*
X2210Y926D01*
X2210Y924D01*
X2208Y924D01*
X2208Y922D01*
X2206Y922D01*
X2206Y920D01*
X2204Y920D01*
X2204Y918D01*
X2202Y918D01*
X2202Y916D01*
X2200Y916D01*
X2200Y914D01*
X2198Y914D01*
X2198Y910D01*
X2196Y910D01*
X2196Y908D01*
X2194Y908D01*
X2194Y906D01*
X2192Y906D01*
X2192Y904D01*
X2190Y904D01*
X2190Y902D01*
X2188Y902D01*
X2188Y900D01*
X2186Y900D01*
X2186Y898D01*
X2184Y898D01*
X2184Y896D01*
X2182Y896D01*
X2182Y894D01*
X2180Y894D01*
X2180Y892D01*
X2178Y892D01*
X2178Y890D01*
X2176Y890D01*
X2176Y888D01*
X2174Y888D01*
X2174Y886D01*
X2172Y886D01*
X2172Y884D01*
X2170Y884D01*
X2170Y882D01*
X2168Y882D01*
X2168Y880D01*
X2166Y880D01*
X2166Y878D01*
X2164Y878D01*
X2164Y876D01*
X2162Y876D01*
X2162Y874D01*
X2160Y874D01*
X2160Y872D01*
X2158Y872D01*
X2158Y870D01*
X2156Y870D01*
X2156Y868D01*
X2154Y868D01*
X2154Y866D01*
X2152Y866D01*
X2152Y864D01*
X2150Y864D01*
X2150Y860D01*
X2148Y860D01*
X2148Y858D01*
X2146Y858D01*
X2146Y856D01*
X2144Y856D01*
X2144Y854D01*
X2142Y854D01*
X2142Y852D01*
X2140Y852D01*
X2140Y850D01*
X2138Y850D01*
X2138Y848D01*
X2136Y848D01*
X2136Y846D01*
X2134Y846D01*
X2134Y844D01*
X2132Y844D01*
X2132Y842D01*
X2130Y842D01*
X2130Y840D01*
X2128Y840D01*
X2128Y838D01*
X2126Y838D01*
X2126Y836D01*
X2124Y836D01*
X2124Y834D01*
X2122Y834D01*
X2122Y832D01*
X2120Y832D01*
X2120Y830D01*
X2118Y830D01*
X2118Y828D01*
X2116Y828D01*
X2116Y826D01*
X2114Y826D01*
X2114Y824D01*
X2112Y824D01*
X2112Y822D01*
X2110Y822D01*
X2110Y820D01*
X2108Y820D01*
X2108Y818D01*
X2106Y818D01*
X2106Y816D01*
X2104Y816D01*
X2104Y794D01*
X2144Y794D01*
X2144Y796D01*
X2146Y796D01*
X2146Y798D01*
X2148Y798D01*
X2148Y800D01*
X2150Y800D01*
X2150Y802D01*
X2152Y802D01*
X2152Y804D01*
X2154Y804D01*
X2154Y806D01*
X2156Y806D01*
X2156Y808D01*
X2158Y808D01*
X2158Y810D01*
X2160Y810D01*
X2160Y812D01*
X2162Y812D01*
X2162Y814D01*
X2164Y814D01*
X2164Y816D01*
X2166Y816D01*
X2166Y818D01*
X2168Y818D01*
X2168Y822D01*
X2170Y822D01*
X2170Y824D01*
X2172Y824D01*
X2172Y826D01*
X2174Y826D01*
X2174Y828D01*
X2176Y828D01*
X2176Y830D01*
X2178Y830D01*
X2178Y832D01*
X2180Y832D01*
X2180Y834D01*
X2182Y834D01*
X2182Y836D01*
X2184Y836D01*
X2184Y838D01*
X2186Y838D01*
X2186Y840D01*
X2188Y840D01*
X2188Y842D01*
X2190Y842D01*
X2190Y844D01*
X2192Y844D01*
X2192Y846D01*
X2194Y846D01*
X2194Y848D01*
X2196Y848D01*
X2196Y850D01*
X2198Y850D01*
X2198Y852D01*
X2200Y852D01*
X2200Y854D01*
X2202Y854D01*
X2202Y856D01*
X2204Y856D01*
X2204Y858D01*
X2206Y858D01*
X2206Y860D01*
X2208Y860D01*
X2208Y862D01*
X2210Y862D01*
X2210Y864D01*
X2212Y864D01*
X2212Y866D01*
X2214Y866D01*
X2214Y868D01*
X2216Y868D01*
X2216Y870D01*
X2218Y870D01*
X2218Y872D01*
X2220Y872D01*
X2220Y874D01*
X2222Y874D01*
X2222Y876D01*
X2224Y876D01*
X2224Y878D01*
X2226Y878D01*
X2226Y880D01*
X2228Y880D01*
X2228Y882D01*
X2230Y882D01*
X2230Y884D01*
X2232Y884D01*
X2232Y886D01*
X2234Y886D01*
X2234Y888D01*
X2236Y888D01*
X2236Y890D01*
X2238Y890D01*
X2238Y892D01*
X2240Y892D01*
X2240Y894D01*
X2242Y894D01*
X2242Y896D01*
X2244Y896D01*
X2244Y898D01*
X2246Y898D01*
X2246Y900D01*
X2248Y900D01*
X2248Y902D01*
X2250Y902D01*
X2250Y904D01*
X2252Y904D01*
X2252Y906D01*
X2254Y906D01*
X2254Y908D01*
X2256Y908D01*
X2256Y910D01*
X2258Y910D01*
X2258Y912D01*
X2260Y912D01*
X2260Y914D01*
X2262Y914D01*
X2262Y916D01*
X2264Y916D01*
X2264Y918D01*
X2266Y918D01*
X2266Y920D01*
X2268Y920D01*
X2268Y922D01*
X2270Y922D01*
X2270Y924D01*
X2272Y924D01*
X2272Y926D01*
X2274Y926D01*
X2274Y928D01*
X2276Y928D01*
X2276Y974D01*
X2256Y974D01*
G37*
D02*
G36*
X1020Y968D02*
X1020Y966D01*
X1018Y966D01*
X1018Y962D01*
X1016Y962D01*
X1016Y960D01*
X1014Y960D01*
X1014Y958D01*
X1012Y958D01*
X1012Y954D01*
X1010Y954D01*
X1010Y952D01*
X1008Y952D01*
X1008Y950D01*
X1004Y950D01*
X1004Y948D01*
X1002Y948D01*
X1002Y946D01*
X998Y946D01*
X998Y944D01*
X994Y944D01*
X994Y924D01*
X998Y924D01*
X998Y922D01*
X1002Y922D01*
X1002Y920D01*
X1004Y920D01*
X1004Y918D01*
X1008Y918D01*
X1008Y916D01*
X1010Y916D01*
X1010Y914D01*
X1012Y914D01*
X1012Y912D01*
X1014Y912D01*
X1014Y908D01*
X1016Y908D01*
X1016Y906D01*
X1018Y906D01*
X1018Y902D01*
X1020Y902D01*
X1020Y900D01*
X1192Y900D01*
X1192Y920D01*
X1190Y920D01*
X1190Y922D01*
X1188Y922D01*
X1188Y924D01*
X1186Y924D01*
X1186Y926D01*
X1184Y926D01*
X1184Y928D01*
X1182Y928D01*
X1182Y930D01*
X1180Y930D01*
X1180Y932D01*
X1178Y932D01*
X1178Y936D01*
X1176Y936D01*
X1176Y938D01*
X1174Y938D01*
X1174Y940D01*
X1172Y940D01*
X1172Y942D01*
X1170Y942D01*
X1170Y944D01*
X1168Y944D01*
X1168Y946D01*
X1166Y946D01*
X1166Y948D01*
X1164Y948D01*
X1164Y950D01*
X1162Y950D01*
X1162Y952D01*
X1160Y952D01*
X1160Y954D01*
X1158Y954D01*
X1158Y958D01*
X1156Y958D01*
X1156Y960D01*
X1154Y960D01*
X1154Y962D01*
X1152Y962D01*
X1152Y964D01*
X1150Y964D01*
X1150Y966D01*
X1148Y966D01*
X1148Y968D01*
X1020Y968D01*
G37*
D02*
G36*
X820Y902D02*
X820Y900D01*
X818Y900D01*
X818Y880D01*
X820Y880D01*
X820Y878D01*
X822Y878D01*
X822Y876D01*
X824Y876D01*
X824Y874D01*
X826Y874D01*
X826Y872D01*
X828Y872D01*
X828Y870D01*
X830Y870D01*
X830Y868D01*
X832Y868D01*
X832Y866D01*
X834Y866D01*
X834Y864D01*
X836Y864D01*
X836Y862D01*
X838Y862D01*
X838Y860D01*
X840Y860D01*
X840Y858D01*
X842Y858D01*
X842Y856D01*
X844Y856D01*
X844Y854D01*
X846Y854D01*
X846Y852D01*
X848Y852D01*
X848Y850D01*
X850Y850D01*
X850Y848D01*
X852Y848D01*
X852Y846D01*
X854Y846D01*
X854Y844D01*
X856Y844D01*
X856Y842D01*
X858Y842D01*
X858Y840D01*
X860Y840D01*
X860Y838D01*
X862Y838D01*
X862Y836D01*
X864Y836D01*
X864Y834D01*
X866Y834D01*
X866Y832D01*
X868Y832D01*
X868Y830D01*
X870Y830D01*
X870Y828D01*
X872Y828D01*
X872Y826D01*
X874Y826D01*
X874Y824D01*
X876Y824D01*
X876Y822D01*
X878Y822D01*
X878Y820D01*
X880Y820D01*
X880Y818D01*
X882Y818D01*
X882Y816D01*
X884Y816D01*
X884Y814D01*
X886Y814D01*
X886Y812D01*
X888Y812D01*
X888Y810D01*
X890Y810D01*
X890Y808D01*
X892Y808D01*
X892Y806D01*
X894Y806D01*
X894Y804D01*
X896Y804D01*
X896Y802D01*
X898Y802D01*
X898Y800D01*
X900Y800D01*
X900Y798D01*
X902Y798D01*
X902Y796D01*
X904Y796D01*
X904Y792D01*
X906Y792D01*
X906Y790D01*
X908Y790D01*
X908Y788D01*
X910Y788D01*
X910Y786D01*
X912Y786D01*
X912Y784D01*
X914Y784D01*
X914Y782D01*
X916Y782D01*
X916Y780D01*
X936Y780D01*
X936Y806D01*
X934Y806D01*
X934Y808D01*
X932Y808D01*
X932Y810D01*
X930Y810D01*
X930Y812D01*
X928Y812D01*
X928Y814D01*
X926Y814D01*
X926Y816D01*
X924Y816D01*
X924Y818D01*
X922Y818D01*
X922Y820D01*
X920Y820D01*
X920Y822D01*
X918Y822D01*
X918Y824D01*
X916Y824D01*
X916Y826D01*
X914Y826D01*
X914Y828D01*
X912Y828D01*
X912Y830D01*
X910Y830D01*
X910Y832D01*
X908Y832D01*
X908Y834D01*
X906Y834D01*
X906Y836D01*
X904Y836D01*
X904Y838D01*
X902Y838D01*
X902Y840D01*
X900Y840D01*
X900Y842D01*
X898Y842D01*
X898Y844D01*
X896Y844D01*
X896Y846D01*
X894Y846D01*
X894Y848D01*
X892Y848D01*
X892Y850D01*
X890Y850D01*
X890Y852D01*
X888Y852D01*
X888Y854D01*
X886Y854D01*
X886Y856D01*
X884Y856D01*
X884Y858D01*
X882Y858D01*
X882Y860D01*
X880Y860D01*
X880Y862D01*
X878Y862D01*
X878Y864D01*
X876Y864D01*
X876Y866D01*
X874Y866D01*
X874Y868D01*
X872Y868D01*
X872Y870D01*
X870Y870D01*
X870Y872D01*
X868Y872D01*
X868Y874D01*
X866Y874D01*
X866Y876D01*
X864Y876D01*
X864Y878D01*
X862Y878D01*
X862Y880D01*
X860Y880D01*
X860Y882D01*
X858Y882D01*
X858Y884D01*
X856Y884D01*
X856Y886D01*
X854Y886D01*
X854Y888D01*
X852Y888D01*
X852Y890D01*
X850Y890D01*
X850Y892D01*
X848Y892D01*
X848Y894D01*
X846Y894D01*
X846Y896D01*
X844Y896D01*
X844Y898D01*
X842Y898D01*
X842Y900D01*
X840Y900D01*
X840Y902D01*
X820Y902D01*
G37*
D02*
G36*
X1866Y870D02*
X1866Y866D01*
X1864Y866D01*
X1864Y864D01*
X1862Y864D01*
X1862Y862D01*
X1860Y862D01*
X1860Y860D01*
X1858Y860D01*
X1858Y858D01*
X1856Y858D01*
X1856Y856D01*
X1854Y856D01*
X1854Y854D01*
X1852Y854D01*
X1852Y852D01*
X1850Y852D01*
X1850Y850D01*
X1848Y850D01*
X1848Y848D01*
X1846Y848D01*
X1846Y844D01*
X1844Y844D01*
X1844Y842D01*
X1842Y842D01*
X1842Y840D01*
X1840Y840D01*
X1840Y838D01*
X1838Y838D01*
X1838Y836D01*
X1836Y836D01*
X1836Y834D01*
X1834Y834D01*
X1834Y832D01*
X1832Y832D01*
X1832Y830D01*
X1830Y830D01*
X1830Y828D01*
X1828Y828D01*
X1828Y826D01*
X1848Y826D01*
X1848Y828D01*
X1850Y828D01*
X1850Y830D01*
X1854Y830D01*
X1854Y832D01*
X1856Y832D01*
X1856Y834D01*
X1858Y834D01*
X1858Y836D01*
X1860Y836D01*
X1860Y838D01*
X1862Y838D01*
X1862Y840D01*
X1864Y840D01*
X1864Y842D01*
X1866Y842D01*
X1866Y844D01*
X1868Y844D01*
X1868Y846D01*
X1870Y846D01*
X1870Y848D01*
X1872Y848D01*
X1872Y850D01*
X1874Y850D01*
X1874Y852D01*
X1876Y852D01*
X1876Y854D01*
X1878Y854D01*
X1878Y856D01*
X1880Y856D01*
X1880Y858D01*
X1882Y858D01*
X1882Y860D01*
X1884Y860D01*
X1884Y862D01*
X1886Y862D01*
X1886Y870D01*
X1866Y870D01*
G37*
D02*
G36*
X1020Y868D02*
X1020Y866D01*
X1018Y866D01*
X1018Y862D01*
X1016Y862D01*
X1016Y860D01*
X1014Y860D01*
X1014Y858D01*
X1012Y858D01*
X1012Y854D01*
X1010Y854D01*
X1010Y852D01*
X1008Y852D01*
X1008Y850D01*
X1004Y850D01*
X1004Y848D01*
X1002Y848D01*
X1002Y846D01*
X998Y846D01*
X998Y844D01*
X994Y844D01*
X994Y824D01*
X998Y824D01*
X998Y822D01*
X1002Y822D01*
X1002Y820D01*
X1004Y820D01*
X1004Y818D01*
X1008Y818D01*
X1008Y816D01*
X1010Y816D01*
X1010Y814D01*
X1012Y814D01*
X1012Y812D01*
X1014Y812D01*
X1014Y808D01*
X1016Y808D01*
X1016Y806D01*
X1018Y806D01*
X1018Y802D01*
X1020Y802D01*
X1020Y800D01*
X1238Y800D01*
X1238Y802D01*
X1240Y802D01*
X1240Y822D01*
X1238Y822D01*
X1238Y824D01*
X1236Y824D01*
X1236Y826D01*
X1234Y826D01*
X1234Y828D01*
X1232Y828D01*
X1232Y830D01*
X1230Y830D01*
X1230Y832D01*
X1228Y832D01*
X1228Y834D01*
X1226Y834D01*
X1226Y836D01*
X1224Y836D01*
X1224Y840D01*
X1222Y840D01*
X1222Y842D01*
X1220Y842D01*
X1220Y844D01*
X1218Y844D01*
X1218Y846D01*
X1216Y846D01*
X1216Y848D01*
X1214Y848D01*
X1214Y850D01*
X1212Y850D01*
X1212Y852D01*
X1210Y852D01*
X1210Y854D01*
X1208Y854D01*
X1208Y858D01*
X1206Y858D01*
X1206Y860D01*
X1204Y860D01*
X1204Y862D01*
X1202Y862D01*
X1202Y864D01*
X1200Y864D01*
X1200Y866D01*
X1198Y866D01*
X1198Y868D01*
X1020Y868D01*
G37*
D02*
G36*
X1872Y806D02*
X1872Y804D01*
X1870Y804D01*
X1870Y802D01*
X1868Y802D01*
X1868Y800D01*
X1866Y800D01*
X1866Y798D01*
X1864Y798D01*
X1864Y796D01*
X1862Y796D01*
X1862Y794D01*
X1860Y794D01*
X1860Y792D01*
X1858Y792D01*
X1858Y790D01*
X1856Y790D01*
X1856Y788D01*
X1854Y788D01*
X1854Y786D01*
X1852Y786D01*
X1852Y784D01*
X1850Y784D01*
X1850Y782D01*
X1848Y782D01*
X1848Y780D01*
X1846Y780D01*
X1846Y778D01*
X1844Y778D01*
X1844Y776D01*
X1842Y776D01*
X1842Y774D01*
X1840Y774D01*
X1840Y772D01*
X1838Y772D01*
X1838Y770D01*
X1836Y770D01*
X1836Y768D01*
X1834Y768D01*
X1834Y766D01*
X1832Y766D01*
X1832Y728D01*
X1852Y728D01*
X1852Y730D01*
X1854Y730D01*
X1854Y732D01*
X1856Y732D01*
X1856Y734D01*
X1858Y734D01*
X1858Y736D01*
X1860Y736D01*
X1860Y738D01*
X1862Y738D01*
X1862Y740D01*
X1864Y740D01*
X1864Y742D01*
X1866Y742D01*
X1866Y744D01*
X1868Y744D01*
X1868Y746D01*
X1870Y746D01*
X1870Y748D01*
X1872Y748D01*
X1872Y750D01*
X1874Y750D01*
X1874Y752D01*
X1876Y752D01*
X1876Y754D01*
X1878Y754D01*
X1878Y756D01*
X1880Y756D01*
X1880Y758D01*
X1882Y758D01*
X1882Y760D01*
X1884Y760D01*
X1884Y762D01*
X1886Y762D01*
X1886Y794D01*
X1888Y794D01*
X1888Y800D01*
X1890Y800D01*
X1890Y804D01*
X1892Y804D01*
X1892Y806D01*
X1872Y806D01*
G37*
D02*
G36*
X2068Y778D02*
X2068Y776D01*
X2066Y776D01*
X2066Y774D01*
X2064Y774D01*
X2064Y772D01*
X2062Y772D01*
X2062Y770D01*
X2060Y770D01*
X2060Y768D01*
X2058Y768D01*
X2058Y766D01*
X2056Y766D01*
X2056Y762D01*
X2054Y762D01*
X2054Y760D01*
X2052Y760D01*
X2052Y758D01*
X2050Y758D01*
X2050Y756D01*
X2048Y756D01*
X2048Y754D01*
X2046Y754D01*
X2046Y752D01*
X2044Y752D01*
X2044Y676D01*
X2042Y676D01*
X2042Y672D01*
X2040Y672D01*
X2040Y670D01*
X2038Y670D01*
X2038Y668D01*
X2036Y668D01*
X2036Y666D01*
X2034Y666D01*
X2034Y664D01*
X2032Y664D01*
X2032Y662D01*
X2030Y662D01*
X2030Y660D01*
X2028Y660D01*
X2028Y658D01*
X2026Y658D01*
X2026Y656D01*
X2024Y656D01*
X2024Y654D01*
X2022Y654D01*
X2022Y652D01*
X2020Y652D01*
X2020Y650D01*
X2018Y650D01*
X2018Y648D01*
X2016Y648D01*
X2016Y646D01*
X2014Y646D01*
X2014Y644D01*
X2012Y644D01*
X2012Y642D01*
X2010Y642D01*
X2010Y640D01*
X2008Y640D01*
X2008Y638D01*
X2006Y638D01*
X2006Y636D01*
X2004Y636D01*
X2004Y634D01*
X2002Y634D01*
X2002Y632D01*
X2000Y632D01*
X2000Y630D01*
X1998Y630D01*
X1998Y628D01*
X1996Y628D01*
X1996Y626D01*
X1994Y626D01*
X1994Y624D01*
X1992Y624D01*
X1992Y622D01*
X1990Y622D01*
X1990Y620D01*
X1988Y620D01*
X1988Y618D01*
X1986Y618D01*
X1986Y616D01*
X1984Y616D01*
X1984Y614D01*
X1982Y614D01*
X1982Y612D01*
X1980Y612D01*
X1980Y610D01*
X1978Y610D01*
X1978Y608D01*
X1976Y608D01*
X1976Y606D01*
X1974Y606D01*
X1974Y604D01*
X1972Y604D01*
X1972Y572D01*
X1970Y572D01*
X1970Y566D01*
X1968Y566D01*
X1968Y564D01*
X1988Y564D01*
X1988Y566D01*
X1990Y566D01*
X1990Y568D01*
X1992Y568D01*
X1992Y570D01*
X1994Y570D01*
X1994Y572D01*
X1996Y572D01*
X1996Y574D01*
X1998Y574D01*
X1998Y576D01*
X2000Y576D01*
X2000Y578D01*
X2002Y578D01*
X2002Y580D01*
X2004Y580D01*
X2004Y582D01*
X2006Y582D01*
X2006Y584D01*
X2008Y584D01*
X2008Y586D01*
X2010Y586D01*
X2010Y588D01*
X2012Y588D01*
X2012Y590D01*
X2014Y590D01*
X2014Y592D01*
X2016Y592D01*
X2016Y594D01*
X2018Y594D01*
X2018Y596D01*
X2020Y596D01*
X2020Y598D01*
X2024Y598D01*
X2024Y600D01*
X2088Y600D01*
X2088Y616D01*
X2090Y616D01*
X2090Y618D01*
X2178Y618D01*
X2178Y622D01*
X2176Y622D01*
X2176Y630D01*
X2174Y630D01*
X2174Y642D01*
X2172Y642D01*
X2172Y644D01*
X2170Y644D01*
X2170Y646D01*
X2168Y646D01*
X2168Y648D01*
X2166Y648D01*
X2166Y650D01*
X2164Y650D01*
X2164Y652D01*
X2162Y652D01*
X2162Y654D01*
X2160Y654D01*
X2160Y656D01*
X2158Y656D01*
X2158Y658D01*
X2156Y658D01*
X2156Y660D01*
X2154Y660D01*
X2154Y662D01*
X2152Y662D01*
X2152Y664D01*
X2150Y664D01*
X2150Y666D01*
X2148Y666D01*
X2148Y668D01*
X2146Y668D01*
X2146Y670D01*
X2144Y670D01*
X2144Y672D01*
X2142Y672D01*
X2142Y674D01*
X2140Y674D01*
X2140Y676D01*
X2138Y676D01*
X2138Y678D01*
X2136Y678D01*
X2136Y680D01*
X2134Y680D01*
X2134Y682D01*
X2132Y682D01*
X2132Y684D01*
X2130Y684D01*
X2130Y686D01*
X2128Y686D01*
X2128Y688D01*
X2126Y688D01*
X2126Y690D01*
X2124Y690D01*
X2124Y692D01*
X2122Y692D01*
X2122Y694D01*
X2120Y694D01*
X2120Y696D01*
X2118Y696D01*
X2118Y698D01*
X2116Y698D01*
X2116Y702D01*
X2114Y702D01*
X2114Y724D01*
X2088Y724D01*
X2088Y778D01*
X2068Y778D01*
G37*
D02*
G36*
X1086Y768D02*
X1086Y748D01*
X1088Y748D01*
X1088Y746D01*
X1092Y746D01*
X1092Y744D01*
X1094Y744D01*
X1094Y742D01*
X1096Y742D01*
X1096Y740D01*
X1098Y740D01*
X1098Y738D01*
X1188Y738D01*
X1188Y736D01*
X1194Y736D01*
X1194Y734D01*
X1196Y734D01*
X1196Y732D01*
X1200Y732D01*
X1200Y730D01*
X1202Y730D01*
X1202Y726D01*
X1204Y726D01*
X1204Y724D01*
X1206Y724D01*
X1206Y720D01*
X1266Y720D01*
X1266Y740D01*
X1264Y740D01*
X1264Y742D01*
X1262Y742D01*
X1262Y744D01*
X1260Y744D01*
X1260Y746D01*
X1258Y746D01*
X1258Y748D01*
X1256Y748D01*
X1256Y750D01*
X1254Y750D01*
X1254Y752D01*
X1252Y752D01*
X1252Y754D01*
X1250Y754D01*
X1250Y756D01*
X1248Y756D01*
X1248Y758D01*
X1246Y758D01*
X1246Y760D01*
X1244Y760D01*
X1244Y762D01*
X1242Y762D01*
X1242Y764D01*
X1240Y764D01*
X1240Y766D01*
X1238Y766D01*
X1238Y768D01*
X1086Y768D01*
G37*
D02*
G36*
X1100Y738D02*
X1100Y736D01*
X1102Y736D01*
X1102Y734D01*
X1104Y734D01*
X1104Y732D01*
X1106Y732D01*
X1106Y730D01*
X1108Y730D01*
X1108Y728D01*
X1110Y728D01*
X1110Y726D01*
X1112Y726D01*
X1112Y724D01*
X1116Y724D01*
X1116Y722D01*
X1118Y722D01*
X1118Y720D01*
X1120Y720D01*
X1120Y718D01*
X1122Y718D01*
X1122Y716D01*
X1124Y716D01*
X1124Y714D01*
X1126Y714D01*
X1126Y712D01*
X1128Y712D01*
X1128Y710D01*
X1130Y710D01*
X1130Y708D01*
X1150Y708D01*
X1150Y718D01*
X1152Y718D01*
X1152Y722D01*
X1154Y722D01*
X1154Y726D01*
X1156Y726D01*
X1156Y728D01*
X1158Y728D01*
X1158Y730D01*
X1160Y730D01*
X1160Y732D01*
X1162Y732D01*
X1162Y734D01*
X1166Y734D01*
X1166Y736D01*
X1170Y736D01*
X1170Y738D01*
X1100Y738D01*
G37*
D02*
G36*
X1020Y668D02*
X1020Y666D01*
X1018Y666D01*
X1018Y662D01*
X1016Y662D01*
X1016Y660D01*
X1014Y660D01*
X1014Y658D01*
X1012Y658D01*
X1012Y654D01*
X1010Y654D01*
X1010Y652D01*
X1008Y652D01*
X1008Y650D01*
X1004Y650D01*
X1004Y648D01*
X1002Y648D01*
X1002Y646D01*
X998Y646D01*
X998Y644D01*
X994Y644D01*
X994Y634D01*
X1014Y634D01*
X1014Y636D01*
X1016Y636D01*
X1016Y638D01*
X1020Y638D01*
X1020Y640D01*
X1024Y640D01*
X1024Y642D01*
X1092Y642D01*
X1092Y662D01*
X1090Y662D01*
X1090Y664D01*
X1088Y664D01*
X1088Y666D01*
X1086Y666D01*
X1086Y668D01*
X1020Y668D01*
G37*
D02*
G36*
X1598Y668D02*
X1598Y666D01*
X1596Y666D01*
X1596Y664D01*
X1594Y664D01*
X1594Y662D01*
X1592Y662D01*
X1592Y660D01*
X1590Y660D01*
X1590Y658D01*
X1588Y658D01*
X1588Y656D01*
X1586Y656D01*
X1586Y654D01*
X1584Y654D01*
X1584Y652D01*
X1582Y652D01*
X1582Y650D01*
X1580Y650D01*
X1580Y648D01*
X1578Y648D01*
X1578Y646D01*
X1576Y646D01*
X1576Y644D01*
X1574Y644D01*
X1574Y642D01*
X1572Y642D01*
X1572Y622D01*
X1726Y622D01*
X1726Y624D01*
X1728Y624D01*
X1728Y626D01*
X1730Y626D01*
X1730Y628D01*
X1734Y628D01*
X1734Y630D01*
X1736Y630D01*
X1736Y632D01*
X1740Y632D01*
X1740Y652D01*
X1620Y652D01*
X1620Y668D01*
X1598Y668D01*
G37*
D02*
G36*
X1034Y610D02*
X1034Y608D01*
X1032Y608D01*
X1032Y606D01*
X1028Y606D01*
X1028Y604D01*
X1026Y604D01*
X1026Y602D01*
X1024Y602D01*
X1024Y600D01*
X1022Y600D01*
X1022Y572D01*
X1020Y572D01*
X1020Y566D01*
X1018Y566D01*
X1018Y562D01*
X1016Y562D01*
X1016Y560D01*
X1014Y560D01*
X1014Y558D01*
X1012Y558D01*
X1012Y554D01*
X1010Y554D01*
X1010Y552D01*
X1008Y552D01*
X1008Y550D01*
X1004Y550D01*
X1004Y548D01*
X1002Y548D01*
X1002Y546D01*
X998Y546D01*
X998Y544D01*
X994Y544D01*
X994Y536D01*
X1016Y536D01*
X1016Y538D01*
X1018Y538D01*
X1018Y540D01*
X1020Y540D01*
X1020Y542D01*
X1022Y542D01*
X1022Y544D01*
X1024Y544D01*
X1024Y546D01*
X1026Y546D01*
X1026Y548D01*
X1028Y548D01*
X1028Y550D01*
X1030Y550D01*
X1030Y552D01*
X1034Y552D01*
X1034Y554D01*
X1036Y554D01*
X1036Y556D01*
X1038Y556D01*
X1038Y558D01*
X1040Y558D01*
X1040Y560D01*
X1042Y560D01*
X1042Y562D01*
X1044Y562D01*
X1044Y564D01*
X1046Y564D01*
X1046Y566D01*
X1048Y566D01*
X1048Y568D01*
X1052Y568D01*
X1052Y570D01*
X1054Y570D01*
X1054Y572D01*
X1056Y572D01*
X1056Y574D01*
X1058Y574D01*
X1058Y576D01*
X1060Y576D01*
X1060Y578D01*
X1062Y578D01*
X1062Y580D01*
X1064Y580D01*
X1064Y582D01*
X1068Y582D01*
X1068Y584D01*
X1070Y584D01*
X1070Y586D01*
X1072Y586D01*
X1072Y588D01*
X1074Y588D01*
X1074Y590D01*
X1076Y590D01*
X1076Y610D01*
X1034Y610D01*
G37*
D02*
G36*
X1122Y590D02*
X1122Y588D01*
X1120Y588D01*
X1120Y586D01*
X1118Y586D01*
X1118Y584D01*
X1116Y584D01*
X1116Y582D01*
X1114Y582D01*
X1114Y580D01*
X1110Y580D01*
X1110Y578D01*
X1108Y578D01*
X1108Y576D01*
X1106Y576D01*
X1106Y574D01*
X1104Y574D01*
X1104Y572D01*
X1102Y572D01*
X1102Y570D01*
X1100Y570D01*
X1100Y568D01*
X1098Y568D01*
X1098Y566D01*
X1096Y566D01*
X1096Y564D01*
X1092Y564D01*
X1092Y562D01*
X1090Y562D01*
X1090Y560D01*
X1088Y560D01*
X1088Y558D01*
X1086Y558D01*
X1086Y556D01*
X1084Y556D01*
X1084Y554D01*
X1082Y554D01*
X1082Y552D01*
X1080Y552D01*
X1080Y550D01*
X1076Y550D01*
X1076Y548D01*
X1074Y548D01*
X1074Y546D01*
X1072Y546D01*
X1072Y544D01*
X1070Y544D01*
X1070Y542D01*
X1068Y542D01*
X1068Y540D01*
X1066Y540D01*
X1066Y538D01*
X1064Y538D01*
X1064Y536D01*
X1062Y536D01*
X1062Y534D01*
X1058Y534D01*
X1058Y532D01*
X1056Y532D01*
X1056Y530D01*
X1054Y530D01*
X1054Y528D01*
X1052Y528D01*
X1052Y526D01*
X1050Y526D01*
X1050Y524D01*
X1048Y524D01*
X1048Y522D01*
X1046Y522D01*
X1046Y520D01*
X1042Y520D01*
X1042Y518D01*
X1040Y518D01*
X1040Y516D01*
X1038Y516D01*
X1038Y514D01*
X1036Y514D01*
X1036Y512D01*
X1034Y512D01*
X1034Y510D01*
X1032Y510D01*
X1032Y508D01*
X1030Y508D01*
X1030Y506D01*
X1028Y506D01*
X1028Y504D01*
X1024Y504D01*
X1024Y502D01*
X1022Y502D01*
X1022Y472D01*
X1020Y472D01*
X1020Y466D01*
X1018Y466D01*
X1018Y462D01*
X1016Y462D01*
X1016Y460D01*
X1014Y460D01*
X1014Y458D01*
X1012Y458D01*
X1012Y454D01*
X1010Y454D01*
X1010Y452D01*
X1008Y452D01*
X1008Y450D01*
X1004Y450D01*
X1004Y448D01*
X1002Y448D01*
X1002Y446D01*
X998Y446D01*
X998Y444D01*
X994Y444D01*
X994Y436D01*
X1014Y436D01*
X1014Y438D01*
X1016Y438D01*
X1016Y440D01*
X1018Y440D01*
X1018Y442D01*
X1020Y442D01*
X1020Y444D01*
X1024Y444D01*
X1024Y446D01*
X1026Y446D01*
X1026Y448D01*
X1028Y448D01*
X1028Y450D01*
X1030Y450D01*
X1030Y452D01*
X1032Y452D01*
X1032Y454D01*
X1034Y454D01*
X1034Y456D01*
X1036Y456D01*
X1036Y458D01*
X1038Y458D01*
X1038Y460D01*
X1040Y460D01*
X1040Y462D01*
X1044Y462D01*
X1044Y464D01*
X1046Y464D01*
X1046Y466D01*
X1048Y466D01*
X1048Y468D01*
X1050Y468D01*
X1050Y470D01*
X1052Y470D01*
X1052Y472D01*
X1054Y472D01*
X1054Y474D01*
X1056Y474D01*
X1056Y476D01*
X1058Y476D01*
X1058Y478D01*
X1060Y478D01*
X1060Y480D01*
X1064Y480D01*
X1064Y482D01*
X1066Y482D01*
X1066Y484D01*
X1068Y484D01*
X1068Y486D01*
X1070Y486D01*
X1070Y488D01*
X1072Y488D01*
X1072Y490D01*
X1074Y490D01*
X1074Y492D01*
X1076Y492D01*
X1076Y494D01*
X1078Y494D01*
X1078Y496D01*
X1080Y496D01*
X1080Y498D01*
X1084Y498D01*
X1084Y500D01*
X1086Y500D01*
X1086Y502D01*
X1088Y502D01*
X1088Y504D01*
X1090Y504D01*
X1090Y506D01*
X1092Y506D01*
X1092Y508D01*
X1094Y508D01*
X1094Y510D01*
X1096Y510D01*
X1096Y512D01*
X1098Y512D01*
X1098Y514D01*
X1100Y514D01*
X1100Y516D01*
X1104Y516D01*
X1104Y518D01*
X1106Y518D01*
X1106Y520D01*
X1108Y520D01*
X1108Y522D01*
X1110Y522D01*
X1110Y524D01*
X1112Y524D01*
X1112Y526D01*
X1114Y526D01*
X1114Y528D01*
X1116Y528D01*
X1116Y530D01*
X1118Y530D01*
X1118Y532D01*
X1120Y532D01*
X1120Y534D01*
X1124Y534D01*
X1124Y536D01*
X1126Y536D01*
X1126Y538D01*
X1128Y538D01*
X1128Y540D01*
X1130Y540D01*
X1130Y542D01*
X1132Y542D01*
X1132Y544D01*
X1134Y544D01*
X1134Y546D01*
X1136Y546D01*
X1136Y548D01*
X1138Y548D01*
X1138Y550D01*
X1140Y550D01*
X1140Y552D01*
X1144Y552D01*
X1144Y554D01*
X1146Y554D01*
X1146Y556D01*
X1148Y556D01*
X1148Y558D01*
X1150Y558D01*
X1150Y560D01*
X1152Y560D01*
X1152Y562D01*
X1154Y562D01*
X1154Y564D01*
X1156Y564D01*
X1156Y566D01*
X1158Y566D01*
X1158Y568D01*
X1162Y568D01*
X1162Y570D01*
X1164Y570D01*
X1164Y590D01*
X1122Y590D01*
G37*
D02*
G36*
X1208Y570D02*
X1208Y568D01*
X1206Y568D01*
X1206Y566D01*
X1204Y566D01*
X1204Y564D01*
X1202Y564D01*
X1202Y562D01*
X1200Y562D01*
X1200Y560D01*
X1198Y560D01*
X1198Y558D01*
X1196Y558D01*
X1196Y556D01*
X1194Y556D01*
X1194Y554D01*
X1192Y554D01*
X1192Y552D01*
X1188Y552D01*
X1188Y550D01*
X1186Y550D01*
X1186Y548D01*
X1184Y548D01*
X1184Y546D01*
X1182Y546D01*
X1182Y544D01*
X1180Y544D01*
X1180Y542D01*
X1178Y542D01*
X1178Y540D01*
X1176Y540D01*
X1176Y538D01*
X1174Y538D01*
X1174Y536D01*
X1172Y536D01*
X1172Y534D01*
X1168Y534D01*
X1168Y532D01*
X1166Y532D01*
X1166Y530D01*
X1164Y530D01*
X1164Y528D01*
X1162Y528D01*
X1162Y526D01*
X1160Y526D01*
X1160Y524D01*
X1158Y524D01*
X1158Y522D01*
X1156Y522D01*
X1156Y520D01*
X1154Y520D01*
X1154Y518D01*
X1152Y518D01*
X1152Y516D01*
X1148Y516D01*
X1148Y514D01*
X1146Y514D01*
X1146Y512D01*
X1144Y512D01*
X1144Y510D01*
X1142Y510D01*
X1142Y508D01*
X1140Y508D01*
X1140Y506D01*
X1138Y506D01*
X1138Y504D01*
X1136Y504D01*
X1136Y502D01*
X1134Y502D01*
X1134Y500D01*
X1132Y500D01*
X1132Y498D01*
X1128Y498D01*
X1128Y496D01*
X1126Y496D01*
X1126Y494D01*
X1124Y494D01*
X1124Y492D01*
X1122Y492D01*
X1122Y490D01*
X1120Y490D01*
X1120Y488D01*
X1118Y488D01*
X1118Y486D01*
X1116Y486D01*
X1116Y484D01*
X1114Y484D01*
X1114Y482D01*
X1112Y482D01*
X1112Y480D01*
X1108Y480D01*
X1108Y478D01*
X1106Y478D01*
X1106Y476D01*
X1104Y476D01*
X1104Y474D01*
X1102Y474D01*
X1102Y472D01*
X1100Y472D01*
X1100Y470D01*
X1098Y470D01*
X1098Y468D01*
X1096Y468D01*
X1096Y466D01*
X1094Y466D01*
X1094Y464D01*
X1090Y464D01*
X1090Y462D01*
X1088Y462D01*
X1088Y460D01*
X1086Y460D01*
X1086Y458D01*
X1084Y458D01*
X1084Y456D01*
X1082Y456D01*
X1082Y454D01*
X1080Y454D01*
X1080Y452D01*
X1078Y452D01*
X1078Y450D01*
X1076Y450D01*
X1076Y448D01*
X1074Y448D01*
X1074Y446D01*
X1070Y446D01*
X1070Y444D01*
X1068Y444D01*
X1068Y442D01*
X1066Y442D01*
X1066Y440D01*
X1064Y440D01*
X1064Y438D01*
X1062Y438D01*
X1062Y436D01*
X1060Y436D01*
X1060Y434D01*
X1058Y434D01*
X1058Y432D01*
X1056Y432D01*
X1056Y430D01*
X1054Y430D01*
X1054Y428D01*
X1050Y428D01*
X1050Y426D01*
X1048Y426D01*
X1048Y424D01*
X1046Y424D01*
X1046Y422D01*
X1044Y422D01*
X1044Y420D01*
X1042Y420D01*
X1042Y418D01*
X1040Y418D01*
X1040Y416D01*
X1038Y416D01*
X1038Y414D01*
X1036Y414D01*
X1036Y412D01*
X1034Y412D01*
X1034Y410D01*
X1030Y410D01*
X1030Y408D01*
X1028Y408D01*
X1028Y406D01*
X1026Y406D01*
X1026Y404D01*
X1024Y404D01*
X1024Y402D01*
X1022Y402D01*
X1022Y372D01*
X1020Y372D01*
X1020Y366D01*
X1018Y366D01*
X1018Y362D01*
X1016Y362D01*
X1016Y360D01*
X1014Y360D01*
X1014Y358D01*
X1012Y358D01*
X1012Y354D01*
X1010Y354D01*
X1010Y352D01*
X1008Y352D01*
X1008Y350D01*
X1028Y350D01*
X1028Y352D01*
X1032Y352D01*
X1032Y354D01*
X1034Y354D01*
X1034Y356D01*
X1036Y356D01*
X1036Y358D01*
X1038Y358D01*
X1038Y360D01*
X1040Y360D01*
X1040Y362D01*
X1042Y362D01*
X1042Y364D01*
X1044Y364D01*
X1044Y366D01*
X1046Y366D01*
X1046Y368D01*
X1048Y368D01*
X1048Y370D01*
X1050Y370D01*
X1050Y372D01*
X1054Y372D01*
X1054Y374D01*
X1056Y374D01*
X1056Y376D01*
X1058Y376D01*
X1058Y378D01*
X1060Y378D01*
X1060Y380D01*
X1062Y380D01*
X1062Y382D01*
X1064Y382D01*
X1064Y384D01*
X1066Y384D01*
X1066Y386D01*
X1068Y386D01*
X1068Y388D01*
X1070Y388D01*
X1070Y390D01*
X1072Y390D01*
X1072Y392D01*
X1074Y392D01*
X1074Y394D01*
X1078Y394D01*
X1078Y396D01*
X1080Y396D01*
X1080Y398D01*
X1082Y398D01*
X1082Y400D01*
X1084Y400D01*
X1084Y402D01*
X1086Y402D01*
X1086Y404D01*
X1088Y404D01*
X1088Y406D01*
X1090Y406D01*
X1090Y408D01*
X1092Y408D01*
X1092Y410D01*
X1094Y410D01*
X1094Y412D01*
X1096Y412D01*
X1096Y414D01*
X1100Y414D01*
X1100Y416D01*
X1102Y416D01*
X1102Y418D01*
X1104Y418D01*
X1104Y420D01*
X1106Y420D01*
X1106Y422D01*
X1108Y422D01*
X1108Y424D01*
X1110Y424D01*
X1110Y426D01*
X1112Y426D01*
X1112Y428D01*
X1114Y428D01*
X1114Y430D01*
X1116Y430D01*
X1116Y432D01*
X1118Y432D01*
X1118Y434D01*
X1120Y434D01*
X1120Y436D01*
X1124Y436D01*
X1124Y438D01*
X1126Y438D01*
X1126Y440D01*
X1128Y440D01*
X1128Y442D01*
X1130Y442D01*
X1130Y444D01*
X1132Y444D01*
X1132Y446D01*
X1134Y446D01*
X1134Y448D01*
X1136Y448D01*
X1136Y450D01*
X1138Y450D01*
X1138Y452D01*
X1140Y452D01*
X1140Y454D01*
X1142Y454D01*
X1142Y456D01*
X1146Y456D01*
X1146Y458D01*
X1148Y458D01*
X1148Y460D01*
X1150Y460D01*
X1150Y462D01*
X1152Y462D01*
X1152Y464D01*
X1154Y464D01*
X1154Y466D01*
X1156Y466D01*
X1156Y468D01*
X1158Y468D01*
X1158Y470D01*
X1160Y470D01*
X1160Y472D01*
X1162Y472D01*
X1162Y474D01*
X1164Y474D01*
X1164Y476D01*
X1168Y476D01*
X1168Y478D01*
X1170Y478D01*
X1170Y480D01*
X1172Y480D01*
X1172Y482D01*
X1174Y482D01*
X1174Y484D01*
X1176Y484D01*
X1176Y486D01*
X1178Y486D01*
X1178Y488D01*
X1180Y488D01*
X1180Y490D01*
X1182Y490D01*
X1182Y492D01*
X1184Y492D01*
X1184Y494D01*
X1186Y494D01*
X1186Y496D01*
X1188Y496D01*
X1188Y498D01*
X1192Y498D01*
X1192Y500D01*
X1194Y500D01*
X1194Y502D01*
X1196Y502D01*
X1196Y504D01*
X1198Y504D01*
X1198Y506D01*
X1200Y506D01*
X1200Y508D01*
X1202Y508D01*
X1202Y510D01*
X1204Y510D01*
X1204Y512D01*
X1206Y512D01*
X1206Y514D01*
X1208Y514D01*
X1208Y516D01*
X1210Y516D01*
X1210Y518D01*
X1214Y518D01*
X1214Y520D01*
X1216Y520D01*
X1216Y522D01*
X1218Y522D01*
X1218Y524D01*
X1220Y524D01*
X1220Y526D01*
X1222Y526D01*
X1222Y528D01*
X1224Y528D01*
X1224Y530D01*
X1226Y530D01*
X1226Y532D01*
X1228Y532D01*
X1228Y534D01*
X1230Y534D01*
X1230Y536D01*
X1232Y536D01*
X1232Y538D01*
X1236Y538D01*
X1236Y540D01*
X1238Y540D01*
X1238Y570D01*
X1208Y570D01*
G37*
D02*
G36*
X1556Y550D02*
X1556Y530D01*
X1558Y530D01*
X1558Y528D01*
X1560Y528D01*
X1560Y526D01*
X1562Y526D01*
X1562Y524D01*
X1564Y524D01*
X1564Y522D01*
X1566Y522D01*
X1566Y520D01*
X1568Y520D01*
X1568Y518D01*
X1570Y518D01*
X1570Y516D01*
X1572Y516D01*
X1572Y514D01*
X1586Y514D01*
X1586Y512D01*
X1592Y512D01*
X1592Y510D01*
X1596Y510D01*
X1596Y508D01*
X1598Y508D01*
X1598Y506D01*
X1600Y506D01*
X1600Y504D01*
X1602Y504D01*
X1602Y502D01*
X1604Y502D01*
X1604Y498D01*
X1606Y498D01*
X1606Y494D01*
X1608Y494D01*
X1608Y474D01*
X1606Y474D01*
X1606Y470D01*
X1604Y470D01*
X1604Y450D01*
X1650Y450D01*
X1650Y452D01*
X1652Y452D01*
X1652Y454D01*
X1654Y454D01*
X1654Y456D01*
X1656Y456D01*
X1656Y458D01*
X1658Y458D01*
X1658Y460D01*
X1660Y460D01*
X1660Y462D01*
X1664Y462D01*
X1664Y464D01*
X1666Y464D01*
X1666Y466D01*
X1668Y466D01*
X1668Y468D01*
X1670Y468D01*
X1670Y470D01*
X1672Y470D01*
X1672Y472D01*
X1674Y472D01*
X1674Y474D01*
X1678Y474D01*
X1678Y476D01*
X1680Y476D01*
X1680Y478D01*
X1682Y478D01*
X1682Y480D01*
X1684Y480D01*
X1684Y482D01*
X1686Y482D01*
X1686Y484D01*
X1688Y484D01*
X1688Y486D01*
X1690Y486D01*
X1690Y488D01*
X1694Y488D01*
X1694Y490D01*
X1696Y490D01*
X1696Y492D01*
X1698Y492D01*
X1698Y494D01*
X1700Y494D01*
X1700Y496D01*
X1702Y496D01*
X1702Y498D01*
X1704Y498D01*
X1704Y500D01*
X1708Y500D01*
X1708Y502D01*
X1710Y502D01*
X1710Y504D01*
X1712Y504D01*
X1712Y506D01*
X1714Y506D01*
X1714Y508D01*
X1716Y508D01*
X1716Y510D01*
X1718Y510D01*
X1718Y512D01*
X1720Y512D01*
X1720Y514D01*
X1724Y514D01*
X1724Y516D01*
X1726Y516D01*
X1726Y518D01*
X1728Y518D01*
X1728Y520D01*
X1730Y520D01*
X1730Y522D01*
X1732Y522D01*
X1732Y524D01*
X1734Y524D01*
X1734Y526D01*
X1738Y526D01*
X1738Y528D01*
X1740Y528D01*
X1740Y530D01*
X1742Y530D01*
X1742Y550D01*
X1556Y550D01*
G37*
D02*
G36*
X1896Y534D02*
X1896Y532D01*
X1894Y532D01*
X1894Y530D01*
X1892Y530D01*
X1892Y528D01*
X1890Y528D01*
X1890Y526D01*
X1888Y526D01*
X1888Y524D01*
X1886Y524D01*
X1886Y522D01*
X1882Y522D01*
X1882Y520D01*
X1880Y520D01*
X1880Y518D01*
X1878Y518D01*
X1878Y516D01*
X1876Y516D01*
X1876Y514D01*
X1874Y514D01*
X1874Y512D01*
X1872Y512D01*
X1872Y510D01*
X1870Y510D01*
X1870Y508D01*
X1868Y508D01*
X1868Y506D01*
X1864Y506D01*
X1864Y504D01*
X1862Y504D01*
X1862Y502D01*
X1860Y502D01*
X1860Y500D01*
X1858Y500D01*
X1858Y498D01*
X1856Y498D01*
X1856Y496D01*
X1854Y496D01*
X1854Y494D01*
X1852Y494D01*
X1852Y492D01*
X1850Y492D01*
X1850Y490D01*
X1846Y490D01*
X1846Y488D01*
X1844Y488D01*
X1844Y486D01*
X1842Y486D01*
X1842Y484D01*
X1840Y484D01*
X1840Y482D01*
X1838Y482D01*
X1838Y480D01*
X1836Y480D01*
X1836Y478D01*
X1834Y478D01*
X1834Y476D01*
X1832Y476D01*
X1832Y474D01*
X1830Y474D01*
X1830Y472D01*
X1826Y472D01*
X1826Y470D01*
X1824Y470D01*
X1824Y468D01*
X1822Y468D01*
X1822Y466D01*
X1820Y466D01*
X1820Y464D01*
X1818Y464D01*
X1818Y462D01*
X1816Y462D01*
X1816Y460D01*
X1814Y460D01*
X1814Y458D01*
X1812Y458D01*
X1812Y456D01*
X1808Y456D01*
X1808Y454D01*
X1806Y454D01*
X1806Y452D01*
X1804Y452D01*
X1804Y450D01*
X1802Y450D01*
X1802Y448D01*
X1800Y448D01*
X1800Y446D01*
X1798Y446D01*
X1798Y444D01*
X1796Y444D01*
X1796Y442D01*
X1794Y442D01*
X1794Y440D01*
X1792Y440D01*
X1792Y438D01*
X1788Y438D01*
X1788Y436D01*
X1786Y436D01*
X1786Y434D01*
X1784Y434D01*
X1784Y432D01*
X1782Y432D01*
X1782Y430D01*
X1780Y430D01*
X1780Y428D01*
X1778Y428D01*
X1778Y426D01*
X1776Y426D01*
X1776Y424D01*
X1774Y424D01*
X1774Y422D01*
X1770Y422D01*
X1770Y420D01*
X1768Y420D01*
X1768Y418D01*
X1766Y418D01*
X1766Y416D01*
X1764Y416D01*
X1764Y414D01*
X1762Y414D01*
X1762Y412D01*
X1760Y412D01*
X1760Y410D01*
X1758Y410D01*
X1758Y408D01*
X1756Y408D01*
X1756Y406D01*
X1754Y406D01*
X1754Y404D01*
X1750Y404D01*
X1750Y402D01*
X1748Y402D01*
X1748Y400D01*
X1746Y400D01*
X1746Y398D01*
X1744Y398D01*
X1744Y396D01*
X1742Y396D01*
X1742Y394D01*
X1740Y394D01*
X1740Y374D01*
X1798Y374D01*
X1798Y376D01*
X1800Y376D01*
X1800Y378D01*
X1802Y378D01*
X1802Y380D01*
X1804Y380D01*
X1804Y382D01*
X1806Y382D01*
X1806Y384D01*
X1808Y384D01*
X1808Y386D01*
X1810Y386D01*
X1810Y388D01*
X1812Y388D01*
X1812Y390D01*
X1814Y390D01*
X1814Y392D01*
X1816Y392D01*
X1816Y394D01*
X1818Y394D01*
X1818Y396D01*
X1820Y396D01*
X1820Y398D01*
X1822Y398D01*
X1822Y400D01*
X1824Y400D01*
X1824Y402D01*
X1826Y402D01*
X1826Y404D01*
X1828Y404D01*
X1828Y406D01*
X1830Y406D01*
X1830Y408D01*
X1832Y408D01*
X1832Y410D01*
X1834Y410D01*
X1834Y412D01*
X1836Y412D01*
X1836Y414D01*
X1838Y414D01*
X1838Y416D01*
X1840Y416D01*
X1840Y418D01*
X1842Y418D01*
X1842Y420D01*
X1844Y420D01*
X1844Y422D01*
X1846Y422D01*
X1846Y424D01*
X1848Y424D01*
X1848Y426D01*
X1850Y426D01*
X1850Y428D01*
X1852Y428D01*
X1852Y430D01*
X1854Y430D01*
X1854Y432D01*
X1856Y432D01*
X1856Y434D01*
X1858Y434D01*
X1858Y436D01*
X1860Y436D01*
X1860Y438D01*
X1862Y438D01*
X1862Y440D01*
X1864Y440D01*
X1864Y442D01*
X1866Y442D01*
X1866Y444D01*
X1868Y444D01*
X1868Y446D01*
X1870Y446D01*
X1870Y448D01*
X1872Y448D01*
X1872Y450D01*
X1874Y450D01*
X1874Y452D01*
X1876Y452D01*
X1876Y454D01*
X1878Y454D01*
X1878Y456D01*
X1880Y456D01*
X1880Y458D01*
X1882Y458D01*
X1882Y460D01*
X1884Y460D01*
X1884Y462D01*
X1886Y462D01*
X1886Y494D01*
X1888Y494D01*
X1888Y500D01*
X1890Y500D01*
X1890Y504D01*
X1892Y504D01*
X1892Y508D01*
X1894Y508D01*
X1894Y510D01*
X1896Y510D01*
X1896Y512D01*
X1898Y512D01*
X1898Y516D01*
X1902Y516D01*
X1902Y518D01*
X1904Y518D01*
X1904Y520D01*
X1906Y520D01*
X1906Y522D01*
X1910Y522D01*
X1910Y524D01*
X1916Y524D01*
X1916Y534D01*
X1896Y534D01*
G37*
D02*
G36*
X1258Y518D02*
X1258Y516D01*
X1256Y516D01*
X1256Y514D01*
X1254Y514D01*
X1254Y512D01*
X1252Y512D01*
X1252Y510D01*
X1250Y510D01*
X1250Y508D01*
X1248Y508D01*
X1248Y506D01*
X1246Y506D01*
X1246Y504D01*
X1244Y504D01*
X1244Y502D01*
X1240Y502D01*
X1240Y500D01*
X1238Y500D01*
X1238Y498D01*
X1236Y498D01*
X1236Y496D01*
X1234Y496D01*
X1234Y494D01*
X1232Y494D01*
X1232Y492D01*
X1230Y492D01*
X1230Y490D01*
X1228Y490D01*
X1228Y488D01*
X1226Y488D01*
X1226Y486D01*
X1224Y486D01*
X1224Y484D01*
X1222Y484D01*
X1222Y482D01*
X1218Y482D01*
X1218Y480D01*
X1216Y480D01*
X1216Y478D01*
X1214Y478D01*
X1214Y476D01*
X1212Y476D01*
X1212Y474D01*
X1210Y474D01*
X1210Y472D01*
X1208Y472D01*
X1208Y470D01*
X1206Y470D01*
X1206Y468D01*
X1204Y468D01*
X1204Y466D01*
X1202Y466D01*
X1202Y464D01*
X1200Y464D01*
X1200Y462D01*
X1198Y462D01*
X1198Y460D01*
X1194Y460D01*
X1194Y458D01*
X1192Y458D01*
X1192Y456D01*
X1190Y456D01*
X1190Y454D01*
X1188Y454D01*
X1188Y452D01*
X1186Y452D01*
X1186Y450D01*
X1184Y450D01*
X1184Y448D01*
X1182Y448D01*
X1182Y446D01*
X1180Y446D01*
X1180Y444D01*
X1178Y444D01*
X1178Y442D01*
X1176Y442D01*
X1176Y440D01*
X1172Y440D01*
X1172Y438D01*
X1170Y438D01*
X1170Y436D01*
X1168Y436D01*
X1168Y434D01*
X1166Y434D01*
X1166Y432D01*
X1164Y432D01*
X1164Y430D01*
X1162Y430D01*
X1162Y428D01*
X1160Y428D01*
X1160Y426D01*
X1158Y426D01*
X1158Y424D01*
X1156Y424D01*
X1156Y422D01*
X1154Y422D01*
X1154Y420D01*
X1150Y420D01*
X1150Y418D01*
X1148Y418D01*
X1148Y416D01*
X1146Y416D01*
X1146Y414D01*
X1144Y414D01*
X1144Y412D01*
X1142Y412D01*
X1142Y410D01*
X1140Y410D01*
X1140Y408D01*
X1138Y408D01*
X1138Y406D01*
X1136Y406D01*
X1136Y404D01*
X1134Y404D01*
X1134Y402D01*
X1132Y402D01*
X1132Y400D01*
X1130Y400D01*
X1130Y398D01*
X1126Y398D01*
X1126Y396D01*
X1124Y396D01*
X1124Y394D01*
X1122Y394D01*
X1122Y392D01*
X1120Y392D01*
X1120Y390D01*
X1118Y390D01*
X1118Y388D01*
X1116Y388D01*
X1116Y386D01*
X1114Y386D01*
X1114Y384D01*
X1112Y384D01*
X1112Y382D01*
X1110Y382D01*
X1110Y380D01*
X1108Y380D01*
X1108Y378D01*
X1104Y378D01*
X1104Y376D01*
X1102Y376D01*
X1102Y374D01*
X1100Y374D01*
X1100Y372D01*
X1098Y372D01*
X1098Y370D01*
X1096Y370D01*
X1096Y368D01*
X1094Y368D01*
X1094Y366D01*
X1092Y366D01*
X1092Y364D01*
X1090Y364D01*
X1090Y362D01*
X1088Y362D01*
X1088Y360D01*
X1086Y360D01*
X1086Y358D01*
X1082Y358D01*
X1082Y356D01*
X1080Y356D01*
X1080Y354D01*
X1078Y354D01*
X1078Y352D01*
X1076Y352D01*
X1076Y350D01*
X1074Y350D01*
X1074Y348D01*
X1072Y348D01*
X1072Y346D01*
X1070Y346D01*
X1070Y344D01*
X1068Y344D01*
X1068Y342D01*
X1066Y342D01*
X1066Y340D01*
X1064Y340D01*
X1064Y338D01*
X1062Y338D01*
X1062Y336D01*
X1058Y336D01*
X1058Y334D01*
X1056Y334D01*
X1056Y332D01*
X1054Y332D01*
X1054Y330D01*
X1052Y330D01*
X1052Y328D01*
X1050Y328D01*
X1050Y326D01*
X1048Y326D01*
X1048Y324D01*
X1046Y324D01*
X1046Y322D01*
X1044Y322D01*
X1044Y320D01*
X1042Y320D01*
X1042Y318D01*
X1040Y318D01*
X1040Y316D01*
X1036Y316D01*
X1036Y314D01*
X1034Y314D01*
X1034Y312D01*
X1032Y312D01*
X1032Y310D01*
X1030Y310D01*
X1030Y308D01*
X1028Y308D01*
X1028Y306D01*
X1026Y306D01*
X1026Y304D01*
X1024Y304D01*
X1024Y302D01*
X1022Y302D01*
X1022Y272D01*
X1020Y272D01*
X1020Y266D01*
X1018Y266D01*
X1018Y262D01*
X1016Y262D01*
X1016Y260D01*
X1014Y260D01*
X1014Y258D01*
X1012Y258D01*
X1012Y238D01*
X1896Y238D01*
X1896Y258D01*
X1894Y258D01*
X1894Y260D01*
X1892Y260D01*
X1892Y264D01*
X1890Y264D01*
X1890Y268D01*
X1400Y268D01*
X1400Y270D01*
X1396Y270D01*
X1396Y272D01*
X1394Y272D01*
X1394Y274D01*
X1390Y274D01*
X1390Y276D01*
X1388Y276D01*
X1388Y278D01*
X1386Y278D01*
X1386Y280D01*
X1382Y280D01*
X1382Y282D01*
X1380Y282D01*
X1380Y284D01*
X1378Y284D01*
X1378Y286D01*
X1376Y286D01*
X1376Y288D01*
X1372Y288D01*
X1372Y290D01*
X1370Y290D01*
X1370Y292D01*
X1368Y292D01*
X1368Y294D01*
X1364Y294D01*
X1364Y296D01*
X1362Y296D01*
X1362Y298D01*
X1360Y298D01*
X1360Y300D01*
X1356Y300D01*
X1356Y302D01*
X1354Y302D01*
X1354Y304D01*
X1352Y304D01*
X1352Y306D01*
X1348Y306D01*
X1348Y308D01*
X1346Y308D01*
X1346Y310D01*
X1344Y310D01*
X1344Y312D01*
X1340Y312D01*
X1340Y314D01*
X1338Y314D01*
X1338Y316D01*
X1336Y316D01*
X1336Y318D01*
X1334Y318D01*
X1334Y320D01*
X1330Y320D01*
X1330Y322D01*
X1328Y322D01*
X1328Y324D01*
X1326Y324D01*
X1326Y326D01*
X1322Y326D01*
X1322Y328D01*
X1320Y328D01*
X1320Y330D01*
X1318Y330D01*
X1318Y332D01*
X1314Y332D01*
X1314Y334D01*
X1312Y334D01*
X1312Y336D01*
X1310Y336D01*
X1310Y338D01*
X1306Y338D01*
X1306Y340D01*
X1304Y340D01*
X1304Y342D01*
X1302Y342D01*
X1302Y344D01*
X1300Y344D01*
X1300Y346D01*
X1296Y346D01*
X1296Y348D01*
X1294Y348D01*
X1294Y350D01*
X1292Y350D01*
X1292Y352D01*
X1288Y352D01*
X1288Y354D01*
X1286Y354D01*
X1286Y356D01*
X1284Y356D01*
X1284Y358D01*
X1280Y358D01*
X1280Y360D01*
X1278Y360D01*
X1278Y364D01*
X1276Y364D01*
X1276Y444D01*
X1278Y444D01*
X1278Y518D01*
X1258Y518D01*
G37*
D02*
G36*
X1870Y402D02*
X1870Y400D01*
X1868Y400D01*
X1868Y398D01*
X1866Y398D01*
X1866Y396D01*
X1864Y396D01*
X1864Y394D01*
X1862Y394D01*
X1862Y392D01*
X1860Y392D01*
X1860Y390D01*
X1858Y390D01*
X1858Y388D01*
X1856Y388D01*
X1856Y386D01*
X1854Y386D01*
X1854Y384D01*
X1852Y384D01*
X1852Y382D01*
X1850Y382D01*
X1850Y380D01*
X1848Y380D01*
X1848Y378D01*
X1846Y378D01*
X1846Y376D01*
X1844Y376D01*
X1844Y374D01*
X1842Y374D01*
X1842Y372D01*
X1840Y372D01*
X1840Y370D01*
X1838Y370D01*
X1838Y350D01*
X1862Y350D01*
X1862Y352D01*
X1864Y352D01*
X1864Y354D01*
X1868Y354D01*
X1868Y356D01*
X1870Y356D01*
X1870Y358D01*
X1872Y358D01*
X1872Y360D01*
X1874Y360D01*
X1874Y362D01*
X1878Y362D01*
X1878Y364D01*
X1880Y364D01*
X1880Y366D01*
X1882Y366D01*
X1882Y368D01*
X1884Y368D01*
X1884Y370D01*
X1886Y370D01*
X1886Y394D01*
X1888Y394D01*
X1888Y400D01*
X1890Y400D01*
X1890Y402D01*
X1870Y402D01*
G37*
D02*
G36*
X1236Y692D02*
X1262Y692D01*
X1262Y681D01*
X1236Y681D01*
X1236Y692D01*
G37*
D02*
G36*
X2335Y224D02*
X2348Y224D01*
X2348Y184D01*
X2335Y184D01*
X2335Y224D01*
G37*
D02*
G36*
X1882Y1238D02*
X1921Y1238D01*
X1921Y1216D01*
X1882Y1216D01*
X1882Y1238D01*
G37*
D02*
G36*
X1882Y1182D02*
X1921Y1182D01*
X1921Y1154D01*
X1882Y1154D01*
X1882Y1182D01*
G37*
D02*
G36*
X2348Y883D02*
X2378Y883D01*
X2378Y838D01*
X2348Y838D01*
X2348Y883D01*
G37*
D02*
G36*
X1782Y1228D02*
X1821Y1228D01*
X1821Y1206D01*
X1782Y1206D01*
X1782Y1228D01*
G37*
D02*
G36*
X450Y883D02*
X478Y883D01*
X478Y838D01*
X450Y838D01*
X450Y883D01*
G37*
D02*
G36*
X1408Y718D02*
X1408Y750D01*
X1419Y750D01*
X1419Y718D01*
X1408Y718D01*
G37*
D02*
G36*
X1447Y581D02*
X1447Y592D01*
X1478Y592D01*
X1478Y581D01*
X1447Y581D01*
G37*
D02*
G36*
X1309Y521D02*
X1309Y553D01*
X1320Y553D01*
X1320Y521D01*
X1309Y521D01*
G37*
D02*
G36*
X1388Y718D02*
X1388Y750D01*
X1399Y750D01*
X1399Y718D01*
X1388Y718D01*
G37*
D02*
G36*
X1388Y521D02*
X1388Y553D01*
X1399Y553D01*
X1399Y521D01*
X1388Y521D01*
G37*
D02*
G36*
X1368Y718D02*
X1368Y750D01*
X1380Y750D01*
X1380Y718D01*
X1368Y718D01*
G37*
D02*
G36*
X1447Y659D02*
X1447Y671D01*
X1478Y671D01*
X1478Y659D01*
X1447Y659D01*
G37*
D02*
G36*
X1349Y718D02*
X1349Y750D01*
X1360Y750D01*
X1360Y718D01*
X1349Y718D01*
G37*
D02*
G36*
X1349Y521D02*
X1349Y553D01*
X1360Y553D01*
X1360Y521D01*
X1349Y521D01*
G37*
D02*
G36*
X1329Y718D02*
X1329Y750D01*
X1340Y750D01*
X1340Y718D01*
X1329Y718D01*
G37*
D02*
G36*
X1427Y521D02*
X1427Y553D01*
X1439Y553D01*
X1439Y521D01*
X1427Y521D01*
G37*
D02*
G36*
X1309Y718D02*
X1309Y750D01*
X1320Y750D01*
X1320Y718D01*
X1309Y718D01*
G37*
D02*
G36*
X1447Y620D02*
X1447Y631D01*
X1478Y631D01*
X1478Y620D01*
X1447Y620D01*
G37*
D02*
G36*
X1290Y718D02*
X1290Y750D01*
X1301Y750D01*
X1301Y718D01*
X1290Y718D01*
G37*
D02*
G36*
X1447Y699D02*
X1447Y710D01*
X1478Y710D01*
X1478Y699D01*
X1447Y699D01*
G37*
D02*
G36*
X1250Y699D02*
X1250Y710D01*
X1281Y710D01*
X1281Y699D01*
X1250Y699D01*
G37*
D02*
G36*
X1329Y521D02*
X1329Y553D01*
X1340Y553D01*
X1340Y521D01*
X1329Y521D01*
G37*
D02*
G36*
X1250Y679D02*
X1250Y690D01*
X1281Y690D01*
X1281Y679D01*
X1250Y679D01*
G37*
D02*
G36*
X1368Y521D02*
X1368Y553D01*
X1380Y553D01*
X1380Y521D01*
X1368Y521D01*
G37*
D02*
G36*
X1250Y659D02*
X1250Y671D01*
X1281Y671D01*
X1281Y659D01*
X1250Y659D01*
G37*
D02*
G36*
X1408Y521D02*
X1408Y553D01*
X1419Y553D01*
X1419Y521D01*
X1408Y521D01*
G37*
D02*
G36*
X1250Y640D02*
X1250Y651D01*
X1281Y651D01*
X1281Y640D01*
X1250Y640D01*
G37*
D02*
G36*
X1447Y561D02*
X1447Y572D01*
X1478Y572D01*
X1478Y561D01*
X1447Y561D01*
G37*
D02*
G36*
X1250Y620D02*
X1250Y631D01*
X1281Y631D01*
X1281Y620D01*
X1250Y620D01*
G37*
D02*
G36*
X1447Y600D02*
X1447Y612D01*
X1478Y612D01*
X1478Y600D01*
X1447Y600D01*
G37*
D02*
G36*
X1250Y600D02*
X1250Y612D01*
X1281Y612D01*
X1281Y600D01*
X1250Y600D01*
G37*
D02*
G36*
X1447Y640D02*
X1447Y651D01*
X1478Y651D01*
X1478Y640D01*
X1447Y640D01*
G37*
D02*
G36*
X1250Y581D02*
X1250Y592D01*
X1281Y592D01*
X1281Y581D01*
X1250Y581D01*
G37*
D02*
G36*
X1447Y679D02*
X1447Y690D01*
X1478Y690D01*
X1478Y679D01*
X1447Y679D01*
G37*
D02*
G36*
X1250Y561D02*
X1250Y572D01*
X1281Y572D01*
X1281Y561D01*
X1250Y561D01*
G37*
D02*
G36*
X1290Y521D02*
X1290Y553D01*
X1301Y553D01*
X1301Y521D01*
X1290Y521D01*
G37*
D02*
G36*
X1427Y718D02*
X1427Y750D01*
X1439Y750D01*
X1439Y718D01*
X1427Y718D01*
G37*
D02*
G54D26*
X2480Y515D02*
X2630Y515D01*
X2475Y514D02*
X2636Y514D01*
X2471Y513D02*
X2639Y513D01*
X2468Y512D02*
X2642Y512D01*
X2466Y511D02*
X2644Y511D01*
X2464Y510D02*
X2646Y510D01*
X2462Y509D02*
X2648Y509D01*
X2460Y508D02*
X2650Y508D01*
X2459Y507D02*
X2651Y507D01*
X2458Y506D02*
X2490Y506D01*
X2620Y506D02*
X2653Y506D01*
X2456Y505D02*
X2481Y505D01*
X2629Y505D02*
X2654Y505D01*
X2455Y504D02*
X2477Y504D01*
X2633Y504D02*
X2655Y504D01*
X2454Y503D02*
X2474Y503D01*
X2636Y503D02*
X2656Y503D01*
X2453Y502D02*
X2472Y502D01*
X2638Y502D02*
X2657Y502D01*
X2452Y501D02*
X2470Y501D01*
X2640Y501D02*
X2658Y501D01*
X2451Y500D02*
X2468Y500D01*
X2642Y500D02*
X2659Y500D01*
X2450Y499D02*
X2467Y499D01*
X2644Y499D02*
X2660Y499D01*
X2449Y498D02*
X2465Y498D01*
X2645Y498D02*
X2661Y498D01*
X2448Y497D02*
X2464Y497D01*
X2646Y497D02*
X2662Y497D01*
X2448Y496D02*
X2463Y496D01*
X2648Y496D02*
X2663Y496D01*
X2447Y495D02*
X2461Y495D01*
X2649Y495D02*
X2663Y495D01*
X2446Y494D02*
X2460Y494D01*
X2650Y494D02*
X2664Y494D01*
X2446Y493D02*
X2459Y493D01*
X2651Y493D02*
X2665Y493D01*
X2445Y492D02*
X2458Y492D01*
X2652Y492D02*
X2665Y492D01*
X2444Y491D02*
X2457Y491D01*
X2653Y491D02*
X2666Y491D01*
X2444Y490D02*
X2457Y490D01*
X2654Y490D02*
X2666Y490D01*
X2444Y489D02*
X2456Y489D01*
X2654Y489D02*
X2667Y489D01*
X2443Y488D02*
X2455Y488D01*
X2655Y488D02*
X2667Y488D01*
X2443Y487D02*
X2454Y487D01*
X2656Y487D02*
X2668Y487D01*
X2442Y486D02*
X2454Y486D01*
X2656Y486D02*
X2668Y486D01*
X2442Y485D02*
X2453Y485D01*
X2657Y485D02*
X2668Y485D01*
X2441Y484D02*
X2453Y484D01*
X2658Y484D02*
X2669Y484D01*
X2441Y483D02*
X2452Y483D01*
X2658Y483D02*
X2669Y483D01*
X2441Y482D02*
X2452Y482D01*
X2659Y482D02*
X2669Y482D01*
X2441Y481D02*
X2451Y481D01*
X2659Y481D02*
X2670Y481D01*
X2440Y480D02*
X2451Y480D01*
X2660Y480D02*
X2670Y480D01*
X2440Y479D02*
X2450Y479D01*
X2660Y479D02*
X2670Y479D01*
X2440Y478D02*
X2450Y478D01*
X2660Y478D02*
X2670Y478D01*
X2440Y477D02*
X2450Y477D01*
X2661Y477D02*
X2671Y477D01*
X2439Y476D02*
X2449Y476D01*
X2661Y476D02*
X2671Y476D01*
X2439Y475D02*
X2449Y475D01*
X2661Y475D02*
X2671Y475D01*
X2439Y474D02*
X2449Y474D01*
X2662Y474D02*
X2671Y474D01*
X2439Y473D02*
X2448Y473D01*
X2662Y473D02*
X2671Y473D01*
X2439Y472D02*
X2448Y472D01*
X2662Y472D02*
X2671Y472D01*
X2439Y471D02*
X2448Y471D01*
X2662Y471D02*
X2671Y471D01*
X2439Y470D02*
X2448Y470D01*
X2662Y470D02*
X2671Y470D01*
X2439Y469D02*
X2448Y469D01*
X2663Y469D02*
X2671Y469D01*
X2439Y468D02*
X2447Y468D01*
X2663Y468D02*
X2671Y468D01*
X2439Y467D02*
X2447Y467D01*
X2663Y467D02*
X2671Y467D01*
X2439Y466D02*
X2447Y466D01*
X2663Y466D02*
X2671Y466D01*
X2439Y465D02*
X2447Y465D01*
X2663Y465D02*
X2671Y465D01*
X2439Y464D02*
X2447Y464D01*
X2663Y464D02*
X2671Y464D01*
X2439Y463D02*
X2447Y463D01*
X2663Y463D02*
X2671Y463D01*
X2439Y462D02*
X2447Y462D01*
X2663Y462D02*
X2671Y462D01*
X2439Y461D02*
X2447Y461D01*
X2663Y461D02*
X2671Y461D01*
X2439Y460D02*
X2447Y460D01*
X2663Y460D02*
X2671Y460D01*
X2439Y459D02*
X2447Y459D01*
X2663Y459D02*
X2671Y459D01*
X2439Y458D02*
X2447Y458D01*
X2663Y458D02*
X2671Y458D01*
X2439Y457D02*
X2447Y457D01*
X2663Y457D02*
X2671Y457D01*
X2439Y456D02*
X2447Y456D01*
X2663Y456D02*
X2671Y456D01*
X2439Y455D02*
X2447Y455D01*
X2663Y455D02*
X2671Y455D01*
X2439Y454D02*
X2447Y454D01*
X2663Y454D02*
X2671Y454D01*
X2439Y453D02*
X2447Y453D01*
X2663Y453D02*
X2671Y453D01*
X2439Y452D02*
X2447Y452D01*
X2663Y452D02*
X2671Y452D01*
X2439Y451D02*
X2447Y451D01*
X2663Y451D02*
X2671Y451D01*
X2439Y450D02*
X2447Y450D01*
X2663Y450D02*
X2671Y450D01*
X2439Y449D02*
X2447Y449D01*
X2480Y449D02*
X2584Y449D01*
X2663Y449D02*
X2671Y449D01*
X2439Y448D02*
X2447Y448D01*
X2477Y448D02*
X2587Y448D01*
X2663Y448D02*
X2671Y448D01*
X2439Y447D02*
X2447Y447D01*
X2474Y447D02*
X2589Y447D01*
X2663Y447D02*
X2671Y447D01*
X2439Y446D02*
X2447Y446D01*
X2473Y446D02*
X2591Y446D01*
X2663Y446D02*
X2671Y446D01*
X2439Y445D02*
X2447Y445D01*
X2471Y445D02*
X2593Y445D01*
X2663Y445D02*
X2671Y445D01*
X2439Y444D02*
X2447Y444D01*
X2469Y444D02*
X2594Y444D01*
X2663Y444D02*
X2671Y444D01*
X2439Y443D02*
X2447Y443D01*
X2468Y443D02*
X2595Y443D01*
X2663Y443D02*
X2671Y443D01*
X2439Y442D02*
X2447Y442D01*
X2467Y442D02*
X2596Y442D01*
X2663Y442D02*
X2671Y442D01*
X2439Y441D02*
X2447Y441D01*
X2466Y441D02*
X2597Y441D01*
X2663Y441D02*
X2671Y441D01*
X2439Y440D02*
X2447Y440D01*
X2465Y440D02*
X2598Y440D01*
X2663Y440D02*
X2671Y440D01*
X2439Y439D02*
X2447Y439D01*
X2464Y439D02*
X2599Y439D01*
X2663Y439D02*
X2671Y439D01*
X2439Y438D02*
X2447Y438D01*
X2463Y438D02*
X2600Y438D01*
X2663Y438D02*
X2671Y438D01*
X2439Y437D02*
X2447Y437D01*
X2463Y437D02*
X2601Y437D01*
X2663Y437D02*
X2671Y437D01*
X2439Y436D02*
X2447Y436D01*
X2462Y436D02*
X2601Y436D01*
X2663Y436D02*
X2671Y436D01*
X2439Y435D02*
X2447Y435D01*
X2461Y435D02*
X2602Y435D01*
X2663Y435D02*
X2671Y435D01*
X2439Y434D02*
X2447Y434D01*
X2461Y434D02*
X2603Y434D01*
X2663Y434D02*
X2671Y434D01*
X2439Y433D02*
X2447Y433D01*
X2460Y433D02*
X2603Y433D01*
X2663Y433D02*
X2671Y433D01*
X2439Y432D02*
X2447Y432D01*
X2460Y432D02*
X2604Y432D01*
X2663Y432D02*
X2671Y432D01*
X2439Y431D02*
X2447Y431D01*
X2460Y431D02*
X2604Y431D01*
X2663Y431D02*
X2671Y431D01*
X2439Y430D02*
X2447Y430D01*
X2459Y430D02*
X2604Y430D01*
X2663Y430D02*
X2671Y430D01*
X2439Y429D02*
X2447Y429D01*
X2459Y429D02*
X2605Y429D01*
X2663Y429D02*
X2671Y429D01*
X2439Y428D02*
X2447Y428D01*
X2459Y428D02*
X2605Y428D01*
X2663Y428D02*
X2671Y428D01*
X2439Y427D02*
X2447Y427D01*
X2458Y427D02*
X2605Y427D01*
X2663Y427D02*
X2671Y427D01*
X2439Y426D02*
X2447Y426D01*
X2458Y426D02*
X2605Y426D01*
X2663Y426D02*
X2671Y426D01*
X2439Y425D02*
X2447Y425D01*
X2458Y425D02*
X2606Y425D01*
X2663Y425D02*
X2671Y425D01*
X2439Y424D02*
X2447Y424D01*
X2458Y424D02*
X2606Y424D01*
X2663Y424D02*
X2671Y424D01*
X2439Y423D02*
X2447Y423D01*
X2458Y423D02*
X2606Y423D01*
X2663Y423D02*
X2671Y423D01*
X2439Y422D02*
X2447Y422D01*
X2458Y422D02*
X2606Y422D01*
X2663Y422D02*
X2671Y422D01*
X2439Y421D02*
X2447Y421D01*
X2458Y421D02*
X2508Y421D01*
X2518Y421D02*
X2546Y421D01*
X2555Y421D02*
X2606Y421D01*
X2663Y421D02*
X2671Y421D01*
X2439Y420D02*
X2447Y420D01*
X2458Y420D02*
X2507Y420D01*
X2519Y420D02*
X2544Y420D01*
X2557Y420D02*
X2606Y420D01*
X2663Y420D02*
X2671Y420D01*
X2439Y419D02*
X2447Y419D01*
X2458Y419D02*
X2506Y419D01*
X2520Y419D02*
X2543Y419D01*
X2558Y419D02*
X2606Y419D01*
X2663Y419D02*
X2671Y419D01*
X2439Y418D02*
X2447Y418D01*
X2458Y418D02*
X2505Y418D01*
X2521Y418D02*
X2542Y418D01*
X2559Y418D02*
X2606Y418D01*
X2663Y418D02*
X2671Y418D01*
X2439Y417D02*
X2447Y417D01*
X2458Y417D02*
X2504Y417D01*
X2522Y417D02*
X2542Y417D01*
X2559Y417D02*
X2606Y417D01*
X2663Y417D02*
X2671Y417D01*
X2439Y416D02*
X2447Y416D01*
X2458Y416D02*
X2504Y416D01*
X2522Y416D02*
X2541Y416D01*
X2560Y416D02*
X2606Y416D01*
X2663Y416D02*
X2671Y416D01*
X2439Y415D02*
X2447Y415D01*
X2458Y415D02*
X2504Y415D01*
X2523Y415D02*
X2541Y415D01*
X2560Y415D02*
X2606Y415D01*
X2663Y415D02*
X2671Y415D01*
X2439Y414D02*
X2447Y414D01*
X2458Y414D02*
X2503Y414D01*
X2523Y414D02*
X2541Y414D01*
X2560Y414D02*
X2606Y414D01*
X2663Y414D02*
X2671Y414D01*
X2439Y413D02*
X2447Y413D01*
X2458Y413D02*
X2503Y413D01*
X2523Y413D02*
X2541Y413D01*
X2560Y413D02*
X2606Y413D01*
X2663Y413D02*
X2671Y413D01*
X2439Y412D02*
X2447Y412D01*
X2458Y412D02*
X2503Y412D01*
X2523Y412D02*
X2541Y412D01*
X2560Y412D02*
X2606Y412D01*
X2663Y412D02*
X2671Y412D01*
X2439Y411D02*
X2447Y411D01*
X2458Y411D02*
X2503Y411D01*
X2523Y411D02*
X2541Y411D01*
X2560Y411D02*
X2606Y411D01*
X2663Y411D02*
X2671Y411D01*
X2439Y410D02*
X2447Y410D01*
X2458Y410D02*
X2503Y410D01*
X2523Y410D02*
X2541Y410D01*
X2560Y410D02*
X2606Y410D01*
X2663Y410D02*
X2671Y410D01*
X2439Y409D02*
X2447Y409D01*
X2458Y409D02*
X2503Y409D01*
X2523Y409D02*
X2541Y409D01*
X2560Y409D02*
X2606Y409D01*
X2663Y409D02*
X2671Y409D01*
X2439Y408D02*
X2447Y408D01*
X2458Y408D02*
X2503Y408D01*
X2523Y408D02*
X2541Y408D01*
X2560Y408D02*
X2606Y408D01*
X2663Y408D02*
X2671Y408D01*
X2439Y407D02*
X2447Y407D01*
X2458Y407D02*
X2503Y407D01*
X2523Y407D02*
X2541Y407D01*
X2560Y407D02*
X2606Y407D01*
X2663Y407D02*
X2671Y407D01*
X2439Y406D02*
X2447Y406D01*
X2458Y406D02*
X2503Y406D01*
X2523Y406D02*
X2541Y406D01*
X2560Y406D02*
X2606Y406D01*
X2663Y406D02*
X2671Y406D01*
X2439Y405D02*
X2447Y405D01*
X2458Y405D02*
X2503Y405D01*
X2523Y405D02*
X2541Y405D01*
X2560Y405D02*
X2606Y405D01*
X2663Y405D02*
X2671Y405D01*
X2439Y404D02*
X2447Y404D01*
X2458Y404D02*
X2503Y404D01*
X2523Y404D02*
X2541Y404D01*
X2560Y404D02*
X2606Y404D01*
X2663Y404D02*
X2671Y404D01*
X2439Y403D02*
X2447Y403D01*
X2458Y403D02*
X2503Y403D01*
X2523Y403D02*
X2541Y403D01*
X2560Y403D02*
X2606Y403D01*
X2663Y403D02*
X2671Y403D01*
X2439Y402D02*
X2447Y402D01*
X2458Y402D02*
X2503Y402D01*
X2523Y402D02*
X2541Y402D01*
X2560Y402D02*
X2606Y402D01*
X2663Y402D02*
X2671Y402D01*
X2439Y401D02*
X2447Y401D01*
X2458Y401D02*
X2503Y401D01*
X2523Y401D02*
X2541Y401D01*
X2560Y401D02*
X2606Y401D01*
X2663Y401D02*
X2671Y401D01*
X2439Y400D02*
X2447Y400D01*
X2458Y400D02*
X2503Y400D01*
X2523Y400D02*
X2541Y400D01*
X2560Y400D02*
X2606Y400D01*
X2663Y400D02*
X2671Y400D01*
X2439Y399D02*
X2447Y399D01*
X2458Y399D02*
X2503Y399D01*
X2523Y399D02*
X2541Y399D01*
X2560Y399D02*
X2606Y399D01*
X2663Y399D02*
X2671Y399D01*
X2439Y398D02*
X2447Y398D01*
X2458Y398D02*
X2503Y398D01*
X2523Y398D02*
X2541Y398D01*
X2560Y398D02*
X2606Y398D01*
X2663Y398D02*
X2671Y398D01*
X2439Y397D02*
X2447Y397D01*
X2458Y397D02*
X2503Y397D01*
X2523Y397D02*
X2541Y397D01*
X2560Y397D02*
X2606Y397D01*
X2663Y397D02*
X2671Y397D01*
X2439Y396D02*
X2447Y396D01*
X2458Y396D02*
X2503Y396D01*
X2523Y396D02*
X2541Y396D01*
X2560Y396D02*
X2606Y396D01*
X2663Y396D02*
X2671Y396D01*
X2439Y395D02*
X2447Y395D01*
X2458Y395D02*
X2503Y395D01*
X2523Y395D02*
X2541Y395D01*
X2560Y395D02*
X2606Y395D01*
X2663Y395D02*
X2671Y395D01*
X2439Y394D02*
X2447Y394D01*
X2458Y394D02*
X2503Y394D01*
X2523Y394D02*
X2541Y394D01*
X2560Y394D02*
X2606Y394D01*
X2663Y394D02*
X2671Y394D01*
X2439Y393D02*
X2447Y393D01*
X2458Y393D02*
X2503Y393D01*
X2523Y393D02*
X2541Y393D01*
X2560Y393D02*
X2606Y393D01*
X2663Y393D02*
X2671Y393D01*
X2439Y392D02*
X2447Y392D01*
X2458Y392D02*
X2503Y392D01*
X2523Y392D02*
X2541Y392D01*
X2560Y392D02*
X2606Y392D01*
X2663Y392D02*
X2671Y392D01*
X2439Y391D02*
X2447Y391D01*
X2458Y391D02*
X2503Y391D01*
X2523Y391D02*
X2541Y391D01*
X2560Y391D02*
X2606Y391D01*
X2663Y391D02*
X2671Y391D01*
X2439Y390D02*
X2447Y390D01*
X2458Y390D02*
X2503Y390D01*
X2523Y390D02*
X2541Y390D01*
X2560Y390D02*
X2606Y390D01*
X2663Y390D02*
X2671Y390D01*
X2439Y389D02*
X2447Y389D01*
X2458Y389D02*
X2503Y389D01*
X2523Y389D02*
X2541Y389D01*
X2560Y389D02*
X2606Y389D01*
X2663Y389D02*
X2671Y389D01*
X2439Y388D02*
X2447Y388D01*
X2458Y388D02*
X2503Y388D01*
X2523Y388D02*
X2541Y388D01*
X2560Y388D02*
X2606Y388D01*
X2663Y388D02*
X2671Y388D01*
X2439Y387D02*
X2447Y387D01*
X2458Y387D02*
X2503Y387D01*
X2523Y387D02*
X2541Y387D01*
X2560Y387D02*
X2606Y387D01*
X2663Y387D02*
X2671Y387D01*
X2439Y386D02*
X2447Y386D01*
X2458Y386D02*
X2503Y386D01*
X2523Y386D02*
X2541Y386D01*
X2560Y386D02*
X2606Y386D01*
X2663Y386D02*
X2671Y386D01*
X2439Y385D02*
X2447Y385D01*
X2458Y385D02*
X2503Y385D01*
X2523Y385D02*
X2541Y385D01*
X2560Y385D02*
X2606Y385D01*
X2663Y385D02*
X2671Y385D01*
X2439Y384D02*
X2447Y384D01*
X2458Y384D02*
X2503Y384D01*
X2523Y384D02*
X2541Y384D01*
X2560Y384D02*
X2606Y384D01*
X2663Y384D02*
X2671Y384D01*
X2439Y383D02*
X2447Y383D01*
X2458Y383D02*
X2503Y383D01*
X2523Y383D02*
X2541Y383D01*
X2560Y383D02*
X2606Y383D01*
X2663Y383D02*
X2671Y383D01*
X2439Y382D02*
X2447Y382D01*
X2458Y382D02*
X2503Y382D01*
X2523Y382D02*
X2541Y382D01*
X2560Y382D02*
X2606Y382D01*
X2663Y382D02*
X2671Y382D01*
X2439Y381D02*
X2447Y381D01*
X2458Y381D02*
X2503Y381D01*
X2523Y381D02*
X2541Y381D01*
X2560Y381D02*
X2606Y381D01*
X2663Y381D02*
X2671Y381D01*
X2439Y380D02*
X2447Y380D01*
X2458Y380D02*
X2503Y380D01*
X2523Y380D02*
X2541Y380D01*
X2560Y380D02*
X2606Y380D01*
X2663Y380D02*
X2671Y380D01*
X2439Y379D02*
X2447Y379D01*
X2458Y379D02*
X2503Y379D01*
X2523Y379D02*
X2541Y379D01*
X2560Y379D02*
X2606Y379D01*
X2663Y379D02*
X2671Y379D01*
X2439Y378D02*
X2447Y378D01*
X2458Y378D02*
X2503Y378D01*
X2523Y378D02*
X2541Y378D01*
X2560Y378D02*
X2606Y378D01*
X2663Y378D02*
X2671Y378D01*
X2439Y377D02*
X2447Y377D01*
X2458Y377D02*
X2503Y377D01*
X2523Y377D02*
X2541Y377D01*
X2560Y377D02*
X2606Y377D01*
X2663Y377D02*
X2671Y377D01*
X2439Y376D02*
X2447Y376D01*
X2458Y376D02*
X2503Y376D01*
X2523Y376D02*
X2541Y376D01*
X2560Y376D02*
X2606Y376D01*
X2663Y376D02*
X2671Y376D01*
X2439Y375D02*
X2447Y375D01*
X2458Y375D02*
X2503Y375D01*
X2523Y375D02*
X2541Y375D01*
X2560Y375D02*
X2606Y375D01*
X2663Y375D02*
X2671Y375D01*
X2439Y374D02*
X2447Y374D01*
X2458Y374D02*
X2503Y374D01*
X2523Y374D02*
X2541Y374D01*
X2560Y374D02*
X2606Y374D01*
X2663Y374D02*
X2671Y374D01*
X2439Y373D02*
X2447Y373D01*
X2458Y373D02*
X2504Y373D01*
X2523Y373D02*
X2541Y373D01*
X2560Y373D02*
X2606Y373D01*
X2663Y373D02*
X2671Y373D01*
X2439Y372D02*
X2447Y372D01*
X2458Y372D02*
X2504Y372D01*
X2522Y372D02*
X2541Y372D01*
X2560Y372D02*
X2606Y372D01*
X2663Y372D02*
X2671Y372D01*
X2439Y371D02*
X2447Y371D01*
X2458Y371D02*
X2504Y371D01*
X2522Y371D02*
X2542Y371D01*
X2559Y371D02*
X2606Y371D01*
X2663Y371D02*
X2671Y371D01*
X2439Y370D02*
X2447Y370D01*
X2458Y370D02*
X2505Y370D01*
X2521Y370D02*
X2542Y370D01*
X2559Y370D02*
X2606Y370D01*
X2663Y370D02*
X2671Y370D01*
X2439Y369D02*
X2447Y369D01*
X2458Y369D02*
X2506Y369D01*
X2521Y369D02*
X2543Y369D01*
X2558Y369D02*
X2606Y369D01*
X2663Y369D02*
X2671Y369D01*
X2439Y368D02*
X2447Y368D01*
X2458Y368D02*
X2507Y368D01*
X2520Y368D02*
X2544Y368D01*
X2557Y368D02*
X2606Y368D01*
X2663Y368D02*
X2671Y368D01*
X2439Y367D02*
X2447Y367D01*
X2458Y367D02*
X2508Y367D01*
X2518Y367D02*
X2545Y367D01*
X2555Y367D02*
X2606Y367D01*
X2663Y367D02*
X2671Y367D01*
X2439Y366D02*
X2447Y366D01*
X2458Y366D02*
X2511Y366D01*
X2515Y366D02*
X2549Y366D01*
X2552Y366D02*
X2606Y366D01*
X2663Y366D02*
X2671Y366D01*
X2439Y365D02*
X2447Y365D01*
X2458Y365D02*
X2606Y365D01*
X2663Y365D02*
X2671Y365D01*
X2439Y364D02*
X2447Y364D01*
X2458Y364D02*
X2606Y364D01*
X2663Y364D02*
X2671Y364D01*
X2439Y363D02*
X2447Y363D01*
X2458Y363D02*
X2606Y363D01*
X2663Y363D02*
X2671Y363D01*
X2439Y362D02*
X2447Y362D01*
X2458Y362D02*
X2606Y362D01*
X2663Y362D02*
X2671Y362D01*
X2439Y361D02*
X2447Y361D01*
X2458Y361D02*
X2606Y361D01*
X2663Y361D02*
X2671Y361D01*
X2439Y360D02*
X2447Y360D01*
X2458Y360D02*
X2606Y360D01*
X2663Y360D02*
X2671Y360D01*
X2439Y359D02*
X2447Y359D01*
X2458Y359D02*
X2606Y359D01*
X2663Y359D02*
X2671Y359D01*
X2439Y358D02*
X2447Y358D01*
X2458Y358D02*
X2606Y358D01*
X2663Y358D02*
X2671Y358D01*
X2439Y357D02*
X2447Y357D01*
X2458Y357D02*
X2606Y357D01*
X2663Y357D02*
X2671Y357D01*
X2439Y356D02*
X2447Y356D01*
X2458Y356D02*
X2606Y356D01*
X2663Y356D02*
X2671Y356D01*
X2439Y355D02*
X2447Y355D01*
X2458Y355D02*
X2606Y355D01*
X2663Y355D02*
X2671Y355D01*
X2439Y354D02*
X2447Y354D01*
X2458Y354D02*
X2606Y354D01*
X2663Y354D02*
X2671Y354D01*
X2439Y353D02*
X2447Y353D01*
X2458Y353D02*
X2606Y353D01*
X2663Y353D02*
X2671Y353D01*
X2439Y352D02*
X2447Y352D01*
X2458Y352D02*
X2606Y352D01*
X2663Y352D02*
X2671Y352D01*
X2439Y351D02*
X2447Y351D01*
X2458Y351D02*
X2606Y351D01*
X2663Y351D02*
X2671Y351D01*
X2439Y350D02*
X2447Y350D01*
X2458Y350D02*
X2606Y350D01*
X2663Y350D02*
X2671Y350D01*
X2439Y349D02*
X2447Y349D01*
X2458Y349D02*
X2606Y349D01*
X2663Y349D02*
X2671Y349D01*
X2439Y348D02*
X2447Y348D01*
X2458Y348D02*
X2606Y348D01*
X2663Y348D02*
X2671Y348D01*
X2439Y347D02*
X2447Y347D01*
X2458Y347D02*
X2606Y347D01*
X2663Y347D02*
X2671Y347D01*
X2439Y346D02*
X2447Y346D01*
X2458Y346D02*
X2606Y346D01*
X2663Y346D02*
X2671Y346D01*
X2439Y345D02*
X2447Y345D01*
X2458Y345D02*
X2606Y345D01*
X2663Y345D02*
X2671Y345D01*
X2439Y344D02*
X2447Y344D01*
X2458Y344D02*
X2606Y344D01*
X2663Y344D02*
X2671Y344D01*
X2439Y343D02*
X2447Y343D01*
X2458Y343D02*
X2606Y343D01*
X2663Y343D02*
X2671Y343D01*
X2439Y342D02*
X2447Y342D01*
X2458Y342D02*
X2606Y342D01*
X2663Y342D02*
X2671Y342D01*
X2439Y341D02*
X2447Y341D01*
X2458Y341D02*
X2606Y341D01*
X2663Y341D02*
X2671Y341D01*
X2439Y340D02*
X2447Y340D01*
X2458Y340D02*
X2606Y340D01*
X2663Y340D02*
X2671Y340D01*
X2439Y339D02*
X2447Y339D01*
X2458Y339D02*
X2606Y339D01*
X2663Y339D02*
X2671Y339D01*
X2439Y338D02*
X2447Y338D01*
X2458Y338D02*
X2606Y338D01*
X2663Y338D02*
X2671Y338D01*
X2439Y337D02*
X2447Y337D01*
X2458Y337D02*
X2606Y337D01*
X2663Y337D02*
X2671Y337D01*
X2439Y336D02*
X2447Y336D01*
X2458Y336D02*
X2606Y336D01*
X2663Y336D02*
X2671Y336D01*
X2439Y335D02*
X2447Y335D01*
X2458Y335D02*
X2606Y335D01*
X2663Y335D02*
X2671Y335D01*
X2439Y334D02*
X2447Y334D01*
X2458Y334D02*
X2606Y334D01*
X2663Y334D02*
X2671Y334D01*
X2439Y333D02*
X2447Y333D01*
X2458Y333D02*
X2606Y333D01*
X2663Y333D02*
X2671Y333D01*
X2439Y332D02*
X2447Y332D01*
X2458Y332D02*
X2606Y332D01*
X2663Y332D02*
X2671Y332D01*
X2439Y331D02*
X2447Y331D01*
X2458Y331D02*
X2606Y331D01*
X2663Y331D02*
X2671Y331D01*
X2439Y330D02*
X2447Y330D01*
X2458Y330D02*
X2606Y330D01*
X2663Y330D02*
X2671Y330D01*
X2439Y329D02*
X2448Y329D01*
X2458Y329D02*
X2606Y329D01*
X2663Y329D02*
X2671Y329D01*
X2439Y328D02*
X2448Y328D01*
X2458Y328D02*
X2606Y328D01*
X2663Y328D02*
X2671Y328D01*
X2439Y327D02*
X2448Y327D01*
X2458Y327D02*
X2606Y327D01*
X2662Y327D02*
X2671Y327D01*
X2439Y326D02*
X2448Y326D01*
X2458Y326D02*
X2606Y326D01*
X2662Y326D02*
X2671Y326D01*
X2439Y325D02*
X2448Y325D01*
X2458Y325D02*
X2605Y325D01*
X2662Y325D02*
X2671Y325D01*
X2439Y324D02*
X2448Y324D01*
X2458Y324D02*
X2605Y324D01*
X2662Y324D02*
X2671Y324D01*
X2439Y323D02*
X2449Y323D01*
X2458Y323D02*
X2605Y323D01*
X2662Y323D02*
X2671Y323D01*
X2439Y322D02*
X2449Y322D01*
X2459Y322D02*
X2605Y322D01*
X2661Y322D02*
X2671Y322D01*
X2439Y321D02*
X2449Y321D01*
X2459Y321D02*
X2604Y321D01*
X2661Y321D02*
X2671Y321D01*
X2440Y320D02*
X2450Y320D01*
X2459Y320D02*
X2604Y320D01*
X2661Y320D02*
X2671Y320D01*
X2440Y319D02*
X2450Y319D01*
X2460Y319D02*
X2604Y319D01*
X2660Y319D02*
X2670Y319D01*
X2440Y318D02*
X2450Y318D01*
X2460Y318D02*
X2603Y318D01*
X2660Y318D02*
X2670Y318D01*
X2440Y317D02*
X2451Y317D01*
X2461Y317D02*
X2603Y317D01*
X2659Y317D02*
X2670Y317D01*
X2441Y316D02*
X2451Y316D01*
X2461Y316D02*
X2602Y316D01*
X2659Y316D02*
X2670Y316D01*
X2441Y315D02*
X2452Y315D01*
X2462Y315D02*
X2602Y315D01*
X2659Y315D02*
X2669Y315D01*
X2441Y314D02*
X2452Y314D01*
X2462Y314D02*
X2601Y314D01*
X2658Y314D02*
X2669Y314D01*
X2442Y313D02*
X2453Y313D01*
X2463Y313D02*
X2600Y313D01*
X2657Y313D02*
X2669Y313D01*
X2442Y312D02*
X2453Y312D01*
X2464Y312D02*
X2600Y312D01*
X2657Y312D02*
X2668Y312D01*
X2442Y311D02*
X2454Y311D01*
X2465Y311D02*
X2599Y311D01*
X2656Y311D02*
X2668Y311D01*
X2443Y310D02*
X2455Y310D01*
X2466Y310D02*
X2598Y310D01*
X2656Y310D02*
X2668Y310D01*
X2443Y309D02*
X2455Y309D01*
X2467Y309D02*
X2597Y309D01*
X2655Y309D02*
X2667Y309D01*
X2444Y308D02*
X2456Y308D01*
X2468Y308D02*
X2596Y308D01*
X2654Y308D02*
X2667Y308D01*
X2444Y307D02*
X2457Y307D01*
X2469Y307D02*
X2595Y307D01*
X2653Y307D02*
X2666Y307D01*
X2445Y306D02*
X2458Y306D01*
X2470Y306D02*
X2593Y306D01*
X2653Y306D02*
X2666Y306D01*
X2445Y305D02*
X2459Y305D01*
X2472Y305D02*
X2592Y305D01*
X2652Y305D02*
X2665Y305D01*
X2446Y304D02*
X2460Y304D01*
X2473Y304D02*
X2590Y304D01*
X2651Y304D02*
X2664Y304D01*
X2446Y303D02*
X2461Y303D01*
X2476Y303D02*
X2588Y303D01*
X2650Y303D02*
X2664Y303D01*
X2447Y302D02*
X2462Y302D01*
X2478Y302D02*
X2585Y302D01*
X2649Y302D02*
X2663Y302D01*
X2448Y301D02*
X2463Y301D01*
X2482Y301D02*
X2581Y301D01*
X2647Y301D02*
X2662Y301D01*
X2449Y300D02*
X2464Y300D01*
X2646Y300D02*
X2662Y300D01*
X2449Y299D02*
X2465Y299D01*
X2645Y299D02*
X2661Y299D01*
X2450Y298D02*
X2467Y298D01*
X2643Y298D02*
X2660Y298D01*
X2451Y297D02*
X2469Y297D01*
X2642Y297D02*
X2659Y297D01*
X2452Y296D02*
X2470Y296D01*
X2640Y296D02*
X2658Y296D01*
X2453Y295D02*
X2472Y295D01*
X2638Y295D02*
X2657Y295D01*
X2454Y294D02*
X2475Y294D01*
X2635Y294D02*
X2656Y294D01*
X2455Y293D02*
X2478Y293D01*
X2632Y293D02*
X2655Y293D01*
X2456Y292D02*
X2482Y292D01*
X2628Y292D02*
X2654Y292D01*
X2458Y291D02*
X2652Y291D01*
X2459Y290D02*
X2651Y290D01*
X2461Y289D02*
X2649Y289D01*
X2462Y288D02*
X2648Y288D01*
X2464Y287D02*
X2646Y287D01*
X2466Y286D02*
X2644Y286D01*
X2469Y285D02*
X2641Y285D01*
X2472Y284D02*
X2639Y284D01*
X2475Y283D02*
X2635Y283D01*
X2483Y282D02*
X2628Y282D01*
X2486Y281D02*
X2513Y281D01*
X2523Y281D02*
X2550Y281D01*
X2560Y281D02*
X2587Y281D01*
X2598Y281D02*
X2625Y281D01*
X2486Y280D02*
X2513Y280D01*
X2523Y280D02*
X2550Y280D01*
X2560Y280D02*
X2587Y280D01*
X2598Y280D02*
X2625Y280D01*
X2486Y279D02*
X2513Y279D01*
X2523Y279D02*
X2550Y279D01*
X2560Y279D02*
X2587Y279D01*
X2598Y279D02*
X2625Y279D01*
X2486Y278D02*
X2513Y278D01*
X2523Y278D02*
X2550Y278D01*
X2560Y278D02*
X2587Y278D01*
X2598Y278D02*
X2625Y278D01*
X2486Y277D02*
X2513Y277D01*
X2523Y277D02*
X2550Y277D01*
X2560Y277D02*
X2587Y277D01*
X2598Y277D02*
X2625Y277D01*
X2486Y276D02*
X2513Y276D01*
X2523Y276D02*
X2550Y276D01*
X2560Y276D02*
X2587Y276D01*
X2598Y276D02*
X2625Y276D01*
X2486Y275D02*
X2513Y275D01*
X2523Y275D02*
X2550Y275D01*
X2560Y275D02*
X2587Y275D01*
X2598Y275D02*
X2625Y275D01*
X2486Y274D02*
X2513Y274D01*
X2523Y274D02*
X2550Y274D01*
X2560Y274D02*
X2587Y274D01*
X2598Y274D02*
X2625Y274D01*
X2486Y273D02*
X2513Y273D01*
X2523Y273D02*
X2550Y273D01*
X2560Y273D02*
X2587Y273D01*
X2598Y273D02*
X2625Y273D01*
X2486Y272D02*
X2513Y272D01*
X2523Y272D02*
X2550Y272D01*
X2560Y272D02*
X2587Y272D01*
X2598Y272D02*
X2625Y272D01*
X2486Y271D02*
X2513Y271D01*
X2523Y271D02*
X2550Y271D01*
X2560Y271D02*
X2587Y271D01*
X2598Y271D02*
X2625Y271D01*
X2486Y270D02*
X2513Y270D01*
X2523Y270D02*
X2550Y270D01*
X2560Y270D02*
X2587Y270D01*
X2598Y270D02*
X2625Y270D01*
X2486Y269D02*
X2513Y269D01*
X2523Y269D02*
X2550Y269D01*
X2560Y269D02*
X2587Y269D01*
X2598Y269D02*
X2625Y269D01*
X2486Y268D02*
X2513Y268D01*
X2523Y268D02*
X2550Y268D01*
X2560Y268D02*
X2587Y268D01*
X2598Y268D02*
X2625Y268D01*
X2486Y267D02*
X2513Y267D01*
X2523Y267D02*
X2550Y267D01*
X2560Y267D02*
X2587Y267D01*
X2598Y267D02*
X2625Y267D01*
X2486Y266D02*
X2513Y266D01*
X2523Y266D02*
X2550Y266D01*
X2560Y266D02*
X2587Y266D01*
X2598Y266D02*
X2625Y266D01*
X2486Y265D02*
X2513Y265D01*
X2523Y265D02*
X2550Y265D01*
X2560Y265D02*
X2587Y265D01*
X2598Y265D02*
X2625Y265D01*
X2486Y264D02*
X2513Y264D01*
X2523Y264D02*
X2550Y264D01*
X2560Y264D02*
X2587Y264D01*
X2598Y264D02*
X2625Y264D01*
X2486Y263D02*
X2513Y263D01*
X2523Y263D02*
X2550Y263D01*
X2560Y263D02*
X2587Y263D01*
X2598Y263D02*
X2625Y263D01*
X2486Y262D02*
X2512Y262D01*
X2523Y262D02*
X2550Y262D01*
X2560Y262D02*
X2587Y262D01*
X2598Y262D02*
X2625Y262D01*
X2486Y261D02*
X2512Y261D01*
X2523Y261D02*
X2550Y261D01*
X2561Y261D02*
X2587Y261D01*
X2598Y261D02*
X2624Y261D01*
X2486Y260D02*
X2512Y260D01*
X2523Y260D02*
X2549Y260D01*
X2561Y260D02*
X2587Y260D01*
X2598Y260D02*
X2624Y260D01*
X2487Y259D02*
X2512Y259D01*
X2524Y259D02*
X2549Y259D01*
X2561Y259D02*
X2586Y259D01*
X2599Y259D02*
X2624Y259D01*
X2487Y258D02*
X2511Y258D01*
X2525Y258D02*
X2548Y258D01*
X2562Y258D02*
X2586Y258D01*
X2599Y258D02*
X2623Y258D01*
X2488Y257D02*
X2510Y257D01*
X2525Y257D02*
X2548Y257D01*
X2563Y257D02*
X2585Y257D01*
X2600Y257D02*
X2622Y257D01*
X2489Y256D02*
X2509Y256D01*
X2526Y256D02*
X2547Y256D01*
X2564Y256D02*
X2584Y256D01*
X2601Y256D02*
X2621Y256D01*
X2490Y255D02*
X2508Y255D01*
X2528Y255D02*
X2545Y255D01*
X2565Y255D02*
X2582Y255D01*
X2603Y255D02*
X2620Y255D01*
X2493Y254D02*
X2505Y254D01*
X2531Y254D02*
X2542Y254D01*
X2568Y254D02*
X2580Y254D01*
X2605Y254D02*
X2617Y254D01*
X714Y191D02*
X716Y191D01*
X712Y190D02*
X718Y190D01*
X711Y189D02*
X719Y189D01*
X710Y188D02*
X720Y188D01*
X709Y187D02*
X720Y187D01*
X708Y186D02*
X721Y186D01*
X707Y185D02*
X721Y185D01*
X707Y184D02*
X720Y184D01*
X706Y183D02*
X720Y183D01*
X705Y182D02*
X720Y182D01*
X704Y181D02*
X719Y181D01*
X703Y180D02*
X718Y180D01*
X702Y179D02*
X717Y179D01*
X701Y178D02*
X716Y178D01*
X701Y177D02*
X715Y177D01*
X700Y176D02*
X715Y176D01*
X699Y175D02*
X714Y175D01*
X699Y174D02*
X713Y174D01*
X699Y173D02*
X712Y173D01*
X699Y172D02*
X711Y172D01*
X699Y171D02*
X710Y171D01*
X699Y170D02*
X710Y170D01*
X699Y169D02*
X710Y169D01*
X699Y168D02*
X710Y168D01*
X699Y167D02*
X710Y167D01*
X699Y166D02*
X710Y166D01*
X699Y165D02*
X710Y165D01*
X699Y164D02*
X710Y164D01*
X699Y163D02*
X710Y163D01*
X699Y162D02*
X710Y162D01*
X699Y161D02*
X710Y161D01*
X699Y160D02*
X710Y160D01*
X699Y159D02*
X710Y159D01*
X698Y158D02*
X710Y158D01*
X698Y157D02*
X709Y157D01*
X698Y156D02*
X709Y156D01*
X698Y155D02*
X709Y155D01*
X698Y154D02*
X709Y154D01*
X698Y153D02*
X709Y153D01*
X698Y152D02*
X709Y152D01*
X698Y151D02*
X709Y151D01*
X698Y150D02*
X709Y150D01*
X698Y149D02*
X709Y149D01*
X698Y148D02*
X709Y148D01*
X698Y147D02*
X709Y147D01*
X698Y146D02*
X709Y146D01*
X698Y145D02*
X709Y145D01*
X698Y144D02*
X709Y144D01*
X698Y143D02*
X709Y143D01*
X698Y142D02*
X709Y142D01*
X698Y141D02*
X709Y141D01*
X698Y140D02*
X709Y140D01*
X698Y139D02*
X709Y139D01*
X698Y138D02*
X709Y138D01*
X698Y137D02*
X709Y137D01*
X698Y136D02*
X709Y136D01*
X698Y135D02*
X709Y135D01*
X698Y134D02*
X709Y134D01*
X698Y133D02*
X709Y133D01*
X699Y132D02*
X708Y132D01*
X699Y131D02*
X708Y131D01*
X700Y130D02*
X707Y130D01*
X702Y129D02*
X705Y129D01*
D02*
G04 End of Copper1*
M02*