; NON-PLATED HOLES START AT T1
; THROUGH (PLATED) HOLES START AT T100
M48
INCH
T1C0.023622
T2C0.035433
T100C0.086614
T101C0.039370
T102C0.015748
T103C0.047244
T104C0.035433
%
T1
X023667Y001838
X022167Y001838
T2
X004337Y001399
X005518Y001399
T100
X022042Y011838
X001542Y011088
X007042Y011838
X026042Y001588
X001542Y006338
X001542Y001588
X026042Y006338
T101
X024292Y000963
X021542Y000963
T102
X023042Y002963
X015792Y004838
X005792Y007588
X022542Y002963
X013542Y006338
X005292Y002838
X022042Y006338
X011792Y007088
X015042Y004838
T103
X004292Y004088
X023292Y004088
X023292Y008588
X004292Y008588
T104
X010042Y011863
X011042Y011963
X013042Y011963
X009792Y005838
X009042Y011963
X017042Y011963
X009792Y004838
X009792Y006838
X019292Y008838
X019292Y004838
X018042Y011863
X019292Y003838
X009792Y007838
X009792Y003838
X019042Y011963
X019292Y007838
X009792Y009838
X012042Y011863
X019292Y006838
X019292Y002838
X009792Y002838
X016042Y011863
X009792Y008838
X014042Y011863
X020042Y011863
X019292Y005838
X019292Y009838
X015042Y011963
T00
M30
