G04 MADE WITH FRITZING*
G04 WWW.FRITZING.ORG*
G04 DOUBLE SIDED*
G04 HOLES PLATED*
G04 CONTOUR ON CENTER OF CONTOUR VECTOR*
%ASAXBY*%
%FSLAX23Y23*%
%MOIN*%
%OFA0B0*%
%SFA1.0B1.0*%
%ADD10C,0.008*%
%LNCONTOUR*%
G90*
G70*
G54D10*
X259Y1260D02*
X260Y1260D01*
X261Y1260D01*
X262Y1260D01*
X263Y1260D01*
X264Y1260D01*
X265Y1260D01*
X266Y1260D01*
X267Y1260D01*
X268Y1260D01*
X269Y1260D01*
X270Y1260D01*
X271Y1260D01*
X272Y1260D01*
X273Y1260D01*
X274Y1260D01*
X275Y1260D01*
X276Y1260D01*
X277Y1260D01*
X278Y1260D01*
X279Y1260D01*
X280Y1260D01*
X281Y1260D01*
X282Y1260D01*
X283Y1260D01*
X284Y1260D01*
X285Y1260D01*
X286Y1260D01*
X287Y1260D01*
X288Y1260D01*
X289Y1260D01*
X290Y1260D01*
X291Y1260D01*
X292Y1260D01*
X293Y1260D01*
X294Y1260D01*
X295Y1260D01*
X296Y1260D01*
X297Y1260D01*
X298Y1260D01*
X299Y1260D01*
X300Y1260D01*
X301Y1260D01*
X302Y1260D01*
X303Y1260D01*
X304Y1260D01*
X305Y1260D01*
X306Y1260D01*
X307Y1260D01*
X308Y1260D01*
X309Y1260D01*
X310Y1260D01*
X311Y1260D01*
X312Y1260D01*
X313Y1260D01*
X314Y1260D01*
X315Y1260D01*
X316Y1260D01*
X317Y1260D01*
X318Y1260D01*
X319Y1260D01*
X320Y1260D01*
X321Y1260D01*
X322Y1260D01*
X323Y1260D01*
X324Y1260D01*
X325Y1260D01*
X326Y1260D01*
X327Y1260D01*
X328Y1260D01*
X329Y1260D01*
X330Y1260D01*
X331Y1260D01*
X332Y1260D01*
X333Y1260D01*
X334Y1260D01*
X335Y1260D01*
X336Y1260D01*
X337Y1260D01*
X338Y1260D01*
X339Y1260D01*
X340Y1260D01*
X341Y1260D01*
X342Y1260D01*
X343Y1260D01*
X344Y1260D01*
X345Y1260D01*
X346Y1260D01*
X347Y1260D01*
X348Y1260D01*
X349Y1260D01*
X350Y1260D01*
X351Y1260D01*
X352Y1260D01*
X353Y1260D01*
X354Y1260D01*
X355Y1260D01*
X356Y1260D01*
X357Y1260D01*
X358Y1260D01*
X359Y1260D01*
X360Y1260D01*
X361Y1260D01*
X362Y1260D01*
X363Y1260D01*
X364Y1260D01*
X365Y1260D01*
X366Y1260D01*
X367Y1260D01*
X368Y1260D01*
X369Y1260D01*
X370Y1260D01*
X371Y1260D01*
X372Y1260D01*
X373Y1260D01*
X374Y1260D01*
X375Y1260D01*
X376Y1260D01*
X377Y1260D01*
X378Y1260D01*
X379Y1260D01*
X380Y1260D01*
X381Y1260D01*
X382Y1260D01*
X383Y1260D01*
X384Y1260D01*
X385Y1260D01*
X386Y1260D01*
X387Y1260D01*
X388Y1260D01*
X389Y1260D01*
X390Y1260D01*
X391Y1260D01*
X392Y1260D01*
X393Y1260D01*
X394Y1260D01*
X395Y1260D01*
X396Y1260D01*
X397Y1260D01*
X398Y1260D01*
X399Y1260D01*
X400Y1260D01*
X401Y1260D01*
X402Y1260D01*
X403Y1260D01*
X404Y1260D01*
X405Y1260D01*
X406Y1260D01*
X407Y1260D01*
X408Y1260D01*
X409Y1260D01*
X410Y1260D01*
X411Y1260D01*
X412Y1260D01*
X413Y1260D01*
X414Y1260D01*
X415Y1260D01*
X416Y1260D01*
X417Y1260D01*
X418Y1260D01*
X419Y1260D01*
X420Y1260D01*
X421Y1260D01*
X422Y1260D01*
X423Y1260D01*
X424Y1260D01*
X425Y1260D01*
X426Y1260D01*
X427Y1260D01*
X428Y1260D01*
X429Y1260D01*
X430Y1260D01*
X431Y1260D01*
X432Y1260D01*
X433Y1260D01*
X434Y1260D01*
X435Y1260D01*
X436Y1260D01*
X437Y1260D01*
X438Y1260D01*
X439Y1260D01*
X440Y1260D01*
X441Y1260D01*
X442Y1260D01*
X443Y1260D01*
X444Y1260D01*
X445Y1260D01*
X446Y1260D01*
X447Y1260D01*
X448Y1260D01*
X449Y1260D01*
X450Y1260D01*
X451Y1260D01*
X452Y1260D01*
X453Y1260D01*
X454Y1260D01*
X455Y1260D01*
X456Y1260D01*
X457Y1260D01*
X458Y1260D01*
X459Y1260D01*
X460Y1260D01*
X461Y1260D01*
X462Y1260D01*
X463Y1260D01*
X464Y1260D01*
X465Y1260D01*
X466Y1260D01*
X467Y1260D01*
X468Y1260D01*
X469Y1260D01*
X470Y1260D01*
X471Y1260D01*
X472Y1260D01*
X473Y1260D01*
X474Y1260D01*
X475Y1260D01*
X476Y1260D01*
X477Y1260D01*
X478Y1260D01*
X479Y1260D01*
X480Y1260D01*
X481Y1260D01*
X482Y1260D01*
X483Y1260D01*
X484Y1260D01*
X485Y1260D01*
X486Y1260D01*
X487Y1260D01*
X488Y1260D01*
X489Y1260D01*
X490Y1260D01*
X491Y1260D01*
X492Y1260D01*
X493Y1260D01*
X494Y1260D01*
X495Y1260D01*
X496Y1260D01*
X497Y1260D01*
X498Y1260D01*
X499Y1260D01*
X500Y1260D01*
X501Y1260D01*
X502Y1260D01*
X503Y1260D01*
X504Y1260D01*
X505Y1260D01*
X506Y1260D01*
X507Y1260D01*
X508Y1260D01*
X509Y1260D01*
X510Y1260D01*
X511Y1260D01*
X512Y1260D01*
X513Y1260D01*
X514Y1260D01*
X515Y1260D01*
X516Y1260D01*
X517Y1260D01*
X518Y1260D01*
X519Y1260D01*
X520Y1260D01*
X521Y1260D01*
X522Y1260D01*
X523Y1260D01*
X524Y1260D01*
X525Y1260D01*
X526Y1260D01*
X527Y1260D01*
X528Y1260D01*
X529Y1260D01*
X530Y1260D01*
X531Y1260D01*
X532Y1260D01*
X533Y1260D01*
X534Y1260D01*
X535Y1260D01*
X536Y1260D01*
X537Y1260D01*
X538Y1260D01*
X539Y1260D01*
X540Y1260D01*
X541Y1260D01*
X542Y1260D01*
X543Y1260D01*
X544Y1260D01*
X545Y1260D01*
X546Y1260D01*
X547Y1260D01*
X548Y1260D01*
X549Y1260D01*
X550Y1260D01*
X551Y1260D01*
X552Y1260D01*
X553Y1260D01*
X554Y1260D01*
X555Y1260D01*
X556Y1260D01*
X557Y1260D01*
X558Y1260D01*
X559Y1260D01*
X560Y1260D01*
X561Y1260D01*
X562Y1260D01*
X563Y1260D01*
X564Y1260D01*
X565Y1260D01*
X566Y1260D01*
X567Y1260D01*
X568Y1260D01*
X569Y1260D01*
X570Y1260D01*
X571Y1260D01*
X572Y1260D01*
X573Y1260D01*
X574Y1260D01*
X575Y1260D01*
X576Y1260D01*
X577Y1260D01*
X578Y1260D01*
X579Y1260D01*
X580Y1260D01*
X581Y1260D01*
X582Y1260D01*
X583Y1260D01*
X584Y1260D01*
X585Y1260D01*
X586Y1260D01*
X587Y1260D01*
X588Y1260D01*
X589Y1260D01*
X590Y1260D01*
X591Y1260D01*
X592Y1260D01*
X593Y1260D01*
X594Y1260D01*
X595Y1260D01*
X596Y1260D01*
X597Y1260D01*
X598Y1260D01*
X599Y1260D01*
X600Y1260D01*
X601Y1260D01*
X602Y1260D01*
X603Y1260D01*
X604Y1260D01*
X605Y1260D01*
X606Y1260D01*
X607Y1260D01*
X608Y1260D01*
X609Y1260D01*
X610Y1260D01*
X611Y1260D01*
X612Y1260D01*
X613Y1260D01*
X614Y1260D01*
X615Y1260D01*
X616Y1260D01*
X617Y1260D01*
X618Y1260D01*
X619Y1260D01*
X620Y1260D01*
X621Y1260D01*
X622Y1260D01*
X623Y1260D01*
X624Y1260D01*
X625Y1260D01*
X626Y1260D01*
X627Y1260D01*
X628Y1260D01*
X629Y1260D01*
X630Y1260D01*
X631Y1260D01*
X632Y1260D01*
X633Y1260D01*
X634Y1260D01*
X635Y1260D01*
X636Y1260D01*
X637Y1260D01*
X638Y1260D01*
X639Y1260D01*
X640Y1260D01*
X641Y1260D01*
X642Y1260D01*
X643Y1260D01*
X644Y1260D01*
X645Y1260D01*
X646Y1260D01*
X647Y1260D01*
X648Y1260D01*
X649Y1260D01*
X650Y1260D01*
X651Y1260D01*
X652Y1260D01*
X653Y1260D01*
X654Y1260D01*
X655Y1260D01*
X656Y1260D01*
X657Y1260D01*
X658Y1260D01*
X659Y1260D01*
X660Y1260D01*
X661Y1260D01*
X662Y1260D01*
X663Y1260D01*
X664Y1260D01*
X665Y1260D01*
X666Y1260D01*
X667Y1260D01*
X668Y1260D01*
X669Y1260D01*
X670Y1260D01*
X671Y1260D01*
X672Y1260D01*
X673Y1260D01*
X674Y1260D01*
X675Y1260D01*
X676Y1260D01*
X677Y1260D01*
X678Y1260D01*
X679Y1260D01*
X680Y1260D01*
X681Y1260D01*
X682Y1260D01*
X683Y1260D01*
X684Y1260D01*
X685Y1260D01*
X686Y1260D01*
X687Y1260D01*
X688Y1260D01*
X689Y1260D01*
X690Y1260D01*
X691Y1260D01*
X692Y1260D01*
X693Y1260D01*
X694Y1260D01*
X695Y1260D01*
X696Y1260D01*
X697Y1260D01*
X698Y1260D01*
X699Y1260D01*
X700Y1260D01*
X701Y1260D01*
X702Y1260D01*
X703Y1260D01*
X704Y1260D01*
X705Y1260D01*
X706Y1260D01*
X707Y1260D01*
X708Y1260D01*
X709Y1260D01*
X710Y1260D01*
X711Y1260D01*
X712Y1260D01*
X713Y1260D01*
X714Y1260D01*
X715Y1260D01*
X716Y1260D01*
X717Y1260D01*
X718Y1260D01*
X719Y1260D01*
X720Y1260D01*
X721Y1260D01*
X722Y1260D01*
X723Y1260D01*
X724Y1260D01*
X725Y1260D01*
X726Y1260D01*
X727Y1260D01*
X728Y1260D01*
X729Y1260D01*
X730Y1260D01*
X731Y1260D01*
X732Y1260D01*
X733Y1260D01*
X734Y1260D01*
X735Y1260D01*
X736Y1260D01*
X737Y1260D01*
X738Y1260D01*
X739Y1260D01*
X740Y1260D01*
X741Y1260D01*
X742Y1260D01*
X743Y1260D01*
X744Y1260D01*
X745Y1260D01*
X746Y1260D01*
X747Y1260D01*
X748Y1260D01*
X749Y1260D01*
X750Y1260D01*
X751Y1260D01*
X752Y1260D01*
X753Y1260D01*
X754Y1260D01*
X755Y1260D01*
X756Y1260D01*
X757Y1260D01*
X758Y1260D01*
X759Y1260D01*
X760Y1260D01*
X761Y1260D01*
X762Y1260D01*
X763Y1260D01*
X764Y1260D01*
X765Y1260D01*
X766Y1260D01*
X767Y1260D01*
X768Y1260D01*
X769Y1260D01*
X770Y1260D01*
X771Y1260D01*
X772Y1260D01*
X773Y1260D01*
X774Y1260D01*
X775Y1260D01*
X776Y1260D01*
X777Y1260D01*
X778Y1260D01*
X779Y1260D01*
X780Y1260D01*
X781Y1260D01*
X782Y1260D01*
X783Y1260D01*
X784Y1260D01*
X785Y1260D01*
X786Y1260D01*
X787Y1260D01*
X788Y1260D01*
X789Y1260D01*
X790Y1260D01*
X791Y1260D01*
X792Y1260D01*
X793Y1260D01*
X794Y1260D01*
X795Y1260D01*
X796Y1260D01*
X797Y1260D01*
X798Y1260D01*
X799Y1260D01*
X800Y1260D01*
X801Y1260D01*
X802Y1260D01*
X803Y1260D01*
X804Y1260D01*
X805Y1260D01*
X806Y1260D01*
X807Y1260D01*
X808Y1260D01*
X809Y1260D01*
X810Y1260D01*
X811Y1260D01*
X812Y1260D01*
X813Y1260D01*
X814Y1260D01*
X815Y1260D01*
X816Y1260D01*
X817Y1260D01*
X818Y1260D01*
X819Y1260D01*
X820Y1260D01*
X821Y1260D01*
X822Y1260D01*
X823Y1260D01*
X824Y1260D01*
X825Y1260D01*
X826Y1260D01*
X827Y1260D01*
X828Y1260D01*
X829Y1260D01*
X830Y1260D01*
X831Y1260D01*
X832Y1260D01*
X833Y1260D01*
X834Y1260D01*
X835Y1260D01*
X836Y1260D01*
X837Y1260D01*
X838Y1260D01*
X839Y1260D01*
X840Y1260D01*
X841Y1260D01*
X842Y1260D01*
X843Y1260D01*
X844Y1260D01*
X845Y1260D01*
X846Y1260D01*
X847Y1260D01*
X848Y1260D01*
X849Y1260D01*
X850Y1260D01*
X851Y1260D01*
X852Y1260D01*
X853Y1260D01*
X854Y1260D01*
X855Y1260D01*
X856Y1260D01*
X857Y1260D01*
X858Y1260D01*
X859Y1260D01*
X860Y1260D01*
X861Y1260D01*
X862Y1260D01*
X863Y1260D01*
X864Y1260D01*
X865Y1260D01*
X866Y1260D01*
X867Y1260D01*
X868Y1260D01*
X869Y1260D01*
X870Y1260D01*
X871Y1260D01*
X872Y1260D01*
X873Y1260D01*
X874Y1260D01*
X875Y1260D01*
X876Y1260D01*
X877Y1260D01*
X878Y1260D01*
X879Y1260D01*
X880Y1260D01*
X881Y1260D01*
X882Y1260D01*
X883Y1260D01*
X884Y1260D01*
X885Y1260D01*
X886Y1260D01*
X887Y1260D01*
X888Y1260D01*
X889Y1260D01*
X890Y1260D01*
X891Y1260D01*
X892Y1260D01*
X893Y1260D01*
X894Y1260D01*
X895Y1260D01*
X896Y1260D01*
X897Y1260D01*
X898Y1260D01*
X899Y1260D01*
X900Y1260D01*
X901Y1260D01*
X902Y1260D01*
X903Y1260D01*
X904Y1260D01*
X905Y1260D01*
X906Y1260D01*
X907Y1260D01*
X908Y1260D01*
X909Y1260D01*
X910Y1260D01*
X911Y1260D01*
X912Y1260D01*
X913Y1260D01*
X914Y1260D01*
X915Y1260D01*
X916Y1260D01*
X917Y1260D01*
X918Y1260D01*
X919Y1260D01*
X920Y1260D01*
X921Y1260D01*
X922Y1260D01*
X923Y1260D01*
X924Y1260D01*
X925Y1260D01*
X926Y1260D01*
X927Y1260D01*
X928Y1260D01*
X929Y1260D01*
X930Y1260D01*
X931Y1260D01*
X932Y1260D01*
X933Y1260D01*
X934Y1260D01*
X935Y1260D01*
X936Y1260D01*
X937Y1260D01*
X938Y1260D01*
X939Y1260D01*
X940Y1260D01*
X941Y1260D01*
X942Y1260D01*
X943Y1260D01*
X944Y1260D01*
X945Y1260D01*
X946Y1260D01*
X947Y1260D01*
X948Y1260D01*
X949Y1260D01*
X950Y1260D01*
X951Y1260D01*
X952Y1260D01*
X953Y1260D01*
X954Y1260D01*
X955Y1260D01*
X956Y1260D01*
X957Y1260D01*
X958Y1260D01*
X959Y1260D01*
X960Y1260D01*
X961Y1260D01*
X962Y1260D01*
X963Y1260D01*
X964Y1260D01*
X965Y1260D01*
X966Y1260D01*
X967Y1260D01*
X968Y1260D01*
X969Y1260D01*
X970Y1260D01*
X971Y1260D01*
X972Y1260D01*
X973Y1260D01*
X974Y1260D01*
X975Y1260D01*
X976Y1260D01*
X977Y1260D01*
X978Y1260D01*
X979Y1260D01*
X980Y1260D01*
X981Y1260D01*
X982Y1260D01*
X983Y1260D01*
X984Y1260D01*
X985Y1260D01*
X986Y1260D01*
X987Y1260D01*
X988Y1260D01*
X989Y1260D01*
X990Y1260D01*
X991Y1260D01*
X992Y1260D01*
X993Y1260D01*
X994Y1260D01*
X995Y1260D01*
X996Y1260D01*
X997Y1260D01*
X998Y1260D01*
X999Y1260D01*
X1000Y1260D01*
X1001Y1260D01*
X1002Y1260D01*
X1003Y1260D01*
X1004Y1260D01*
X1005Y1260D01*
X1006Y1260D01*
X1007Y1260D01*
X1008Y1260D01*
X1009Y1260D01*
X1010Y1260D01*
X1011Y1260D01*
X1012Y1260D01*
X1013Y1260D01*
X1014Y1260D01*
X1015Y1260D01*
X1016Y1260D01*
X1017Y1260D01*
X1018Y1260D01*
X1019Y1260D01*
X1020Y1260D01*
X1021Y1260D01*
X1022Y1260D01*
X1023Y1260D01*
X1024Y1260D01*
X1025Y1260D01*
X1026Y1260D01*
X1027Y1260D01*
X1028Y1260D01*
X1029Y1260D01*
X1030Y1260D01*
X1031Y1260D01*
X1032Y1260D01*
X1033Y1260D01*
X1034Y1260D01*
X1035Y1260D01*
X1036Y1260D01*
X1037Y1260D01*
X1038Y1260D01*
X1039Y1260D01*
X1040Y1260D01*
X1041Y1260D01*
X1042Y1260D01*
X1043Y1260D01*
X1044Y1260D01*
X1045Y1260D01*
X1046Y1260D01*
X1047Y1260D01*
X1048Y1260D01*
X1049Y1260D01*
X1050Y1260D01*
X1051Y1260D01*
X1052Y1260D01*
X1053Y1260D01*
X1054Y1260D01*
X1055Y1260D01*
X1056Y1260D01*
X1057Y1260D01*
X1058Y1260D01*
X1059Y1260D01*
X1060Y1260D01*
X1061Y1260D01*
X1062Y1260D01*
X1063Y1260D01*
X1064Y1260D01*
X1065Y1260D01*
X1066Y1260D01*
X1067Y1260D01*
X1068Y1260D01*
X1069Y1260D01*
X1070Y1260D01*
X1071Y1260D01*
X1072Y1260D01*
X1073Y1260D01*
X1074Y1260D01*
X1075Y1260D01*
X1076Y1260D01*
X1077Y1260D01*
X1078Y1260D01*
X1079Y1260D01*
X1080Y1260D01*
X1081Y1260D01*
X1082Y1260D01*
X1083Y1260D01*
X1084Y1260D01*
X1085Y1260D01*
X1086Y1260D01*
X1087Y1260D01*
X1088Y1260D01*
X1089Y1260D01*
X1090Y1260D01*
X1091Y1260D01*
X1092Y1260D01*
X1093Y1260D01*
X1094Y1260D01*
X1095Y1260D01*
X1096Y1260D01*
X1097Y1260D01*
X1098Y1260D01*
X1099Y1260D01*
X1100Y1260D01*
X1101Y1260D01*
X1102Y1260D01*
X1103Y1260D01*
X1104Y1260D01*
X1105Y1260D01*
X1106Y1260D01*
X1107Y1260D01*
X1108Y1260D01*
X1109Y1260D01*
X1110Y1260D01*
X1111Y1260D01*
X1112Y1260D01*
X1113Y1260D01*
X1114Y1260D01*
X1115Y1260D01*
X1116Y1260D01*
X1117Y1260D01*
X1118Y1260D01*
X1119Y1260D01*
X1120Y1260D01*
X1121Y1260D01*
X1122Y1260D01*
X1123Y1260D01*
X1124Y1260D01*
X1125Y1260D01*
X1126Y1260D01*
X1127Y1260D01*
X1128Y1260D01*
X1129Y1260D01*
X1130Y1260D01*
X1131Y1260D01*
X1132Y1260D01*
X1133Y1260D01*
X1134Y1260D01*
X1135Y1260D01*
X1136Y1260D01*
X1137Y1260D01*
X1138Y1260D01*
X1139Y1260D01*
X1140Y1260D01*
X1141Y1260D01*
X1142Y1260D01*
X1143Y1260D01*
X1144Y1260D01*
X1145Y1260D01*
X1146Y1260D01*
X1147Y1260D01*
X1148Y1260D01*
X1149Y1260D01*
X1150Y1260D01*
X1151Y1260D01*
X1152Y1260D01*
X1153Y1260D01*
X1154Y1260D01*
X1155Y1260D01*
X1156Y1260D01*
X1157Y1260D01*
X1158Y1260D01*
X1159Y1260D01*
X1160Y1260D01*
X1161Y1260D01*
X1162Y1260D01*
X1163Y1260D01*
X1164Y1260D01*
X1165Y1260D01*
X1166Y1260D01*
X1167Y1260D01*
X1168Y1260D01*
X1169Y1260D01*
X1170Y1260D01*
X1171Y1260D01*
X1172Y1260D01*
X1173Y1260D01*
X1174Y1260D01*
X1175Y1260D01*
X1176Y1260D01*
X1177Y1260D01*
X1178Y1260D01*
X1179Y1260D01*
X1180Y1260D01*
X1181Y1260D01*
X1182Y1260D01*
X1183Y1260D01*
X1184Y1260D01*
X1185Y1260D01*
X1186Y1260D01*
X1187Y1260D01*
X1188Y1260D01*
X1189Y1260D01*
X1190Y1260D01*
X1191Y1260D01*
X1192Y1260D01*
X1193Y1260D01*
X1194Y1260D01*
X1195Y1260D01*
X1196Y1260D01*
X1197Y1260D01*
X1198Y1260D01*
X1199Y1260D01*
X1200Y1260D01*
X1201Y1260D01*
X1202Y1260D01*
X1203Y1260D01*
X1204Y1260D01*
X1205Y1260D01*
X1206Y1260D01*
X1207Y1260D01*
X1208Y1260D01*
X1209Y1260D01*
X1210Y1260D01*
X1211Y1260D01*
X1212Y1260D01*
X1213Y1260D01*
X1214Y1260D01*
X1215Y1260D01*
X1216Y1260D01*
X1217Y1260D01*
X1218Y1260D01*
X1219Y1260D01*
X1220Y1260D01*
X1221Y1260D01*
X1222Y1260D01*
X1223Y1260D01*
X1224Y1260D01*
X1225Y1260D01*
X1226Y1260D01*
X1227Y1260D01*
X1228Y1260D01*
X1229Y1260D01*
X1230Y1260D01*
X1231Y1260D01*
X1232Y1260D01*
X1233Y1260D01*
X1234Y1260D01*
X1235Y1260D01*
X1236Y1260D01*
X1237Y1260D01*
X1238Y1260D01*
X1239Y1260D01*
X1240Y1260D01*
X1241Y1260D01*
X1242Y1260D01*
X1243Y1260D01*
X1244Y1260D01*
X1245Y1260D01*
X1246Y1260D01*
X1247Y1260D01*
X1248Y1260D01*
X1249Y1260D01*
X1250Y1260D01*
X1251Y1260D01*
X1252Y1260D01*
X1253Y1260D01*
X1254Y1260D01*
X1255Y1260D01*
X1256Y1260D01*
X1257Y1260D01*
X1258Y1260D01*
X1259Y1260D01*
X1260Y1260D01*
X1261Y1260D01*
X1262Y1260D01*
X1263Y1260D01*
X1264Y1260D01*
X1265Y1260D01*
X1266Y1260D01*
X1267Y1260D01*
X1268Y1260D01*
X1269Y1260D01*
X1270Y1260D01*
X1271Y1260D01*
X1272Y1260D01*
X1273Y1260D01*
X1274Y1260D01*
X1275Y1260D01*
X1276Y1260D01*
X1277Y1260D01*
X1278Y1260D01*
X1279Y1260D01*
X1280Y1260D01*
X1281Y1260D01*
X1282Y1260D01*
X1283Y1260D01*
X1284Y1260D01*
X1285Y1260D01*
X1286Y1260D01*
X1287Y1260D01*
X1288Y1260D01*
X1289Y1260D01*
X1290Y1260D01*
X1291Y1260D01*
X1292Y1260D01*
X1293Y1260D01*
X1294Y1260D01*
X1295Y1260D01*
X1296Y1260D01*
X1297Y1260D01*
X1298Y1260D01*
X1299Y1260D01*
X1300Y1260D01*
X1301Y1260D01*
X1302Y1260D01*
X1303Y1260D01*
X1304Y1260D01*
X1305Y1260D01*
X1306Y1260D01*
X1307Y1260D01*
X1308Y1260D01*
X1309Y1260D01*
X1310Y1260D01*
X1311Y1260D01*
X1312Y1260D01*
X1313Y1260D01*
X1314Y1260D01*
X1315Y1260D01*
X1316Y1260D01*
X1317Y1260D01*
X1318Y1260D01*
X1319Y1260D01*
X1320Y1260D01*
X1321Y1260D01*
X1322Y1260D01*
X1323Y1260D01*
X1324Y1260D01*
X1325Y1260D01*
X1326Y1260D01*
X1327Y1260D01*
X1328Y1260D01*
X1329Y1260D01*
X1330Y1260D01*
X1331Y1260D01*
X1332Y1260D01*
X1333Y1260D01*
X1334Y1260D01*
X1335Y1260D01*
X1336Y1260D01*
X1337Y1260D01*
X1338Y1260D01*
X1339Y1260D01*
X1340Y1260D01*
X1341Y1260D01*
X1342Y1260D01*
X1343Y1260D01*
X1344Y1260D01*
X1345Y1260D01*
X1346Y1260D01*
X1347Y1260D01*
X1348Y1260D01*
X1349Y1260D01*
X1350Y1260D01*
X1351Y1260D01*
X1352Y1260D01*
X1353Y1260D01*
X1354Y1260D01*
X1355Y1260D01*
X1356Y1260D01*
X1357Y1260D01*
X1358Y1260D01*
X1359Y1260D01*
X1360Y1260D01*
X1361Y1260D01*
X1362Y1260D01*
X1363Y1260D01*
X1364Y1260D01*
X1365Y1260D01*
X1366Y1260D01*
X1367Y1260D01*
X1368Y1260D01*
X1369Y1260D01*
X1370Y1260D01*
X1371Y1260D01*
X1372Y1260D01*
X1373Y1260D01*
X1374Y1260D01*
X1375Y1260D01*
X1376Y1260D01*
X1377Y1260D01*
X1378Y1260D01*
X1379Y1260D01*
X1380Y1260D01*
X1381Y1260D01*
X1382Y1260D01*
X1383Y1260D01*
X1384Y1260D01*
X1385Y1260D01*
X1386Y1260D01*
X1387Y1260D01*
X1388Y1260D01*
X1389Y1260D01*
X1390Y1260D01*
X1391Y1260D01*
X1392Y1260D01*
X1393Y1260D01*
X1394Y1260D01*
X1395Y1260D01*
X1396Y1260D01*
X1397Y1260D01*
X1398Y1260D01*
X1399Y1260D01*
X1400Y1260D01*
X1401Y1260D01*
X1402Y1260D01*
X1403Y1260D01*
X1404Y1260D01*
X1405Y1260D01*
X1406Y1260D01*
X1407Y1260D01*
X1408Y1260D01*
X1409Y1260D01*
X1410Y1260D01*
X1411Y1260D01*
X1412Y1260D01*
X1413Y1260D01*
X1414Y1260D01*
X1415Y1260D01*
X1416Y1260D01*
X1417Y1260D01*
X1418Y1260D01*
X1419Y1260D01*
X1420Y1260D01*
X1421Y1260D01*
X1422Y1260D01*
X1423Y1260D01*
X1424Y1260D01*
X1425Y1260D01*
X1426Y1260D01*
X1427Y1260D01*
X1428Y1260D01*
X1429Y1260D01*
X1430Y1260D01*
X1431Y1260D01*
X1432Y1260D01*
X1433Y1260D01*
X1434Y1260D01*
X1435Y1260D01*
X1436Y1260D01*
X1437Y1260D01*
X1438Y1260D01*
X1439Y1260D01*
X1440Y1260D01*
X1441Y1260D01*
X1442Y1260D01*
X1443Y1260D01*
X1444Y1260D01*
X1445Y1260D01*
X1446Y1260D01*
X1447Y1260D01*
X1448Y1260D01*
X1449Y1260D01*
X1450Y1260D01*
X1451Y1260D01*
X1452Y1260D01*
X1453Y1260D01*
X1454Y1260D01*
X1455Y1260D01*
X1456Y1260D01*
X1457Y1260D01*
X1458Y1260D01*
X1459Y1260D01*
X1460Y1260D01*
X1461Y1260D01*
X1462Y1260D01*
X1463Y1260D01*
X1464Y1260D01*
X1465Y1260D01*
X1466Y1260D01*
X1467Y1260D01*
X1468Y1260D01*
X1469Y1260D01*
X1470Y1260D01*
X1471Y1260D01*
X1472Y1260D01*
X1473Y1260D01*
X1474Y1260D01*
X1475Y1260D01*
X1476Y1260D01*
X1477Y1260D01*
X1478Y1260D01*
X1479Y1260D01*
X1480Y1260D01*
X1481Y1260D01*
X1482Y1260D01*
X1483Y1260D01*
X1484Y1260D01*
X1485Y1260D01*
X1486Y1260D01*
X1487Y1260D01*
X1488Y1260D01*
X1489Y1260D01*
X1490Y1260D01*
X1491Y1260D01*
X1492Y1260D01*
X1493Y1260D01*
X1494Y1260D01*
X1495Y1260D01*
X1496Y1260D01*
X1497Y1260D01*
X1498Y1260D01*
X1499Y1260D01*
X1500Y1260D01*
X1501Y1260D01*
X1502Y1260D01*
X1503Y1260D01*
X1504Y1260D01*
X1505Y1260D01*
X1506Y1260D01*
X1507Y1260D01*
X1508Y1260D01*
X1509Y1260D01*
X1510Y1260D01*
X1511Y1260D01*
X1512Y1260D01*
X1513Y1260D01*
X1514Y1260D01*
X1515Y1260D01*
X1516Y1260D01*
X1517Y1260D01*
X1518Y1260D01*
X1519Y1260D01*
X1520Y1260D01*
X1521Y1260D01*
X1522Y1260D01*
X1523Y1260D01*
X1524Y1260D01*
X1525Y1260D01*
X1526Y1260D01*
X1527Y1260D01*
X1528Y1260D01*
X1529Y1260D01*
X1530Y1260D01*
X1531Y1260D01*
X1532Y1260D01*
X1533Y1260D01*
X1534Y1260D01*
X1535Y1260D01*
X1536Y1260D01*
X1537Y1260D01*
X1538Y1260D01*
X1539Y1260D01*
X1540Y1260D01*
X1541Y1260D01*
X1542Y1260D01*
X1543Y1260D01*
X1544Y1260D01*
X1545Y1260D01*
X1546Y1260D01*
X1547Y1260D01*
X1548Y1260D01*
X1549Y1260D01*
X1550Y1260D01*
X1551Y1260D01*
X1552Y1260D01*
X1553Y1260D01*
X1554Y1260D01*
X1555Y1260D01*
X1556Y1260D01*
X1557Y1260D01*
X1558Y1260D01*
X1559Y1260D01*
X1560Y1260D01*
X1561Y1260D01*
X1562Y1260D01*
X1563Y1260D01*
X1564Y1260D01*
X1565Y1260D01*
X1566Y1260D01*
X1567Y1260D01*
X1568Y1260D01*
X1569Y1260D01*
X1570Y1260D01*
X1571Y1260D01*
X1572Y1260D01*
X1573Y1260D01*
X1574Y1260D01*
X1575Y1260D01*
X1576Y1260D01*
X1577Y1260D01*
X1578Y1260D01*
X1579Y1260D01*
X1580Y1260D01*
X1581Y1260D01*
X1582Y1260D01*
X1583Y1260D01*
X1584Y1260D01*
X1585Y1260D01*
X1586Y1260D01*
X1587Y1260D01*
X1588Y1260D01*
X1589Y1260D01*
X1590Y1260D01*
X1591Y1260D01*
X1592Y1260D01*
X1593Y1260D01*
X1594Y1260D01*
X1595Y1260D01*
X1596Y1260D01*
X1597Y1260D01*
X1598Y1260D01*
X1599Y1260D01*
X1600Y1260D01*
X1601Y1260D01*
X1602Y1260D01*
X1603Y1260D01*
X1604Y1260D01*
X1605Y1260D01*
X1606Y1260D01*
X1607Y1260D01*
X1608Y1260D01*
X1609Y1260D01*
X1610Y1260D01*
X1611Y1260D01*
X1612Y1260D01*
X1613Y1260D01*
X1614Y1260D01*
X1615Y1260D01*
X1616Y1260D01*
X1617Y1260D01*
X1618Y1260D01*
X1619Y1260D01*
X1620Y1260D01*
X1621Y1260D01*
X1622Y1260D01*
X1623Y1260D01*
X1624Y1260D01*
X1625Y1260D01*
X1626Y1260D01*
X1627Y1260D01*
X1628Y1260D01*
X1629Y1260D01*
X1630Y1260D01*
X1631Y1260D01*
X1632Y1260D01*
X1633Y1260D01*
X1634Y1260D01*
X1635Y1260D01*
X1636Y1260D01*
X1637Y1260D01*
X1638Y1260D01*
X1639Y1260D01*
X1640Y1260D01*
X1641Y1260D01*
X1642Y1260D01*
X1643Y1260D01*
X1644Y1260D01*
X1645Y1260D01*
X1646Y1260D01*
X1647Y1260D01*
X1648Y1260D01*
X1649Y1260D01*
X1650Y1260D01*
X1651Y1260D01*
X1652Y1260D01*
X1653Y1260D01*
X1654Y1260D01*
X1655Y1260D01*
X1656Y1260D01*
X1657Y1260D01*
X1658Y1260D01*
X1659Y1260D01*
X1660Y1260D01*
X1661Y1260D01*
X1662Y1260D01*
X1663Y1260D01*
X1664Y1260D01*
X1665Y1260D01*
X1666Y1260D01*
X1667Y1260D01*
X1668Y1260D01*
X1669Y1260D01*
X1670Y1260D01*
X1671Y1260D01*
X1672Y1260D01*
X1673Y1260D01*
X1674Y1260D01*
X1675Y1260D01*
X1676Y1260D01*
X1677Y1260D01*
X1678Y1260D01*
X1679Y1260D01*
X1680Y1260D01*
X1681Y1260D01*
X1682Y1260D01*
X1683Y1260D01*
X1684Y1260D01*
X1685Y1260D01*
X1686Y1260D01*
X1687Y1260D01*
X1688Y1260D01*
X1689Y1260D01*
X1690Y1260D01*
X1691Y1260D01*
X1692Y1260D01*
X1693Y1260D01*
X1694Y1260D01*
X1695Y1260D01*
X1696Y1260D01*
X1697Y1260D01*
X1698Y1260D01*
X1699Y1260D01*
X1700Y1260D01*
X1701Y1260D01*
X1702Y1260D01*
X1703Y1260D01*
X1704Y1260D01*
X1705Y1260D01*
X1706Y1260D01*
X1707Y1260D01*
X1708Y1260D01*
X1709Y1260D01*
X1710Y1260D01*
X1711Y1260D01*
X1712Y1260D01*
X1713Y1260D01*
X1714Y1260D01*
X1715Y1260D01*
X1716Y1260D01*
X1717Y1260D01*
X1718Y1260D01*
X1719Y1260D01*
X1720Y1260D01*
X1721Y1260D01*
X1722Y1260D01*
X1723Y1260D01*
X1724Y1260D01*
X1725Y1260D01*
X1726Y1260D01*
X1727Y1260D01*
X1728Y1260D01*
X1729Y1260D01*
X1730Y1260D01*
X1731Y1260D01*
X1732Y1260D01*
X1733Y1260D01*
X1734Y1260D01*
X1735Y1260D01*
X1736Y1260D01*
X1737Y1260D01*
X1738Y1260D01*
X1739Y1260D01*
X1740Y1260D01*
X1741Y1260D01*
X1742Y1260D01*
X1743Y1260D01*
X1744Y1260D01*
X1745Y1260D01*
X1746Y1260D01*
X1747Y1260D01*
X1748Y1260D01*
X1749Y1260D01*
X1750Y1260D01*
X1751Y1260D01*
X1752Y1260D01*
X1753Y1260D01*
X1754Y1260D01*
X1755Y1260D01*
X1756Y1260D01*
X1757Y1260D01*
X1758Y1260D01*
X1759Y1260D01*
X1760Y1260D01*
X1761Y1260D01*
X1762Y1260D01*
X1763Y1260D01*
X1764Y1260D01*
X1765Y1260D01*
X1766Y1260D01*
X1767Y1260D01*
X1768Y1260D01*
X1769Y1260D01*
X1770Y1260D01*
X1771Y1260D01*
X1772Y1260D01*
X1773Y1260D01*
X1774Y1260D01*
X1775Y1260D01*
X1776Y1260D01*
X1777Y1260D01*
X1778Y1260D01*
X1779Y1260D01*
X1780Y1260D01*
X1781Y1260D01*
X1782Y1260D01*
X1783Y1260D01*
X1784Y1260D01*
X1785Y1260D01*
X1786Y1260D01*
X1787Y1260D01*
X1788Y1260D01*
X1789Y1260D01*
X1790Y1260D01*
X1791Y1260D01*
X1792Y1260D01*
X1793Y1260D01*
X1794Y1260D01*
X1795Y1260D01*
X1796Y1260D01*
X1797Y1260D01*
X1798Y1260D01*
X1799Y1260D01*
X1800Y1260D01*
X1801Y1260D01*
X1802Y1260D01*
X1803Y1260D01*
X1804Y1260D01*
X1805Y1260D01*
X1806Y1260D01*
X1807Y1260D01*
X1808Y1260D01*
X1809Y1260D01*
X1810Y1260D01*
X1811Y1260D01*
X1812Y1260D01*
X1813Y1260D01*
X1814Y1260D01*
X1815Y1260D01*
X1816Y1260D01*
X1817Y1260D01*
X1818Y1260D01*
X1819Y1260D01*
X1820Y1260D01*
X1821Y1260D01*
X1822Y1260D01*
X1823Y1260D01*
X1824Y1260D01*
X1825Y1260D01*
X1826Y1260D01*
X1827Y1260D01*
X1828Y1260D01*
X1829Y1260D01*
X1830Y1260D01*
X1831Y1260D01*
X1832Y1260D01*
X1833Y1260D01*
X1834Y1260D01*
X1835Y1260D01*
X1836Y1260D01*
X1837Y1260D01*
X1838Y1260D01*
X1839Y1260D01*
X1840Y1260D01*
X1841Y1260D01*
X1842Y1260D01*
X1843Y1260D01*
X1844Y1260D01*
X1845Y1260D01*
X1846Y1260D01*
X1847Y1260D01*
X1848Y1260D01*
X1849Y1260D01*
X1850Y1260D01*
X1851Y1260D01*
X1852Y1260D01*
X1853Y1260D01*
X1854Y1260D01*
X1855Y1260D01*
X1856Y1260D01*
X1857Y1260D01*
X1858Y1260D01*
X1859Y1260D01*
X1860Y1260D01*
X1861Y1260D01*
X1862Y1260D01*
X1863Y1260D01*
X1864Y1260D01*
X1865Y1260D01*
X1866Y1260D01*
X1867Y1260D01*
X1868Y1260D01*
X1869Y1260D01*
X1870Y1260D01*
X1871Y1260D01*
X1872Y1260D01*
X1873Y1260D01*
X1874Y1260D01*
X1875Y1260D01*
X1876Y1260D01*
X1877Y1260D01*
X1878Y1260D01*
X1879Y1260D01*
X1880Y1260D01*
X1881Y1260D01*
X1882Y1260D01*
X1883Y1260D01*
X1884Y1260D01*
X1885Y1260D01*
X1886Y1260D01*
X1887Y1260D01*
X1888Y1260D01*
X1889Y1260D01*
X1890Y1260D01*
X1891Y1260D01*
X1892Y1260D01*
X1893Y1260D01*
X1894Y1260D01*
X1895Y1260D01*
X1896Y1260D01*
X1897Y1260D01*
X1898Y1260D01*
X1899Y1260D01*
X1900Y1260D01*
X1901Y1260D01*
X1902Y1260D01*
X1903Y1260D01*
X1904Y1260D01*
X1905Y1260D01*
X1906Y1260D01*
X1907Y1260D01*
X1908Y1260D01*
X1909Y1260D01*
X1910Y1260D01*
X1911Y1260D01*
X1912Y1260D01*
X1913Y1260D01*
X1914Y1260D01*
X1915Y1260D01*
X1916Y1260D01*
X1917Y1260D01*
X1918Y1260D01*
X1919Y1260D01*
X1920Y1260D01*
X1921Y1260D01*
X1922Y1260D01*
X1923Y1260D01*
X1924Y1260D01*
X1925Y1260D01*
X1926Y1260D01*
X1927Y1260D01*
X1928Y1260D01*
X1929Y1260D01*
X1930Y1260D01*
X1931Y1260D01*
X1932Y1260D01*
X1933Y1260D01*
X1934Y1260D01*
X1935Y1260D01*
X1936Y1260D01*
X1937Y1260D01*
X1938Y1260D01*
X1939Y1260D01*
X1940Y1260D01*
X1941Y1260D01*
X1942Y1260D01*
X1943Y1260D01*
X1944Y1260D01*
X1945Y1260D01*
X1946Y1260D01*
X1947Y1260D01*
X1948Y1260D01*
X1949Y1260D01*
X1950Y1260D01*
X1951Y1260D01*
X1952Y1260D01*
X1953Y1260D01*
X1954Y1260D01*
X1955Y1260D01*
X1956Y1260D01*
X1957Y1260D01*
X1958Y1260D01*
X1959Y1260D01*
X1960Y1260D01*
X1961Y1260D01*
X1962Y1260D01*
X1963Y1260D01*
X1964Y1260D01*
X1965Y1260D01*
X1966Y1260D01*
X1967Y1260D01*
X1968Y1260D01*
X1969Y1260D01*
X1970Y1260D01*
X1971Y1260D01*
X1972Y1260D01*
X1973Y1260D01*
X1974Y1260D01*
X1975Y1260D01*
X1976Y1260D01*
X1977Y1260D01*
X1978Y1260D01*
X1979Y1260D01*
X1980Y1260D01*
X1981Y1260D01*
X1982Y1260D01*
X1983Y1260D01*
X1984Y1260D01*
X1985Y1260D01*
X1986Y1260D01*
X1987Y1260D01*
X1988Y1260D01*
X1989Y1260D01*
X1990Y1260D01*
X1991Y1260D01*
X1992Y1260D01*
X1993Y1260D01*
X1994Y1260D01*
X1995Y1260D01*
X1996Y1260D01*
X1997Y1260D01*
X1998Y1260D01*
X1999Y1260D01*
X2000Y1260D01*
X2001Y1260D01*
X2002Y1260D01*
X2003Y1260D01*
X2004Y1260D01*
X2005Y1260D01*
X2006Y1260D01*
X2007Y1260D01*
X2008Y1260D01*
X2009Y1260D01*
X2010Y1260D01*
X2011Y1260D01*
X2012Y1260D01*
X2013Y1260D01*
X2014Y1260D01*
X2015Y1260D01*
X2016Y1260D01*
X2017Y1260D01*
X2018Y1260D01*
X2019Y1260D01*
X2020Y1260D01*
X2021Y1260D01*
X2022Y1260D01*
X2023Y1260D01*
X2024Y1260D01*
X2025Y1260D01*
X2026Y1260D01*
X2027Y1260D01*
X2028Y1260D01*
X2029Y1260D01*
X2030Y1260D01*
X2031Y1260D01*
X2032Y1260D01*
X2033Y1260D01*
X2034Y1260D01*
X2035Y1260D01*
X2036Y1260D01*
X2037Y1260D01*
X2038Y1260D01*
X2039Y1260D01*
X2040Y1260D01*
X2041Y1260D01*
X2042Y1260D01*
X2043Y1260D01*
X2044Y1260D01*
X2045Y1260D01*
X2046Y1260D01*
X2047Y1260D01*
X2048Y1260D01*
X2049Y1260D01*
X2050Y1260D01*
X2051Y1260D01*
X2052Y1260D01*
X2053Y1260D01*
X2054Y1260D01*
X2055Y1260D01*
X2056Y1260D01*
X2057Y1260D01*
X2058Y1260D01*
X2059Y1260D01*
X2060Y1260D01*
X2061Y1260D01*
X2062Y1260D01*
X2063Y1260D01*
X2064Y1260D01*
X2065Y1260D01*
X2066Y1260D01*
X2067Y1260D01*
X2068Y1260D01*
X2069Y1260D01*
X2070Y1260D01*
X2071Y1260D01*
X2072Y1260D01*
X2073Y1260D01*
X2074Y1260D01*
X2075Y1260D01*
X2076Y1260D01*
X2077Y1260D01*
X2078Y1260D01*
X2079Y1260D01*
X2080Y1260D01*
X2081Y1260D01*
X2082Y1260D01*
X2083Y1260D01*
X2084Y1260D01*
X2085Y1260D01*
X2086Y1260D01*
X2087Y1260D01*
X2088Y1260D01*
X2089Y1260D01*
X2090Y1260D01*
X2091Y1260D01*
X2092Y1260D01*
X2093Y1260D01*
X2094Y1260D01*
X2095Y1260D01*
X2096Y1260D01*
X2097Y1260D01*
X2098Y1260D01*
X2099Y1260D01*
X2100Y1260D01*
X2101Y1260D01*
X2102Y1260D01*
X2103Y1260D01*
X2104Y1260D01*
X2105Y1260D01*
X2106Y1260D01*
X2107Y1260D01*
X2108Y1260D01*
X2109Y1260D01*
X2110Y1260D01*
X2111Y1260D01*
X2112Y1260D01*
X2113Y1260D01*
X2114Y1260D01*
X2115Y1260D01*
X2116Y1260D01*
X2117Y1260D01*
X2118Y1260D01*
X2119Y1260D01*
X2120Y1260D01*
X2121Y1260D01*
X2122Y1260D01*
X2123Y1260D01*
X2124Y1260D01*
X2125Y1260D01*
X2126Y1260D01*
X2127Y1260D01*
X2128Y1260D01*
X2129Y1260D01*
X2130Y1260D01*
X2131Y1260D01*
X2132Y1260D01*
X2133Y1260D01*
X2134Y1260D01*
X2135Y1260D01*
X2136Y1260D01*
X2137Y1260D01*
X2138Y1260D01*
X2139Y1260D01*
X2140Y1260D01*
X2141Y1260D01*
X2142Y1260D01*
X2143Y1260D01*
X2144Y1260D01*
X2145Y1260D01*
X2146Y1260D01*
X2147Y1260D01*
X2148Y1260D01*
X2149Y1260D01*
X2150Y1260D01*
X2151Y1260D01*
X2152Y1260D01*
X2153Y1260D01*
X2154Y1260D01*
X2155Y1260D01*
X2156Y1260D01*
X2157Y1260D01*
X2158Y1260D01*
X2159Y1260D01*
X2160Y1260D01*
X2161Y1260D01*
X2162Y1260D01*
X2163Y1260D01*
X2164Y1260D01*
X2165Y1260D01*
X2166Y1260D01*
X2167Y1260D01*
X2168Y1260D01*
X2169Y1260D01*
X2170Y1260D01*
X2171Y1260D01*
X2172Y1260D01*
X2173Y1260D01*
X2174Y1260D01*
X2175Y1260D01*
X2176Y1260D01*
X2177Y1260D01*
X2178Y1260D01*
X2179Y1260D01*
X2180Y1260D01*
X2181Y1260D01*
X2182Y1260D01*
X2183Y1260D01*
X2184Y1260D01*
X2185Y1260D01*
X2186Y1260D01*
X2187Y1260D01*
X2188Y1260D01*
X2189Y1260D01*
X2190Y1260D01*
X2191Y1260D01*
X2192Y1260D01*
X2193Y1260D01*
X2194Y1260D01*
X2195Y1260D01*
X2196Y1260D01*
X2197Y1260D01*
X2198Y1260D01*
X2199Y1260D01*
X2200Y1260D01*
X2201Y1260D01*
X2202Y1260D01*
X2203Y1260D01*
X2204Y1260D01*
X2205Y1260D01*
X2206Y1260D01*
X2207Y1260D01*
X2208Y1260D01*
X2209Y1260D01*
X2210Y1260D01*
X2211Y1260D01*
X2212Y1260D01*
X2213Y1260D01*
X2214Y1260D01*
X2215Y1260D01*
X2216Y1260D01*
X2217Y1260D01*
X2218Y1260D01*
X2219Y1260D01*
X2220Y1260D01*
X2221Y1260D01*
X2222Y1260D01*
X2223Y1260D01*
X2224Y1260D01*
X2225Y1260D01*
X2226Y1260D01*
X2227Y1260D01*
X2228Y1260D01*
X2229Y1260D01*
X2230Y1260D01*
X2231Y1260D01*
X2232Y1260D01*
X2233Y1260D01*
X2234Y1260D01*
X2235Y1260D01*
X2236Y1260D01*
X2237Y1260D01*
X2238Y1260D01*
X2239Y1260D01*
X2240Y1260D01*
X2241Y1260D01*
X2242Y1260D01*
X2243Y1260D01*
X2244Y1260D01*
X2245Y1260D01*
X2246Y1260D01*
X2247Y1260D01*
X2248Y1260D01*
X2249Y1260D01*
X2250Y1260D01*
X2251Y1260D01*
X2252Y1260D01*
X2253Y1260D01*
X2254Y1260D01*
X2255Y1260D01*
X2256Y1260D01*
X2257Y1260D01*
X2258Y1260D01*
X2259Y1260D01*
X2260Y1260D01*
X2261Y1260D01*
X2262Y1260D01*
X2263Y1260D01*
X2264Y1260D01*
X2265Y1260D01*
X2266Y1260D01*
X2267Y1260D01*
X2268Y1260D01*
X2269Y1260D01*
X2270Y1260D01*
X2271Y1260D01*
X2272Y1260D01*
X2273Y1260D01*
X2274Y1260D01*
X2275Y1260D01*
X2276Y1260D01*
X2277Y1260D01*
X2278Y1260D01*
X2279Y1260D01*
X2280Y1260D01*
X2281Y1260D01*
X2282Y1260D01*
X2283Y1260D01*
X2284Y1260D01*
X2285Y1260D01*
X2286Y1260D01*
X2287Y1260D01*
X2288Y1260D01*
X2289Y1260D01*
X2290Y1260D01*
X2291Y1260D01*
X2292Y1260D01*
X2293Y1260D01*
X2294Y1260D01*
X2295Y1260D01*
X2296Y1260D01*
X2297Y1260D01*
X2298Y1260D01*
X2299Y1260D01*
X2300Y1260D01*
X2301Y1260D01*
X2302Y1260D01*
X2303Y1260D01*
X2304Y1260D01*
X2305Y1260D01*
X2306Y1260D01*
X2307Y1260D01*
X2308Y1260D01*
X2309Y1260D01*
X2310Y1260D01*
X2311Y1260D01*
X2312Y1260D01*
X2313Y1260D01*
X2314Y1260D01*
X2315Y1260D01*
X2316Y1260D01*
X2317Y1260D01*
X2318Y1260D01*
X2319Y1260D01*
X2320Y1260D01*
X2321Y1260D01*
X2322Y1260D01*
X2323Y1260D01*
X2324Y1260D01*
X2325Y1260D01*
X2326Y1260D01*
X2327Y1260D01*
X2328Y1260D01*
X2329Y1260D01*
X2330Y1260D01*
X2331Y1260D01*
X2332Y1260D01*
X2333Y1260D01*
X2334Y1260D01*
X2335Y1260D01*
X2336Y1260D01*
X2337Y1260D01*
X2338Y1260D01*
X2339Y1260D01*
X2340Y1260D01*
X2341Y1260D01*
X2342Y1260D01*
X2343Y1260D01*
X2344Y1260D01*
X2345Y1260D01*
X2346Y1260D01*
X2347Y1260D01*
X2348Y1260D01*
X2349Y1260D01*
X2350Y1260D01*
X2351Y1260D01*
X2352Y1260D01*
X2353Y1260D01*
X2354Y1260D01*
X2355Y1260D01*
X2356Y1260D01*
X2357Y1260D01*
X2358Y1260D01*
X2359Y1260D01*
X2360Y1260D01*
X2361Y1260D01*
X2362Y1260D01*
X2363Y1260D01*
X2364Y1260D01*
X2365Y1260D01*
X2366Y1260D01*
X2367Y1260D01*
X2368Y1260D01*
X2369Y1260D01*
X2370Y1260D01*
X2371Y1260D01*
X2372Y1260D01*
X2373Y1260D01*
X2374Y1260D01*
X2375Y1260D01*
X2376Y1260D01*
X2377Y1260D01*
X2378Y1260D01*
X2379Y1260D01*
X2380Y1260D01*
X2381Y1260D01*
X2382Y1260D01*
X2383Y1260D01*
X2384Y1260D01*
X2385Y1260D01*
X2386Y1260D01*
X2387Y1260D01*
X2388Y1260D01*
X2389Y1260D01*
X2390Y1260D01*
X2391Y1260D01*
X2392Y1260D01*
X2393Y1260D01*
X2394Y1260D01*
X2395Y1260D01*
X2396Y1260D01*
X2397Y1260D01*
X2398Y1260D01*
X2399Y1260D01*
X2400Y1260D01*
X2401Y1260D01*
X2402Y1260D01*
X2403Y1260D01*
X2404Y1260D01*
X2405Y1260D01*
X2406Y1260D01*
X2407Y1260D01*
X2408Y1260D01*
X2409Y1260D01*
X2410Y1260D01*
X2411Y1260D01*
X2412Y1260D01*
X2413Y1260D01*
X2414Y1260D01*
X2415Y1260D01*
X2416Y1260D01*
X2417Y1260D01*
X2418Y1260D01*
X2419Y1260D01*
X2420Y1260D01*
X2421Y1260D01*
X2422Y1260D01*
X2423Y1260D01*
X2424Y1260D01*
X2425Y1260D01*
X2426Y1260D01*
X2427Y1260D01*
X2428Y1260D01*
X2429Y1260D01*
X2430Y1260D01*
X2431Y1260D01*
X2432Y1260D01*
X2433Y1260D01*
X2434Y1260D01*
X2435Y1260D01*
X2436Y1260D01*
X2437Y1260D01*
X2438Y1260D01*
X2439Y1260D01*
X2440Y1260D01*
X2441Y1260D01*
X2442Y1260D01*
X2443Y1260D01*
X2444Y1260D01*
X2445Y1260D01*
X2446Y1260D01*
X2447Y1260D01*
X2448Y1260D01*
X2449Y1260D01*
X2450Y1260D01*
X2451Y1260D01*
X2452Y1260D01*
X2453Y1260D01*
X2454Y1260D01*
X2455Y1260D01*
X2456Y1260D01*
X2457Y1260D01*
X2458Y1260D01*
X2459Y1260D01*
X2460Y1260D01*
X2461Y1260D01*
X2462Y1260D01*
X2463Y1260D01*
X2464Y1260D01*
X2465Y1260D01*
X2466Y1260D01*
X2467Y1260D01*
X2468Y1260D01*
X2469Y1260D01*
X2470Y1260D01*
X2471Y1260D01*
X2472Y1260D01*
X2473Y1260D01*
X2474Y1260D01*
X2475Y1260D01*
X2476Y1260D01*
X2477Y1260D01*
X2478Y1260D01*
X2479Y1260D01*
X2480Y1260D01*
X2481Y1260D01*
X2482Y1260D01*
X2483Y1260D01*
X2484Y1260D01*
X2485Y1260D01*
X2486Y1260D01*
X2487Y1260D01*
X2488Y1260D01*
X2489Y1260D01*
X2490Y1260D01*
X2491Y1260D01*
X2492Y1260D01*
X2493Y1260D01*
X2494Y1260D01*
X2495Y1260D01*
X2496Y1259D01*
X2497Y1259D01*
X2498Y1259D01*
X2499Y1259D01*
X2500Y1259D01*
X2501Y1259D01*
X2502Y1259D01*
X2503Y1259D01*
X2504Y1259D01*
X2505Y1259D01*
X2506Y1259D01*
X2507Y1259D01*
X2508Y1259D01*
X2509Y1258D01*
X2510Y1258D01*
X2511Y1258D01*
X2512Y1258D01*
X2513Y1258D01*
X2514Y1258D01*
X2515Y1258D01*
X2516Y1258D01*
X2517Y1257D01*
X2518Y1257D01*
X2519Y1257D01*
X2520Y1257D01*
X2521Y1257D01*
X2522Y1257D01*
X2523Y1257D01*
X2524Y1256D01*
X2525Y1256D01*
X2526Y1256D01*
X2527Y1256D01*
X2528Y1256D01*
X2529Y1255D01*
X2530Y1255D01*
X2531Y1255D01*
X2532Y1255D01*
X2533Y1255D01*
X2534Y1255D01*
X2535Y1254D01*
X2536Y1254D01*
X2537Y1254D01*
X2538Y1254D01*
X2539Y1253D01*
X2540Y1253D01*
X2541Y1253D01*
X2542Y1253D01*
X2543Y1253D01*
X2544Y1252D01*
X2545Y1252D01*
X2546Y1252D01*
X2547Y1252D01*
X2548Y1251D01*
X2549Y1251D01*
X2550Y1251D01*
X2551Y1251D01*
X2552Y1250D01*
X2553Y1250D01*
X2554Y1250D01*
X2555Y1249D01*
X2556Y1249D01*
X2557Y1249D01*
X2558Y1249D01*
X2559Y1248D01*
X2560Y1248D01*
X2561Y1248D01*
X2562Y1247D01*
X2563Y1247D01*
X2564Y1247D01*
X2565Y1246D01*
X2566Y1246D01*
X2567Y1246D01*
X2568Y1245D01*
X2569Y1245D01*
X2570Y1245D01*
X2571Y1244D01*
X2572Y1244D01*
X2573Y1244D01*
X2574Y1243D01*
X2575Y1243D01*
X2576Y1243D01*
X2577Y1242D01*
X2578Y1242D01*
X2579Y1242D01*
X2580Y1241D01*
X2581Y1241D01*
X2582Y1240D01*
X2583Y1240D01*
X2584Y1240D01*
X2585Y1239D01*
X2586Y1239D01*
X2587Y1238D01*
X2588Y1238D01*
X2589Y1238D01*
X2590Y1237D01*
X2591Y1237D01*
X2592Y1236D01*
X2593Y1236D01*
X2594Y1235D01*
X2595Y1235D01*
X2596Y1234D01*
X2597Y1234D01*
X2598Y1234D01*
X2599Y1233D01*
X2600Y1233D01*
X2601Y1232D01*
X2602Y1232D01*
X2603Y1231D01*
X2604Y1231D01*
X2605Y1230D01*
X2606Y1230D01*
X2607Y1229D01*
X2608Y1228D01*
X2609Y1228D01*
X2610Y1227D01*
X2611Y1227D01*
X2612Y1226D01*
X2613Y1226D01*
X2614Y1225D01*
X2615Y1225D01*
X2616Y1224D01*
X2617Y1224D01*
X2618Y1223D01*
X2619Y1222D01*
X2620Y1222D01*
X2621Y1221D01*
X2622Y1221D01*
X2623Y1220D01*
X2624Y1219D01*
X2625Y1219D01*
X2626Y1218D01*
X2627Y1218D01*
X2628Y1217D01*
X2629Y1216D01*
X2630Y1216D01*
X2631Y1215D01*
X2632Y1214D01*
X2633Y1214D01*
X2634Y1213D01*
X2635Y1212D01*
X2636Y1212D01*
X2637Y1211D01*
X2638Y1210D01*
X2639Y1210D01*
X2640Y1209D01*
X2641Y1208D01*
X2642Y1208D01*
X2643Y1207D01*
X2644Y1206D01*
X2645Y1205D01*
X2646Y1205D01*
X2647Y1204D01*
X2648Y1203D01*
X2649Y1202D01*
X2650Y1201D01*
X2651Y1201D01*
X2652Y1200D01*
X2653Y1199D01*
X2654Y1198D01*
X2655Y1198D01*
X2656Y1197D01*
X2657Y1196D01*
X2658Y1195D01*
X2659Y1194D01*
X2660Y1193D01*
X2661Y1192D01*
X2662Y1192D01*
X2663Y1191D01*
X2664Y1190D01*
X2665Y1189D01*
X2666Y1188D01*
X2667Y1187D01*
X2668Y1186D01*
X2669Y1185D01*
X2670Y1184D01*
X2671Y1183D01*
X2672Y1182D01*
X2673Y1181D01*
X2674Y1181D01*
X2674Y1180D01*
X2675Y1179D01*
X2676Y1178D01*
X2677Y1177D01*
X2678Y1176D01*
X2679Y1175D01*
X2680Y1174D01*
X2681Y1173D01*
X2682Y1172D01*
X2683Y1171D01*
X2684Y1170D01*
X2685Y1169D01*
X2686Y1168D01*
X2687Y1167D01*
X2688Y1166D01*
X2688Y1165D01*
X2689Y1164D01*
X2690Y1163D01*
X2691Y1162D01*
X2692Y1161D01*
X2693Y1160D01*
X2693Y1159D01*
X2694Y1158D01*
X2695Y1157D01*
X2696Y1156D01*
X2697Y1155D01*
X2697Y1154D01*
X2698Y1153D01*
X2699Y1152D01*
X2700Y1151D01*
X2701Y1150D01*
X2701Y1149D01*
X2702Y1148D01*
X2703Y1147D01*
X2703Y1146D01*
X2704Y1145D01*
X2705Y1144D01*
X2706Y1143D01*
X2706Y1142D01*
X2707Y1141D01*
X2708Y1140D01*
X2708Y1139D01*
X2709Y1138D01*
X2710Y1137D01*
X2710Y1136D01*
X2711Y1135D01*
X2712Y1134D01*
X2712Y1133D01*
X2713Y1132D01*
X2714Y1131D01*
X2714Y1130D01*
X2715Y1129D01*
X2715Y1128D01*
X2716Y1127D01*
X2717Y1126D01*
X2717Y1125D01*
X2718Y1124D01*
X2718Y1123D01*
X2719Y1122D01*
X2719Y1121D01*
X2720Y1120D01*
X2721Y1119D01*
X2721Y1118D01*
X2722Y1117D01*
X2722Y1116D01*
X2723Y1115D01*
X2723Y1114D01*
X2724Y1113D01*
X2724Y1112D01*
X2725Y1111D01*
X2725Y1110D01*
X2726Y1109D01*
X2726Y1108D01*
X2727Y1107D01*
X2727Y1106D01*
X2728Y1105D01*
X2728Y1104D01*
X2729Y1103D01*
X2729Y1102D01*
X2730Y1101D01*
X2730Y1100D01*
X2731Y1099D01*
X2731Y1098D01*
X2732Y1097D01*
X2732Y1095D01*
X2733Y1094D01*
X2733Y1093D01*
X2734Y1092D01*
X2734Y1090D01*
X2735Y1089D01*
X2735Y1088D01*
X2736Y1087D01*
X2736Y1085D01*
X2737Y1084D01*
X2737Y1083D01*
X2738Y1082D01*
X2738Y1080D01*
X2739Y1079D01*
X2739Y1077D01*
X2740Y1076D01*
X2740Y1074D01*
X2741Y1073D01*
X2741Y1071D01*
X2742Y1070D01*
X2742Y1068D01*
X2743Y1067D01*
X2743Y1064D01*
X2744Y1063D01*
X2744Y1061D01*
X2745Y1060D01*
X2745Y1057D01*
X2746Y1056D01*
X2746Y1053D01*
X2747Y1052D01*
X2747Y1049D01*
X2748Y1048D01*
X2748Y1044D01*
X2749Y1043D01*
X2749Y1039D01*
X2750Y1038D01*
X2750Y1033D01*
X2751Y1032D01*
X2751Y1026D01*
X2752Y1025D01*
X2752Y1019D01*
X2753Y1018D01*
X2753Y1006D01*
X2754Y1005D01*
X2754Y257D01*
X2753Y256D01*
X2753Y244D01*
X2752Y243D01*
X2752Y237D01*
X2751Y236D01*
X2751Y230D01*
X2750Y229D01*
X2750Y224D01*
X2749Y223D01*
X2749Y219D01*
X2748Y218D01*
X2748Y214D01*
X2747Y213D01*
X2747Y210D01*
X2746Y209D01*
X2746Y206D01*
X2745Y205D01*
X2745Y202D01*
X2744Y201D01*
X2744Y199D01*
X2743Y198D01*
X2743Y195D01*
X2742Y194D01*
X2742Y192D01*
X2741Y191D01*
X2741Y189D01*
X2740Y188D01*
X2740Y186D01*
X2739Y185D01*
X2739Y183D01*
X2738Y182D01*
X2738Y180D01*
X2737Y179D01*
X2737Y178D01*
X2736Y177D01*
X2736Y175D01*
X2735Y174D01*
X2735Y173D01*
X2734Y172D01*
X2734Y170D01*
X2733Y169D01*
X2733Y168D01*
X2732Y167D01*
X2732Y165D01*
X2731Y164D01*
X2731Y163D01*
X2730Y162D01*
X2730Y161D01*
X2729Y160D01*
X2729Y159D01*
X2728Y158D01*
X2728Y157D01*
X2727Y156D01*
X2727Y155D01*
X2726Y154D01*
X2726Y153D01*
X2725Y152D01*
X2725Y151D01*
X2724Y150D01*
X2724Y149D01*
X2723Y148D01*
X2723Y147D01*
X2722Y146D01*
X2722Y145D01*
X2721Y144D01*
X2721Y143D01*
X2720Y142D01*
X2719Y141D01*
X2719Y140D01*
X2718Y139D01*
X2718Y138D01*
X2717Y137D01*
X2717Y136D01*
X2716Y135D01*
X2715Y134D01*
X2715Y133D01*
X2714Y132D01*
X2714Y131D01*
X2713Y130D01*
X2712Y129D01*
X2712Y128D01*
X2711Y127D01*
X2710Y126D01*
X2710Y125D01*
X2709Y124D01*
X2708Y123D01*
X2708Y122D01*
X2707Y121D01*
X2706Y120D01*
X2706Y119D01*
X2705Y118D01*
X2704Y117D01*
X2703Y116D01*
X2703Y115D01*
X2702Y114D01*
X2701Y113D01*
X2701Y112D01*
X2700Y111D01*
X2699Y110D01*
X2698Y109D01*
X2697Y108D01*
X2697Y107D01*
X2696Y106D01*
X2695Y105D01*
X2694Y104D01*
X2693Y103D01*
X2693Y102D01*
X2692Y101D01*
X2691Y100D01*
X2690Y99D01*
X2689Y98D01*
X2688Y97D01*
X2688Y96D01*
X2687Y95D01*
X2686Y94D01*
X2685Y93D01*
X2684Y92D01*
X2683Y91D01*
X2682Y90D01*
X2681Y89D01*
X2680Y88D01*
X2679Y87D01*
X2678Y86D01*
X2677Y85D01*
X2676Y84D01*
X2675Y83D01*
X2674Y82D01*
X2674Y81D01*
X2673Y81D01*
X2672Y80D01*
X2671Y79D01*
X2670Y78D01*
X2669Y77D01*
X2668Y76D01*
X2667Y75D01*
X2666Y74D01*
X2665Y73D01*
X2664Y72D01*
X2663Y71D01*
X2662Y70D01*
X2661Y70D01*
X2660Y69D01*
X2659Y68D01*
X2658Y67D01*
X2657Y66D01*
X2656Y65D01*
X2655Y64D01*
X2654Y64D01*
X2653Y63D01*
X2652Y62D01*
X2651Y61D01*
X2650Y61D01*
X2649Y60D01*
X2648Y59D01*
X2647Y58D01*
X2646Y57D01*
X2645Y57D01*
X2644Y56D01*
X2643Y55D01*
X2642Y54D01*
X2641Y54D01*
X2640Y53D01*
X2639Y52D01*
X2638Y52D01*
X2637Y51D01*
X2636Y50D01*
X2635Y50D01*
X2634Y49D01*
X2633Y48D01*
X2632Y48D01*
X2631Y47D01*
X2630Y46D01*
X2629Y46D01*
X2628Y45D01*
X2627Y44D01*
X2626Y44D01*
X2625Y43D01*
X2624Y43D01*
X2623Y42D01*
X2622Y41D01*
X2621Y41D01*
X2620Y40D01*
X2619Y40D01*
X2618Y39D01*
X2617Y38D01*
X2616Y38D01*
X2615Y37D01*
X2614Y37D01*
X2613Y36D01*
X2612Y36D01*
X2611Y35D01*
X2610Y35D01*
X2609Y34D01*
X2608Y34D01*
X2607Y33D01*
X2606Y32D01*
X2605Y32D01*
X2604Y31D01*
X2603Y31D01*
X2602Y30D01*
X2601Y30D01*
X2600Y29D01*
X2599Y29D01*
X2598Y28D01*
X2597Y28D01*
X2596Y28D01*
X2595Y27D01*
X2594Y27D01*
X2593Y26D01*
X2592Y26D01*
X2591Y25D01*
X2590Y25D01*
X2589Y24D01*
X2588Y24D01*
X2587Y24D01*
X2586Y23D01*
X2585Y23D01*
X2584Y22D01*
X2583Y22D01*
X2582Y22D01*
X2581Y21D01*
X2580Y21D01*
X2579Y20D01*
X2578Y20D01*
X2577Y20D01*
X2576Y19D01*
X2575Y19D01*
X2574Y19D01*
X2573Y18D01*
X2572Y18D01*
X2571Y18D01*
X2570Y17D01*
X2569Y17D01*
X2568Y17D01*
X2567Y16D01*
X2566Y16D01*
X2565Y16D01*
X2564Y15D01*
X2563Y15D01*
X2562Y15D01*
X2561Y14D01*
X2560Y14D01*
X2559Y14D01*
X2558Y13D01*
X2557Y13D01*
X2556Y13D01*
X2555Y13D01*
X2554Y12D01*
X2553Y12D01*
X2552Y12D01*
X2551Y11D01*
X2550Y11D01*
X2549Y11D01*
X2548Y11D01*
X2547Y10D01*
X2546Y10D01*
X2545Y10D01*
X2544Y10D01*
X2543Y9D01*
X2542Y9D01*
X2541Y9D01*
X2540Y9D01*
X2539Y9D01*
X2538Y8D01*
X2537Y8D01*
X2536Y8D01*
X2535Y8D01*
X2534Y7D01*
X2533Y7D01*
X2532Y7D01*
X2531Y7D01*
X2530Y7D01*
X2529Y7D01*
X2528Y6D01*
X2527Y6D01*
X2526Y6D01*
X2525Y6D01*
X2524Y6D01*
X2523Y5D01*
X2522Y5D01*
X2521Y5D01*
X2520Y5D01*
X2519Y5D01*
X2518Y5D01*
X2517Y5D01*
X2516Y5D01*
X2515Y4D01*
X2514Y4D01*
X2513Y4D01*
X2512Y4D01*
X2511Y4D01*
X2510Y4D01*
X2509Y4D01*
X2508Y3D01*
X2507Y3D01*
X2506Y3D01*
X2505Y3D01*
X2504Y3D01*
X2503Y3D01*
X2502Y3D01*
X2501Y3D01*
X2500Y3D01*
X2499Y3D01*
X2498Y3D01*
X2497Y3D01*
X2496Y3D01*
X2495Y2D01*
X2494Y2D01*
X2493Y2D01*
X2492Y2D01*
X2491Y2D01*
X2490Y2D01*
X2489Y2D01*
X2488Y2D01*
X2487Y2D01*
X2486Y2D01*
X2485Y2D01*
X2484Y2D01*
X2483Y2D01*
X2482Y2D01*
X2481Y2D01*
X2480Y2D01*
X2479Y2D01*
X2478Y2D01*
X2477Y2D01*
X2476Y2D01*
X2475Y2D01*
X2474Y2D01*
X2473Y2D01*
X2472Y2D01*
X2471Y2D01*
X2470Y2D01*
X2469Y2D01*
X2468Y2D01*
X2467Y2D01*
X2466Y2D01*
X2465Y2D01*
X2464Y2D01*
X2463Y2D01*
X2462Y2D01*
X2461Y2D01*
X2460Y2D01*
X2459Y2D01*
X2458Y2D01*
X2457Y2D01*
X2456Y2D01*
X2455Y2D01*
X2454Y2D01*
X2453Y2D01*
X2452Y2D01*
X2451Y2D01*
X2450Y2D01*
X2449Y2D01*
X2448Y2D01*
X2447Y2D01*
X2446Y2D01*
X2445Y2D01*
X2444Y2D01*
X2443Y2D01*
X2442Y2D01*
X2441Y2D01*
X2440Y2D01*
X2439Y2D01*
X2438Y2D01*
X2437Y2D01*
X2436Y2D01*
X2435Y2D01*
X2434Y2D01*
X2433Y2D01*
X2432Y2D01*
X2431Y2D01*
X2430Y2D01*
X2429Y2D01*
X2428Y2D01*
X2427Y2D01*
X2426Y2D01*
X2425Y2D01*
X2424Y2D01*
X2423Y2D01*
X2422Y2D01*
X2421Y2D01*
X2420Y2D01*
X2419Y2D01*
X2418Y2D01*
X2417Y2D01*
X2416Y2D01*
X2415Y2D01*
X2414Y2D01*
X2413Y2D01*
X2412Y2D01*
X2411Y2D01*
X2410Y2D01*
X2409Y2D01*
X2408Y2D01*
X2407Y2D01*
X2406Y2D01*
X2405Y2D01*
X2404Y2D01*
X2403Y2D01*
X2402Y2D01*
X2401Y2D01*
X2400Y2D01*
X2399Y2D01*
X2398Y2D01*
X2397Y2D01*
X2396Y2D01*
X2395Y2D01*
X2394Y2D01*
X2393Y2D01*
X2392Y2D01*
X2391Y2D01*
X2390Y2D01*
X2389Y2D01*
X2388Y2D01*
X2387Y2D01*
X2386Y2D01*
X2385Y2D01*
X2384Y2D01*
X2383Y2D01*
X2382Y2D01*
X2381Y2D01*
X2380Y2D01*
X2379Y2D01*
X2378Y2D01*
X2377Y2D01*
X2376Y2D01*
X2375Y2D01*
X2374Y2D01*
X2373Y2D01*
X2372Y2D01*
X2371Y2D01*
X2370Y2D01*
X2369Y2D01*
X2368Y2D01*
X2367Y2D01*
X2366Y2D01*
X2365Y2D01*
X2364Y2D01*
X2363Y2D01*
X2362Y2D01*
X2361Y2D01*
X2360Y2D01*
X2359Y2D01*
X2358Y2D01*
X2357Y2D01*
X2356Y2D01*
X2355Y2D01*
X2354Y2D01*
X2353Y2D01*
X2352Y2D01*
X2351Y2D01*
X2350Y2D01*
X2349Y2D01*
X2348Y2D01*
X2347Y2D01*
X2346Y2D01*
X2345Y2D01*
X2344Y2D01*
X2343Y2D01*
X2342Y2D01*
X2341Y2D01*
X2340Y2D01*
X2339Y2D01*
X2338Y2D01*
X2337Y2D01*
X2336Y2D01*
X2335Y2D01*
X2334Y2D01*
X2333Y2D01*
X2332Y2D01*
X2331Y2D01*
X2330Y2D01*
X2329Y2D01*
X2328Y2D01*
X2327Y2D01*
X2326Y2D01*
X2325Y2D01*
X2324Y2D01*
X2323Y2D01*
X2322Y2D01*
X2321Y2D01*
X2320Y2D01*
X2319Y2D01*
X2318Y2D01*
X2317Y2D01*
X2316Y2D01*
X2315Y2D01*
X2314Y2D01*
X2313Y2D01*
X2312Y2D01*
X2311Y2D01*
X2310Y2D01*
X2309Y2D01*
X2308Y2D01*
X2307Y2D01*
X2306Y2D01*
X2305Y2D01*
X2304Y2D01*
X2303Y2D01*
X2302Y2D01*
X2301Y2D01*
X2300Y2D01*
X2299Y2D01*
X2298Y2D01*
X2297Y2D01*
X2296Y2D01*
X2295Y2D01*
X2294Y2D01*
X2293Y2D01*
X2292Y2D01*
X2291Y2D01*
X2290Y2D01*
X2289Y2D01*
X2288Y2D01*
X2287Y2D01*
X2286Y2D01*
X2285Y2D01*
X2284Y2D01*
X2283Y2D01*
X2282Y2D01*
X2281Y2D01*
X2280Y2D01*
X2279Y2D01*
X2278Y2D01*
X2277Y2D01*
X2276Y2D01*
X2275Y2D01*
X2274Y2D01*
X2273Y2D01*
X2272Y2D01*
X2271Y2D01*
X2270Y2D01*
X2269Y2D01*
X2268Y2D01*
X2267Y2D01*
X2266Y2D01*
X2265Y2D01*
X2264Y2D01*
X2263Y2D01*
X2262Y2D01*
X2261Y2D01*
X2260Y2D01*
X2259Y2D01*
X2258Y2D01*
X2257Y2D01*
X2256Y2D01*
X2255Y2D01*
X2254Y2D01*
X2253Y2D01*
X2252Y2D01*
X2251Y2D01*
X2250Y2D01*
X2249Y2D01*
X2248Y2D01*
X2247Y2D01*
X2246Y2D01*
X2245Y2D01*
X2244Y2D01*
X2243Y2D01*
X2242Y2D01*
X2241Y2D01*
X2240Y2D01*
X2239Y2D01*
X2238Y2D01*
X2237Y2D01*
X2236Y2D01*
X2235Y2D01*
X2234Y2D01*
X2233Y2D01*
X2232Y2D01*
X2231Y2D01*
X2230Y2D01*
X2229Y2D01*
X2228Y2D01*
X2227Y2D01*
X2226Y2D01*
X2225Y2D01*
X2224Y2D01*
X2223Y2D01*
X2222Y2D01*
X2221Y2D01*
X2220Y2D01*
X2219Y2D01*
X2218Y2D01*
X2217Y2D01*
X2216Y2D01*
X2215Y2D01*
X2214Y2D01*
X2213Y2D01*
X2212Y2D01*
X2211Y2D01*
X2210Y2D01*
X2209Y2D01*
X2208Y2D01*
X2207Y2D01*
X2206Y2D01*
X2205Y2D01*
X2204Y2D01*
X2203Y2D01*
X2202Y2D01*
X2201Y2D01*
X2200Y2D01*
X2199Y2D01*
X2198Y2D01*
X2197Y2D01*
X2196Y2D01*
X2195Y2D01*
X2194Y2D01*
X2193Y2D01*
X2192Y2D01*
X2191Y2D01*
X2190Y2D01*
X2189Y2D01*
X2188Y2D01*
X2187Y2D01*
X2186Y2D01*
X2185Y2D01*
X2184Y2D01*
X2183Y2D01*
X2182Y2D01*
X2181Y2D01*
X2180Y2D01*
X2179Y2D01*
X2178Y2D01*
X2177Y2D01*
X2176Y2D01*
X2175Y2D01*
X2174Y2D01*
X2173Y2D01*
X2172Y2D01*
X2171Y2D01*
X2170Y2D01*
X2169Y2D01*
X2168Y2D01*
X2167Y2D01*
X2166Y2D01*
X2165Y2D01*
X2164Y2D01*
X2163Y2D01*
X2162Y2D01*
X2161Y2D01*
X2160Y2D01*
X2159Y2D01*
X2158Y2D01*
X2157Y2D01*
X2156Y2D01*
X2155Y2D01*
X2154Y2D01*
X2153Y2D01*
X2152Y2D01*
X2151Y2D01*
X2150Y2D01*
X2149Y2D01*
X2148Y2D01*
X2147Y2D01*
X2146Y2D01*
X2145Y2D01*
X2144Y2D01*
X2143Y2D01*
X2142Y2D01*
X2141Y2D01*
X2140Y2D01*
X2139Y2D01*
X2138Y2D01*
X2137Y2D01*
X2136Y2D01*
X2135Y2D01*
X2134Y2D01*
X2133Y2D01*
X2132Y2D01*
X2131Y2D01*
X2130Y2D01*
X2129Y2D01*
X2128Y2D01*
X2127Y2D01*
X2126Y2D01*
X2125Y2D01*
X2124Y2D01*
X2123Y2D01*
X2122Y2D01*
X2121Y2D01*
X2120Y2D01*
X2119Y2D01*
X2118Y2D01*
X2117Y2D01*
X2116Y2D01*
X2115Y2D01*
X2114Y2D01*
X2113Y2D01*
X2112Y2D01*
X2111Y2D01*
X2110Y2D01*
X2109Y2D01*
X2108Y2D01*
X2107Y2D01*
X2106Y2D01*
X2105Y2D01*
X2104Y2D01*
X2103Y2D01*
X2102Y2D01*
X2101Y2D01*
X2100Y2D01*
X2099Y2D01*
X2098Y2D01*
X2097Y2D01*
X2096Y2D01*
X2095Y2D01*
X2094Y2D01*
X2093Y2D01*
X2092Y2D01*
X2091Y2D01*
X2090Y2D01*
X2089Y2D01*
X2088Y2D01*
X2087Y2D01*
X2086Y2D01*
X2085Y2D01*
X2084Y2D01*
X2083Y2D01*
X2082Y2D01*
X2081Y2D01*
X2080Y2D01*
X2079Y2D01*
X2078Y2D01*
X2077Y2D01*
X2076Y2D01*
X2075Y2D01*
X2074Y2D01*
X2073Y2D01*
X2072Y2D01*
X2071Y2D01*
X2070Y2D01*
X2069Y2D01*
X2068Y2D01*
X2067Y2D01*
X2066Y2D01*
X2065Y2D01*
X2064Y2D01*
X2063Y2D01*
X2062Y2D01*
X2061Y2D01*
X2060Y2D01*
X2059Y2D01*
X2058Y2D01*
X2057Y2D01*
X2056Y2D01*
X2055Y2D01*
X2054Y2D01*
X2053Y2D01*
X2052Y2D01*
X2051Y2D01*
X2050Y2D01*
X2049Y2D01*
X2048Y2D01*
X2047Y2D01*
X2046Y2D01*
X2045Y2D01*
X2044Y2D01*
X2043Y2D01*
X2042Y2D01*
X2041Y2D01*
X2040Y2D01*
X2039Y2D01*
X2038Y2D01*
X2037Y2D01*
X2036Y2D01*
X2035Y2D01*
X2034Y2D01*
X2033Y2D01*
X2032Y2D01*
X2031Y2D01*
X2030Y2D01*
X2029Y2D01*
X2028Y2D01*
X2027Y2D01*
X2026Y2D01*
X2025Y2D01*
X2024Y2D01*
X2023Y2D01*
X2022Y2D01*
X2021Y2D01*
X2020Y2D01*
X2019Y2D01*
X2018Y2D01*
X2017Y2D01*
X2016Y2D01*
X2015Y2D01*
X2014Y2D01*
X2013Y2D01*
X2012Y2D01*
X2011Y2D01*
X2010Y2D01*
X2009Y2D01*
X2008Y2D01*
X2007Y2D01*
X2006Y2D01*
X2005Y2D01*
X2004Y2D01*
X2003Y2D01*
X2002Y2D01*
X2001Y2D01*
X2000Y2D01*
X1999Y2D01*
X1998Y2D01*
X1997Y2D01*
X1996Y2D01*
X1995Y2D01*
X1994Y2D01*
X1993Y2D01*
X1992Y2D01*
X1991Y2D01*
X1990Y2D01*
X1989Y2D01*
X1988Y2D01*
X1987Y2D01*
X1986Y2D01*
X1985Y2D01*
X1984Y2D01*
X1983Y2D01*
X1982Y2D01*
X1981Y2D01*
X1980Y2D01*
X1979Y2D01*
X1978Y2D01*
X1977Y2D01*
X1976Y2D01*
X1975Y2D01*
X1974Y2D01*
X1973Y2D01*
X1972Y2D01*
X1971Y2D01*
X1970Y2D01*
X1969Y2D01*
X1968Y2D01*
X1967Y2D01*
X1966Y2D01*
X1965Y2D01*
X1964Y2D01*
X1963Y2D01*
X1962Y2D01*
X1961Y2D01*
X1960Y2D01*
X1959Y2D01*
X1958Y2D01*
X1957Y2D01*
X1956Y2D01*
X1955Y2D01*
X1954Y2D01*
X1953Y2D01*
X1952Y2D01*
X1951Y2D01*
X1950Y2D01*
X1949Y2D01*
X1948Y2D01*
X1947Y2D01*
X1946Y2D01*
X1945Y2D01*
X1944Y2D01*
X1943Y2D01*
X1942Y2D01*
X1941Y2D01*
X1940Y2D01*
X1939Y2D01*
X1938Y2D01*
X1937Y2D01*
X1936Y2D01*
X1935Y2D01*
X1934Y2D01*
X1933Y2D01*
X1932Y2D01*
X1931Y2D01*
X1930Y2D01*
X1929Y2D01*
X1928Y2D01*
X1927Y2D01*
X1926Y2D01*
X1925Y2D01*
X1924Y2D01*
X1923Y2D01*
X1922Y2D01*
X1921Y2D01*
X1920Y2D01*
X1919Y2D01*
X1918Y2D01*
X1917Y2D01*
X1916Y2D01*
X1915Y2D01*
X1914Y2D01*
X1913Y2D01*
X1912Y2D01*
X1911Y2D01*
X1910Y2D01*
X1909Y2D01*
X1908Y2D01*
X1907Y2D01*
X1906Y2D01*
X1905Y2D01*
X1904Y2D01*
X1903Y2D01*
X1902Y2D01*
X1901Y2D01*
X1900Y2D01*
X1899Y2D01*
X1898Y2D01*
X1897Y2D01*
X1896Y2D01*
X1895Y2D01*
X1894Y2D01*
X1893Y2D01*
X1892Y2D01*
X1891Y2D01*
X1890Y2D01*
X1889Y2D01*
X1888Y2D01*
X1887Y2D01*
X1886Y2D01*
X1885Y2D01*
X1884Y2D01*
X1883Y2D01*
X1882Y2D01*
X1881Y2D01*
X1880Y2D01*
X1879Y2D01*
X1878Y2D01*
X1877Y2D01*
X1876Y2D01*
X1875Y2D01*
X1874Y2D01*
X1873Y2D01*
X1872Y2D01*
X1871Y2D01*
X1870Y2D01*
X1869Y2D01*
X1868Y2D01*
X1867Y2D01*
X1866Y2D01*
X1865Y2D01*
X1864Y2D01*
X1863Y2D01*
X1862Y2D01*
X1861Y2D01*
X1860Y2D01*
X1859Y2D01*
X1858Y2D01*
X1857Y2D01*
X1856Y2D01*
X1855Y2D01*
X1854Y2D01*
X1853Y2D01*
X1852Y2D01*
X1851Y2D01*
X1850Y2D01*
X1849Y2D01*
X1848Y2D01*
X1847Y2D01*
X1846Y2D01*
X1845Y2D01*
X1844Y2D01*
X1843Y2D01*
X1842Y2D01*
X1841Y2D01*
X1840Y2D01*
X1839Y2D01*
X1838Y2D01*
X1837Y2D01*
X1836Y2D01*
X1835Y2D01*
X1834Y2D01*
X1833Y2D01*
X1832Y2D01*
X1831Y2D01*
X1830Y2D01*
X1829Y2D01*
X1828Y2D01*
X1827Y2D01*
X1826Y2D01*
X1825Y2D01*
X1824Y2D01*
X1823Y2D01*
X1822Y2D01*
X1821Y2D01*
X1820Y2D01*
X1819Y2D01*
X1818Y2D01*
X1817Y2D01*
X1816Y2D01*
X1815Y2D01*
X1814Y2D01*
X1813Y2D01*
X1812Y2D01*
X1811Y2D01*
X1810Y2D01*
X1809Y2D01*
X1808Y2D01*
X1807Y2D01*
X1806Y2D01*
X1805Y2D01*
X1804Y2D01*
X1803Y2D01*
X1802Y2D01*
X1801Y2D01*
X1800Y2D01*
X1799Y2D01*
X1798Y2D01*
X1797Y2D01*
X1796Y2D01*
X1795Y2D01*
X1794Y2D01*
X1793Y2D01*
X1792Y2D01*
X1791Y2D01*
X1790Y2D01*
X1789Y2D01*
X1788Y2D01*
X1787Y2D01*
X1786Y2D01*
X1785Y2D01*
X1784Y2D01*
X1783Y2D01*
X1782Y2D01*
X1781Y2D01*
X1780Y2D01*
X1779Y2D01*
X1778Y2D01*
X1777Y2D01*
X1776Y2D01*
X1775Y2D01*
X1774Y2D01*
X1773Y2D01*
X1772Y2D01*
X1771Y2D01*
X1770Y2D01*
X1769Y2D01*
X1768Y2D01*
X1767Y2D01*
X1766Y2D01*
X1765Y2D01*
X1764Y2D01*
X1763Y2D01*
X1762Y2D01*
X1761Y2D01*
X1760Y2D01*
X1759Y2D01*
X1758Y2D01*
X1757Y2D01*
X1756Y2D01*
X1755Y2D01*
X1754Y2D01*
X1753Y2D01*
X1752Y2D01*
X1751Y2D01*
X1750Y2D01*
X1749Y2D01*
X1748Y2D01*
X1747Y2D01*
X1746Y2D01*
X1745Y2D01*
X1744Y2D01*
X1743Y2D01*
X1742Y2D01*
X1741Y2D01*
X1740Y2D01*
X1739Y2D01*
X1738Y2D01*
X1737Y2D01*
X1736Y2D01*
X1735Y2D01*
X1734Y2D01*
X1733Y2D01*
X1732Y2D01*
X1731Y2D01*
X1730Y2D01*
X1729Y2D01*
X1728Y2D01*
X1727Y2D01*
X1726Y2D01*
X1725Y2D01*
X1724Y2D01*
X1723Y2D01*
X1722Y2D01*
X1721Y2D01*
X1720Y2D01*
X1719Y2D01*
X1718Y2D01*
X1717Y2D01*
X1716Y2D01*
X1715Y2D01*
X1714Y2D01*
X1713Y2D01*
X1712Y2D01*
X1711Y2D01*
X1710Y2D01*
X1709Y2D01*
X1708Y2D01*
X1707Y2D01*
X1706Y2D01*
X1705Y2D01*
X1704Y2D01*
X1703Y2D01*
X1702Y2D01*
X1701Y2D01*
X1700Y2D01*
X1699Y2D01*
X1698Y2D01*
X1697Y2D01*
X1696Y2D01*
X1695Y2D01*
X1694Y2D01*
X1693Y2D01*
X1692Y2D01*
X1691Y2D01*
X1690Y2D01*
X1689Y2D01*
X1688Y2D01*
X1687Y2D01*
X1686Y2D01*
X1685Y2D01*
X1684Y2D01*
X1683Y2D01*
X1682Y2D01*
X1681Y2D01*
X1680Y2D01*
X1679Y2D01*
X1678Y2D01*
X1677Y2D01*
X1676Y2D01*
X1675Y2D01*
X1674Y2D01*
X1673Y2D01*
X1672Y2D01*
X1671Y2D01*
X1670Y2D01*
X1669Y2D01*
X1668Y2D01*
X1667Y2D01*
X1666Y2D01*
X1665Y2D01*
X1664Y2D01*
X1663Y2D01*
X1662Y2D01*
X1661Y2D01*
X1660Y2D01*
X1659Y2D01*
X1658Y2D01*
X1657Y2D01*
X1656Y2D01*
X1655Y2D01*
X1654Y2D01*
X1653Y2D01*
X1652Y2D01*
X1651Y2D01*
X1650Y2D01*
X1649Y2D01*
X1648Y2D01*
X1647Y2D01*
X1646Y2D01*
X1645Y2D01*
X1644Y2D01*
X1643Y2D01*
X1642Y2D01*
X1641Y2D01*
X1640Y2D01*
X1639Y2D01*
X1638Y2D01*
X1637Y2D01*
X1636Y2D01*
X1635Y2D01*
X1634Y2D01*
X1633Y2D01*
X1632Y2D01*
X1631Y2D01*
X1630Y2D01*
X1629Y2D01*
X1628Y2D01*
X1627Y2D01*
X1626Y2D01*
X1625Y2D01*
X1624Y2D01*
X1623Y2D01*
X1622Y2D01*
X1621Y2D01*
X1620Y2D01*
X1619Y2D01*
X1618Y2D01*
X1617Y2D01*
X1616Y2D01*
X1615Y2D01*
X1614Y2D01*
X1613Y2D01*
X1612Y2D01*
X1611Y2D01*
X1610Y2D01*
X1609Y2D01*
X1608Y2D01*
X1607Y2D01*
X1606Y2D01*
X1605Y2D01*
X1604Y2D01*
X1603Y2D01*
X1602Y2D01*
X1601Y2D01*
X1600Y2D01*
X1599Y2D01*
X1598Y2D01*
X1597Y2D01*
X1596Y2D01*
X1595Y2D01*
X1594Y2D01*
X1593Y2D01*
X1592Y2D01*
X1591Y2D01*
X1590Y2D01*
X1589Y2D01*
X1588Y2D01*
X1587Y2D01*
X1586Y2D01*
X1585Y2D01*
X1584Y2D01*
X1583Y2D01*
X1582Y2D01*
X1581Y2D01*
X1580Y2D01*
X1579Y2D01*
X1578Y2D01*
X1577Y2D01*
X1576Y2D01*
X1575Y2D01*
X1574Y2D01*
X1573Y2D01*
X1572Y2D01*
X1571Y2D01*
X1570Y2D01*
X1569Y2D01*
X1568Y2D01*
X1567Y2D01*
X1566Y2D01*
X1565Y2D01*
X1564Y2D01*
X1563Y2D01*
X1562Y2D01*
X1561Y2D01*
X1560Y2D01*
X1559Y2D01*
X1558Y2D01*
X1557Y2D01*
X1556Y2D01*
X1555Y2D01*
X1554Y2D01*
X1553Y2D01*
X1552Y2D01*
X1551Y2D01*
X1550Y2D01*
X1549Y2D01*
X1548Y2D01*
X1547Y2D01*
X1546Y2D01*
X1545Y2D01*
X1544Y2D01*
X1543Y2D01*
X1542Y2D01*
X1541Y2D01*
X1540Y2D01*
X1539Y2D01*
X1538Y2D01*
X1537Y2D01*
X1536Y2D01*
X1535Y2D01*
X1534Y2D01*
X1533Y2D01*
X1532Y2D01*
X1531Y2D01*
X1530Y2D01*
X1529Y2D01*
X1528Y2D01*
X1527Y2D01*
X1526Y2D01*
X1525Y2D01*
X1524Y2D01*
X1523Y2D01*
X1522Y2D01*
X1521Y2D01*
X1520Y2D01*
X1519Y2D01*
X1518Y2D01*
X1517Y2D01*
X1516Y2D01*
X1515Y2D01*
X1514Y2D01*
X1513Y2D01*
X1512Y2D01*
X1511Y2D01*
X1510Y2D01*
X1509Y2D01*
X1508Y2D01*
X1507Y2D01*
X1506Y2D01*
X1505Y2D01*
X1504Y2D01*
X1503Y2D01*
X1502Y2D01*
X1501Y2D01*
X1500Y2D01*
X1499Y2D01*
X1498Y2D01*
X1497Y2D01*
X1496Y2D01*
X1495Y2D01*
X1494Y2D01*
X1493Y2D01*
X1492Y2D01*
X1491Y2D01*
X1490Y2D01*
X1489Y2D01*
X1488Y2D01*
X1487Y2D01*
X1486Y2D01*
X1485Y2D01*
X1484Y2D01*
X1483Y2D01*
X1482Y2D01*
X1481Y2D01*
X1480Y2D01*
X1479Y2D01*
X1478Y2D01*
X1477Y2D01*
X1476Y2D01*
X1475Y2D01*
X1474Y2D01*
X1473Y2D01*
X1472Y2D01*
X1471Y2D01*
X1470Y2D01*
X1469Y2D01*
X1468Y2D01*
X1467Y2D01*
X1466Y2D01*
X1465Y2D01*
X1464Y2D01*
X1463Y2D01*
X1462Y2D01*
X1461Y2D01*
X1460Y2D01*
X1459Y2D01*
X1458Y2D01*
X1457Y2D01*
X1456Y2D01*
X1455Y2D01*
X1454Y2D01*
X1453Y2D01*
X1452Y2D01*
X1451Y2D01*
X1450Y2D01*
X1449Y2D01*
X1448Y2D01*
X1447Y2D01*
X1446Y2D01*
X1445Y2D01*
X1444Y2D01*
X1443Y2D01*
X1442Y2D01*
X1441Y2D01*
X1440Y2D01*
X1439Y2D01*
X1438Y2D01*
X1437Y2D01*
X1436Y2D01*
X1435Y2D01*
X1434Y2D01*
X1433Y2D01*
X1432Y2D01*
X1431Y2D01*
X1430Y2D01*
X1429Y2D01*
X1428Y2D01*
X1427Y2D01*
X1426Y2D01*
X1425Y2D01*
X1424Y2D01*
X1423Y2D01*
X1422Y2D01*
X1421Y2D01*
X1420Y2D01*
X1419Y2D01*
X1418Y2D01*
X1417Y2D01*
X1416Y2D01*
X1415Y2D01*
X1414Y2D01*
X1413Y2D01*
X1412Y2D01*
X1411Y2D01*
X1410Y2D01*
X1409Y2D01*
X1408Y2D01*
X1407Y2D01*
X1406Y2D01*
X1405Y2D01*
X1404Y2D01*
X1403Y2D01*
X1402Y2D01*
X1401Y2D01*
X1400Y2D01*
X1399Y2D01*
X1398Y2D01*
X1397Y2D01*
X1396Y2D01*
X1395Y2D01*
X1394Y2D01*
X1393Y2D01*
X1392Y2D01*
X1391Y2D01*
X1390Y2D01*
X1389Y2D01*
X1388Y2D01*
X1387Y2D01*
X1386Y2D01*
X1385Y2D01*
X1384Y2D01*
X1383Y2D01*
X1382Y2D01*
X1381Y2D01*
X1380Y2D01*
X1379Y2D01*
X1378Y2D01*
X1377Y2D01*
X1376Y2D01*
X1375Y2D01*
X1374Y2D01*
X1373Y2D01*
X1372Y2D01*
X1371Y2D01*
X1370Y2D01*
X1369Y2D01*
X1368Y2D01*
X1367Y2D01*
X1366Y2D01*
X1365Y2D01*
X1364Y2D01*
X1363Y2D01*
X1362Y2D01*
X1361Y2D01*
X1360Y2D01*
X1359Y2D01*
X1358Y2D01*
X1357Y2D01*
X1356Y2D01*
X1355Y2D01*
X1354Y2D01*
X1353Y2D01*
X1352Y2D01*
X1351Y2D01*
X1350Y2D01*
X1349Y2D01*
X1348Y2D01*
X1347Y2D01*
X1346Y2D01*
X1345Y2D01*
X1344Y2D01*
X1343Y2D01*
X1342Y2D01*
X1341Y2D01*
X1340Y2D01*
X1339Y2D01*
X1338Y2D01*
X1337Y2D01*
X1336Y2D01*
X1335Y2D01*
X1334Y2D01*
X1333Y2D01*
X1332Y2D01*
X1331Y2D01*
X1330Y2D01*
X1329Y2D01*
X1328Y2D01*
X1327Y2D01*
X1326Y2D01*
X1325Y2D01*
X1324Y2D01*
X1323Y2D01*
X1322Y2D01*
X1321Y2D01*
X1320Y2D01*
X1319Y2D01*
X1318Y2D01*
X1317Y2D01*
X1316Y2D01*
X1315Y2D01*
X1314Y2D01*
X1313Y2D01*
X1312Y2D01*
X1311Y2D01*
X1310Y2D01*
X1309Y2D01*
X1308Y2D01*
X1307Y2D01*
X1306Y2D01*
X1305Y2D01*
X1304Y2D01*
X1303Y2D01*
X1302Y2D01*
X1301Y2D01*
X1300Y2D01*
X1299Y2D01*
X1298Y2D01*
X1297Y2D01*
X1296Y2D01*
X1295Y2D01*
X1294Y2D01*
X1293Y2D01*
X1292Y2D01*
X1291Y2D01*
X1290Y2D01*
X1289Y2D01*
X1288Y2D01*
X1287Y2D01*
X1286Y2D01*
X1285Y2D01*
X1284Y2D01*
X1283Y2D01*
X1282Y2D01*
X1281Y2D01*
X1280Y2D01*
X1279Y2D01*
X1278Y2D01*
X1277Y2D01*
X1276Y2D01*
X1275Y2D01*
X1274Y2D01*
X1273Y2D01*
X1272Y2D01*
X1271Y2D01*
X1270Y2D01*
X1269Y2D01*
X1268Y2D01*
X1267Y2D01*
X1266Y2D01*
X1265Y2D01*
X1264Y2D01*
X1263Y2D01*
X1262Y2D01*
X1261Y2D01*
X1260Y2D01*
X1259Y2D01*
X1258Y2D01*
X1257Y2D01*
X1256Y2D01*
X1255Y2D01*
X1254Y2D01*
X1253Y2D01*
X1252Y2D01*
X1251Y2D01*
X1250Y2D01*
X1249Y2D01*
X1248Y2D01*
X1247Y2D01*
X1246Y2D01*
X1245Y2D01*
X1244Y2D01*
X1243Y2D01*
X1242Y2D01*
X1241Y2D01*
X1240Y2D01*
X1239Y2D01*
X1238Y2D01*
X1237Y2D01*
X1236Y2D01*
X1235Y2D01*
X1234Y2D01*
X1233Y2D01*
X1232Y2D01*
X1231Y2D01*
X1230Y2D01*
X1229Y2D01*
X1228Y2D01*
X1227Y2D01*
X1226Y2D01*
X1225Y2D01*
X1224Y2D01*
X1223Y2D01*
X1222Y2D01*
X1221Y2D01*
X1220Y2D01*
X1219Y2D01*
X1218Y2D01*
X1217Y2D01*
X1216Y2D01*
X1215Y2D01*
X1214Y2D01*
X1213Y2D01*
X1212Y2D01*
X1211Y2D01*
X1210Y2D01*
X1209Y2D01*
X1208Y2D01*
X1207Y2D01*
X1206Y2D01*
X1205Y2D01*
X1204Y2D01*
X1203Y2D01*
X1202Y2D01*
X1201Y2D01*
X1200Y2D01*
X1199Y2D01*
X1198Y2D01*
X1197Y2D01*
X1196Y2D01*
X1195Y2D01*
X1194Y2D01*
X1193Y2D01*
X1192Y2D01*
X1191Y2D01*
X1190Y2D01*
X1189Y2D01*
X1188Y2D01*
X1187Y2D01*
X1186Y2D01*
X1185Y2D01*
X1184Y2D01*
X1183Y2D01*
X1182Y2D01*
X1181Y2D01*
X1180Y2D01*
X1179Y2D01*
X1178Y2D01*
X1177Y2D01*
X1176Y2D01*
X1175Y2D01*
X1174Y2D01*
X1173Y2D01*
X1172Y2D01*
X1171Y2D01*
X1170Y2D01*
X1169Y2D01*
X1168Y2D01*
X1167Y2D01*
X1166Y2D01*
X1165Y2D01*
X1164Y2D01*
X1163Y2D01*
X1162Y2D01*
X1161Y2D01*
X1160Y2D01*
X1159Y2D01*
X1158Y2D01*
X1157Y2D01*
X1156Y2D01*
X1155Y2D01*
X1154Y2D01*
X1153Y2D01*
X1152Y2D01*
X1151Y2D01*
X1150Y2D01*
X1149Y2D01*
X1148Y2D01*
X1147Y2D01*
X1146Y2D01*
X1145Y2D01*
X1144Y2D01*
X1143Y2D01*
X1142Y2D01*
X1141Y2D01*
X1140Y2D01*
X1139Y2D01*
X1138Y2D01*
X1137Y2D01*
X1136Y2D01*
X1135Y2D01*
X1134Y2D01*
X1133Y2D01*
X1132Y2D01*
X1131Y2D01*
X1130Y2D01*
X1129Y2D01*
X1128Y2D01*
X1127Y2D01*
X1126Y2D01*
X1125Y2D01*
X1124Y2D01*
X1123Y2D01*
X1122Y2D01*
X1121Y2D01*
X1120Y2D01*
X1119Y2D01*
X1118Y2D01*
X1117Y2D01*
X1116Y2D01*
X1115Y2D01*
X1114Y2D01*
X1113Y2D01*
X1112Y2D01*
X1111Y2D01*
X1110Y2D01*
X1109Y2D01*
X1108Y2D01*
X1107Y2D01*
X1106Y2D01*
X1105Y2D01*
X1104Y2D01*
X1103Y2D01*
X1102Y2D01*
X1101Y2D01*
X1100Y2D01*
X1099Y2D01*
X1098Y2D01*
X1097Y2D01*
X1096Y2D01*
X1095Y2D01*
X1094Y2D01*
X1093Y2D01*
X1092Y2D01*
X1091Y2D01*
X1090Y2D01*
X1089Y2D01*
X1088Y2D01*
X1087Y2D01*
X1086Y2D01*
X1085Y2D01*
X1084Y2D01*
X1083Y2D01*
X1082Y2D01*
X1081Y2D01*
X1080Y2D01*
X1079Y2D01*
X1078Y2D01*
X1077Y2D01*
X1076Y2D01*
X1075Y2D01*
X1074Y2D01*
X1073Y2D01*
X1072Y2D01*
X1071Y2D01*
X1070Y2D01*
X1069Y2D01*
X1068Y2D01*
X1067Y2D01*
X1066Y2D01*
X1065Y2D01*
X1064Y2D01*
X1063Y2D01*
X1062Y2D01*
X1061Y2D01*
X1060Y2D01*
X1059Y2D01*
X1058Y2D01*
X1057Y2D01*
X1056Y2D01*
X1055Y2D01*
X1054Y2D01*
X1053Y2D01*
X1052Y2D01*
X1051Y2D01*
X1050Y2D01*
X1049Y2D01*
X1048Y2D01*
X1047Y2D01*
X1046Y2D01*
X1045Y2D01*
X1044Y2D01*
X1043Y2D01*
X1042Y2D01*
X1041Y2D01*
X1040Y2D01*
X1039Y2D01*
X1038Y2D01*
X1037Y2D01*
X1036Y2D01*
X1035Y2D01*
X1034Y2D01*
X1033Y2D01*
X1032Y2D01*
X1031Y2D01*
X1030Y2D01*
X1029Y2D01*
X1028Y2D01*
X1027Y2D01*
X1026Y2D01*
X1025Y2D01*
X1024Y2D01*
X1023Y2D01*
X1022Y2D01*
X1021Y2D01*
X1020Y2D01*
X1019Y2D01*
X1018Y2D01*
X1017Y2D01*
X1016Y2D01*
X1015Y2D01*
X1014Y2D01*
X1013Y2D01*
X1012Y2D01*
X1011Y2D01*
X1010Y2D01*
X1009Y2D01*
X1008Y2D01*
X1007Y2D01*
X1006Y2D01*
X1005Y2D01*
X1004Y2D01*
X1003Y2D01*
X1002Y2D01*
X1001Y2D01*
X1000Y2D01*
X999Y2D01*
X998Y2D01*
X997Y2D01*
X996Y2D01*
X995Y2D01*
X994Y2D01*
X993Y2D01*
X992Y2D01*
X991Y2D01*
X990Y2D01*
X989Y2D01*
X988Y2D01*
X987Y2D01*
X986Y2D01*
X985Y2D01*
X984Y2D01*
X983Y2D01*
X982Y2D01*
X981Y2D01*
X980Y2D01*
X979Y2D01*
X978Y2D01*
X977Y2D01*
X976Y2D01*
X975Y2D01*
X974Y2D01*
X973Y2D01*
X972Y2D01*
X971Y2D01*
X970Y2D01*
X969Y2D01*
X968Y2D01*
X967Y2D01*
X966Y2D01*
X965Y2D01*
X964Y2D01*
X963Y2D01*
X962Y2D01*
X961Y2D01*
X960Y2D01*
X959Y2D01*
X958Y2D01*
X957Y2D01*
X956Y2D01*
X955Y2D01*
X954Y2D01*
X953Y2D01*
X952Y2D01*
X951Y2D01*
X950Y2D01*
X949Y2D01*
X948Y2D01*
X947Y2D01*
X946Y2D01*
X945Y2D01*
X944Y2D01*
X943Y2D01*
X942Y2D01*
X941Y2D01*
X940Y2D01*
X939Y2D01*
X938Y2D01*
X937Y2D01*
X936Y2D01*
X935Y2D01*
X934Y2D01*
X933Y2D01*
X932Y2D01*
X931Y2D01*
X930Y2D01*
X929Y2D01*
X928Y2D01*
X927Y2D01*
X926Y2D01*
X925Y2D01*
X924Y2D01*
X923Y2D01*
X922Y2D01*
X921Y2D01*
X920Y2D01*
X919Y2D01*
X918Y2D01*
X917Y2D01*
X916Y2D01*
X915Y2D01*
X914Y2D01*
X913Y2D01*
X912Y2D01*
X911Y2D01*
X910Y2D01*
X909Y2D01*
X908Y2D01*
X907Y2D01*
X906Y2D01*
X905Y2D01*
X904Y2D01*
X903Y2D01*
X902Y2D01*
X901Y2D01*
X900Y2D01*
X899Y2D01*
X898Y2D01*
X897Y2D01*
X896Y2D01*
X895Y2D01*
X894Y2D01*
X893Y2D01*
X892Y2D01*
X891Y2D01*
X890Y2D01*
X889Y2D01*
X888Y2D01*
X887Y2D01*
X886Y2D01*
X885Y2D01*
X884Y2D01*
X883Y2D01*
X882Y2D01*
X881Y2D01*
X880Y2D01*
X879Y2D01*
X878Y2D01*
X877Y2D01*
X876Y2D01*
X875Y2D01*
X874Y2D01*
X873Y2D01*
X872Y2D01*
X871Y2D01*
X870Y2D01*
X869Y2D01*
X868Y2D01*
X867Y2D01*
X866Y2D01*
X865Y2D01*
X864Y2D01*
X863Y2D01*
X862Y2D01*
X861Y2D01*
X860Y2D01*
X859Y2D01*
X858Y2D01*
X857Y2D01*
X856Y2D01*
X855Y2D01*
X854Y2D01*
X853Y2D01*
X852Y2D01*
X851Y2D01*
X850Y2D01*
X849Y2D01*
X848Y2D01*
X847Y2D01*
X846Y2D01*
X845Y2D01*
X844Y2D01*
X843Y2D01*
X842Y2D01*
X841Y2D01*
X840Y2D01*
X839Y2D01*
X838Y2D01*
X837Y2D01*
X836Y2D01*
X835Y2D01*
X834Y2D01*
X833Y2D01*
X832Y2D01*
X831Y2D01*
X830Y2D01*
X829Y2D01*
X828Y2D01*
X827Y2D01*
X826Y2D01*
X825Y2D01*
X824Y2D01*
X823Y2D01*
X822Y2D01*
X821Y2D01*
X820Y2D01*
X819Y2D01*
X818Y2D01*
X817Y2D01*
X816Y2D01*
X815Y2D01*
X814Y2D01*
X813Y2D01*
X812Y2D01*
X811Y2D01*
X810Y2D01*
X809Y2D01*
X808Y2D01*
X807Y2D01*
X806Y2D01*
X805Y2D01*
X804Y2D01*
X803Y2D01*
X802Y2D01*
X801Y2D01*
X800Y2D01*
X799Y2D01*
X798Y2D01*
X797Y2D01*
X796Y2D01*
X795Y2D01*
X794Y2D01*
X793Y2D01*
X792Y2D01*
X791Y2D01*
X790Y2D01*
X789Y2D01*
X788Y2D01*
X787Y2D01*
X786Y2D01*
X785Y2D01*
X784Y2D01*
X783Y2D01*
X782Y2D01*
X781Y2D01*
X780Y2D01*
X779Y2D01*
X778Y2D01*
X777Y2D01*
X776Y2D01*
X775Y2D01*
X774Y2D01*
X773Y2D01*
X772Y2D01*
X771Y2D01*
X770Y2D01*
X769Y2D01*
X768Y2D01*
X767Y2D01*
X766Y2D01*
X765Y2D01*
X764Y2D01*
X763Y2D01*
X762Y2D01*
X761Y2D01*
X760Y2D01*
X759Y2D01*
X758Y2D01*
X757Y2D01*
X756Y2D01*
X755Y2D01*
X754Y2D01*
X753Y2D01*
X752Y2D01*
X751Y2D01*
X750Y2D01*
X749Y2D01*
X748Y2D01*
X747Y2D01*
X746Y2D01*
X745Y2D01*
X744Y2D01*
X743Y2D01*
X742Y2D01*
X741Y2D01*
X740Y2D01*
X739Y2D01*
X738Y2D01*
X737Y2D01*
X736Y2D01*
X735Y2D01*
X734Y2D01*
X733Y2D01*
X732Y2D01*
X731Y2D01*
X730Y2D01*
X729Y2D01*
X728Y2D01*
X727Y2D01*
X726Y2D01*
X725Y2D01*
X724Y2D01*
X723Y2D01*
X722Y2D01*
X721Y2D01*
X720Y2D01*
X719Y2D01*
X718Y2D01*
X717Y2D01*
X716Y2D01*
X715Y2D01*
X714Y2D01*
X713Y2D01*
X712Y2D01*
X711Y2D01*
X710Y2D01*
X709Y2D01*
X708Y2D01*
X707Y2D01*
X706Y2D01*
X705Y2D01*
X704Y2D01*
X703Y2D01*
X702Y2D01*
X701Y2D01*
X700Y2D01*
X699Y2D01*
X698Y2D01*
X697Y2D01*
X696Y2D01*
X695Y2D01*
X694Y2D01*
X693Y2D01*
X692Y2D01*
X691Y2D01*
X690Y2D01*
X689Y2D01*
X688Y2D01*
X687Y2D01*
X686Y2D01*
X685Y2D01*
X684Y2D01*
X683Y2D01*
X682Y2D01*
X681Y2D01*
X680Y2D01*
X679Y2D01*
X678Y2D01*
X677Y2D01*
X676Y2D01*
X675Y2D01*
X674Y2D01*
X673Y2D01*
X672Y2D01*
X671Y2D01*
X670Y2D01*
X669Y2D01*
X668Y2D01*
X667Y2D01*
X666Y2D01*
X665Y2D01*
X664Y2D01*
X663Y2D01*
X662Y2D01*
X661Y2D01*
X660Y2D01*
X659Y2D01*
X658Y2D01*
X657Y2D01*
X656Y2D01*
X655Y2D01*
X654Y2D01*
X653Y2D01*
X652Y2D01*
X651Y2D01*
X650Y2D01*
X649Y2D01*
X648Y2D01*
X647Y2D01*
X646Y2D01*
X645Y2D01*
X644Y2D01*
X643Y2D01*
X642Y2D01*
X641Y2D01*
X640Y2D01*
X639Y2D01*
X638Y2D01*
X637Y2D01*
X636Y2D01*
X635Y2D01*
X634Y2D01*
X633Y2D01*
X632Y2D01*
X631Y2D01*
X630Y2D01*
X629Y2D01*
X628Y2D01*
X627Y2D01*
X626Y2D01*
X625Y2D01*
X624Y2D01*
X623Y2D01*
X622Y2D01*
X621Y2D01*
X620Y2D01*
X619Y2D01*
X618Y2D01*
X617Y2D01*
X616Y2D01*
X615Y2D01*
X614Y2D01*
X613Y2D01*
X612Y2D01*
X611Y2D01*
X610Y2D01*
X609Y2D01*
X608Y2D01*
X607Y2D01*
X606Y2D01*
X605Y2D01*
X604Y2D01*
X603Y2D01*
X602Y2D01*
X601Y2D01*
X600Y2D01*
X599Y2D01*
X598Y2D01*
X597Y2D01*
X596Y2D01*
X595Y2D01*
X594Y2D01*
X593Y2D01*
X592Y2D01*
X591Y2D01*
X590Y2D01*
X589Y2D01*
X588Y2D01*
X587Y2D01*
X586Y2D01*
X585Y2D01*
X584Y2D01*
X583Y2D01*
X582Y2D01*
X581Y2D01*
X580Y2D01*
X579Y2D01*
X578Y2D01*
X577Y2D01*
X576Y2D01*
X575Y2D01*
X574Y2D01*
X573Y2D01*
X572Y2D01*
X571Y2D01*
X570Y2D01*
X569Y2D01*
X568Y2D01*
X567Y2D01*
X566Y2D01*
X565Y2D01*
X564Y2D01*
X563Y2D01*
X562Y2D01*
X561Y2D01*
X560Y2D01*
X559Y2D01*
X558Y2D01*
X557Y2D01*
X556Y2D01*
X555Y2D01*
X554Y2D01*
X553Y2D01*
X552Y2D01*
X551Y2D01*
X550Y2D01*
X549Y2D01*
X548Y2D01*
X547Y2D01*
X546Y2D01*
X545Y2D01*
X544Y2D01*
X543Y2D01*
X542Y2D01*
X541Y2D01*
X540Y2D01*
X539Y2D01*
X538Y2D01*
X537Y2D01*
X536Y2D01*
X535Y2D01*
X534Y2D01*
X533Y2D01*
X532Y2D01*
X531Y2D01*
X530Y2D01*
X529Y2D01*
X528Y2D01*
X527Y2D01*
X526Y2D01*
X525Y2D01*
X524Y2D01*
X523Y2D01*
X522Y2D01*
X521Y2D01*
X520Y2D01*
X519Y2D01*
X518Y2D01*
X517Y2D01*
X516Y2D01*
X515Y2D01*
X514Y2D01*
X513Y2D01*
X512Y2D01*
X511Y2D01*
X510Y2D01*
X509Y2D01*
X508Y2D01*
X507Y2D01*
X506Y2D01*
X505Y2D01*
X504Y2D01*
X503Y2D01*
X502Y2D01*
X501Y2D01*
X500Y2D01*
X499Y2D01*
X498Y2D01*
X497Y2D01*
X496Y2D01*
X495Y2D01*
X494Y2D01*
X493Y2D01*
X492Y2D01*
X491Y2D01*
X490Y2D01*
X489Y2D01*
X488Y2D01*
X487Y2D01*
X486Y2D01*
X485Y2D01*
X484Y2D01*
X483Y2D01*
X482Y2D01*
X481Y2D01*
X480Y2D01*
X479Y2D01*
X478Y2D01*
X477Y2D01*
X476Y2D01*
X475Y2D01*
X474Y2D01*
X473Y2D01*
X472Y2D01*
X471Y2D01*
X470Y2D01*
X469Y2D01*
X468Y2D01*
X467Y2D01*
X466Y2D01*
X465Y2D01*
X464Y2D01*
X463Y2D01*
X462Y2D01*
X461Y2D01*
X460Y2D01*
X459Y2D01*
X458Y2D01*
X457Y2D01*
X456Y2D01*
X455Y2D01*
X454Y2D01*
X453Y2D01*
X452Y2D01*
X451Y2D01*
X450Y2D01*
X449Y2D01*
X448Y2D01*
X447Y2D01*
X446Y2D01*
X445Y2D01*
X444Y2D01*
X443Y2D01*
X442Y2D01*
X441Y2D01*
X440Y2D01*
X439Y2D01*
X438Y2D01*
X437Y2D01*
X436Y2D01*
X435Y2D01*
X434Y2D01*
X433Y2D01*
X432Y2D01*
X431Y2D01*
X430Y2D01*
X429Y2D01*
X428Y2D01*
X427Y2D01*
X426Y2D01*
X425Y2D01*
X424Y2D01*
X423Y2D01*
X422Y2D01*
X421Y2D01*
X420Y2D01*
X419Y2D01*
X418Y2D01*
X417Y2D01*
X416Y2D01*
X415Y2D01*
X414Y2D01*
X413Y2D01*
X412Y2D01*
X411Y2D01*
X410Y2D01*
X409Y2D01*
X408Y2D01*
X407Y2D01*
X406Y2D01*
X405Y2D01*
X404Y2D01*
X403Y2D01*
X402Y2D01*
X401Y2D01*
X400Y2D01*
X399Y2D01*
X398Y2D01*
X397Y2D01*
X396Y2D01*
X395Y2D01*
X394Y2D01*
X393Y2D01*
X392Y2D01*
X391Y2D01*
X390Y2D01*
X389Y2D01*
X388Y2D01*
X387Y2D01*
X386Y2D01*
X385Y2D01*
X384Y2D01*
X383Y2D01*
X382Y2D01*
X381Y2D01*
X380Y2D01*
X379Y2D01*
X378Y2D01*
X377Y2D01*
X376Y2D01*
X375Y2D01*
X374Y2D01*
X373Y2D01*
X372Y2D01*
X371Y2D01*
X370Y2D01*
X369Y2D01*
X368Y2D01*
X367Y2D01*
X366Y2D01*
X365Y2D01*
X364Y2D01*
X363Y2D01*
X362Y2D01*
X361Y2D01*
X360Y2D01*
X359Y2D01*
X358Y2D01*
X357Y2D01*
X356Y2D01*
X355Y2D01*
X354Y2D01*
X353Y2D01*
X352Y2D01*
X351Y2D01*
X350Y2D01*
X349Y2D01*
X348Y2D01*
X347Y2D01*
X346Y2D01*
X345Y2D01*
X344Y2D01*
X343Y2D01*
X342Y2D01*
X341Y2D01*
X340Y2D01*
X339Y2D01*
X338Y2D01*
X337Y2D01*
X336Y2D01*
X335Y2D01*
X334Y2D01*
X333Y2D01*
X332Y2D01*
X331Y2D01*
X330Y2D01*
X329Y2D01*
X328Y2D01*
X327Y2D01*
X326Y2D01*
X325Y2D01*
X324Y2D01*
X323Y2D01*
X322Y2D01*
X321Y2D01*
X320Y2D01*
X319Y2D01*
X318Y2D01*
X317Y2D01*
X316Y2D01*
X315Y2D01*
X314Y2D01*
X313Y2D01*
X312Y2D01*
X311Y2D01*
X310Y2D01*
X309Y2D01*
X308Y2D01*
X307Y2D01*
X306Y2D01*
X305Y2D01*
X304Y2D01*
X303Y2D01*
X302Y2D01*
X301Y2D01*
X300Y2D01*
X299Y2D01*
X298Y2D01*
X297Y2D01*
X296Y2D01*
X295Y2D01*
X294Y2D01*
X293Y2D01*
X292Y2D01*
X291Y2D01*
X290Y2D01*
X289Y2D01*
X288Y2D01*
X287Y2D01*
X286Y2D01*
X285Y2D01*
X284Y2D01*
X283Y2D01*
X282Y2D01*
X281Y2D01*
X280Y2D01*
X279Y2D01*
X278Y2D01*
X277Y2D01*
X276Y2D01*
X275Y2D01*
X274Y2D01*
X273Y2D01*
X272Y2D01*
X271Y2D01*
X270Y2D01*
X269Y2D01*
X268Y2D01*
X267Y2D01*
X266Y2D01*
X265Y2D01*
X264Y2D01*
X263Y2D01*
X262Y2D01*
X261Y2D01*
X260Y2D01*
X259Y2D01*
X258Y3D01*
X257Y3D01*
X256Y3D01*
X255Y3D01*
X254Y3D01*
X253Y3D01*
X252Y3D01*
X251Y3D01*
X250Y3D01*
X249Y3D01*
X248Y3D01*
X247Y3D01*
X246Y3D01*
X245Y4D01*
X244Y4D01*
X243Y4D01*
X242Y4D01*
X241Y4D01*
X240Y4D01*
X239Y4D01*
X238Y5D01*
X237Y5D01*
X236Y5D01*
X235Y5D01*
X234Y5D01*
X233Y5D01*
X232Y5D01*
X231Y5D01*
X230Y6D01*
X229Y6D01*
X228Y6D01*
X227Y6D01*
X226Y6D01*
X225Y7D01*
X224Y7D01*
X223Y7D01*
X222Y7D01*
X221Y7D01*
X220Y7D01*
X219Y8D01*
X218Y8D01*
X217Y8D01*
X216Y8D01*
X215Y9D01*
X214Y9D01*
X213Y9D01*
X212Y9D01*
X211Y9D01*
X210Y10D01*
X209Y10D01*
X208Y10D01*
X207Y10D01*
X206Y11D01*
X205Y11D01*
X204Y11D01*
X203Y11D01*
X202Y12D01*
X201Y12D01*
X200Y12D01*
X199Y13D01*
X198Y13D01*
X197Y13D01*
X196Y13D01*
X195Y14D01*
X194Y14D01*
X193Y14D01*
X192Y15D01*
X191Y15D01*
X190Y15D01*
X189Y16D01*
X188Y16D01*
X187Y16D01*
X186Y17D01*
X185Y17D01*
X184Y17D01*
X183Y18D01*
X182Y18D01*
X181Y18D01*
X180Y19D01*
X179Y19D01*
X178Y19D01*
X177Y20D01*
X176Y20D01*
X175Y20D01*
X174Y21D01*
X173Y21D01*
X172Y22D01*
X171Y22D01*
X170Y22D01*
X169Y23D01*
X168Y23D01*
X167Y24D01*
X166Y24D01*
X165Y24D01*
X164Y25D01*
X163Y25D01*
X162Y26D01*
X161Y26D01*
X160Y27D01*
X159Y27D01*
X158Y28D01*
X157Y28D01*
X156Y28D01*
X155Y29D01*
X154Y29D01*
X153Y30D01*
X152Y30D01*
X151Y31D01*
X150Y31D01*
X149Y32D01*
X148Y32D01*
X147Y33D01*
X146Y34D01*
X145Y34D01*
X144Y35D01*
X143Y35D01*
X142Y36D01*
X141Y36D01*
X140Y37D01*
X139Y37D01*
X138Y38D01*
X137Y38D01*
X136Y39D01*
X135Y40D01*
X134Y40D01*
X133Y41D01*
X132Y41D01*
X131Y42D01*
X130Y43D01*
X129Y43D01*
X128Y44D01*
X127Y44D01*
X126Y45D01*
X125Y46D01*
X124Y46D01*
X123Y47D01*
X122Y48D01*
X121Y48D01*
X120Y49D01*
X119Y50D01*
X118Y50D01*
X117Y51D01*
X116Y52D01*
X115Y52D01*
X114Y53D01*
X113Y54D01*
X112Y54D01*
X111Y55D01*
X110Y56D01*
X109Y57D01*
X108Y57D01*
X107Y58D01*
X106Y59D01*
X105Y60D01*
X104Y61D01*
X103Y61D01*
X102Y62D01*
X101Y63D01*
X100Y64D01*
X99Y64D01*
X98Y65D01*
X97Y66D01*
X96Y67D01*
X95Y68D01*
X94Y69D01*
X93Y70D01*
X92Y70D01*
X91Y71D01*
X90Y72D01*
X89Y73D01*
X88Y74D01*
X87Y75D01*
X86Y76D01*
X85Y77D01*
X84Y78D01*
X83Y79D01*
X82Y80D01*
X81Y81D01*
X80Y81D01*
X80Y82D01*
X79Y83D01*
X78Y84D01*
X77Y85D01*
X76Y86D01*
X75Y87D01*
X74Y88D01*
X73Y89D01*
X72Y90D01*
X71Y91D01*
X70Y92D01*
X69Y93D01*
X68Y94D01*
X67Y95D01*
X66Y96D01*
X66Y97D01*
X65Y98D01*
X64Y99D01*
X63Y100D01*
X62Y101D01*
X61Y102D01*
X61Y103D01*
X60Y104D01*
X59Y105D01*
X58Y106D01*
X57Y107D01*
X57Y108D01*
X56Y109D01*
X55Y110D01*
X54Y111D01*
X53Y112D01*
X53Y113D01*
X52Y114D01*
X51Y115D01*
X51Y116D01*
X50Y117D01*
X49Y118D01*
X48Y119D01*
X48Y120D01*
X47Y121D01*
X46Y122D01*
X46Y123D01*
X45Y124D01*
X44Y125D01*
X44Y126D01*
X43Y127D01*
X42Y128D01*
X42Y129D01*
X41Y130D01*
X40Y131D01*
X40Y132D01*
X39Y133D01*
X39Y134D01*
X38Y135D01*
X37Y136D01*
X37Y137D01*
X36Y138D01*
X36Y139D01*
X35Y140D01*
X35Y141D01*
X34Y142D01*
X33Y143D01*
X33Y144D01*
X32Y145D01*
X32Y146D01*
X31Y147D01*
X31Y148D01*
X30Y149D01*
X30Y150D01*
X29Y151D01*
X29Y152D01*
X28Y153D01*
X28Y154D01*
X27Y155D01*
X27Y156D01*
X26Y157D01*
X26Y158D01*
X25Y159D01*
X25Y160D01*
X24Y161D01*
X24Y162D01*
X23Y163D01*
X23Y164D01*
X22Y165D01*
X22Y167D01*
X21Y168D01*
X21Y169D01*
X20Y170D01*
X20Y172D01*
X19Y173D01*
X19Y174D01*
X18Y175D01*
X18Y177D01*
X17Y178D01*
X17Y179D01*
X16Y180D01*
X16Y182D01*
X15Y183D01*
X15Y185D01*
X14Y186D01*
X14Y188D01*
X13Y189D01*
X13Y191D01*
X12Y192D01*
X12Y194D01*
X11Y195D01*
X11Y198D01*
X10Y199D01*
X10Y201D01*
X9Y202D01*
X9Y205D01*
X8Y206D01*
X8Y209D01*
X7Y210D01*
X7Y213D01*
X6Y214D01*
X6Y218D01*
X5Y219D01*
X5Y223D01*
X4Y224D01*
X4Y229D01*
X3Y230D01*
X3Y236D01*
X2Y237D01*
X2Y243D01*
X1Y244D01*
X1Y256D01*
X0Y257D01*
X0Y1005D01*
X1Y1006D01*
X1Y1018D01*
X2Y1019D01*
X2Y1025D01*
X3Y1026D01*
X3Y1032D01*
X4Y1033D01*
X4Y1038D01*
X5Y1039D01*
X5Y1043D01*
X6Y1044D01*
X6Y1048D01*
X7Y1049D01*
X7Y1052D01*
X8Y1053D01*
X8Y1056D01*
X9Y1057D01*
X9Y1060D01*
X10Y1061D01*
X10Y1063D01*
X11Y1064D01*
X11Y1067D01*
X12Y1068D01*
X12Y1070D01*
X13Y1071D01*
X13Y1073D01*
X14Y1074D01*
X14Y1076D01*
X15Y1077D01*
X15Y1079D01*
X16Y1080D01*
X16Y1082D01*
X17Y1083D01*
X17Y1084D01*
X18Y1085D01*
X18Y1087D01*
X19Y1088D01*
X19Y1089D01*
X20Y1090D01*
X20Y1092D01*
X21Y1093D01*
X21Y1094D01*
X22Y1095D01*
X22Y1097D01*
X23Y1098D01*
X23Y1099D01*
X24Y1100D01*
X24Y1101D01*
X25Y1102D01*
X25Y1103D01*
X26Y1104D01*
X26Y1105D01*
X27Y1106D01*
X27Y1107D01*
X28Y1108D01*
X28Y1109D01*
X29Y1110D01*
X29Y1111D01*
X30Y1112D01*
X30Y1113D01*
X31Y1114D01*
X31Y1115D01*
X32Y1116D01*
X32Y1117D01*
X33Y1118D01*
X33Y1119D01*
X34Y1120D01*
X35Y1121D01*
X35Y1122D01*
X36Y1123D01*
X36Y1124D01*
X37Y1125D01*
X37Y1126D01*
X38Y1127D01*
X39Y1128D01*
X39Y1129D01*
X40Y1130D01*
X40Y1131D01*
X41Y1132D01*
X42Y1133D01*
X42Y1134D01*
X43Y1135D01*
X44Y1136D01*
X44Y1137D01*
X45Y1138D01*
X46Y1139D01*
X46Y1140D01*
X47Y1141D01*
X48Y1142D01*
X48Y1143D01*
X49Y1144D01*
X50Y1145D01*
X51Y1146D01*
X51Y1147D01*
X52Y1148D01*
X53Y1149D01*
X53Y1150D01*
X54Y1151D01*
X55Y1152D01*
X56Y1153D01*
X57Y1154D01*
X57Y1155D01*
X58Y1156D01*
X59Y1157D01*
X60Y1158D01*
X61Y1159D01*
X61Y1160D01*
X62Y1161D01*
X63Y1162D01*
X64Y1163D01*
X65Y1164D01*
X66Y1165D01*
X66Y1166D01*
X67Y1167D01*
X68Y1168D01*
X69Y1169D01*
X70Y1170D01*
X71Y1171D01*
X72Y1172D01*
X73Y1173D01*
X74Y1174D01*
X75Y1175D01*
X76Y1176D01*
X77Y1177D01*
X78Y1178D01*
X79Y1179D01*
X80Y1180D01*
X80Y1181D01*
X81Y1181D01*
X82Y1182D01*
X83Y1183D01*
X84Y1184D01*
X85Y1185D01*
X86Y1186D01*
X87Y1187D01*
X88Y1188D01*
X89Y1189D01*
X90Y1190D01*
X91Y1191D01*
X92Y1192D01*
X93Y1192D01*
X94Y1193D01*
X95Y1194D01*
X96Y1195D01*
X97Y1196D01*
X98Y1197D01*
X99Y1198D01*
X100Y1198D01*
X101Y1199D01*
X102Y1200D01*
X103Y1201D01*
X104Y1201D01*
X105Y1202D01*
X106Y1203D01*
X107Y1204D01*
X108Y1205D01*
X109Y1205D01*
X110Y1206D01*
X111Y1207D01*
X112Y1208D01*
X113Y1208D01*
X114Y1209D01*
X115Y1210D01*
X116Y1210D01*
X117Y1211D01*
X118Y1212D01*
X119Y1212D01*
X120Y1213D01*
X121Y1214D01*
X122Y1214D01*
X123Y1215D01*
X124Y1216D01*
X125Y1216D01*
X126Y1217D01*
X127Y1218D01*
X128Y1218D01*
X129Y1219D01*
X130Y1219D01*
X131Y1220D01*
X132Y1221D01*
X133Y1221D01*
X134Y1222D01*
X135Y1222D01*
X136Y1223D01*
X137Y1224D01*
X138Y1224D01*
X139Y1225D01*
X140Y1225D01*
X141Y1226D01*
X142Y1226D01*
X143Y1227D01*
X144Y1227D01*
X145Y1228D01*
X146Y1228D01*
X147Y1229D01*
X148Y1230D01*
X149Y1230D01*
X150Y1231D01*
X151Y1231D01*
X152Y1232D01*
X153Y1232D01*
X154Y1233D01*
X155Y1233D01*
X156Y1234D01*
X157Y1234D01*
X158Y1234D01*
X159Y1235D01*
X160Y1235D01*
X161Y1236D01*
X162Y1236D01*
X163Y1237D01*
X164Y1237D01*
X165Y1238D01*
X166Y1238D01*
X167Y1238D01*
X168Y1239D01*
X169Y1239D01*
X170Y1240D01*
X171Y1240D01*
X172Y1240D01*
X173Y1241D01*
X174Y1241D01*
X175Y1242D01*
X176Y1242D01*
X177Y1242D01*
X178Y1243D01*
X179Y1243D01*
X180Y1243D01*
X181Y1244D01*
X182Y1244D01*
X183Y1244D01*
X184Y1245D01*
X185Y1245D01*
X186Y1245D01*
X187Y1246D01*
X188Y1246D01*
X189Y1246D01*
X190Y1247D01*
X191Y1247D01*
X192Y1247D01*
X193Y1248D01*
X194Y1248D01*
X195Y1248D01*
X196Y1249D01*
X197Y1249D01*
X198Y1249D01*
X199Y1249D01*
X200Y1250D01*
X201Y1250D01*
X202Y1250D01*
X203Y1251D01*
X204Y1251D01*
X205Y1251D01*
X206Y1251D01*
X207Y1252D01*
X208Y1252D01*
X209Y1252D01*
X210Y1252D01*
X211Y1253D01*
X212Y1253D01*
X213Y1253D01*
X214Y1253D01*
X215Y1253D01*
X216Y1254D01*
X217Y1254D01*
X218Y1254D01*
X219Y1254D01*
X220Y1255D01*
X221Y1255D01*
X222Y1255D01*
X223Y1255D01*
X224Y1255D01*
X225Y1255D01*
X226Y1256D01*
X227Y1256D01*
X228Y1256D01*
X229Y1256D01*
X230Y1256D01*
X231Y1257D01*
X232Y1257D01*
X233Y1257D01*
X234Y1257D01*
X235Y1257D01*
X236Y1257D01*
X237Y1257D01*
X238Y1258D01*
X239Y1258D01*
X240Y1258D01*
X241Y1258D01*
X242Y1258D01*
X243Y1258D01*
X244Y1258D01*
X245Y1258D01*
X246Y1259D01*
X247Y1259D01*
X248Y1259D01*
X249Y1259D01*
X250Y1259D01*
X251Y1259D01*
X252Y1259D01*
X253Y1259D01*
X254Y1259D01*
X255Y1259D01*
X256Y1259D01*
X257Y1259D01*
X258Y1259D01*
X259Y1260D01*
D02*
G04 End of contour*
M02*